<?xml version="1.0" encoding="UTF-8"?>
<svg width="164px" height="146px" viewBox="0 0 164 146" version="1.1" xmlns="http://www.w3.org/2000/svg" xmlns:xlink="http://www.w3.org/1999/xlink">
    <title>Illustration / Aaron</title>
    <defs>
        <polygon id="path-1" points="8.29774092e-05 0.562479966 163.972726 0.562479966 163.972726 58.3999965 8.29774092e-05 58.3999965"></polygon>
    </defs>
    <g id="Illustration-/-Aaron" stroke="none" stroke-width="1" fill="none" fill-rule="evenodd">
        <g id="Aaron">
            <g id="Group-3" transform="translate(0.000000, 86.239995)">
                <mask id="mask-2" fill="white">
                    <use xlink:href="#path-1"></use>
                </mask>
                <g id="Clip-2"></g>
                <path d="M58.3851965,0.562479966 C40.3307976,16.665679 -2.55399985,21.9560787 0.119599993,50.465677 C0.913199946,58.9352765 82.5867951,55.9480767 92.5851945,56.56248 C101.497994,57.1568766 168.59639,64.1032762 163.71959,46.4144772 C156.011591,18.4640789 127.003592,24.7288785 109.385193,4.76247972" id="Fill-1" fill="#271F23" mask="url(#mask-2)"></path>
            </g>
            <path d="M61.9851963,83.602475 C50.185197,80.8024752 58.1851965,123.602473 59.1851965,128.402472 C60.3851964,134.202472 61.3851963,143.002471 68.3851959,143.402471 C74.3851956,144.002471 80.9851952,143.602471 87.1851948,143.802471 C92.1851945,144.002471 97.1851942,143.402471 101.985194,143.802471 C107.185194,144.202471 114.785193,143.002471 117.185193,136.602472 C118.985193,131.802472 118.585193,127.002472 117.585193,122.002473 C116.385193,115.802473 115.985193,109.602473 114.785193,103.402474 C113.985193,99.0024741 114.185193,87.8024748 108.585194,86.6024748" id="Fill-4" fill="#FFFFFF"></path>
            <path d="M63.0523962,68.3860759 C61.2291964,70.2860758 58.7443965,69.1220759 58.4771965,68.9652759 C56.9427966,68.0580759 57.1851966,66.290076 56.3523966,64.9028761 C54.9475967,62.5596763 53.5555968,60.7228764 53.1523968,57.9028765 C52.7227969,54.8892767 51.7355969,51.3932769 51.8523969,48.3364771 C51.9603969,45.5364773 56.8739966,45.5980773 56.4523966,47.7028772 L59.6851964,51.7036769" id="Fill-6" fill="#BCD4F9"></path>
            <path d="M60.5023964,69.8603158 C59.5119965,69.8603158 58.6551965,69.5339159 58.2743965,69.3099159 C57.1687966,68.6563159 56.8767966,67.632316 56.5935966,66.641916 C56.4375966,66.0939161 56.2895966,65.5755161 56.0095967,65.1083161 C55.7871967,64.7387161 55.5663967,64.3819162 55.3495967,64.0323162 C54.1959968,62.1723163 53.1071968,60.4155164 52.7559969,57.9595165 C52.6223969,57.0243166 52.4383969,56.0571167 52.2423969,55.0323167 C51.8135969,52.7875169 51.3703969,50.465917 51.4519969,48.3211171 C51.4903969,47.3347172 52.0383969,46.5483172 52.9943968,46.1075173 C54.0999968,45.5987173 55.5191967,45.6787173 56.2959966,46.2931172 C56.7151966,46.6235172 56.9151966,47.0771172 56.8719966,47.5859172 L59.9959964,51.4523169 C60.1351964,51.6243169 60.1079964,51.8763169 59.9367964,52.0155169 C59.7639964,52.1547169 59.5127965,52.1275169 59.3735965,51.9555169 L56.1407967,47.9539171 C56.0663967,47.8611171 56.0367967,47.7403172 56.0599967,47.6243172 C56.1183967,47.3339172 56.0327967,47.1043172 55.8007967,46.9203172 C55.2599967,46.4939172 54.1519968,46.4539172 53.3295968,46.8339172 C52.8559968,47.0523172 52.2855969,47.4931172 52.2519969,48.3515171 C52.1735969,50.405917 52.6079969,52.6811169 53.0279968,54.8819167 C53.2255968,55.9163167 53.4127968,56.8931166 53.5487968,57.8459166 C53.8759968,60.1363164 54.8735967,61.7467163 56.0295967,63.6107162 C56.2487966,63.9635162 56.4719966,64.3243162 56.6951966,64.6963161 C57.0295966,65.2539161 57.1991966,65.8483161 57.3631966,66.422716 C57.6239966,67.338716 57.8503966,68.1299159 58.6807965,68.6203159 C58.7031965,68.6331159 61.0519964,69.8931158 62.7631963,68.1091159 C62.9167962,67.9491159 63.1703962,67.944316 63.3287962,68.0971159 C63.4879962,68.2507159 63.4935962,68.5035159 63.3407962,68.6627159 C62.4639963,69.5771159 61.4247963,69.8603158 60.5023964,69.8603158" id="Fill-8" fill="#7EA3FF"></path>
            <path d="M55.8883167,59.5091165 C55.7859167,59.5091165 55.6835167,59.4699165 55.6051167,59.3923165 C53.9091168,57.6955166 53.6163168,53.5051168 53.5891168,53.0323168 L53.5859168,52.6467169 C53.5755168,51.6763169 53.5659168,50.673117 54.2723168,49.763517 C54.5051168,49.4531171 54.7995167,49.1259171 55.1787167,49.0971171 C55.5539167,49.0811171 55.7979167,49.3155171 56.0595167,49.575517 C56.2875166,49.801117 56.5459166,50.057117 56.9555166,50.245917 C57.1563166,50.338717 57.2435166,50.576317 57.1515166,50.776317 C57.0595166,50.977117 56.8227166,51.065917 56.6203166,50.972317 C56.0827167,50.724317 55.7435167,50.388317 55.4971167,50.142717 C55.4011167,50.048317 55.2715167,49.919517 55.2147167,49.894717 C55.2227167,49.905917 55.1227167,49.963517 54.9075167,50.249117 C54.3683168,50.943517 54.3763168,51.7291169 54.3859168,52.6387169 L54.3883168,53.0091168 C54.4811168,54.5867167 54.9635167,57.6187166 56.1715167,58.8259165 C56.3275166,58.9827165 56.3275166,59.2355165 56.1715167,59.3923165 C56.0931167,59.4699165 55.9907167,59.5091165 55.8883167,59.5091165" id="Fill-10" fill="#7EA3FF"></path>
            <path d="M59.1883165,60.0091164 C59.0659165,60.0091164 58.9435165,59.9523164 58.8659165,59.8459164 C58.0683165,58.7587165 58.0755165,57.5555166 58.0835165,56.3915166 C58.0883165,55.7947167 58.0915165,55.2315167 57.9947165,54.6787167 C57.9555165,54.4611168 58.1011165,54.2539168 58.3187165,54.2155168 C58.5339165,54.1739168 58.7435165,54.3219168 58.7819165,54.5395167 C58.8923165,55.1643167 58.8883165,55.7907167 58.8835165,56.3971166 C58.8763165,57.4779166 58.8699165,58.4987165 59.5107165,59.3723165 C59.6411164,59.5507165 59.6035164,59.8011164 59.4251165,59.9315164 C59.3531165,59.9843164 59.2707165,60.0091164 59.1883165,60.0091164" id="Fill-12" fill="#7EA3FF"></path>
            <path d="M112.385193,69.5360759 C112.697993,71.2432758 115.666793,69.9976758 116.760393,66.2024761 C117.116393,64.9672761 118.214793,63.1088762 118.727593,62.0296763 C119.399593,60.6184764 119.806793,59.0776765 120.124393,57.5312766 C120.801193,54.2176768 120.785193,51.4880769 120.493193,48.1440771 C120.360393,46.6424772 117.670793,43.8080774 116.637993,46.0696773 L113.024393,49.669677" id="Fill-14" fill="#BCD4F9"></path>
            <path d="M113.240633,70.6864758 C113.215033,70.6864758 113.188633,70.6856758 113.162233,70.6848758 C112.547033,70.6536758 112.109433,70.2512758 111.991033,69.6080759 C111.951833,69.3904759 112.095033,69.1824759 112.313433,69.1424759 C112.531833,69.1000759 112.739033,69.2472759 112.778233,69.4640759 C112.843833,69.8216758 113.039833,69.8768758 113.202233,69.8856758 C113.215833,69.8864758 113.227833,69.8864758 113.241433,69.8864758 C114.090233,69.8864758 115.663033,68.5616759 116.375833,66.0912761 C116.636633,65.1864761 117.250233,64.0168762 117.791033,62.9840762 C118.011033,62.5648763 118.214233,62.1768763 118.365433,61.8584763 C118.927033,60.6776764 119.349433,59.3192765 119.731833,57.4504766 C120.415833,54.1024768 120.377433,51.4208769 120.094233,48.1792771 C120.018233,47.3128772 118.820633,45.7992773 117.886233,45.6384773 C117.643833,45.5968773 117.287033,45.6128773 117.001433,46.2352772 C116.982233,46.2792772 116.955033,46.3192772 116.920633,46.3528772 L113.306233,49.952877 C113.149433,50.108877 112.895833,50.107277 112.740633,49.952077 C112.584633,49.795277 112.585433,49.541677 112.741433,49.3864771 L116.306233,45.8352773 C116.806233,44.8104773 117.590233,44.7776773 118.022233,44.8504773 C119.347033,45.0776773 120.785433,46.9088772 120.891033,48.1088771 C121.172633,51.3304769 121.216633,54.1792768 120.515833,57.6112766 C120.119833,59.5456765 119.679033,60.9608764 119.088633,62.2016763 C118.933433,62.5280763 118.724633,62.9256762 118.499833,63.3552762 C118.002233,64.3048762 117.383033,65.4864761 117.144633,66.313676 C116.347833,69.0776759 114.554233,70.6864758 113.240633,70.6864758" id="Fill-16" fill="#7EA3FF"></path>
            <path d="M117.272713,58.7524765 C117.247113,58.7524765 117.220713,58.7500765 117.193513,58.7444765 C116.977513,58.7012765 116.836713,58.4908765 116.880713,58.2740765 C116.980713,57.7740766 117.207913,57.3116766 117.427113,56.8636766 C117.683913,56.3420766 117.925513,55.8492767 117.974313,55.3164767 C118.122313,54.7060767 118.103113,54.0780768 118.085513,53.4700768 C118.079113,53.2604768 118.072713,53.0532768 118.072713,52.8524768 C117.974313,51.086077 117.865513,49.1292771 116.510313,47.9548771 C116.343913,47.8100772 116.325513,47.5572772 116.470313,47.3900772 C116.615913,47.2236772 116.867113,47.2060772 117.034313,47.3500772 C118.645513,48.7460771 118.768713,50.976477 118.868713,52.7692769 C118.868713,52.7756769 118.872713,52.8452769 118.872713,52.8524768 C118.872713,53.0452768 118.878313,53.2444768 118.884713,53.4468768 C118.903913,54.1084768 118.924713,54.7924767 118.759913,55.4492767 C118.708713,56.0692767 118.422313,56.6524766 118.145513,57.2164766 C117.939113,57.6364766 117.744713,58.0340765 117.664713,58.4308765 C117.626313,58.6212765 117.459113,58.7524765 117.272713,58.7524765" id="Fill-18" fill="#7EA3FF"></path>
            <path d="M114.073433,63.1251162 C113.923833,63.1251162 113.779033,63.1203162 113.642233,63.1163162 C113.519033,63.1123162 113.399833,63.1091162 113.288633,63.1091162 C113.067033,63.1091162 112.888633,62.9299162 112.888633,62.7091163 C112.888633,62.4883163 113.067033,62.3091163 113.288633,62.3091163 C113.407833,62.3091163 113.534233,62.3131163 113.666233,62.3171163 C114.156633,62.3315163 114.715033,62.3491163 115.109433,62.1515163 C115.307033,62.0523163 115.547033,62.1323163 115.646233,62.3299163 C115.744633,62.5275163 115.664633,62.7683163 115.467033,62.8667163 C115.033433,63.0835162 114.531833,63.1251162 114.073433,63.1251162" id="Fill-20" fill="#7EA3FF"></path>
            <path d="M61.8242363,67.723196 L61.8242363,86.0695949 C61.8242363,86.0695949 61.8522363,90.4687946 58.6522365,92.3359945 C58.6522365,92.3359945 60.1850364,124.002393 87.3850348,124.002393 L91.9490345,124.002393 C91.9490345,124.002393 109.985033,121.524793 109.985033,97.4023942 L109.985033,78.7135953 L88.4074347,91.1023946 L61.8242363,67.723196 Z" id="Fill-22" fill="#BCD4F9"></path>
            <path d="M114.052393,55.0024767 C114.052393,55.1360767 114.185193,55.2688767 114.185193,55.4024767 C114.719593,55.0024767 115.119593,54.20248 115.385193,53.6688768 C115.785193,52.8688768 116.585193,52.20248 117.252393,51.5360769 C117.519593,51.2688769 117.785193,50.868877 118.052393,50.602477 C118.319593,50.336077 118.585193,50.20248 118.852393,49.936077 C119.119593,49.668877 119.252393,49.1360771 119.385193,48.7360771 C119.652393,47.6688772 119.785193,46.6024772 119.785193,45.4024773 C119.785193,44.8688773 119.919593,44.3360774 120.052393,43.9360774 L120.052393,41.9360775 C120.052393,40.20248 119.785193,38.6024777 119.519593,37.0024778 C119.252393,35.8024779 118.985193,34.4688779 118.585193,33.268878 C118.185193,32.3360781 117.919593,31.4024781 117.652393,30.4688782 C117.519593,29.5360782 117.652393,28.6024783 117.785193,27.6688784 C117.785193,26.7360784 117.652393,25.9360785 117.519593,25.0024785 C117.385193,23.6688786 117.252393,22.3360787 116.852393,21.0024787 C116.585193,20.0688788 116.185193,19.4024788 115.785193,18.6024789 C115.519593,17.9360789 115.119593,17.536079 114.719593,16.868879 C114.452393,16.336079 113.919593,15.9360791 113.519593,15.5360791 C113.252393,15.0024791 112.985193,14.4688791 112.585193,14.0688792 C112.319593,13.8024792 111.919593,13.6688792 111.652393,13.4024792 C111.385193,13.1360792 111.252393,12.8688792 110.985193,12.4688793 C110.585193,11.8024793 110.319593,10.7360794 109.652393,10.20248 C109.252393,9.80247942 108.852394,9.66887942 108.585194,9.40247944 C108.319594,9.13607946 108.052394,8.86887947 107.785194,8.4688795 C107.119594,7.53607955 106.052394,7.00247958 105.119594,6.20247999 C104.719594,5.93607965 104.185194,5.80247965 103.785194,5.66887966 C103.385194,5.53607967 103.119594,5.26887969 102.719594,5.13607969 C102.185194,4.73607972 101.519594,4.60247973 100.985194,4.33607974 C100.319594,4.06887976 99.919594,3.93607977 99.3851941,3.4024798 C98.8523941,3.00247982 98.1851941,2.86887983 97.5195942,2.46887985 C97.2523942,2.33607986 96.9851942,2.06887988 96.7195942,1.93607988 C96.4523943,1.6688799 96.0523943,1.6688799 95.7851943,1.53607991 C95.1195943,1.26887992 94.5851944,1.00247994 93.9195944,0.736079956 C93.2523944,0.468879972 92.5851945,0.736079956 91.9195945,0.736079956 C91.1195946,0.868879948 90.3195946,1.00247994 89.5195947,1.26887992 C88.5851947,1.40247992 87.1195948,1.40247992 86.3195949,1.00247994 C85.7851949,0.736079956 85.5195949,0.602479964 85.1195949,0.468879972 C84.585195,0.468879972 84.319595,0.202479988 83.785195,0.202479988 C82.9851951,0.33607998 82.3195951,0.736079956 81.5195951,0.736079956 C80.7195952,0.868879948 79.9195952,1.40247992 79.1195953,1.40247992 C78.0523953,1.53607991 76.9851954,1.26887992 76.0523955,1.40247992 C75.1195955,1.53607991 74.3195956,2.20247999 73.3851956,2.60247984 C72.8523957,2.86887983 72.4523957,3.00247982 72.0523957,3.53607979 C70.7195958,4.73607972 68.9851959,5.53607967 67.519596,6.7360796 C65.9195961,8.20247999 64.3195962,9.80247942 62.9851962,11.6688793 C62.0523963,12.7360792 61.2523963,13.9360792 60.3195964,15.1360791 C59.7851964,15.6688791 59.2523965,16.20248 58.8523965,16.736079 C58.4523965,17.268879 57.7851966,17.6688789 57.3851966,18.0688789 C56.5851966,19.0024789 55.6523967,20.0688788 55.6523967,21.4024787 C55.6523967,22.20248 56.0523967,23.0024786 55.7851967,23.8024786 C55.5195967,25.1360785 54.9851967,26.4688784 54.7195967,27.8024783 C54.5851967,28.4688783 54.5851967,29.2688783 54.5851967,29.9360782 C54.7195967,30.4688782 54.9851967,30.8688782 54.8523967,31.2688781 C54.5851967,31.9360781 54.1851968,32.3360781 54.0523968,33.002478 L54.0523968,34.4688779 C54.0523968,35.2688779 53.9195968,36.0688779 53.9195968,36.8688778 C53.9195968,37.5360778 53.7851968,37.9360777 53.9195968,38.6024777 C53.9195968,39.0024777 54.0523968,39.4024777 54.0523968,39.8024776 C54.3195968,40.4688776 54.0523968,41.0024776 53.9195968,41.6688775 C53.7163968,43.0856774 53.0131968,46.0448773 53.7083968,47.3960772 C54.2835968,48.5144771 55.5619967,49.746477 56.2475966,50.966477 C57.3323966,52.8904768 59.4899965,57.1328766 59.3179965,57.1360766 L60.5523964,57.8176766 L63.8523962,33.802478 C63.8523962,33.802478 69.6195959,25.1360785 70.2019958,25.0024785 C70.7851958,24.8688785 86.2755949,20.4688788 86.7307948,20.6024788 C87.1851948,20.7360788 100.963594,23.2688786 100.963594,23.2688786 L108.385194,29.2688783 L111.317993,39.5360776 L112.385193,46.1736772 L114.052393,55.0024767 Z" id="Fill-24" fill="#271F23"></path>
            <path d="M61.0820764,65.7954361 C61.0820764,65.7954361 60.1852764,78.2906353 68.1852759,87.0906348 C76.8148754,96.5834342 79.9852752,96.425997 88.0852747,96.425997 C96.1852743,96.425997 101.585274,94.7906344 106.285276,88.4906347 C106.285276,88.4906347 114.485273,79.6906353 114.485273,66.1906361 L114.485273,50.8906389 L114.485273,45.6906373 C114.485273,45.6906373 114.485273,41.1906375 112.885273,36.9906378 C111.285276,32.790638 112.285276,30.6906382 110.885273,27.8906389 C109.485273,25.0906385 103.962074,18.8906389 91.5852745,18.8906389 L83.885275,18.8906389 C83.885275,18.8906389 67.385276,19.2906389 63.8852762,27.4906384 C60.3852764,35.6906379 60.2852764,39.9954376 60.2852764,43.9954374 L60.2852764,57.2906366 C60.2852764,62.1906363 61.0820764,63.8074362 61.0820764,65.7954361" id="Fill-26" fill="#E3ECF8"></path>
            <path d="M99.988314,69.9157558 C99.8131141,69.8573558 99.991514,69.9773558 100.040314,70.0965558 C100.222714,70.5405558 100.305114,71.0277558 100.380314,71.4989557 C100.507514,72.2949557 100.486714,73.1317556 100.486714,73.9357556 C100.487514,75.8701555 103.487514,75.8701555 103.486714,73.9357556 C103.485914,71.5805557 103.493914,67.929356 100.785114,67.022956 C98.9451141,66.406956 98.1635141,69.3045559 99.988314,69.9157558" id="Fill-28" fill="#BCD4F9"></path>
            <path d="M78.4499953,63.2036762 C77.9995954,65.4884761 75.7691955,66.870876 74.5443956,68.7428759 C73.2795956,70.6772758 72.4499957,72.7300757 72.0499957,75.0036755 C71.7163957,76.8948754 74.6067956,77.7036754 74.9419955,75.8012755 C75.3883955,73.2692756 76.3867954,70.8700758 78.1723953,68.9764759 C79.5555953,67.511676 80.9411952,66.0372761 81.3419952,64.0012762 C81.7147951,62.1116763 78.8235953,61.3060763 78.4499953,63.2036762" id="Fill-30" fill="#BCD4F9"></path>
            <path d="M88.6304747,81.0532752 C88.1952747,81.0532752 87.7552748,81.0260752 87.3136748,80.9460752 C87.0960748,80.9060752 86.9512748,80.6980752 86.9912748,80.4812752 C87.0312748,80.2636752 87.2392748,80.1188752 87.4560748,80.1588752 C88.2632747,80.3052752 89.0704747,80.2524752 89.9256746,80.1964752 C90.1728746,80.1804752 90.4192746,80.1644752 90.6672746,80.1532752 C90.8712746,80.1340752 91.0744746,80.3132752 91.0840746,80.5348752 C91.0944746,80.7548752 90.9232746,80.9420752 90.7032746,80.9524752 C90.4616746,80.9628752 90.2192746,80.9788752 89.9784746,80.9948752 C89.5352747,81.0236752 89.0848747,81.0532752 88.6304747,81.0532752" id="Fill-32" fill="#71748D"></path>
            <path d="M95.6163943,47.6024772 C93.5067944,47.6512772 90.7531946,48.6912771 90.8427946,51.2184769 C90.9011946,52.8712768 92.1667945,54.2736768 93.8523944,54.3024768 C95.7883943,54.3352768 95.7851943,51.3352769 93.8523944,51.3024769 C93.7347944,51.3008769 93.5515944,51.2672769 94.0811944,51.3400769 C93.9747944,51.3248769 93.8723944,51.2944769 93.7707944,51.2608769 C94.2227944,51.4080769 93.6027944,51.055277 93.8755944,51.3024769 C93.9843944,51.4008769 93.8923944,51.3544769 93.8467944,51.1976769 C93.7827944,50.973677 93.8939944,50.972077 93.7867944,51.1904769 C93.7467944,51.2720769 93.9003944,51.066477 93.9875944,51.008877 C94.4651944,50.692077 95.0563943,50.615277 95.6163943,50.602477 C97.5475942,50.557677 97.5523942,47.5576772 95.6163943,47.6024772" id="Fill-34" fill="#BCD4F9"></path>
            <path d="M94.7867144,51.069277 L93.4523144,51.069277 C93.4523144,51.069277 94.0523144,50.169277 96.0523143,49.3028771 C96.0523143,49.3028771 96.5243142,49.0068771 97.7603142,48.9028771 L99.4355141,48.9028771 C101.413114,48.9028771 103.652314,49.669277 105.252314,51.069277 L106.021114,51.7036769" id="Fill-36" fill="#E3ECF8"></path>
            <path d="M69.5304759,52.6024769 L67.122476,52.6024769 C66.901676,52.6024769 66.722476,52.4232769 66.722476,52.2024769 C66.722476,51.9816769 66.901676,51.8024769 67.122476,51.8024769 L69.5304759,51.8024769 C69.7512758,51.8024769 69.9304758,51.9816769 69.9304758,52.2024769 C69.9304758,52.4232769 69.7512758,52.6024769 69.5304759,52.6024769" id="Fill-38" fill="#7EA3FF"></path>
            <path d="M107.680474,52.3692769 L105.272474,52.3692769 C105.051674,52.3692769 104.872474,52.1900769 104.872474,51.9692769 C104.872474,51.7484769 105.051674,51.5692769 105.272474,51.5692769 L107.680474,51.5692769 C107.901274,51.5692769 108.080474,51.7484769 108.080474,51.9692769 C108.080474,52.1900769 107.901274,52.3692769 107.680474,52.3692769" id="Fill-40" fill="#7EA3FF"></path>
            <path d="M79.5601553,51.154077 C80.1769552,51.160477 80.7585552,51.2044769 81.3537552,51.3684769 C81.5393551,51.4428769 81.5889551,51.4564769 81.5057551,51.4092769 C81.5273551,51.4188769 81.9169551,51.6948769 81.7145551,51.5172769 C81.6625551,51.4540769 81.6273551,51.3828769 81.6097551,51.3028769 C81.4857551,50.971677 81.5545551,51.4612769 81.5881551,51.2892769 C81.5321551,51.4692769 81.5297551,51.4868769 81.5825551,51.3420769 C81.4129551,51.6884769 81.7553551,51.1892769 81.5017551,51.4388769 C81.6521551,51.3308769 81.6593551,51.3212769 81.5233551,51.4116769 C81.2113552,51.6084769 81.8169551,51.3180769 81.4961551,51.4356769 C81.3649552,51.4828769 81.2265552,51.5108769 81.0889552,51.5340769 C81.6041551,51.4476769 81.3977551,51.4988769 81.2729552,51.5028769 C79.3433553,51.5620769 79.3369553,54.5620767 81.2729552,54.5028768 C82.7913551,54.4556768 84.209755,53.4628768 84.512155,51.9260769 C85.1033549,48.9332771 81.8481551,48.1780771 79.5601553,48.1540771 C77.6249554,48.1332771 77.6265554,51.133277 79.5601553,51.154077" id="Fill-42" fill="#BCD4F9"></path>
            <path d="M79.9851952,51.4524769 L81.8355951,51.4524769 C81.8355951,51.4524769 78.9427953,49.1020771 77.6427954,49.1020771 L74.9355955,49.1020771 C74.9355955,49.1020771 72.1347957,49.0164771 70.4851958,50.458077 L68.5851959,52.2020769" id="Fill-44" fill="#E3ECF8"></path>
            <path d="M106.020314,52.1040769 C105.931514,52.1040769 105.840314,52.0736769 105.766714,52.0128769 L104.997914,51.3776769 C103.531514,50.094477 101.403514,49.3024771 99.4355141,49.3024771 L97.7603142,49.3024771 C96.7003142,49.3936771 96.2635143,49.642477 96.2595143,49.644877 C95.8451143,49.824877 95.4947143,50.004877 95.1995143,50.176077 L95.1867143,51.074477 C95.1835143,51.2936769 95.0051143,51.4696769 94.7867144,51.4696769 L93.4523144,51.4696769 C93.3043144,51.4696769 93.1691144,51.3880769 93.0995145,51.2576769 C93.0299145,51.128077 93.0371145,50.970477 93.1195144,50.847277 C93.1395144,50.816877 93.5147144,50.268877 94.5715144,49.616877 C94.5859144,49.607277 94.6011144,49.598477 94.6155144,49.590477 C94.9659143,49.3776771 95.3875143,49.1544771 95.8931143,48.9352771 C95.8971143,48.9280771 96.4315143,48.6136771 97.7267142,48.5040771 L99.4355141,48.5024771 C101.588314,48.5024771 103.917914,49.3704771 105.515514,50.768077 L106.275514,51.3952769 C106.445914,51.5360769 106.469914,51.7880769 106.329914,51.9584769 C106.249914,52.0544769 106.136314,52.1040769 106.020314,52.1040769" id="Fill-46" fill="#271F23"></path>
            <path d="M104.985194,51.4692769 L103.052394,51.4692769 C102.831594,51.4692769 102.652394,51.2900769 102.652394,51.069277 C102.652394,50.848477 102.831594,50.669277 103.052394,50.669277 L104.985194,50.669277 C105.205994,50.669277 105.385194,50.848477 105.385194,51.069277 C105.385194,51.2900769 105.205994,51.4692769 104.985194,51.4692769" id="Fill-48" fill="#271F23"></path>
            <path d="M68.5851959,52.6024769 C68.4763959,52.6024769 68.3691959,52.5584769 68.2907959,52.4728769 C68.1403959,52.3104769 68.1515959,52.0568769 68.3147959,51.9080769 L70.2147958,50.164077 C71.9691957,48.6296771 74.8235955,48.7040771 74.9475955,48.7024771 L77.6427954,48.7024771 C79.0443953,48.7024771 81.7795951,50.892077 82.0875951,51.141677 C82.2187951,51.2488769 82.2683951,51.4264769 82.2115951,51.5864769 C82.1555951,51.7456769 82.0035951,51.8528769 81.8347951,51.8528769 L79.9851952,51.8528769 C79.7643952,51.8528769 79.5851953,51.6736769 79.5851953,51.4528769 L79.5851953,50.548077 C79.5851953,50.484077 79.6003953,50.422477 79.6275953,50.368077 C78.8459953,49.881677 78.0835953,49.502477 77.6427954,49.502477 L74.9347955,49.502477 C74.8931955,49.501677 72.2571957,49.4408771 70.7483958,50.759277 L68.8555959,52.4968769 C68.7787959,52.5680769 68.6819959,52.6024769 68.5851959,52.6024769" id="Fill-50" fill="#271F23"></path>
            <path d="M83.385195,76.5024754 L77.4115954,76.5024754 C76.0475955,76.5024754 75.6035955,75.6752755 75.5859955,75.6400755 C75.5091955,75.4936755 75.5675955,75.3120755 75.7139955,75.2360755 C75.8603955,75.1600755 76.0387955,75.2168755 76.1163955,75.3608755 C76.1331955,75.3896755 76.4371954,75.9024755 77.4115954,75.9024755 L88.5347947,75.9024755 C88.5803947,75.9008755 94.1323944,75.7016755 95.6051943,75.5536755 C97.2827942,75.3856755 100.299594,74.5592756 100.707594,73.8952756 C100.794794,73.7544756 100.977994,73.7104756 101.120394,73.7968756 C101.261994,73.8840756 101.305194,74.0688756 101.218794,74.2096756 C100.579594,75.2472755 96.9867942,76.0192755 95.6651943,76.1512755 C94.1723944,76.3000755 88.7747947,76.4944754 88.5451947,76.5024754 L83.385195,76.5024754 Z" id="Fill-52" fill="#7EA3FF"></path>
            <path d="M85.7179949,68.1231959 C85.5875949,68.1231959 85.4595949,68.0591959 85.3827949,67.941596 C85.1155949,67.532796 83.770795,67.077596 83.247595,66.963196 C83.149995,66.999996 83.0403951,66.996796 82.9379951,66.947196 C82.7883951,66.871996 82.6411951,66.666396 82.6619951,66.499196 C82.6811951,66.331996 82.8139951,66.1871961 82.9779951,66.1487961 C83.309195,66.0623961 85.5235949,66.692796 86.0531949,67.504796 C86.1731949,67.689596 86.1211949,67.937596 85.9355949,68.0583959 C85.8683949,68.1023959 85.7931949,68.1231959 85.7179949,68.1231959" id="Fill-54" fill="#71748D"></path>
            <path d="M90.9835946,68.3423159 C90.8251946,68.3423159 90.6747946,68.2471159 90.6123946,68.0911159 C90.5299946,67.886316 90.6299946,67.653516 90.8339946,67.571116 C90.8699946,67.556716 90.9347946,67.501516 90.9931946,67.453516 C91.0723946,67.386316 91.1547946,67.319916 91.2419946,67.266316 C91.7107945,66.942316 92.2747945,66.635116 92.7675945,66.437516 C92.9699945,66.356716 93.2051944,66.455116 93.2875944,66.660716 C93.3691944,66.865516 93.2691944,67.098316 93.0651945,67.180716 C92.6251945,67.356716 92.1187945,67.632716 91.6763945,67.938316 C91.6027945,67.9831159 91.5563945,68.0255159 91.5083945,68.0655159 C91.4043946,68.1527159 91.2875946,68.2511159 91.1323946,68.3135159 C91.0835946,68.3335159 91.0331946,68.3423159 90.9835946,68.3423159" id="Fill-56" fill="#71748D"></path>
            <path d="M77.4117554,44.2692774 L74.2661556,44.2692774 C72.1349557,44.2692774 68.7773559,45.2492773 67.910156,46.7828772 C67.910156,46.7828772 67.377356,47.4164772 68.4445559,46.8828772 C69.4445559,46.4164772 70.2525558,46.3356772 71.3853557,46.2028772 C73.5789556,45.9444773 75.7853555,46.0028773 77.9853554,45.9356773 L80.7853552,45.9356773 C81.5853551,45.9356773 81.5853551,45.6100773 80.9853552,45.1356773 C80.9853552,45.1356773 78.9853553,44.2692774 77.4117554,44.2692774" id="Fill-58" fill="#271F23"></path>
            <path d="M77.4117554,43.7692774 C74.3269556,43.7692774 68.7549559,43.3996774 67.294956,46.9004772 C67.216556,47.0876772 67.340556,47.3828772 67.525356,47.4644772 C67.9661559,47.6604772 68.0773559,47.5612772 68.5773559,47.3652772 C70.3741558,46.6604772 72.2997557,46.5876772 74.2109556,46.5100772 C76.5669554,46.4148772 79.1365553,46.7532772 81.4589551,46.3156772 C81.6157551,46.2860772 81.7789551,46.1236773 81.8077551,45.9668773 C82.1525551,44.1092774 78.5765553,43.8500774 77.4117554,43.7692774 C76.7677554,43.7244774 76.7717554,44.7252773 77.4117554,44.7692773 C78.5845553,44.8508773 79.6509553,45.1468773 80.7365552,45.5692773 C79.9213552,45.2524773 78.8517553,45.4356773 77.9853554,45.4356773 C75.2301555,45.4356773 72.4549557,45.4900773 69.7317558,45.9356773 C69.2397559,46.0324773 68.7661559,46.1876772 68.3117559,46.4012772 C68.3221559,46.6124772 68.3317559,46.8236772 68.3421559,47.0356772 C68.7685559,46.4812772 69.2941559,46.0636773 69.9181558,45.7820773 C71.1981558,45.0788773 72.8333557,44.8252773 74.2661556,44.7692773 C75.3117555,44.7284773 76.3653554,44.7692773 77.4117554,44.7692773 C78.0565553,44.7692773 78.0565553,43.7692774 77.4117554,43.7692774" id="Fill-60" fill="#271F23"></path>
            <path d="M96.2555143,44.4567974 L101.573914,44.4567974 C103.308314,44.5903973 105.021114,44.9359973 105.886714,46.4695972 C105.886714,46.4695972 106.421114,47.1023972 105.353914,46.5695972 C104.353914,46.1023973 103.422714,46.1151973 102.047514,46.1151973 L95.6819143,46.1231973 L93.6819144,46.1231973 C92.8819145,46.1231973 92.8819145,45.7975973 93.4819144,45.3231973 C93.4819144,45.3231973 94.6819144,44.4567974 96.2555143,44.4567974" id="Fill-62" fill="#271F23"></path>
            <path d="M96.2555143,44.9567973 L100.829914,44.9567973 C101.772314,44.9567973 102.672314,45.0695973 103.594714,45.3039973 C104.214714,45.7767973 104.834714,46.2495972 105.454714,46.7215972 C105.685114,46.1615972 105.497114,45.8743973 104.890714,45.8607973 C104.261114,45.6215973 103.477914,45.6391973 102.823514,45.6175973 C101.193914,45.5631973 99.5531141,45.6183973 97.9227142,45.6207973 C97.1915142,45.6215973 96.4595143,45.6223973 95.7283143,45.6231973 C95.2691143,45.6231973 94.8083143,45.6231973 94.3491144,45.6231973 C92.7795145,45.6231973 96.1515143,44.9655973 96.2555143,44.9567973 C96.8931142,44.9023973 96.8987142,43.9015974 96.2555143,43.9567974 C95.1267143,44.0535974 92.3507145,44.4903973 92.6595145,46.1543972 C92.6883145,46.3111972 92.8515145,46.4735972 93.0083145,46.5031972 C95.1459143,46.9063972 97.6331142,46.6207972 99.8067141,46.6175972 C100.553914,46.6167972 101.301114,46.6159972 102.047514,46.6151972 C103.153914,46.6135972 104.172314,46.6527972 105.221114,47.0511972 C105.725114,47.2423972 105.829114,47.3487972 106.272314,47.1511972 C106.456314,47.0695972 106.581114,46.7735972 106.502714,46.5863972 C105.001914,43.0143974 99.3251141,43.9567974 96.2555143,43.9567974 C95.6107143,43.9567974 95.6107143,44.9567973 96.2555143,44.9567973" id="Fill-64" fill="#271F23"></path>
            <path d="M81.3195152,66.936076 C81.2731152,66.936076 81.2267152,66.928076 81.1811152,66.911276 C80.6483152,66.715276 80.2699152,66.368076 80.0883152,65.9072761 C79.7667152,65.0960761 80.1219152,64.1696762 80.3619152,63.6904762 C80.7539152,62.7456763 81.3603152,62.2256763 81.9555151,61.8080763 C82.1363151,61.6824763 82.3851151,61.7256763 82.5123151,61.9064763 C82.6387151,62.0872763 82.5955151,62.3368763 82.4147151,62.4640763 C81.8243151,62.8768763 81.3971151,63.2824762 81.0883152,64.0224762 C80.7699152,64.6616761 80.6803152,65.2320761 80.8323152,65.6128761 C80.9307152,65.8632761 81.1355152,66.0416761 81.4579151,66.1608761 C81.6651151,66.2368761 81.7707151,66.467276 81.6947151,66.674476 C81.6355151,66.836076 81.4819151,66.936076 81.3195152,66.936076" id="Fill-66" fill="#71748D"></path>
            <path d="M95.0523943,66.2692761 C94.9131943,66.2692761 94.7771944,66.1964761 94.7035944,66.0660761 C94.5955944,65.8740761 94.6635944,65.6300761 94.8555943,65.5212761 C95.0691943,65.4004761 95.1811943,65.2284761 95.2083943,64.9796761 C95.3211943,63.9804762 94.1203944,62.3204763 93.5827944,61.8324763 C93.4195944,61.6836763 93.4075944,61.4300763 93.5563944,61.2668763 C93.7051944,61.1036764 93.9587944,61.0924764 94.1211944,61.2396763 C94.7387944,61.8020763 96.1571943,63.7004762 96.0035943,65.0684761 C95.9475943,65.5724761 95.6867943,65.9700761 95.2491943,66.2172761 C95.1867943,66.2524761 95.1195943,66.2692761 95.0523943,66.2692761" id="Fill-68" fill="#71748D"></path>
            <path d="M73.0929556,50.213437 C73.0929556,49.648637 73.2913556,49.1302371 73.6209556,48.7246371 L77.2945554,48.7238371 C77.6241554,49.1302371 77.8225554,49.648637 77.8225554,50.213437 C77.8225554,51.5190369 76.7633554,52.5774369 75.4569555,52.5774369 C74.1521556,52.5774369 73.0929556,51.5190369 73.0929556,50.213437" id="Fill-70" fill="#271F23"></path>
            <path d="M96.6445542,50.223997 C96.6445542,49.657597 96.8429542,49.1375971 97.1757542,48.7303971 C97.6101542,48.1983971 100.885354,48.7863971 100.885354,48.7863971 C101.191754,49.1847971 101.372554,49.683197 101.372554,50.223997 C101.372554,51.5295969 100.313354,52.5879969 99.0085541,52.5879969 C97.7021542,52.5879969 96.6445542,51.5295969 96.6445542,50.223997" id="Fill-72" fill="#271F23"></path>
            <path d="M100.710154,52.3692769 L97.3773542,52.3692769 C97.1565542,52.3692769 96.9773542,52.1900769 96.9773542,51.9692769 C96.9773542,51.7484769 97.1565542,51.5692769 97.3773542,51.5692769 L100.710154,51.5692769 C100.930954,51.5692769 101.110154,51.7484769 101.110154,51.9692769 C101.110154,52.1900769 100.930954,52.3692769 100.710154,52.3692769" id="Fill-74" fill="#E3ECF8"></path>
            <path d="M100.710154,53.1692768 L97.3773542,53.1692768 C97.1565542,53.1692768 96.9773542,52.9900768 96.9773542,52.7692769 C96.9773542,52.5484769 97.1565542,52.3692769 97.3773542,52.3692769 L100.710154,52.3692769 C100.930954,52.3692769 101.110154,52.5484769 101.110154,52.7692769 C101.110154,52.9900768 100.930954,53.1692768 100.710154,53.1692768" id="Fill-76" fill="#E3ECF8"></path>
            <path d="M77.5195154,52.3692769 L73.3083156,52.3692769 C73.0875156,52.3692769 72.9083157,52.1900769 72.9083157,51.9692769 C72.9083157,51.7484769 73.0875156,51.5692769 73.3083156,51.5692769 L77.5195154,51.5692769 C77.7403154,51.5692769 77.9195154,51.7484769 77.9195154,51.9692769 C77.9195154,52.1900769 77.7403154,52.3692769 77.5195154,52.3692769" id="Fill-78" fill="#E3ECF8"></path>
            <path d="M77.5195154,53.1692768 L73.3083156,53.1692768 C73.0875156,53.1692768 72.9083157,52.9900768 72.9083157,52.7692769 C72.9083157,52.5484769 73.0875156,52.3692769 73.3083156,52.3692769 L77.5195154,52.3692769 C77.7403154,52.3692769 77.9195154,52.5484769 77.9195154,52.7692769 C77.9195154,52.9900768 77.7403154,53.1692768 77.5195154,53.1692768" id="Fill-80" fill="#E3ECF8"></path>
            <path d="M72.1351957,51.4692769 L70.2023958,51.4692769 C69.9815958,51.4692769 69.8023958,51.2900769 69.8023958,51.069277 C69.8023958,50.848477 69.9815958,50.669277 70.2023958,50.669277 L72.1351957,50.669277 C72.3559957,50.669277 72.5351957,50.848477 72.5351957,51.069277 C72.5351957,51.2900769 72.3559957,51.4692769 72.1351957,51.4692769" id="Fill-82" fill="#271F23"></path>
            <path d="M83.519515,73.7360756 C83.298715,73.7360756 83.119515,73.5568756 83.119515,73.3360756 L83.119515,70.2864758 C83.119515,70.0648758 83.298715,69.8864758 83.519515,69.8864758 C83.740315,69.8864758 83.919515,70.0648758 83.919515,70.2864758 L83.919515,73.3360756 C83.919515,73.5568756 83.740315,73.7360756 83.519515,73.7360756" id="Fill-84" fill="#A7ABC4"></path>
            <path d="M85.9195149,73.7360756 C85.6987149,73.7360756 85.5195149,73.5568756 85.5195149,73.3360756 L85.5195149,70.2864758 C85.5195149,70.0648758 85.6987149,69.8864758 85.9195149,69.8864758 C86.1403149,69.8864758 86.3195149,70.0648758 86.3195149,70.2864758 L86.3195149,73.3360756 C86.3195149,73.5568756 86.1403149,73.7360756 85.9195149,73.7360756" id="Fill-86" fill="#A7ABC4"></path>
            <path d="M88.3195147,73.7360756 C88.0987147,73.7360756 87.9195148,73.5568756 87.9195148,73.3360756 L87.9195148,70.2864758 C87.9195148,70.0648758 88.0987147,69.8864758 88.3195147,69.8864758 C88.5403147,69.8864758 88.7195147,70.0648758 88.7195147,70.2864758 L88.7195147,73.3360756 C88.7195147,73.5568756 88.5403147,73.7360756 88.3195147,73.7360756" id="Fill-88" fill="#A7ABC4"></path>
            <path d="M90.7195146,73.7360756 C90.4987146,73.7360756 90.3195146,73.5568756 90.3195146,73.3360756 L90.3195146,70.2864758 C90.3195146,70.0648758 90.4987146,69.8864758 90.7195146,69.8864758 C90.9403146,69.8864758 91.1195146,70.0648758 91.1195146,70.2864758 L91.1195146,73.3360756 C91.1195146,73.5568756 90.9403146,73.7360756 90.7195146,73.7360756" id="Fill-90" fill="#A7ABC4"></path>
            <path d="M93.1195144,73.7360756 C92.8987145,73.7360756 92.7195145,73.5568756 92.7195145,73.3360756 L92.7195145,70.2864758 C92.7195145,70.0648758 92.8987145,69.8864758 93.1195144,69.8864758 C93.3403144,69.8864758 93.5195144,70.0648758 93.5195144,70.2864758 L93.5195144,73.3360756 C93.5195144,73.5568756 93.3403144,73.7360756 93.1195144,73.7360756" id="Fill-92" fill="#A7ABC4"></path>
            <path d="M95.5195143,74.5360756 C95.2987143,74.5360756 95.1195143,74.3568756 95.1195143,74.1360756 L95.1195143,71.0864758 C95.1195143,70.8648758 95.2987143,70.6864758 95.5195143,70.6864758 C95.7403143,70.6864758 95.9195143,70.8648758 95.9195143,71.0864758 L95.9195143,74.1360756 C95.9195143,74.3568756 95.7403143,74.5360756 95.5195143,74.5360756" id="Fill-94" fill="#A7ABC4"></path>
            <path d="M97.9195142,73.7360756 C97.6987142,73.7360756 97.5195142,73.5568756 97.5195142,73.3360756 L97.5195142,71.0856758 C97.5195142,70.8648758 97.6987142,70.6856758 97.9195142,70.6856758 C98.1403142,70.6856758 98.3195141,70.8648758 98.3195141,71.0856758 L98.3195141,73.3360756 C98.3195141,73.5568756 98.1403142,73.7360756 97.9195142,73.7360756" id="Fill-96" fill="#A7ABC4"></path>
            <path d="M100.319514,73.7360756 C100.098714,73.7360756 99.919514,73.5568756 99.919514,73.3360756 L99.919514,71.0856758 C99.919514,70.8648758 100.098714,70.6856758 100.319514,70.6856758 C100.540314,70.6856758 100.719514,70.8648758 100.719514,71.0856758 L100.719514,73.3360756 C100.719514,73.5568756 100.540314,73.7360756 100.319514,73.7360756" id="Fill-98" fill="#A7ABC4"></path>
            <path d="M102.719514,75.3360755 C102.498714,75.3360755 102.319514,75.1568755 102.319514,74.9360755 L102.319514,71.8864757 C102.319514,71.6648757 102.498714,71.4864757 102.719514,71.4864757 C102.940314,71.4864757 103.119514,71.6648757 103.119514,71.8864757 L103.119514,74.9360755 C103.119514,75.1568755 102.940314,75.3360755 102.719514,75.3360755" id="Fill-100" fill="#A7ABC4"></path>
            <path d="M78.7195153,73.7360756 C78.4987153,73.7360756 78.3195153,73.5568756 78.3195153,73.3360756 L78.3195153,71.0856758 C78.3195153,70.8648758 78.4987153,70.6856758 78.7195153,70.6856758 C78.9403153,70.6856758 79.1195153,70.8648758 79.1195153,71.0856758 L79.1195153,73.3360756 C79.1195153,73.5568756 78.9403153,73.7360756 78.7195153,73.7360756" id="Fill-102" fill="#A7ABC4"></path>
            <path d="M76.3195155,73.7360756 C76.0987155,73.7360756 75.9195155,73.5568756 75.9195155,73.3360756 L75.9195155,71.0856758 C75.9195155,70.8648758 76.0987155,70.6856758 76.3195155,70.6856758 C76.5403154,70.6856758 76.7195154,70.8648758 76.7195154,71.0856758 L76.7195154,73.3360756 C76.7195154,73.5568756 76.5403154,73.7360756 76.3195155,73.7360756" id="Fill-104" fill="#A7ABC4"></path>
            <path d="M73.9195156,75.3360755 C73.6987156,75.3360755 73.5195156,75.1568755 73.5195156,74.9360755 L73.5195156,71.8864757 C73.5195156,71.6648757 73.6987156,71.4864757 73.9195156,71.4864757 C74.1403156,71.4864757 74.3195156,71.6648757 74.3195156,71.8864757 L74.3195156,74.9360755 C74.3195156,75.1568755 74.1403156,75.3360755 73.9195156,75.3360755" id="Fill-106" fill="#A7ABC4"></path>
            <path d="M81.1195152,74.5360756 C80.8987152,74.5360756 80.7195152,74.3568756 80.7195152,74.1360756 L80.7195152,71.0864758 C80.7195152,70.8648758 80.8987152,70.6864758 81.1195152,70.6864758 C81.3403152,70.6864758 81.5195151,70.8648758 81.5195151,71.0864758 L81.5195151,74.1360756 C81.5195151,74.3568756 81.3403152,74.5360756 81.1195152,74.5360756" id="Fill-108" fill="#A7ABC4"></path>
            <path d="M82.9460751,97.4611142 C82.7252751,97.4611142 82.5460751,97.2819142 82.5460751,97.0611142 L82.5460751,92.4115145 C82.5460751,92.1899145 82.7252751,92.0115145 82.9460751,92.0115145 C83.166875,92.0115145 83.346075,92.1899145 83.346075,92.4115145 L83.346075,97.0611142 C83.346075,97.2819142 83.166875,97.4611142 82.9460751,97.4611142" id="Fill-110" fill="#A7ABC4"></path>
            <path d="M85.4320749,97.4611142 C85.2112749,97.4611142 85.0320749,97.2819142 85.0320749,97.0611142 L85.0320749,92.4115145 C85.0320749,92.1899145 85.2112749,92.0115145 85.4320749,92.0115145 C85.6528749,92.0115145 85.8320749,92.1899145 85.8320749,92.4115145 L85.8320749,97.0611142 C85.8320749,97.2819142 85.6528749,97.4611142 85.4320749,97.4611142" id="Fill-112" fill="#A7ABC4"></path>
            <path d="M87.9195148,97.4611142 C87.6987148,97.4611142 87.5195148,97.2819142 87.5195148,97.0611142 L87.5195148,92.4115145 C87.5195148,92.1899145 87.6987148,92.0115145 87.9195148,92.0115145 C88.1403147,92.0115145 88.3195147,92.1899145 88.3195147,92.4115145 L88.3195147,97.0611142 C88.3195147,97.2819142 88.1403147,97.4611142 87.9195148,97.4611142" id="Fill-114" fill="#A7ABC4"></path>
            <path d="M90.4055146,97.4611142 C90.1847146,97.4611142 90.0055146,97.2819142 90.0055146,97.0611142 L90.0055146,92.4115145 C90.0055146,92.1899145 90.1847146,92.0115145 90.4055146,92.0115145 C90.6263146,92.0115145 90.8055146,92.1899145 90.8055146,92.4115145 L90.8055146,97.0611142 C90.8055146,97.2819142 90.6263146,97.4611142 90.4055146,97.4611142" id="Fill-116" fill="#A7ABC4"></path>
            <path d="M92.8929545,97.4611142 C92.6721545,97.4611142 92.4929545,97.2819142 92.4929545,97.0611142 L92.4929545,92.4115145 C92.4929545,92.1899145 92.6721545,92.0115145 92.8929545,92.0115145 C93.1137544,92.0115145 93.2929544,92.1899145 93.2929544,92.4115145 L93.2929544,97.0611142 C93.2929544,97.2819142 93.1137544,97.4611142 92.8929545,97.4611142" id="Fill-118" fill="#A7ABC4"></path>
            <path d="M95.3789543,96.6611142 C95.1581543,96.6611142 94.9789543,96.4819142 94.9789543,96.2611143 L94.9789543,91.6115145 C94.9789543,91.3899146 95.1581543,91.2115146 95.3789543,91.2115146 C95.5997543,91.2115146 95.7789543,91.3899146 95.7789543,91.6115145 L95.7789543,96.2611143 C95.7789543,96.4819142 95.5997543,96.6611142 95.3789543,96.6611142" id="Fill-120" fill="#A7ABC4"></path>
            <path d="M97.8663942,95.8611143 C97.6455942,95.8611143 97.4663942,95.6819143 97.4663942,95.4611143 L97.4663942,88.6691147 C97.4663942,88.4483147 97.6455942,88.2691147 97.8663942,88.2691147 C98.0871942,88.2691147 98.2663941,88.4483147 98.2663941,88.6691147 L98.2663941,95.4611143 C98.2663941,95.6819143 98.0871942,95.8611143 97.8663942,95.8611143" id="Fill-122" fill="#A7ABC4"></path>
            <path d="M97.8663942,86.8692751 C97.6455942,86.8692751 97.4663942,86.6900748 97.4663942,86.4692748 L97.4663942,83.269275 C97.4663942,83.048475 97.6455942,82.8692751 97.8663942,82.8692751 C98.0871942,82.8692751 98.2663941,83.048475 98.2663941,83.269275 L98.2663941,86.4692748 C98.2663941,86.6900748 98.0871942,86.8692751 97.8663942,86.8692751" id="Fill-124" fill="#A7ABC4"></path>
            <path d="M100.352394,95.0611143 C100.131594,95.0611143 99.952394,94.8819143 99.952394,94.6611144 L99.952394,81.6027151 C99.952394,81.3811151 100.131594,81.2027152 100.352394,81.2027152 C100.573194,81.2027152 100.752394,81.3811151 100.752394,81.6027151 L100.752394,94.6611144 C100.752394,94.8819143 100.573194,95.0611143 100.352394,95.0611143" id="Fill-126" fill="#A7ABC4"></path>
            <path d="M102.839834,93.3356744 C102.619034,93.3356744 102.439834,93.1564744 102.439834,92.9356745 L102.439834,81.6020751 C102.439834,81.3812751 102.619034,81.2020752 102.839834,81.2020752 C103.060634,81.2020752 103.239834,81.3812751 103.239834,81.6020751 L103.239834,92.9356745 C103.239834,93.1564744 103.060634,93.3356744 102.839834,93.3356744" id="Fill-128" fill="#A7ABC4"></path>
            <path d="M105.325834,90.8692746 C105.105034,90.8692746 104.925834,90.6900746 104.925834,90.4692746 L104.925834,79.9356752 C104.925834,79.7148752 105.105034,79.5356753 105.325834,79.5356753 C105.546634,79.5356753 105.725834,79.7148752 105.725834,79.9356752 L105.725834,90.4692746 C105.725834,90.6900746 105.546634,90.8692746 105.325834,90.8692746" id="Fill-130" fill="#A7ABC4"></path>
            <path d="M107.813274,87.4024748 C107.592474,87.4024748 107.413274,87.2232748 107.413274,87.0024748 L107.413274,76.4688754 C107.413274,76.2480755 107.592474,76.0688755 107.813274,76.0688755 C108.034074,76.0688755 108.213274,76.2480755 108.213274,76.4688754 L108.213274,87.0024748 C108.213274,87.2232748 108.034074,87.4024748 107.813274,87.4024748" id="Fill-132" fill="#A7ABC4"></path>
            <path d="M110.299273,83.544315 C110.078473,83.544315 109.899273,83.365115 109.899273,83.144315 L109.899273,72.6107157 C109.899273,72.3899157 110.078473,72.2107157 110.299273,72.2107157 C110.520073,72.2107157 110.699273,72.3899157 110.699273,72.6107157 L110.699273,83.144315 C110.699273,83.365115 110.520073,83.544315 110.299273,83.544315" id="Fill-134" fill="#A7ABC4"></path>
            <path d="M112.786713,79.3192753 C112.565913,79.3192753 112.386713,79.1400753 112.386713,78.9192753 L112.386713,68.3856759 C112.386713,68.1648759 112.565913,67.9856759 112.786713,67.9856759 C113.007513,67.9856759 113.186713,68.1648759 113.186713,68.3856759 L113.186713,78.9192753 C113.186713,79.1400753 113.007513,79.3192753 112.786713,79.3192753" id="Fill-136" fill="#A7ABC4"></path>
            <path d="M77.9727154,95.8611143 C77.7519154,95.8611143 77.5727154,95.6819143 77.5727154,95.4611143 L77.5727154,88.6691147 C77.5727154,88.4483147 77.7519154,88.2691147 77.9727154,88.2691147 C78.1935153,88.2691147 78.3727153,88.4483147 78.3727153,88.6691147 L78.3727153,95.4611143 C78.3727153,95.6819143 78.1935153,95.8611143 77.9727154,95.8611143" id="Fill-138" fill="#A7ABC4"></path>
            <path d="M77.9727154,86.8692751 C77.7519154,86.8692751 77.5727154,86.6900748 77.5727154,86.4692748 L77.5727154,83.269275 C77.5727154,83.048475 77.7519154,82.8692751 77.9727154,82.8692751 C78.1935153,82.8692751 78.3727153,83.048475 78.3727153,83.269275 L78.3727153,86.4692748 C78.3727153,86.6900748 78.1935153,86.8692751 77.9727154,86.8692751" id="Fill-140" fill="#A7ABC4"></path>
            <path d="M75.4851955,95.0611143 C75.2643955,95.0611143 75.0851955,94.8819143 75.0851955,94.6611144 L75.0851955,81.6027151 C75.0851955,81.3811151 75.2643955,81.2027152 75.4851955,81.2027152 C75.7059955,81.2027152 75.8851955,81.3811151 75.8851955,81.6027151 L75.8851955,94.6611144 C75.8851955,94.8819143 75.7059955,95.0611143 75.4851955,95.0611143" id="Fill-142" fill="#A7ABC4"></path>
            <path d="M72.9992756,93.3356744 C72.7784757,93.3356744 72.5992757,93.1564744 72.5992757,92.9356745 L72.5992757,81.6020751 C72.5992757,81.3812751 72.7784757,81.2020752 72.9992756,81.2020752 C73.2200756,81.2020752 73.3992756,81.3812751 73.3992756,81.6020751 L73.3992756,92.9356745 C73.3992756,93.1564744 73.2200756,93.3356744 72.9992756,93.3356744" id="Fill-144" fill="#A7ABC4"></path>
            <path d="M70.5117558,90.8692746 C70.2909558,90.8692746 70.1117558,90.6900746 70.1117558,90.4692746 L70.1117558,79.9356752 C70.1117558,79.7148752 70.2909558,79.5356753 70.5117558,79.5356753 C70.7325558,79.5356753 70.9117558,79.7148752 70.9117558,79.9356752 L70.9117558,90.4692746 C70.9117558,90.6900746 70.7325558,90.8692746 70.5117558,90.8692746" id="Fill-146" fill="#A7ABC4"></path>
            <path d="M68.0258359,88.2024747 C67.805036,88.2024747 67.625836,88.0232748 67.625836,87.8024748 L67.625836,76.4688754 C67.625836,76.2480755 67.805036,76.0688755 68.0258359,76.0688755 C68.2466359,76.0688755 68.4258359,76.2480755 68.4258359,76.4688754 L68.4258359,87.8024748 C68.4258359,88.0232748 68.2466359,88.2024747 68.0258359,88.2024747" id="Fill-148" fill="#A7ABC4"></path>
            <path d="M65.5383161,84.344315 C65.3175161,84.344315 65.1383161,84.165115 65.1383161,83.944315 L65.1383161,72.6107157 C65.1383161,72.3899157 65.3175161,72.2107157 65.5383161,72.2107157 C65.7591161,72.2107157 65.9383161,72.3899157 65.9383161,72.6107157 L65.9383161,83.944315 C65.9383161,84.165115 65.7591161,84.344315 65.5383161,84.344315" id="Fill-150" fill="#A7ABC4"></path>
            <path d="M63.0523962,80.1192752 C62.8315963,80.1192752 62.6523963,79.9400752 62.6523963,79.7192752 L62.6523963,68.3856759 C62.6523963,68.1648759 62.8315963,67.9856759 63.0523962,67.9856759 C63.2731962,67.9856759 63.4523962,68.1648759 63.4523962,68.3856759 L63.4523962,79.7192752 C63.4523962,79.9400752 63.2731962,80.1192752 63.0523962,80.1192752" id="Fill-152" fill="#A7ABC4"></path>
            <path d="M80.4586352,96.6611142 C80.2378352,96.6611142 80.0586352,96.4819142 80.0586352,96.2611143 L80.0586352,91.6115145 C80.0586352,91.3899146 80.2378352,91.2115146 80.4586352,91.2115146 C80.6794352,91.2115146 80.8586352,91.3899146 80.8586352,91.6115145 L80.8586352,96.2611143 C80.8586352,96.4819142 80.6794352,96.6611142 80.4586352,96.6611142" id="Fill-154" fill="#A7ABC4"></path>
            <path d="M102.839834,79.7692752 C102.619034,79.7692752 102.439834,79.5900753 102.439834,79.3692753 L102.439834,77.1860754 C102.439834,76.9652754 102.619034,76.7860754 102.839834,76.7860754 C103.060634,76.7860754 103.239834,76.9652754 103.239834,77.1860754 L103.239834,79.3692753 C103.239834,79.5900753 103.060634,79.7692752 102.839834,79.7692752" id="Fill-156" fill="#A7ABC4"></path>
            <path d="M91.5460745,131.181752 C89.9228746,133.620952 89.9396746,135.274552 90.3468746,135.989752 C90.5612746,136.366552 90.8988746,136.535352 91.2532746,136.442552 C91.8700745,136.279352 92.4932745,135.337752 92.4932745,133.602552 C92.4932745,132.832152 92.1732745,132.022552 91.5460745,131.181752 M91.0644746,137.267352 C90.4988746,137.267352 89.9708746,136.947352 89.6516747,136.384952 C89.0004747,135.241752 89.1548747,133.220152 91.0108746,130.537752 C89.4988747,128.885752 86.8476748,127.128952 83.133275,125.335353 C79.0068753,123.342553 74.8292755,121.928953 73.8180756,121.596953 L60.8660764,134.548152 C60.7100764,134.704152 60.4572764,134.704152 60.3004764,134.548152 C60.1444764,134.392152 60.1444764,134.138552 60.3004764,133.982552 L73.4260756,120.857753 C73.5308756,120.752953 73.6852756,120.714553 73.8292756,120.759353 C74.4708756,120.962553 86.7732748,124.898553 91.4812745,129.892152 C92.0748745,129.115352 92.8060745,128.289752 93.6956744,127.417752 L102.462074,118.652153 C102.618074,118.496153 102.870874,118.496153 103.027674,118.652153 L116.814873,132.439352 C116.970873,132.596152 116.970873,132.848952 116.814873,133.004952 C116.658873,133.161752 116.405273,133.161752 116.249273,133.004952 L102.744474,119.500153 L94.2588744,127.985752 C93.3316744,128.894552 92.5972745,129.736952 92.0204745,130.510552 C92.8196745,131.511352 93.2932744,132.548952 93.2932744,133.602552 C93.2932744,135.908952 92.3444745,136.981752 91.4580745,137.216152 C91.3260746,137.250552 91.1948746,137.267352 91.0644746,137.267352" id="Fill-158" fill="#7EA3FF"></path>
            <path d="M87.8031148,16.135279 C88.5343147,18.3600789 89.6415147,20.3192788 91.3311146,21.9560787 C91.7943145,22.4040787 92.5023145,21.6984787 92.0391145,21.2488787 C90.4679146,19.7280788 89.4471147,17.9384789 88.7671147,15.8696791 C88.5671147,15.2600791 87.6007148,15.5208791 87.8031148,16.135279" id="Fill-160" fill="#271F23"></path>
            <path d="M91.6031145,16.035279 C91.8799145,18.0464789 92.7815145,20.4704788 94.4311144,21.7560787 C94.9335143,22.1472787 95.6471143,21.4448787 95.1391143,21.0488787 C93.6047144,19.8536788 92.8239145,17.6392789 92.5671145,15.7696791 C92.4799145,15.1328791 91.5167145,15.4048791 91.6031145,16.035279" id="Fill-162" fill="#271F23"></path>
            <path d="M70.0851958,19.4024788 C70.2371958,20.7696788 69.8315958,22.0304787 69.0531959,23.1504786 C68.6843959,23.6816786 69.5515959,24.1808786 69.9171958,23.6544786 C70.7819958,22.4096787 71.2547958,20.9224788 71.0851958,19.4024788 C71.0147958,18.7688789 70.0139958,18.7624789 70.0851958,19.4024788" id="Fill-164" fill="#271F23"></path>
            <path d="M76.8031154,17.435279 C77.0583154,18.9336789 76.8415154,20.4248788 75.6311155,21.4488787 C75.1383155,21.8664787 75.8503155,22.5696787 76.3391154,22.1560787 C77.8287154,20.8952788 78.0799153,19.0024789 77.7671154,17.169679 C77.6591154,16.535279 76.6951154,16.804879 76.8031154,17.435279" id="Fill-166" fill="#271F23"></path>
            <path d="M73.6031156,18.2352789 C73.8583156,19.7336788 73.6415156,21.2248787 72.4311157,22.2488787 C71.9383157,22.6664786 72.6503157,23.3696786 73.1391156,22.9560786 C74.6287156,21.6952787 74.8799155,19.8024788 74.5671156,17.9696789 C74.4591156,17.335279 73.4951156,17.604879 73.6031156,18.2352789" id="Fill-168" fill="#271F23"></path>
            <path d="M81.9031151,17.169679 C81.5647151,18.4096789 80.9047152,19.7096788 80.1527152,20.7504788 C79.7751152,21.2736787 80.6431152,21.7720787 81.0175152,21.2544787 C81.8159151,20.1496788 82.5079151,18.7536789 82.8671151,17.435279 C83.0375151,16.812079 82.0727151,16.548079 81.9031151,17.169679" id="Fill-170" fill="#E3ECF8"></path>
            <path d="M81.9031151,17.435279 C82.4791151,19.0056789 83.777515,20.3016788 85.1327149,21.2344787 C85.6655149,21.6008787 86.1647149,20.7336788 85.6375149,20.3704788 C84.515115,19.5984788 83.346315,18.4744789 82.8671151,17.169679 C82.6479151,16.568879 81.6807151,16.828879 81.9031151,17.435279" id="Fill-172" fill="#E3ECF8"></path>
            <path d="M81.9531151,17.8547989 C82.6595151,19.0147989 83.545915,20.0147988 84.8523149,20.4843988 C85.4603149,20.7035988 85.7203149,19.7371988 85.1179149,19.5203988 C84.071515,19.1435989 83.377115,18.2699989 82.8171151,17.349999 C82.4819151,16.800399 81.6171151,17.302799 81.9531151,17.8547989" id="Fill-174" fill="#E3ECF8"></path>
            <path d="M83.267195,19.5001588 C83.155195,19.3073588 82.9831951,19.1345589 82.9175951,18.9193589 C82.7295951,18.3041589 81.7639951,18.5665589 81.9527951,19.1849589 C82.0487951,19.4977588 82.2439951,19.7273588 82.4031951,20.0049588 C82.7247951,20.5633588 83.588795,20.0601588 83.267195,19.5001588" id="Fill-176" fill="#E3ECF8"></path>
            <path d="M82.8827951,19.3341588 C83.651595,19.7853588 84.436395,20.0413588 85.3347949,19.9525588 C85.9707949,19.8901588 85.9763949,18.8893589 85.3347949,18.9525589 C84.599595,19.0253589 84.018795,18.8413589 83.387595,18.4709589 C82.8307951,18.1437589 82.3275951,19.0077589 82.8827951,19.3341588" id="Fill-178" fill="#E3ECF8"></path>
            <path d="M81.4531151,18.5001589 C81.0235152,19.0809589 80.2459152,19.4121588 79.5523153,19.5201588 C78.9163153,19.6193588 79.1875153,20.5833588 79.8179152,20.4841588 C80.7899152,20.3329588 81.7307151,19.7969588 82.3171151,19.0049589 C82.7011151,18.4857589 81.8331151,17.9881589 81.4531151,18.5001589" id="Fill-180" fill="#E3ECF8"></path>
            <path d="M83.352395,17.469279 C83.632395,20.2404788 88.3699947,21.2564787 88.4851947,17.9356789 C88.5075947,17.290079 87.5067948,17.292479 87.4851948,17.9356789 C87.4171948,19.9052788 84.505195,18.9812789 84.352395,17.469279 C84.288395,16.834079 83.287595,16.827679 83.352395,17.469279" id="Fill-182" fill="#271F23"></path>
            <path d="M80.4195152,17.469279 C80.5795152,18.9836789 79.0659153,20.8140788 77.4523154,20.5868788 C76.8219154,20.4980788 76.5499154,21.4620787 77.1867154,21.5516787 C79.3915153,21.8620787 81.6563151,19.7100788 81.4195151,17.469279 C81.3523152,16.834879 80.3515152,16.828479 80.4195152,17.469279" id="Fill-184" fill="#271F23"></path>
            <path d="M96.5703142,18.0684789 C96.9575142,19.5404788 98.0407142,20.4356788 99.2671141,21.2340787 C99.8095141,21.5868787 100.310314,20.7212788 99.7719141,20.3708788 C98.7655141,19.7156788 97.8535142,19.0156789 97.5343142,17.8028789 C97.3703142,17.179679 96.4055143,17.444479 96.5703142,18.0684789" id="Fill-186" fill="#271F23"></path>
            <path d="M59.7031164,38.3352777 C60.0863164,40.6720776 60.4415164,43.1432774 59.3535165,45.3504773 C59.0695165,45.9264773 59.9319164,46.4336772 60.2175164,45.8544773 C61.4359163,43.3808774 61.0991164,40.7008776 60.6671164,38.0696777 C60.5631164,37.4344778 59.5991164,37.7048778 59.7031164,38.3352777" id="Fill-188" fill="#271F23"></path>
        </g>
    </g>
</svg>