<?xml version="1.0" encoding="UTF-8"?>
<svg width="136px" height="147px" viewBox="0 0 136 147" version="1.1" xmlns="http://www.w3.org/2000/svg" xmlns:xlink="http://www.w3.org/1999/xlink">
    <title>Illustration / Drew</title>
    <defs>
        <polygon id="path-1" points="0 0.0901426614 135.241279 0.0901426614 135.241279 63.1998471 0 63.1998471"></polygon>
    </defs>
    <g id="Illustration-/-Drew" stroke="none" stroke-width="1" fill="none" fill-rule="evenodd">
        <g id="Drew">
            <path d="M104.176794,52.3442369 C108.310394,47.6762372 109.243193,54.8762367 108.843194,57.9442365 C108.576794,59.5442365 107.643194,60.8762364 106.976794,62.3442363 C106.043194,64.6106361 105.243194,67.010636 104.576794,69.4106359 C104.043194,71.0106358 104.443194,76.0762355 101.510394,73.8106356 C101.510394,73.8106356 99.4767941,70.0762358 99.7767941,69.9762358 C100.076794,69.8762358 101.176794,65.1442361 101.176794,65.1442361" id="Fill-1" fill="#BCD4F9"></path>
            <path d="M102.780714,74.7863955 C102.335914,74.7863955 101.835914,74.5679956 101.265514,74.1279956 C101.222314,74.0943956 101.185514,74.0511956 101.159114,74.0023956 C99.1791141,70.3663958 99.3103141,70.0343958 99.3807141,69.8543958 C99.4055141,69.7911958 99.4543141,69.7279958 99.5119141,69.6775958 C99.7239141,69.3047959 100.320714,67.060796 100.787114,65.0527961 C100.836714,64.8375961 101.051114,64.7031961 101.267114,64.7543961 C101.482314,64.8039961 101.615914,65.0183961 101.565514,65.2343961 C100.781514,68.6111959 100.399114,69.7287958 100.163914,70.1223958 C100.294314,70.5927958 101.085514,72.1887957 101.820714,73.5439956 C102.181514,73.8127956 102.650314,74.0815956 102.962314,73.9511956 C103.554314,73.7039956 103.751114,72.1359957 103.895114,70.9895958 C103.976714,70.3327958 104.055114,69.7111958 104.197514,69.2839959 C104.896714,66.764796 105.708714,64.3711962 106.606314,62.1911963 C106.811914,61.7383963 107.034314,61.3111963 107.257514,60.8847964 C107.778314,59.8863964 108.271114,58.9439965 108.448714,57.8775966 C108.735914,55.6687967 108.287114,51.9023969 106.947914,51.2927969 C106.178314,50.942397 105.179114,51.8151969 104.475914,52.6079969 C104.329514,52.7751969 104.077514,52.7911969 103.911114,52.6423969 C103.746314,52.4967969 103.730314,52.2439969 103.876714,52.0783969 C105.159914,50.629597 106.304714,50.122397 107.279114,50.564797 C109.209513,51.4439969 109.511113,55.9103967 109.239113,57.9951965 C109.039114,59.2015965 108.494314,60.2447964 107.966314,61.2551963 C107.751114,61.6687963 107.534314,62.0823963 107.340714,62.5087963 C106.461514,64.6463961 105.659114,67.008796 104.962314,69.5175959 C104.838314,69.8887958 104.765514,70.4719958 104.688714,71.0895958 C104.501514,72.5775957 104.290314,74.2647956 103.268714,74.6895955 C103.113514,74.7543955 102.951114,74.7863955 102.780714,74.7863955" id="Fill-3" fill="#7EA3FF"></path>
            <path d="M104.635434,57.0527966 C105.035434,56.1207967 105.835434,53.9879968 106.902634,54.7879967 C107.569034,55.3207967 107.435434,58.2527965 107.169034,58.9207965 C106.769034,60.2527964 105.569034,61.7207963 104.902634,63.0527962 C104.502634,64.1207962 104.369034,64.3879962 103.969034,65.5879961" id="Fill-5" fill="#BCD4F9"></path>
            <path d="M103.969034,65.9879961 C103.926634,65.9879961 103.885034,65.9807961 103.842634,65.9679961 C103.633034,65.8967961 103.519434,65.6711961 103.589034,65.4607961 C103.866634,64.6311961 104.017034,64.2407962 104.214634,63.7327962 C104.303434,63.5023962 104.402634,63.2463962 104.527434,62.9119963 C104.810634,62.3423963 105.158634,61.7887963 105.496234,61.2543963 C106.017834,60.4263964 106.555434,59.5711964 106.785834,58.8047965 C107.058634,58.1175965 107.081034,55.4415967 106.652234,55.0999967 C106.517034,54.9975967 106.426634,55.0047967 106.365834,55.0207967 C105.869834,55.1551967 105.341834,56.4071966 105.087434,57.0095966 L105.002634,57.2103966 C104.916234,57.4143966 104.681034,57.5071966 104.477834,57.4207966 C104.274634,57.3343966 104.181034,57.0983966 104.267434,56.8951966 L104.350634,56.6999966 C104.721834,55.8175967 105.284234,54.4847968 106.157034,54.2479968 C106.389834,54.1855968 106.749034,54.1719968 107.142634,54.4679968 C108.080234,55.2175967 107.793834,58.4319965 107.540234,59.0687965 C107.290634,59.9055964 106.722634,60.8071964 106.173034,61.6791963 C105.831434,62.2223963 105.508234,62.7359963 105.260234,63.2319962 C105.150634,63.5311962 105.050634,63.7887962 104.960234,64.0215962 C104.766634,64.5207962 104.619434,64.9015961 104.348234,65.7143961 C104.292234,65.8807961 104.136234,65.9879961 103.969034,65.9879961" id="Fill-7" fill="#7EA3FF"></path>
            <path d="M46.4431972,52.3442369 C46.0431973,50.744237 43.7767974,48.7442371 42.0431975,48.6106371 C39.1103977,48.3442371 38.8431977,53.5442368 38.9767977,55.6762367 C39.3767977,59.9442364 41.7767975,63.1442362 43.2431974,67.010636 C43.7767974,68.6106359 44.0431974,70.7442358 45.2431973,72.0762357 C46.0431973,72.8762357 49.3767971,74.3442356 49.776797,72.3442357 L50.776797,66.676236 L49.576797,58.7946365" id="Fill-9" fill="#BCD4F9"></path>
            <path d="M48.4127171,73.7465556 C47.1311172,73.7465556 45.5271173,72.9257557 44.9607173,72.3593557 C43.9967174,71.2913558 43.5967174,69.7881558 43.2439174,68.4625559 C43.1207174,68.0009559 43.0007174,67.551356 42.8631174,67.137756 C42.3871175,65.8809561 41.7919175,64.6601561 41.2159175,63.4793562 C40.0535176,61.0961564 38.8519177,58.6313565 38.5783177,55.7145567 C38.5455177,55.1921567 38.3183177,50.670557 40.1463176,48.8945571 C40.6807176,48.3745571 41.3295175,48.1441571 42.0791175,48.2121571 C43.9303174,48.3545571 46.3767172,50.428157 46.8303172,52.2465569 C46.8847172,52.4609569 46.7543172,52.6777569 46.5399172,52.7313569 C46.3255172,52.7817569 46.1087173,52.6545569 46.0551173,52.4409569 C45.6831173,50.954557 43.5295174,49.1257571 42.0127175,49.0097571 C41.4975175,48.9577571 41.0687176,49.1121571 40.7039176,49.4673571 C39.4255177,50.710557 39.2759177,54.0561568 39.3759177,55.6513567 C39.6343176,58.4121565 40.7519176,60.7025564 41.9343175,63.1289562 C42.5183175,64.3257562 43.1223174,65.5641561 43.6167174,66.868156 C43.7647174,67.312156 43.8895174,67.777756 44.0167174,68.2561559 C44.3631174,69.5553559 44.7207173,70.8977558 45.5399173,71.8081557 C46.0711173,72.3385557 47.9135171,73.1753556 48.8455171,72.8921557 C49.1455171,72.8009557 49.3175171,72.6009557 49.3847171,72.2649557 L50.371117,66.671356 L49.1815171,58.8553565 C49.1479171,58.6377565 49.2975171,58.4321565 49.516717,58.3993565 C49.735917,58.3641565 49.938317,58.5161565 49.971917,58.7345565 L51.1719169,66.616156 C51.1783169,66.659356 51.1783169,66.702556 51.170317,66.745756 L50.170317,72.4129557 C50.043117,73.0521556 49.664717,73.4793556 49.0775171,73.6577556 C48.8719171,73.7193556 48.6479171,73.7465556 48.4127171,73.7465556" id="Fill-11" fill="#7EA3FF"></path>
            <path d="M46.3018372,55.7879967 C45.3018373,54.3879968 42.0434375,48.6103971 40.9018376,52.7879969 C40.9018376,52.7879969 39.7186376,56.2119966 41.3106375,58.2999965" id="Fill-13" fill="#BCD4F9"></path>
            <path d="M41.3103975,58.6996765 C41.1903975,58.6996765 41.0703976,58.6460765 40.9927976,58.5420765 C39.2903977,56.3100766 40.4719976,52.8044769 40.5239976,52.6572769 C40.8087976,51.6100769 41.2855975,51.014877 41.9319975,50.911677 C43.2823974,50.698077 44.7695973,52.7508769 46.1695972,54.8756767 C46.3511972,55.1500767 46.5055972,55.3844767 46.6271972,55.5540767 C46.7559972,55.7348767 46.7135972,55.9836767 46.5335972,56.1132767 C46.3543972,56.2412766 46.1039973,56.1980767 45.9759973,56.0204767 C45.8503973,55.8444767 45.6895973,55.5996767 45.5015973,55.3156767 C44.7599973,54.1876768 43.0151974,51.5676769 42.0583975,51.7012769 C41.7583975,51.7492769 41.4847975,52.1724769 41.2879975,52.8924768 C41.2687975,52.9500768 40.1879976,56.1676767 41.6279975,58.0572765 C41.7615975,58.2324765 41.7279975,58.4836765 41.5527975,58.6172765 C41.4799975,58.6732765 41.3943975,58.6996765 41.3103975,58.6996765" id="Fill-15" fill="#7EA3FF"></path>
            <g id="Group-19" transform="translate(0.000000, 82.807995)">
                <mask id="mask-2" fill="white">
                    <use xlink:href="#path-1"></use>
                </mask>
                <g id="Clip-18"></g>
                <path d="M53.7479168,0.393279977 C48.8767171,-2.12831987 41.3767175,11.8716793 39.5103176,13.2044792 C35.2439179,16.138879 14.3647191,25.1444785 11.4311193,28.0772783 C5.83111965,33.677278 0.00551999967,40.9404776 0.00551999967,48.4076771 C0.00551999967,56.4076766 -0.528079969,59.8748764 8.80551948,62.2748763 C12.0055193,63.0748762 22.7111186,62.6028763 25.9111185,62.6028763 C37.1111178,62.8684763 48.3111171,61.2684763 59.5111165,61.0028764 C72.5775157,60.7364764 80.8439152,61.0028764 93.9111144,62.0684763 C101.911114,62.8684763 113.643913,63.6684762 121.643913,62.8684763 C125.911112,62.3364763 128.722312,62.5684763 130.947912,60.9388764 C141.142312,53.4732768 130.977512,35.4028779 123.243913,29.2684783 C117.111113,24.4684785 109.377513,24.7364785 102.711114,20.7364788 C98.9775141,18.6028789 95.5111143,15.9364791 92.8439145,12.7364792 C91.7775145,11.6684793 90.9775146,10.0684794 89.6439147,9.80287942" id="Fill-17" fill="#271F23" mask="url(#mask-2)"></path>
            </g>
            <path d="M88.5775947,95.8106343 C90.7111946,96.0762343 91.7775945,100.610634 92.3111945,102.210634 C94.1775944,106.744234 94.1775944,125.944232 94.1775944,130.744232 C94.1775944,135.276232 96.8439942,141.410632 93.6439944,144.876231 C93.6439944,144.876231 83.777595,145.144231 80.5775952,145.144231 C75.2439955,145.144231 68.5775959,145.410631 66.443996,140.610632 C61.6439963,128.076232 56.0175967,121.774633 49.911197,109.944233 C43.1103974,96.7674342 44.4127974,89.1026347 48.0767971,84.9514349 C48.0767971,84.9514349 54.3479968,78.8938353 60.1479964,80.0186352" id="Fill-20" fill="#E3ECF8"></path>
            <path d="M92.3385545,89.1442347 L79.2793553,142.467432 L73.1105556,117.876233 C66.872956,117.877833 49.976957,91.9706345 49.976957,85.0186349 C49.976957,78.0674353 51.5769569,68.4106359 51.5769569,68.4106359" id="Fill-22" fill="#BCD4F9"></path>
            <path d="M42.5767975,48.6106371 C42.5767975,48.6106371 42.0431975,43.8106374 41.2431975,41.1442375 C40.4431976,38.4762377 38.7103977,25.9442385 44.9767973,19.0106389 L46.4431972,17.410639 L46.4431972,12.8762392 C46.4431972,12.8762392 46.4439972,11.2778393 50.976797,8.61063949 C55.5095967,5.94423965 66.709596,-1.92215989 79.6431953,1.41063992 C92.5767945,4.74423972 97.2431942,9.81063942 102.443194,18.7442389 C107.643194,27.6762384 109.375993,29.9442382 107.509594,39.0106377 C105.643194,48.0762371 105.643194,61.6778363 102.443194,61.4106363 L100.576794,60.1378364 C100.576794,60.1378364 98.3095941,36.8762378 98.4431941,36.3442378 C98.5767941,35.8106379 96.5767942,30.4762382 96.1767943,30.0762382 C95.7767943,29.6762382 74.3207956,27.8106383 74.3207956,27.8106383 C74.3207956,27.8106383 62.1767963,27.2762384 61.7767963,27.6762384 C61.3767963,28.0762383 57.5103966,41.2762375 56.9767966,42.3442375 C56.4431966,43.4106374 52.8431969,52.2106369 52.8431969,52.2106369 L50.043197,62.8762363 L48.0431971,59.6762364 C48.0431971,59.6762364 45.6431973,56.6562366 45.6431973,51.8106369 C45.6431973,49.891437 42.5767975,48.6106371 42.5767975,48.6106371" id="Fill-24" fill="#271F23"></path>
            <path d="M88.2682347,24.6496785 C88.2682347,24.6496785 99.6778341,24.2496786 100.344234,35.0496779 L100.344234,40.2496776 C100.344234,40.2496776 100.210634,43.0496774 101.010634,45.5824773 C101.810634,48.1152771 102.477034,51.7176769 102.477034,54.3824768 L102.477034,64.3824762 C102.477034,64.3824762 102.477034,78.5152753 95.3730343,87.5824748 C90.9122346,93.2760744 88.2682347,98.0512742 79.6770353,98.0512742 L77.1442354,98.0512742 C70.7442358,98.0512742 69.4778359,96.0000743 62.6402363,91.8544745 C52.5602369,85.7440749 48.0770371,72.3824757 48.0770371,65.1824761 L48.0770371,59.7152764 L49.693837,61.3328763 C49.693837,61.3328763 50.877037,62.1152763 50.877037,58.2496765 L50.877037,52.5152769 C50.877037,52.5152769 51.4114369,48.1176771 53.9442368,44.3824774 C56.4770366,40.6496776 55.0114367,38.7824777 55.1442367,36.3824778 C55.2770367,33.982478 55.5442367,23.5824786 64.7442361,22.5152787 C73.9442356,21.4496787 74.9922355,24.6496785 88.2682347,24.6496785" id="Fill-26" fill="#E3ECF8"></path>
            <polyline id="Fill-28" fill="#271F23" points="89.6190347 77.4106354 88.2350347 79.9650352 91.5438345 76.8378354 88.4990347 76.3306355"></polyline>
            <path d="M88.2346347,80.0652752 C88.2130347,80.0652752 88.1914347,80.0580752 88.1738347,80.0452752 C88.1346347,80.0148752 88.1226347,79.9604752 88.1466347,79.9172752 L89.5306347,77.3628754 C89.5570347,77.3148754 89.6178347,77.2972754 89.6666347,77.3220754 C89.7154347,77.3484754 89.7330347,77.4100754 89.7066347,77.4580754 L88.6202347,79.4628753 L91.3290346,76.9028754 L88.4826347,76.4292754 C88.4274347,76.4204754 88.3906347,76.3692754 88.3994347,76.3148755 C88.4090347,76.2596755 88.4594347,76.2228755 88.5154347,76.2324755 L91.5602345,76.7388754 C91.5978345,76.7452754 91.6282345,76.7716754 91.6394345,76.8084754 C91.6506345,76.8444754 91.6402345,76.8836754 91.6130345,76.9100754 L88.3034347,80.0380752 C88.2842347,80.0556752 88.2586347,80.0652752 88.2346347,80.0652752" id="Fill-30" fill="#271F23"></path>
            <path d="M65.1791961,52.4809569 C65.1791961,52.0121569 69.5031959,51.118557 69.6519958,51.4089569 C69.8159958,51.7313569 69.9079958,52.0953569 69.9079958,52.4809569 C69.9079958,53.7881568 68.8495959,54.8449567 67.543196,54.8449567 C66.2375961,54.8449567 65.1791961,53.7881568 65.1791961,52.4809569" id="Fill-32" fill="#271F23"></path>
            <path d="M87.5244748,52.5559169 C87.5244748,52.3791169 87.5276748,52.2207169 87.5388748,52.0743169 C87.5772748,51.5439169 91.0380746,51.2447169 91.1764746,51.4759169 C91.3908746,51.8327169 92.2532745,52.1119169 92.2532745,52.5559169 C92.2532745,53.8623168 91.1940746,54.9215167 89.8884746,54.9215167 C88.5828747,54.9215167 87.5244748,53.8623168 87.5244748,52.5559169" id="Fill-34" fill="#271F23"></path>
            <path d="M61.9103963,55.1106367 L59.9703964,55.1106367 C59.7495964,55.1106367 59.5703964,54.9314367 59.5703964,54.7106367 C59.5703964,54.4898368 59.7495964,54.3106368 59.9703964,54.3106368 L61.7639963,54.3106368 L63.5687962,52.7882369 C65.7063961,51.091437 68.0071959,51.064237 68.0935959,51.076237 C71.9679957,51.076237 73.3759956,52.9610368 73.4343956,53.0418368 L74.0839956,53.8210368 C74.1831956,53.9394368 74.2047956,54.1050368 74.1383956,54.2458368 C74.0727956,54.3866368 73.9311956,54.4762368 73.7767956,54.4762368 L72.7503957,54.4762368 C72.5287957,54.4762368 72.3503957,54.2970368 72.3503957,54.0762368 C72.3503957,53.8554368 72.5287957,53.6762368 72.7503957,53.6762368 L72.9231957,53.6762368 L72.8023957,53.5322368 C72.7751957,53.4962368 71.5279957,51.8762369 68.0935959,51.8762369 C68.0719959,51.8762369 65.9783961,51.8962369 64.0751962,53.4074368 L62.1679963,55.0162367 C62.0959963,55.0778367 62.0047963,55.1106367 61.9103963,55.1106367" id="Fill-36" fill="#271F23"></path>
            <path d="M64.1135162,54.2262368 L63.0871162,54.2262368 C62.8655163,54.2262368 62.6871163,54.0470368 62.6871163,53.8262368 C62.6871163,53.6054368 62.8655163,53.4262368 63.0871162,53.4262368 L64.1135162,53.4262368 C64.3343162,53.4262368 64.5135162,53.6054368 64.5135162,53.8262368 C64.5135162,54.0470368 64.3343162,54.2262368 64.1135162,54.2262368" id="Fill-38" fill="#271F23"></path>
            <path d="M62.7916763,58.0160765 C65.8228761,59.6680764 69.7372758,59.5320765 72.3964757,57.2312766 C72.8852757,56.8072766 72.1748757,56.1024767 71.6892757,56.5224766 C69.3788759,58.5224765 65.9100761,58.5776765 63.2964762,57.1520766 C62.7300763,56.8440766 62.2252763,57.7072766 62.7916763,58.0160765" id="Fill-40" fill="#BCD4F9"></path>
            <path d="M86.4244748,57.3083166 C89.3700747,58.7019165 92.9956745,59.7051164 95.9292743,57.6083166 C96.4484743,57.2363166 95.9500743,56.3683166 95.4244743,56.7443166 C92.7932745,58.6251165 89.5628747,57.6915166 86.9292748,56.4443166 C86.3492749,56.1707167 85.8412749,57.0323166 86.4244748,57.3083166" id="Fill-42" fill="#BCD4F9"></path>
            <path d="M64.9346361,82.9778351 C64.7698361,82.9778351 64.6162361,82.8762351 64.5578362,82.7122351 C63.0906362,78.6042353 63.4138362,74.5010356 65.4442361,71.4546357 C65.8922361,70.7378358 69.9778358,64.3946362 73.1730356,64.8810361 C73.3906356,64.9154361 73.5402356,65.1210361 73.5050356,65.3386361 C73.4714356,65.5578361 73.2658356,65.7058361 73.0482356,65.6714361 C70.8570358,65.3282361 67.554636,69.5882359 66.1162361,71.8882357 C64.2202362,74.7314355 63.9298362,78.5754353 65.3114361,82.4442351 C65.3850361,82.6514351 65.2770361,82.8810351 65.0690361,82.9546351 C65.0242361,82.9706351 64.9794361,82.9778351 64.9346361,82.9778351" id="Fill-44" fill="#BCD4F9"></path>
            <path d="M93.7767944,80.3442352 C93.7343944,80.3442352 93.6927944,80.3378352 93.6503944,80.3234352 C93.4407944,80.2530352 93.3271944,80.0266352 93.3967944,79.8178352 C94.0495944,77.8594354 94.1679944,76.0706355 93.7839944,74.0178356 C93.3511944,71.4250357 90.6247946,68.2346359 86.4887948,65.4762361 C86.3039949,65.3546361 86.2551949,65.1050361 86.3775949,64.9218361 C86.4999948,64.7378361 86.7487948,64.6882361 86.9319948,64.8106361 C89.0047947,66.1946361 93.8983944,69.8442358 94.5711944,73.8778356 C94.9815943,76.0642355 94.8535943,77.9762354 94.1559944,80.0706352 C94.0999944,80.2378352 93.9439944,80.3442352 93.7767944,80.3442352" id="Fill-46" fill="#BCD4F9"></path>
            <path d="M65.7759961,72.0762357 C65.7039961,72.0762357 65.6303961,72.0578357 65.5639961,72.0154357 C65.3775961,71.8978357 65.3207961,71.6514357 65.4375961,71.4642357 C65.8927961,70.7362358 69.9775958,64.3938362 73.1727956,64.8810361 C73.3911956,64.9154361 73.5399956,65.1210361 73.5047956,65.3386361 C73.4711956,65.5578361 73.2655956,65.7058361 73.0479956,65.6714361 C70.8575958,65.3274361 67.555196,69.5882359 66.1159961,71.8882357 C66.0399961,72.0098357 65.9095961,72.0762357 65.7759961,72.0762357" id="Fill-48" fill="#71748D"></path>
            <path d="M94.1759944,74.3442356 C93.9839944,74.3442356 93.8143944,74.2050356 93.7823944,74.0090356 C93.3511944,71.4250357 90.6247946,68.2346359 86.4887948,65.4762361 C86.3039949,65.3546361 86.2551949,65.1050361 86.3775949,64.9218361 C86.4999948,64.7378361 86.7487948,64.6882361 86.9319948,64.8106361 C89.0047947,66.1938361 93.8983944,69.8442358 94.5711944,73.8778356 C94.6071944,74.0954356 94.4599944,74.3018356 94.2423944,74.3378356 C94.2199944,74.3418356 94.1975944,74.3442356 94.1759944,74.3442356" id="Fill-50" fill="#71748D"></path>
            <path d="M66.873676,77.4762354 C66.873676,77.4762354 68.1312759,76.4562354 71.9312757,76.6234354 C75.7312755,76.7890354 76.8432754,77.6762354 79.9432752,77.6762354 C83.0432751,77.6762354 86.5432748,76.1106355 89.8896746,76.7442354 C92.3984745,77.2186354 91.5440745,76.8378354 91.5440745,76.8378354 C91.5440745,76.8378354 87.5768748,82.5762351 79.8768752,82.5762351 C70.5768758,82.5762351 66.873676,77.4762354 66.873676,77.4762354" id="Fill-52" fill="#FFFFFF"></path>
            <path d="M67.493996,77.5887154 C68.5299959,78.7143153 72.3315957,82.1759151 79.8771952,82.1759151 C85.7219949,82.1759151 89.3451947,78.7927153 90.6683946,77.2879154 C90.4275946,77.2487154 90.1435946,77.1991154 89.8147946,77.1367154 C89.3035947,77.0391154 88.7723947,76.9927154 88.1907947,76.9927154 C86.7923948,76.9927154 85.3547949,77.2727154 83.965195,77.5447154 C82.5651951,77.8183154 81.2435952,78.0759153 79.9435952,78.0759153 C78.3411953,78.0759153 77.2491954,77.8439154 76.0947955,77.5983154 C74.9507955,77.3551154 73.7683956,77.1047154 71.9131957,77.0231154 C69.4363959,76.9127154 68.0851959,77.3255154 67.493996,77.5887154 M79.8771952,82.9759151 C70.4803958,82.9759151 66.705996,77.9263154 66.549196,77.7111154 C66.425196,77.5391154 66.456396,77.2999154 66.621196,77.1655154 C66.673996,77.1231154 68.0195959,76.0575155 71.9483957,76.2231155 C73.8699956,76.3071155 75.1403955,76.5775154 76.2611955,76.8159154 C77.4219954,77.0631154 78.4251953,77.2759154 79.9435952,77.2759154 C81.1659952,77.2759154 82.4507951,77.0255154 83.811595,76.7599154 C85.2395949,76.4807154 86.7147948,76.1927155 88.1907947,76.1927155 C88.8227947,76.1927155 89.4027947,76.2439155 89.9635946,76.3511154 C90.6211946,76.4743154 91.0163946,76.5343154 91.2539946,76.5615154 C91.3691946,76.4407154 91.5507945,76.4023154 91.7067945,76.4719154 C92.0939945,76.6439154 92.1035945,76.8959154 92.0755945,77.0311154 C92.0491945,77.1487154 91.9579945,77.3415154 91.6371945,77.3759154 C90.6531946,78.6103153 86.6915948,82.9759151 79.8771952,82.9759151" id="Fill-54" fill="#7EA3FF"></path>
            <path d="M80.0767952,72.9762357 C79.2807953,72.9762357 78.3815953,72.2146357 77.7255954,71.6578357 L77.5207954,71.4842357 C77.3511954,71.3418357 77.3271954,71.0898358 77.4687954,70.9210358 C77.6103954,70.7514358 77.8623954,70.7274358 78.0327953,70.8690358 L78.2431953,71.0466358 C78.7407953,71.4690357 79.5743953,72.1762357 80.0767952,72.1762357 C82.4591951,72.1762357 83.186395,71.4290357 84.027995,70.5642358 L84.293595,70.2938358 C84.450395,70.1378358 84.703195,70.1378358 84.8599949,70.2938358 C85.0159949,70.4498358 85.0159949,70.7026358 84.8599949,70.8594358 L84.601595,71.1218358 C83.714395,72.0338357 82.7959951,72.9762357 80.0767952,72.9762357" id="Fill-56" fill="#71748D"></path>
            <path d="M74.9759955,69.7762358 C74.8983955,69.7762358 74.8199955,69.7546358 74.7511955,69.7074358 C73.1479956,68.6098359 73.1743956,67.923436 73.3591956,66.802636 C73.4039956,66.530636 73.4559956,66.2210361 73.4775956,65.8530361 C73.4911956,65.6322361 73.6799956,65.4578361 73.8999956,65.4778361 C74.1207956,65.4898361 74.2887956,65.6794361 74.2759956,65.8994361 C74.2519956,66.305036 74.1967956,66.638636 74.1487956,66.933836 C73.9983956,67.844236 73.9423956,68.1842359 75.2023955,69.0458359 C75.3847955,69.1706359 75.4311955,69.4210359 75.3063955,69.6018359 C75.2287955,69.7154358 75.1039955,69.7762358 74.9759955,69.7762358" id="Fill-58" fill="#71748D"></path>
            <path d="M75.6721555,50.539517 C75.9449555,50.661917 75.5329555,50.264317 75.7121555,50.570717 C75.7897555,50.704317 75.8057555,50.922717 75.8345555,51.071517 C75.9273555,51.5531169 75.8993555,52.0747169 75.8889555,52.5619169 C75.8793555,53.0451168 75.8417555,53.5275168 75.7953555,54.0083168 C75.7833555,54.1427168 75.6857555,54.9075167 75.7457555,54.4779168 C75.5689555,55.7387167 77.4961554,56.2819166 77.6745554,55.0091167 C77.8993554,53.4051168 78.5777553,49.664317 76.6817554,48.8131171 C75.5153555,48.2891171 74.4969556,50.012317 75.6721555,50.539517" id="Fill-60" fill="#BCD4F9"></path>
            <path d="M85.5103949,48.1442027 C80.8511952,48.1754371 82.4991951,56.5514366 83.0335951,59.2762365 C83.282395,60.5410364 85.2095949,60.0042364 84.9623949,58.7450365 C84.706395,57.4378366 83.380795,50.158637 85.5103949,50.144237 C86.7991948,50.134637 86.7999948,48.1346371 85.5103949,48.1442027" id="Fill-62" fill="#BCD4F9"></path>
            <path d="M86.1103949,47.8762371 C86.7103948,47.5442372 87.3775948,47.5442372 88.0439948,47.4762372 C89.9103946,47.2106372 91.7775949,47.0762372 93.6439944,46.9442372 C94.9103943,46.8106372 97.1775942,47.3442372 97.9775942,48.6106371 C98.5111941,49.544237 98.2439941,50.010637 98.3103941,51.076237 C97.7775949,48.4106371 94.1103944,48.2106371 91.9103945,48.2762371 C89.3775947,48.3442371 87.1103948,48.5442371 84.7775949,49.544237 C84.7775949,49.544237 85.5775949,48.2106371 86.1103949,47.8762371" id="Fill-64" fill="#271F23"></path>
            <path d="M86.2431949,48.3583171 C88.1863947,47.6159172 90.6423946,47.6679172 92.7103945,47.5103172 C95.4759943,47.3015172 97.7879942,47.9063171 97.8103942,51.075917 C98.1375942,51.031917 98.4647941,50.987917 98.7927941,50.943917 C97.2215942,45.8487173 88.1471947,47.7015172 84.644795,49.0615171 C84.8327949,49.3063171 85.0207949,49.551117 85.2087949,49.795917 C85.5663949,49.2183171 85.9519949,48.6791171 86.4631948,48.2311171 C86.9487948,47.8031172 86.2383949,47.0991172 85.7567949,47.5223172 C85.1791949,48.0311171 84.7495949,48.6399171 84.345595,49.2911171 C84.128795,49.641517 84.491995,50.187917 84.9103949,50.025517 C87.6679948,48.9543171 96.5087942,46.9319172 97.8279942,51.2087169 C97.9927942,51.7423169 98.8143941,51.6519169 98.8104087,51.075917 C98.7927941,48.5511171 98.0319942,47.3015172 95.4935943,46.5967172 C94.0143944,46.1855172 92.3335945,46.5351172 90.8439946,46.6599172 C89.2599947,46.7943172 87.4751948,46.8223172 85.9775949,47.3943172 C85.3815949,47.6215172 85.6391949,48.5887171 86.2431949,48.3583171" id="Fill-66" fill="#271F23"></path>
            <polygon id="Fill-68" fill="#E3ECF5" points="69.3767959 54.7106367 65.8231961 54.7106367 64.6767961 54.7106367 66.873596 56.5266366 69.7263958 55.6186367 70.6767958 54.7442367"></polygon>
            <path d="M65.7885561,55.1106367 L66.960556,56.0786367 L69.5205559,55.2642367 L69.6789558,55.1186367 L69.3669559,55.1106367 L65.7885561,55.1106367 Z M66.873356,56.9266366 C66.781356,56.9266366 66.691756,56.8946366 66.618956,56.8346366 L64.4221562,55.0194367 C64.2917562,54.9114367 64.2429562,54.7338367 64.3005562,54.5754367 C64.3573562,54.4162368 64.5077562,54.3106368 64.6765561,54.3106368 L70.6869558,54.3442368 C70.8493558,54.3474368 70.9941558,54.4514368 71.0509558,54.6026367 C71.1077558,54.7554367 71.0677558,54.9274367 70.9477558,55.0378367 L69.9981558,55.9130367 C69.9549558,55.9522367 69.9037558,55.9818367 69.8477558,55.9994367 L66.994956,56.9074366 C66.954956,56.9210366 66.914156,56.9266366 66.873356,56.9266366 L66.873356,56.9266366 Z" id="Fill-70" fill="#E3ECF8"></path>
            <polyline id="Fill-72" fill="#E3ECF8" points="88.0392748 54.9215967 92.3384745 54.9215967 91.5488745 56.1383967 89.4768747 55.8295967 88.4264747 56.1383967"></polyline>
            <path d="M88.4267947,56.5379966 C88.2531947,56.5379966 88.0939947,56.4243966 88.0427948,56.2499966 C87.9803948,56.0379967 88.1019947,55.8155967 88.3139947,55.7547967 L89.3643947,55.4459967 C89.4187947,55.4291967 89.4779947,55.4243967 89.5355947,55.4339967 L91.3531946,55.7043967 L91.6019945,55.3211967 L88.0395948,55.3211967 C87.8179948,55.3211967 87.6395948,55.1427967 87.6395948,54.9211967 C87.6395948,54.7011967 87.8179948,54.5211968 88.0395948,54.5211968 L92.3387945,54.5211968 C92.4843945,54.5211968 92.6195945,54.6019967 92.6899945,54.7307967 C92.7595945,54.8595967 92.7531945,55.0179967 92.6739945,55.1395967 L91.8835945,56.3547966 C91.7987945,56.4883966 91.6435945,56.5571966 91.4899945,56.5323966 L89.5051947,56.2379966 L88.5395947,56.5211968 C88.5019947,56.5315966 88.4635947,56.5379966 88.4267947,56.5379966" id="Fill-74" fill="#E3ECF8"></path>
            <path d="M46.3431972,9.81063942 C46.5839972,12.6554392 46.3583972,15.4994391 46.2103972,18.3442389 C46.1767972,18.9882389 47.1767972,18.9850389 47.2103972,18.3442389 C47.3583972,15.4994391 47.5839972,12.6554392 47.3431972,9.81063942 C47.2895972,9.17303945 46.2887972,9.16743945 46.3431972,9.81063942" id="Fill-76" fill="#271F23"></path>
            <path d="M48.2588771,13.8090392 C48.7956771,12.1322393 49.1148771,10.3978394 49.725277,8.74423948 C49.948477,8.13783951 48.9820771,7.87783953 48.7612771,8.47783949 C48.1508771,10.1322394 47.8316771,11.8674393 47.2948772,13.5442392 C47.0972772,14.1586392 48.0628771,14.4210391 48.2588771,13.8090392" id="Fill-78" fill="#271F23"></path>
            <path d="M49.541677,12.0629593 C50.313677,10.7621594 50.998477,9.41495944 51.6744769,8.06295952 C51.9616769,7.48775955 51.099277,6.98135958 50.811277,7.55815955 C50.134477,8.91095947 49.4504771,10.2573594 48.6784771,11.5581593 C48.3488771,12.1141593 49.2136771,12.6173592 49.541677,12.0629593" id="Fill-80" fill="#271F23"></path>
            <path d="M99.5557541,16.697359 C101.484554,18.7053589 103.834154,20.1917588 106.057354,21.8429587 C106.574954,22.2277587 107.072554,21.3589587 106.562154,20.9789587 C104.406154,19.3789588 102.133354,17.9381589 100.262954,15.989359 C99.8157541,15.5245591 99.1093541,16.231759 99.5557541,16.697359" id="Fill-82" fill="#271F23"></path>
            <path d="M103.155754,21.7645587 C104.530954,22.8621586 105.910154,23.9541586 107.390954,24.9085585 C107.934954,25.2581585 108.435754,24.3925585 107.895754,24.0445586 C106.486154,23.1357586 105.171754,22.1029587 103.862954,21.0573587 C103.364554,20.6589588 102.651754,21.3613587 103.155754,21.7645587" id="Fill-84" fill="#271F23"></path>
            <path d="M104.544794,24.7285585 C105.391194,26.0917584 106.561594,27.1749584 107.689594,28.2973583 C108.147194,28.7517583 108.854394,28.0453583 108.395994,27.5893584 C107.329594,26.5285584 106.207994,25.5125585 105.407994,24.2245586 C105.068794,23.6781586 104.203994,24.1789586 104.544794,24.7285585" id="Fill-86" fill="#271F23"></path>
            <path d="M52.0744769,10.1957594 C52.8880768,8.85415947 53.7832768,7.57095955 54.7416767,6.32855962 C55.1360767,5.81815965 54.2664768,5.32135968 53.8784768,5.82455965 C52.9200768,7.06535958 52.0248769,8.3493595 51.2112769,9.69095942 C50.876077,10.2445594 51.7408769,10.7461594 52.0744769,10.1957594" id="Fill-88" fill="#271F23"></path>
            <path d="M43.4228774,22.6575186 C42.2916775,24.0439186 40.9628776,25.2511185 39.5244776,26.3111184 C39.0108777,26.6911184 39.5084776,27.5583184 40.0292776,27.1751184 C41.5380775,26.0631184 42.9428774,24.8191185 44.1300774,23.3647186 C44.5340773,22.8695186 43.8308774,22.1575187 43.4228774,22.6575186" id="Fill-90" fill="#271F23"></path>
            <path d="M42.7564775,26.7895184 C41.4812775,28.2063183 40.2092776,29.6231182 39.0780777,31.1583181 C38.6956777,31.6783181 39.5636776,32.1759181 39.9412776,31.6631181 C41.0220776,30.1975182 42.2460775,28.8479183 43.4636774,27.4975184 C43.8940774,27.0191184 43.1892774,26.3095184 42.7564775,26.7895184" id="Fill-92" fill="#271F23"></path>
            <path d="M93.2580744,9.17543945 C94.6652744,10.2442394 96.3964743,10.7178394 97.9244742,11.5754393 C98.4868741,11.8914393 98.9908741,11.0274393 98.4292741,10.7114394 C96.9012742,9.85463941 95.1700743,9.38103944 93.7628744,8.3114395 C93.2484744,7.92183953 92.7508745,8.79143948 93.2580744,9.17543945" id="Fill-94" fill="#271F23"></path>
            <path d="M96.6228742,12.8309592 C97.6212742,13.6549592 98.7716741,14.2029592 99.924474,14.7757591 C100.499674,15.0605591 101.006074,14.1981592 100.429274,13.9117592 C99.3620741,13.3813592 98.2548741,12.8877592 97.3300742,12.1221593 C96.8372742,11.7149593 96.1260743,12.4181593 96.6228742,12.8309592" id="Fill-96" fill="#271F23"></path>
            <path d="M74.5447956,22.1957587 C75.6991955,24.0477586 77.6927954,25.1445585 79.2895953,26.5645584 C79.7695952,26.9909584 80.4791952,26.2861584 79.9959952,25.8573585 C78.4775953,24.5061585 76.5047954,23.4509586 75.4079955,21.6909587 C75.0679955,21.1453587 74.2023956,21.6461587 74.5447956,22.1957587" id="Fill-98" fill="#271F23"></path>
            <path d="M77.1244754,23.0426386 C78.7532753,24.1346386 80.3364752,25.2946385 82.0580751,26.2426384 C82.6228751,26.5546384 83.127675,25.6898385 82.5628751,25.3786385 C80.8412752,24.4314385 79.2580753,23.2714386 77.6292754,22.1786387 C77.0916754,21.8186387 76.5916754,22.6858386 77.1244754,23.0426386" id="Fill-100" fill="#271F23"></path>
            <path d="M80.4892752,23.2309586 C82.0948751,24.8813585 84.274075,25.5765585 86.4436748,26.1581584 C87.0676748,26.3261584 87.3316748,25.3613585 86.7092748,25.1941585 C84.706875,24.6573585 82.6804751,24.0493586 81.1964752,22.5221587 C80.7460752,22.0597587 80.0396752,22.7677586 80.4892752,23.2309586" id="Fill-102" fill="#271F23"></path>
            <path d="M95.9767943,54.4747168 L95.0271943,54.4747168 C94.9103943,54.4747168 94.7999943,54.4251168 94.7247944,54.3363168 C94.6927944,54.3011168 91.5223945,50.715517 87.9783948,52.1947169 C86.5183948,52.8075169 85.6727949,54.1259168 85.6647949,54.1395168 C85.5471949,54.3275168 85.2991949,54.3843168 85.1135949,54.2643168 C84.9263949,54.1467168 84.8703949,53.8995168 84.9887949,53.7131168 C85.0271949,53.6499168 85.9791949,52.1651169 87.6695948,51.4579169 C91.3655946,49.912317 94.5327944,52.9627168 95.2031943,53.6747168 L95.9767943,53.6747168 C96.1975943,53.6747168 96.3767943,53.8547168 96.3767943,54.0747168 C96.3767943,54.2955168 96.1975943,54.4747168 95.9767943,54.4747168" id="Fill-104" fill="#271F23"></path>
            <line x1="87.8392748" y1="54.7106367" x2="85.1264749" y2="54.7106367" id="Fill-106" fill="#E3ECF8"></line>
            <path d="M87.8392748,55.1106367 L85.1264749,55.1106367 C84.9056749,55.1106367 84.7264749,54.9314367 84.7264749,54.7106367 C84.7264749,54.4898368 84.9056749,54.3106368 85.1264749,54.3106368 L87.8392748,54.3106368 C88.0600748,54.3106368 88.2392747,54.4898368 88.2392747,54.7106367 C88.2392747,54.9314367 88.0600748,55.1106367 87.8392748,55.1106367" id="Fill-108" fill="#BCD4F9"></path>
            <path d="M66.910396,49.0411171 C70.3271958,49.675517 75.0095955,51.088317 75.7455955,55.0091167 C75.9839955,56.2763166 77.9111954,55.7379167 77.6743954,54.4779168 C76.8015954,49.831517 71.5527957,47.8763171 67.442396,47.1123172 C66.1823961,46.8779172 65.6439961,48.8051171 66.910396,49.0411171" id="Fill-110" fill="#BCD4F9"></path>
            <path d="M73.6697556,49.984077 C74.4561556,50.788877 75.1401555,51.7096769 75.1769555,52.8760768 C75.2177555,54.1632768 77.2177554,54.1672768 77.1769554,52.8760768 C77.1225554,51.164877 76.2529555,49.766477 75.0841555,48.5688771 C74.1809556,47.6456772 72.7673557,49.0608771 73.6697556,49.984077" id="Fill-112" fill="#BCD4F9"></path>
            <path d="M76.1471155,48.9996771 C76.4135154,48.3996771 75.6431155,47.9340771 74.9767155,47.8012772 C73.5103156,47.5340772 70.5775158,47.1444772 69.1103159,46.7444772 C67.377516,46.2764772 65.2439161,46.6108772 63.5103162,47.1444772 C61.6439163,47.6764772 59.8447164,48.2108771 59.9775164,50.544477 C60.3775164,50.544477 61.1103164,48.6108771 62.4439163,48.1444771 C63.9767162,47.6108772 66.718316,48.1468771 68.3031159,48.3732771 C71.1839158,48.7852771 75.8807155,49.599677 76.1471155,48.9996771" id="Fill-114" fill="#271F23"></path>
            <path d="M76.6471154,48.9996771 C76.5751154,47.9420771 76.0839155,47.6684772 75.1095155,47.3188772 C73.2175156,46.6412772 70.2311158,46.1876772 68.2143159,46.0748773 C64.9415161,45.8908773 59.7295164,46.5148772 59.4775165,50.544477 C59.4543165,50.918077 59.9207164,51.1716769 60.2303164,50.975677 C61.7727163,49.995677 61.3847163,48.6060771 63.9983162,48.4164771 C66.1439161,48.2604771 68.4511159,48.8956771 70.5735158,49.2116771 C72.1263157,49.4428771 75.1383155,50.418877 76.4999154,49.3540771 C77.0079154,48.9556771 76.2951155,48.2540771 75.7935155,48.6460771 C74.9615155,49.2980771 71.6487157,48.3644771 70.8391158,48.2476771 C69.4647159,48.0492771 68.0943159,47.8116772 66.716716,47.6356772 C65.2143161,47.4444772 63.7935162,47.3188772 62.3111163,47.6612772 C60.9943164,47.9644771 60.7255164,49.4780771 59.7255164,50.111677 C59.9759164,50.255677 60.2271164,50.399677 60.4775164,50.544477 C60.6935164,47.0908772 66.607916,46.7780772 68.9775159,47.2252772 C69.9199158,47.4044772 75.5679155,47.8380771 75.6471155,48.9996771 C75.6903155,49.639677 76.6903154,49.644477 76.6471154,48.9996771" id="Fill-116" fill="#271F23"></path>
            <path d="M79.2791953,142.867671 C79.0959953,142.867671 78.9351953,142.742871 78.8911953,142.564472 L72.8031957,118.295673 C68.5399959,118.824473 63.6535962,130.111672 62.7695963,134.750872 C62.7279963,134.967672 62.5191963,135.109272 62.3015963,135.069272 C62.0847963,135.027672 61.9423963,134.818072 61.9839963,134.601272 C62.7959963,130.338872 68.0343959,117.476473 73.1103956,117.476473 C73.2943956,117.476473 73.4535956,117.601273 73.4975956,117.778873 L79.2407953,140.670872 C80.5351952,134.571672 84.7551949,116.365273 88.9815947,116.365273 C89.7247947,116.365273 90.3615946,116.672473 90.8735946,117.278073 C93.8631944,120.810073 91.6655945,134.175672 91.5711945,134.742872 C91.5343945,134.959672 91.3263946,135.106072 91.1103946,135.070872 C90.8927946,135.034072 90.7455946,134.827672 90.7823946,134.610072 C90.8047946,134.474872 93.0151945,121.046073 90.2631946,117.794873 C89.9047946,117.371673 89.4855947,117.165273 88.9815947,117.165273 C85.8711949,117.165273 81.6199951,132.732472 79.6711953,142.545272 C79.6343953,142.728471 79.4759953,142.862071 79.2887953,142.867671 L79.2791953,142.867671 Z" id="Fill-118" fill="#7EA3FF"></path>
            <path d="M26.3197584,145.304391 C26.1661584,145.304391 26.0189584,145.215591 25.9533585,145.065191 C25.2237585,143.402791 24.4477585,141.274792 23.5493586,138.808392 C19.9709588,128.988392 14.5645591,114.149993 4.87175971,111.269193 C4.66055972,111.205993 4.53895973,110.984393 4.60295973,110.771593 C4.66615972,110.560393 4.88535971,110.441993 5.1005597,110.501993 C15.1781591,113.497193 20.6685588,128.564392 24.3013586,138.534792 C25.1949585,140.986792 25.9661585,143.104391 26.6861584,144.744391 C26.7741584,144.945991 26.6821584,145.181991 26.4805584,145.270791 C26.4285584,145.293991 26.3733584,145.304391 26.3197584,145.304391" id="Fill-120" fill="#7EA3FF"></path>
            <path d="M120.719753,140.620792 C120.713353,140.620792 120.706953,140.620792 120.700553,140.619192 C120.479753,140.608792 120.309353,140.421592 120.319753,140.201592 C120.786953,130.382392 121.569353,113.947993 115.053353,104.174394 C114.930953,103.991194 114.979753,103.742394 115.164553,103.620794 C115.347753,103.496794 115.596553,103.547194 115.718953,103.731194 C122.380553,113.724793 121.590953,130.321592 121.118953,140.238392 C121.108553,140.452792 120.932553,140.620792 120.719753,140.620792" id="Fill-122" fill="#7EA3FF"></path>
            <path d="M48.0767971,60.9747164 C47.8767971,59.9747164 46.6903973,58.0323165 45.6903973,57.8323166" id="Fill-124" fill="#BCD4F9"></path>
            <path d="M48.0759971,61.3747163 C47.8895971,61.3747163 47.7223972,61.2443163 47.6847972,61.0531164 C47.5039972,60.1523164 46.3903972,58.3811165 45.6111973,58.2243165 C45.3943973,58.1819165 45.2543973,57.9707165 45.2975973,57.7547166 C45.3407973,57.5379166 45.5519973,57.3955166 45.7679973,57.4411166 C46.9975972,57.6867166 48.2559971,59.8291164 48.4687971,60.8963164 C48.5119971,61.1131164 48.3711971,61.3251163 48.1551971,61.3675163 C48.1279971,61.3723163 48.1015971,61.3747163 48.0759971,61.3747163" id="Fill-126" fill="#7EA3FF"></path>
            <path d="M42.7018375,60.9747164 C44.3018374,62.5747163 44.1018374,65.7747161 45.7018375,67.174716" id="Fill-128" fill="#BCD4F9"></path>
            <path d="M45.7018373,67.574716 C45.6082373,67.574716 45.5146373,67.541916 45.4386373,67.475516 C44.5410373,66.691516 44.1666374,65.4339161 43.8050374,64.2187162 C43.4762374,63.1163162 43.1370374,61.9755163 42.4186375,61.2579163 C42.2626375,61.1011164 42.2626375,60.8483164 42.4186375,60.6915164 C42.5754375,60.5355164 42.8282374,60.5355164 42.9850374,60.6915164 C43.8458374,61.5531163 44.2146374,62.7915163 44.5714373,63.9915162 C44.9162373,65.1475161 45.2418373,66.2411161 45.9650373,66.874716 C46.1314373,67.019516 46.1482372,67.271516 46.0026373,67.437916 C45.9234373,67.528316 45.8130373,67.574716 45.7018373,67.574716" id="Fill-130" fill="#7EA3FF"></path>
            <path d="M67.833036,77.1106354 C67.821036,77.6706354 67.684236,78.2594353 67.850636,78.8090353 C68.1290359,78.6474353 68.4082359,78.4850353 68.6858359,78.3226353 C68.4562359,78.0610353 68.2266359,77.8010354 67.9962359,77.5394354 L67.9962359,78.2474353 C68.2266359,77.9866354 68.4562359,77.7258354 68.6858359,77.4642354 C69.1114359,76.9826354 68.4066359,76.2722355 67.9794359,76.7578354 C67.749836,77.0178354 67.519436,77.2786354 67.289036,77.5394354 C67.100236,77.7546354 67.100236,78.0322353 67.289036,78.2474353 C67.519436,78.5082353 67.749836,78.7690353 67.9794359,79.0306353 C68.3138359,79.4098353 68.9554359,79.0098353 68.8154359,78.5442353 C68.6802359,78.0946353 68.8226359,77.5706354 68.8330359,77.1106354 C68.8466359,76.4650354 67.846636,76.4674354 67.833036,77.1106354" id="Fill-132" fill="#7EA3FF"></path>
            <path d="M88.3111947,77.0629554 C88.7903947,77.6893554 88.1975947,78.9349553 87.8023948,79.4845553 C87.4255948,80.0101552 88.2935947,80.5077552 88.6655947,79.9893552 C89.2647947,79.1573553 89.8807946,77.4821554 89.1743947,76.5581554 C88.7887947,76.0541555 87.9199948,76.5509554 88.3111947,77.0629554" id="Fill-134" fill="#7EA3FF"></path>
            <path d="M57.3767966,56.0762367 C57.3623966,56.0762367 57.3479966,56.0754367 57.3319966,56.0746367 C56.0967967,55.9378367 54.7951967,55.8106367 53.6431968,55.8106367 C53.4223968,55.8106367 53.2431968,55.6314367 53.2431968,55.4106367 C53.2431968,55.1898367 53.4223968,55.0106367 53.6431968,55.0106367 C54.8343967,55.0106367 56.1623967,55.1394367 57.4207966,55.2786367 C57.6399966,55.3026367 57.7983966,55.5010367 57.7743966,55.7210367 C57.7519966,55.9250367 57.5783966,56.0762367 57.3767966,56.0762367" id="Fill-136" fill="#BCD4F9"></path>
            <path d="M90.2103946,76.7106354 L88.9263947,76.7106354 C88.6167947,76.7106354 88.3359947,77.0322354 88.4439947,77.3442354 C88.6231947,77.8602354 88.8015947,78.3778353 88.9815947,78.8946353 C89.1215947,79.3010353 89.6599947,79.3986353 89.8943946,79.0146353 C90.2111946,78.4986353 90.7647946,77.8554354 90.7103946,77.2106354 C90.6559946,76.5730354 89.6551947,76.5674354 89.7103947,77.2106354 C89.7279947,77.4266354 89.5559947,77.6586354 89.4535947,77.8362354 C89.3207947,78.0658353 89.1695947,78.2842353 89.0311947,78.5098353 L89.9455946,78.6290353 C89.7663946,78.1122353 89.5871947,77.5946354 89.4079947,77.0778354 C89.2471947,77.2890354 89.0863947,77.4994354 88.9263947,77.7106354 L90.2103946,77.7106354 C90.8551946,77.7106354 90.8551946,76.7106354 90.2103946,76.7106354" id="Fill-163" fill="#7EA3FF"></path>
        </g>
    </g>
</svg>