<?xml version="1.0" encoding="UTF-8"?>
<svg width="154px" height="146px" viewBox="0 0 154 146" version="1.1" xmlns="http://www.w3.org/2000/svg" xmlns:xlink="http://www.w3.org/1999/xlink">
    <title>Illustration / Greg</title>
    <defs>
        <polygon id="path-1" points="0.403419915 0.230934887 57.2272 0.230934887 57.2272 60.7701773 0.403419915 60.7701773"></polygon>
        <polygon id="path-3" points="0 145.068 152.4272 145.068 152.4272 0 0 0"></polygon>
    </defs>
    <g id="Illustration-/-Greg" stroke="none" stroke-width="1" fill="none" fill-rule="evenodd">
        <g id="Greg">
            <path d="M99.77744,45.74728 C100.97744,44.34728 105.14304,46.56408 105.14304,49.44728 C105.14304,52.05048 104.44304,54.24728 104.54304,56.94728 C104.64304,59.84728 104.44304,62.64728 103.34304,65.44728 C102.94304,66.34728 99.94304,71.74728 99.04304,71.64728" id="Fill-1" fill="#BCD4F9"></path>
            <path d="M99.04928,72.04728 C99.03248,72.04728 99.01568,72.04648 98.99888,72.04488 C98.77888,72.02008 98.62128,71.82248 98.64528,71.60248 C98.66928,71.38328 98.87248,71.22968 99.08688,71.24968 C99.77968,71.04728 102.43968,66.49448 102.97728,65.28488 C104.16048,62.27208 104.22208,59.25288 104.14288,56.96088 C104.08848,55.48328 104.26848,54.14648 104.44288,52.85448 C104.59728,51.71048 104.74288,50.63128 104.74288,49.44728 C104.74288,47.84648 103.25808,46.43288 101.86048,45.91608 C101.06368,45.62248 100.38208,45.65768 100.08048,46.00728 C99.93728,46.17608 99.68528,46.19608 99.51728,46.05048 C99.34928,45.90648 99.33008,45.65528 99.47328,45.48728 C100.00448,44.86488 101.00128,44.74568 102.13728,45.16568 C103.83008,45.79208 105.54288,47.46408 105.54288,49.44728 C105.54288,50.68568 105.38688,51.84168 105.23568,52.96168 C105.06608,54.22008 104.89088,55.52248 104.94208,56.93208 C105.02448,59.30248 104.95888,62.42888 103.71488,65.59368 C103.67888,65.67528 100.48448,72.04648 99.04928,72.04728" id="Fill-3" fill="#7EA3FF"></path>
            <path d="M100.37424,53.55976 C100.34384,53.55976 100.31344,53.55576 100.28224,53.54856 C100.06704,53.49896 99.93424,53.28296 99.98464,53.06856 C100.35424,51.49976 101.49104,50.13176 103.27584,49.11176 C103.46704,49.00136 103.71184,49.06936 103.82144,49.26136 C103.93104,49.45256 103.86384,49.69736 103.67264,49.80696 C102.56624,50.43896 101.16384,51.54936 100.76304,53.25176 C100.72064,53.43576 100.55584,53.55976 100.37424,53.55976" id="Fill-5" fill="#7EA3FF"></path>
            <path d="M99.03208,64.69888 C98.85928,64.69888 98.70008,64.58608 98.64888,64.41328 C98.58488,64.20128 98.70648,63.97888 98.91768,63.91568 C100.37848,63.48048 101.59528,63.00528 101.69368,61.58608 C101.70888,61.36608 101.90408,61.20768 102.12008,61.21568 C102.34088,61.23088 102.50728,61.42128 102.49208,61.64208 C102.34648,63.72848 100.34328,64.32528 99.14648,64.68208 C99.10808,64.69328 99.06968,64.69888 99.03208,64.69888" id="Fill-7" fill="#7EA3FF"></path>
            <path d="M46.52584,49.09416 C45.22584,47.79416 42.05704,48.25016 42.05704,50.86776 C42.05704,51.86776 42.75704,56.46776 42.85704,57.76776 C43.15704,60.36776 43.39464,62.17576 43.69784,64.70696 C43.95704,66.86776 47.15704,74.46776 48.45704,71.96776" id="Fill-9" fill="#BCD4F9"></path>
            <path d="M47.8188,72.86608 C47.7516,72.86608 47.6908,72.85888 47.638,72.84928 C45.8236,72.51888 43.5068,66.47808 43.3004,64.75408 C43.1788,63.73808 43.0676,62.83888 42.9588,61.95728 C42.7964,60.64368 42.6388,59.37008 42.4596,57.81328 C42.4164,57.25888 42.2676,56.12208 42.1092,54.91888 C41.8868,53.22368 41.6572,51.47088 41.6572,50.86768 C41.6572,49.64928 42.2788,48.69248 43.3652,48.24288 C44.5436,47.75488 45.9924,47.99488 46.8084,48.81168 C46.9652,48.96768 46.9652,49.22048 46.8084,49.37728 C46.6524,49.53328 46.3996,49.53328 46.2428,49.37728 C45.6548,48.78848 44.5484,48.61808 43.67,48.98208 C43.2172,49.17008 42.4572,49.66448 42.4572,50.86768 C42.4572,51.41808 42.694,53.22288 42.902,54.81568 C43.062,56.02928 43.2124,57.17648 43.2556,57.73648 C43.434,59.27648 43.5908,60.54768 43.7524,61.85888 C43.862,62.74208 43.9724,63.64208 44.0948,64.65888 C44.3348,66.65488 46.6444,71.85488 47.782,72.06208 C47.8268,72.07168 47.942,72.09088 48.102,71.78288 C48.2036,71.58608 48.4436,71.51088 48.6412,71.61248 C48.8372,71.71488 48.9132,71.95568 48.8116,72.15168 C48.506,72.73968 48.106,72.86608 47.8188,72.86608" id="Fill-11" fill="#7EA3FF"></path>
            <path d="M46.71336,56.26448 C46.60536,56.26448 46.49816,56.22128 46.42056,56.13648 C45.86776,55.54288 45.49016,54.79168 45.12456,54.06608 C44.57896,52.98528 44.06296,51.96368 43.02696,51.41808 C42.83096,51.31488 42.75656,51.07408 42.85976,50.87888 C42.96216,50.68208 43.20376,50.60848 43.39896,50.71088 C44.66296,51.37568 45.26056,52.55968 45.83816,53.70608 C46.19496,54.41328 46.53096,55.08128 47.00616,55.59168 C47.15656,55.75408 47.14696,56.00768 46.98536,56.15728 C46.90856,56.22848 46.81096,56.26448 46.71336,56.26448" id="Fill-13" fill="#7EA3FF"></path>
            <path d="M47.61256,65.71056 C46.94376,65.71056 46.35656,65.47536 45.86296,65.00896 C44.78936,63.99296 44.56296,62.25616 44.56296,61.95696 C44.56296,61.73536 44.74216,61.55696 44.96296,61.55696 C45.18456,61.55696 45.36296,61.73536 45.36296,61.95696 C45.36296,62.14016 45.57176,63.63136 46.41336,64.42736 C46.78536,64.77936 47.21736,64.93296 47.73096,64.90736 C47.94696,64.89856 48.14056,65.06336 48.15336,65.28416 C48.16536,65.50496 47.99656,65.69376 47.77576,65.70576 C47.72136,65.70896 47.66616,65.71056 47.61256,65.71056" id="Fill-15" fill="#7EA3FF"></path>
            <path d="M100.12424,140.97544 C96.40824,141.18024 40.64264,140.13304 40.64264,140.13304 L48.71944,86.10504 L51.46504,82.53304 L78.29784,76.51784 L100.19144,83.36904 L100.12424,140.97544 Z" id="Fill-17" fill="#FFFFFF"></path>
            <path d="M68.64144,117.7332 C66.61184,117.794 65.17424,120.6676 64.10864,122.2676 C61.17424,126.8004 60.77584,128.5252 64.77584,131.4596 C67.97584,133.8596 75.04304,136.6004 75.70224,140.7388 C70.17104,140.7388 71.50864,140.7388 61.83984,140.5332 C65.10864,133.2684 71.18064,135.2084 73.98704,130.1332 C74.52144,129.1676 75.12464,128.0052 75.59744,126.7876 C76.42704,124.658 72.04624,117.8268 72.04624,117.8268 C71.13024,117.7316 70.01024,117.694 68.64144,117.7332" id="Fill-19" fill="#BCD4F9"></path>
            <path d="M83.87896,140.53168 C82.65816,140.53168 81.70216,138.92528 80.74696,137.13648 C80.56856,136.80288 80.42056,136.52288 80.30856,136.35488 C79.61256,134.83648 78.86776,133.34688 78.14696,131.90608 C77.42616,130.46288 76.67896,128.97088 76.01016,127.49888 C75.78216,127.04368 75.50216,126.36048 75.17816,125.57008 C74.08456,122.89968 72.25336,118.43088 70.13576,117.85328 C68.70616,117.44608 65.58136,119.89088 58.75256,133.85728 C58.57896,134.21248 58.43656,134.50208 58.33176,134.71248 C58.10936,135.11328 57.90936,135.51968 57.71256,135.91888 C57.01736,137.33168 56.36056,138.66528 55.22536,138.85328 C54.52216,138.97248 53.75256,138.61248 52.89176,137.75008 C51.23976,135.63168 50.21096,131.63408 49.45976,128.71568 C49.31656,128.16048 49.18296,127.63968 49.05576,127.17248 C46.84376,118.32688 46.05496,108.60608 46.64136,97.44688 C46.66616,97.04848 46.68936,96.64048 46.71176,96.21888 C46.94616,91.92848 47.23816,86.58848 50.50216,83.57408 C50.66456,83.42368 50.91736,83.43408 51.06776,83.59568 C51.21816,83.75808 51.20776,84.01248 51.04536,84.16128 C48.01976,86.95568 47.73736,92.11568 47.51096,96.26208 C47.48776,96.68528 47.46456,97.09728 47.44056,97.49248 C46.85816,108.56768 47.63896,118.21168 49.82856,126.97088 C49.95576,127.43248 50.09096,127.95648 50.23416,128.51648 C50.96776,131.36688 51.97256,135.27088 53.49016,137.22208 C54.11256,137.83968 54.66216,138.13328 55.09496,138.06528 C55.82456,137.94368 56.41976,136.73568 56.99576,135.56528 C57.19736,135.15488 57.40376,134.73568 57.62456,134.33888 C57.72136,134.14528 57.86216,133.85728 58.03336,133.50608 C61.70696,125.99328 66.98216,116.11968 70.35096,117.08208 C72.84376,117.76288 74.69496,122.27888 75.91896,125.26688 C76.23656,126.04288 76.51096,126.71248 76.73176,127.15408 C77.40136,128.62528 78.14456,130.11248 78.86216,131.54848 C79.58696,132.99568 80.33496,134.49248 81.00536,135.96848 C81.09576,136.09488 81.25896,136.39728 81.45256,136.75888 C81.96776,137.72528 83.04056,139.73328 83.84136,139.73328 C85.60536,139.55488 88.76296,133.24608 90.93336,127.45968 C95.43416,115.92448 97.88376,105.37088 98.64216,94.24048 C98.64136,93.57248 98.71336,92.70608 98.79016,91.78848 C99.03176,88.87568 99.33336,85.25088 97.73896,83.78208 C97.07656,83.17168 96.12856,82.98048 94.83976,83.19488 C94.62136,83.23408 94.41576,83.08368 94.37976,82.86608 C94.34296,82.64848 94.49096,82.44208 94.70856,82.40608 C96.23416,82.14928 97.43656,82.41568 98.28056,83.19328 C100.16296,84.92768 99.84376,88.76848 99.58696,91.85408 C99.51176,92.75488 99.44136,93.60608 99.44136,94.26768 C98.67576,105.50848 96.21016,116.13808 91.68136,127.74608 C90.58536,130.66848 86.77656,140.24288 83.88056,140.53168 L83.87896,140.53168 Z" id="Fill-21" fill="#7EA3FF"></path>
            <path d="M39.85712,90.2676 C28.43872,94.7084 12.17872,99.7332 6.50832,108.7596 C4.83552,111.422 4.19152,115.1956 2.52432,121.2004 C-0.98048,134.6332 -1.40848,144.1948 15.57552,143.9284 C24.44752,143.7884 51.46992,140.33 51.46992,140.33 C48.44592,124.2476 46.63392,102.3532 48.71952,86.1052 C45.80672,87.5804 42.85232,88.9676 39.85712,90.2676 C35.05712,92.1332 42.99952,89.046 39.85712,90.2676" id="Fill-23" fill="#271F23"></path>
            <path d="M39.72424,89.7856 C28.51544,94.1104 14.17464,97.676 6.58824,107.7432 C5.07624,109.7496 4.40024,112.264 3.74104,114.6424 C2.71944,118.3352 1.71864,122.0504 0.92344,125.7984 C0.10184,129.6688 -0.71736,134.5056 1.05464,138.2456 C5.14744,146.884 18.18264,144.4288 25.80744,143.7264 C34.37704,142.936 42.93224,141.9208 51.46984,140.8304 C51.80824,140.7872 52.01544,140.5456 51.95144,140.1976 C48.69304,122.5464 47.04264,103.9896 49.21944,86.1048 C49.26904,85.6984 48.76664,85.5232 48.46744,85.6728 C45.08424,87.3688 41.67144,89.0304 38.14104,90.4008 C38.22984,90.7224 38.31784,91.0432 38.40744,91.3656 C39.18584,91.0616 39.96584,90.7592 40.74504,90.456 C40.65704,90.1352 40.56824,89.8128 40.47944,89.492 C40.22824,89.5896 39.97544,89.688 39.72424,89.7856 C39.12984,90.0168 39.38824,90.984 39.98984,90.7496 C40.24104,90.652 40.49384,90.5544 40.74504,90.456 C41.33944,90.2248 41.08184,89.2576 40.47944,89.492 C39.70024,89.7944 38.92024,90.0976 38.14104,90.4008 C37.54664,90.632 37.80504,91.5992 38.40744,91.3656 C41.58424,90.132 44.66184,88.6648 47.72104,87.164 C48.07624,86.9896 47.67784,91.552 47.63624,92.1288 C47.44584,94.6904 47.37704,97.26 47.33464,99.828 C47.17064,109.7056 47.91704,119.6504 49.23704,129.436 C49.42584,130.836 50.48504,139.9552 51.20824,139.8632 C49.40904,140.092 47.60824,140.312 45.80824,140.532 C39.14984,141.3384 32.48424,142.0952 25.80744,142.7264 C19.64584,143.308 12.86024,144.3064 6.88904,142.264 C-0.78216,139.6384 0.91864,130.3 2.29224,124.2176 C3.21784,120.1152 4.28104,115.9664 5.58424,111.9672 C7.07304,107.4024 10.88264,104.292 14.76664,101.7608 C22.44584,96.7528 31.49864,94.0272 39.98984,90.7496 C40.58504,90.52 40.32664,89.5528 39.72424,89.7856" id="Fill-25" fill="#271F23"></path>
            <path d="M97.35712,90.4332 C96.73392,108.1548 95.44032,123.5284 96.40832,141.1804 C111.38192,139.9596 126.98512,143.65 141.63232,141.8772 C152.10272,140.61 152.80272,143.5204 151.30832,130.902 C148.49952,107.1532 134.74112,106.9412 122.58192,97.802 C120.45872,96.2068 97.94592,82.4804 97.71312,82.594 C97.94592,82.4804 97.21952,85.7172 97.46352,87.3892 C97.35712,90.4332 97.45712,87.5972 97.35712,90.4332" id="Fill-27" fill="#271F23"></path>
            <g id="Group-31" transform="translate(95.200000, 81.868000)">
                <mask id="mask-2" fill="white">
                    <use xlink:href="#path-1"></use>
                </mask>
                <g id="Clip-30"></g>
                <path d="M1.65712,8.5652 C1.04112,25.4844 -0.16048,42.378 0.70832,59.3124 C0.72192,59.5692 0.92672,59.8324 1.20832,59.8124 C18.96352,58.55 36.59472,62.4716 54.35872,59.8404 C58.02512,59.2972 57.23232,54.9604 56.97392,52.2796 C56.28112,45.0844 54.94272,37.9188 50.71312,31.902 C47.59152,27.462 42.90592,24.5604 38.25472,21.962 C33.91392,19.5372 29.83312,16.8732 25.66112,14.19 C21.05552,11.2292 16.36752,8.3924 11.68832,5.5508 C9.07312,3.9628 5.67392,0.9612 2.64592,0.2444 C2.29392,0.1604 1.90672,0.482 2.03152,0.8588 C2.43392,2.0828 1.67792,4.182 1.76352,5.5212 C1.82352,6.4716 1.69072,7.61 1.65712,8.5652 C1.63472,9.2108 2.63472,9.2084 2.65712,8.5652 C2.74752,5.9836 2.85552,3.4436 3.06032,0.8684 C3.01472,1.4308 2.00432,0.9732 3.23392,1.67 C4.05872,2.1372 4.87312,2.6244 5.68832,3.1084 C11.19632,6.3756 16.65552,9.7284 22.08832,13.1172 C26.63312,15.9524 30.95472,19.0684 35.64912,21.6652 C42.05952,25.2132 48.03472,28.782 51.71312,35.3812 C54.22592,39.8868 55.15392,45.1516 55.74592,50.2076 C56.00032,52.3748 57.46512,57.9372 54.50592,58.79 C51.60352,59.6276 48.00752,59.3372 45.01152,59.6636 C38.76032,60.346 32.40352,59.9444 26.14912,59.5236 C20.26592,59.1308 14.39632,58.6372 8.49632,58.5612 C5.69552,58.5252 1.72672,59.9532 1.56032,56.2204 C1.40512,52.7116 1.36512,49.1988 1.36032,45.6876 C1.34512,33.3052 2.20672,20.9356 2.65712,8.5652 C2.68032,7.9196 1.68032,7.922 1.65712,8.5652" id="Fill-29" fill="#271F23" mask="url(#mask-2)"></path>
            </g>
            <path d="M51.4695942,79.59264 C51.4695942,79.59264 51.396,100.66784 67.8928,116.66784 C67.8928,116.66784 69.5912,118.26784 72.4568,116.66784 C75.324,115.06784 95.324,102.53344 94.6568,85.73344 L51.4695942,79.59264 Z" id="Fill-32" fill="#BCD4F9"></path>
            <path d="M74.52424,21.2004 L59.73224,21.2004 C59.73224,21.2004 45.98984,20.6676 47.72424,35.0676 L47.72424,46.6004 L47.72424,56.1708 L46.52424,57.7332 C46.59464,59.8004 47.39144,80.5172 54.73224,90.322 C58.42904,95.2596 65.76824,102.1332 73.65384,102.1332 C73.65384,102.1332 77.14424,102.446 79.57544,101.4412 C86.86984,98.4284 99.12424,89.0676 99.65704,72.5332 L99.85704,56.1708 L99.85704,44.2676 L99.85704,33.7332 C99.85704,33.7332 99.65704,21.2004 81.18984,21.2004 L74.52424,21.2004 Z" id="Fill-34" fill="#E3ECF8"></path>
            <path d="M99.85712,56.17072 L99.85712,44.26752 L99.85712,33.73312 C99.85712,33.73312 99.65712,21.20032 81.18992,21.20032 L74.52432,21.20032 L59.73232,21.20032 C59.73232,21.20032 45.98992,20.66752 47.72432,35.06752 L47.72432,46.60032 L47.72432,59.20032 L46.52432,57.73312 L46.52432,53.52512 C46.52432,53.52512 42.05712,46.36752 42.05712,39.46752 L42.05712,32.06752 C42.05712,32.06752 42.65712,16.16752 56.20672,8.26752 C69.75712,0.36672 86.77872,3.86672 92.31792,13.66752 C92.31792,13.66752 98.85712,14.46752 102.35712,23.16752 C105.85712,31.86752 104.35712,33.14112 104.35712,36.70352 L104.35712,46.48352 C104.35712,46.48352 100.85712,48.50032 100.85712,51.23312 L100.85712,56.17072 L99.82912,58.48352 L99.85712,56.17072 Z" id="Fill-36" fill="#271F23"></path>
            <path d="M46.62424,57.69728 L47.62424,58.91968 L47.62424,35.06768 C47.10424,30.75248 47.92424,27.33648 50.06424,24.92288 C53.29304,21.28208 58.52904,21.09808 59.54504,21.09808 C59.66904,21.09808 59.73624,21.10048 59.73624,21.10048 L81.18984,21.10048 C86.47784,21.10048 93.60504,22.19488 97.52824,27.40688 C99.87864,30.52928 99.95624,33.69968 99.95704,33.73168 L99.95704,56.17088 L99.93464,57.99888 L100.75704,56.14928 L100.75704,51.23328 C100.75704,48.62128 103.80744,46.69488 104.25704,46.42608 L104.25704,36.70368 C104.25704,35.87328 104.33944,35.15728 104.41784,34.46528 C104.68904,32.10128 104.94424,29.86768 102.26424,23.20528 C98.82584,14.65808 92.37064,13.77488 92.30584,13.76688 L92.25544,13.76048 L92.23064,13.71648 C88.84984,7.73568 81.20424,4.01968 72.27624,4.01968 C66.65944,4.01968 61.12024,5.51808 56.25704,8.35328 C42.91144,16.13408 42.16264,31.91328 42.15704,32.07168 L42.15704,39.46768 C42.15704,46.25888 46.56424,53.40128 46.60824,53.47248 L46.62424,53.49648 L46.62424,57.69728 Z M47.82424,59.48048 L46.42424,57.76848 L46.42424,53.55328 C46.13704,53.08208 41.95704,46.11488 41.95704,39.46768 L41.95704,32.06768 C41.96344,31.90448 42.71464,16.01808 56.15624,8.18128 C61.04984,5.32848 66.62424,3.81968 72.27624,3.81968 C81.25544,3.81968 88.95304,7.55648 92.38024,13.57648 C93.00344,13.67728 99.13064,14.87968 102.44984,23.13008 C105.14904,29.83968 104.87784,32.20288 104.61624,34.48848 C104.53864,35.17568 104.45704,35.88448 104.45704,36.70368 L104.45704,46.54128 L104.40744,46.57008 C104.37304,46.58928 100.95704,48.59008 100.95704,51.23328 L100.94824,56.21168 L99.72264,58.96768 L99.75704,56.16928 L99.75704,33.73328 C99.75624,33.70368 99.67784,30.58928 97.36184,27.51808 C93.48584,22.37888 86.42824,21.30048 81.18984,21.30048 L59.73224,21.30048 C59.72664,21.30048 59.66264,21.29808 59.54504,21.29808 C58.54344,21.29808 53.38584,21.47888 50.21304,25.05568 C48.11304,27.42368 47.30904,30.78848 47.82344,35.05488 L47.82424,59.48048 Z" id="Fill-38" fill="#271F23"></path>
            <path d="M99.92424,34.5004 C99.83544,34.5004 99.74584,34.4604 99.68744,34.3844 C99.25464,33.8292 98.75384,33.2548 97.81224,32.8788 C97.65864,32.8172 97.58344,32.6428 97.64504,32.4884 C97.70744,32.3356 97.88264,32.2612 98.03544,32.3212 C99.11544,32.7532 99.69944,33.4228 100.16104,34.0164 C100.26264,34.1468 100.23944,34.3356 100.10824,34.4372 C100.05384,34.4796 99.98824,34.5004 99.92424,34.5004" id="Fill-40" fill="#271F23"></path>
            <path d="M100.12424,33.3004 C100.04664,33.3004 99.97064,33.2708 99.91144,33.2124 C99.71624,33.0172 99.54104,32.7892 99.35544,32.55 C98.89144,31.9508 98.41224,31.33 97.55224,31.118 C97.39144,31.0788 97.29304,30.9164 97.33304,30.7548 C97.37304,30.594 97.53624,30.4964 97.69624,30.5356 C98.75944,30.798 99.35304,31.566 99.82984,32.1836 C100.00344,32.4076 100.16744,32.6188 100.33624,32.7884 C100.45304,32.9052 100.45304,33.0948 100.33624,33.2124 C100.27704,33.2708 100.20104,33.3004 100.12424,33.3004" id="Fill-42" fill="#271F23"></path>
            <path d="M99.51176,30.61216 C99.03416,30.13536 98.55816,29.65856 98.14936,29.11296 C98.05016,28.98016 98.07736,28.79216 98.21016,28.69296 C98.34376,28.59456 98.53096,28.62176 98.62936,28.75376 C99.01256,29.26416 99.45336,29.70496 99.92056,30.17216 L99.51176,30.61216 Z" id="Fill-44" fill="#271F23"></path>
            <path d="M75.40864,24.64576 C75.32784,24.64576 75.24784,24.61296 75.18864,24.54976 C75.07584,24.42896 75.08304,24.23856 75.20464,24.12576 L75.42624,23.92096 C76.65424,22.78896 78.50944,21.07856 78.41504,19.37136 C78.40624,19.20576 78.53264,19.06416 78.69824,19.05536 C78.84464,19.03936 79.00464,19.17296 79.01424,19.33856 C79.12384,21.32896 77.14384,23.15376 75.83264,24.36256 L75.61264,24.56496 C75.55504,24.61936 75.48144,24.64576 75.40864,24.64576" id="Fill-46" fill="#271F23"></path>
            <path d="M72.36488,24.98168 C72.28008,24.98168 72.19528,24.94568 72.13608,24.87528 C72.02888,24.74888 72.04488,24.56008 72.17128,24.45288 C72.37208,24.28248 72.58488,24.10888 72.80408,23.93128 C73.98488,22.96808 75.32408,21.87848 75.72808,20.50168 C75.77528,20.34328 75.93928,20.25048 76.10088,20.29848 C76.25928,20.34488 76.35048,20.51208 76.30408,20.67048 C75.84728,22.22568 74.43128,23.37848 73.18248,24.39608 C72.96728,24.57128 72.75688,24.74248 72.55848,24.91048 C72.50248,24.95848 72.43368,24.98168 72.36488,24.98168" id="Fill-48" fill="#271F23"></path>
            <path d="M70.89304,23.91608 C70.79784,23.91608 70.70504,23.87048 70.64584,23.78648 C70.55144,23.65048 70.58584,23.46408 70.72184,23.36888 C71.93624,22.52968 72.92344,21.76808 73.79704,20.78728 C73.90744,20.66328 74.09704,20.65288 74.22024,20.76248 C74.34344,20.87208 74.35544,21.06248 74.24504,21.18568 C73.33224,22.21208 72.31304,22.99848 71.06344,23.86328 C71.01144,23.89928 70.95144,23.91608 70.89304,23.91608" id="Fill-50" fill="#271F23"></path>
            <path d="M91.92424,14.7676 C91.88664,14.7676 91.84984,14.7604 91.81304,14.7468 C91.65944,14.6852 91.58424,14.5108 91.64504,14.3564 C91.80024,13.9668 92.10424,13.8692 92.34744,13.79 C92.40984,13.7708 92.47624,13.7492 92.54504,13.7212 C94.39064,13.0844 96.08744,12.6028 98.32264,13.1076 C98.48424,13.1444 98.58584,13.3052 98.54904,13.466 C98.51224,13.6276 98.35064,13.7284 98.19064,13.6924 C96.30024,13.266 94.82104,13.5716 92.75464,14.2844 C92.68504,14.3124 92.60664,14.3372 92.53224,14.362 C92.29944,14.4364 92.24904,14.462 92.20344,14.5788 C92.15624,14.6956 92.04264,14.7676 91.92424,14.7676" id="Fill-52" fill="#271F23"></path>
            <path d="M100.12424,16.7676 C100.08344,16.7676 100.04264,16.7596 100.00504,16.7428 C98.66104,16.158 97.13544,15.7284 95.34104,15.4292 C94.84424,15.306 94.13384,15.13 93.78424,15.4284 C93.66024,15.5356 93.47064,15.522 93.36184,15.3948 C93.25384,15.2692 93.26904,15.0804 93.39464,14.9724 C93.97864,14.4724 94.87144,14.6956 95.46024,14.842 C97.28264,15.1452 98.85464,15.5884 100.24344,16.1924 C100.39544,16.258 100.46504,16.4356 100.39944,16.5868 C100.34984,16.6996 100.24024,16.7676 100.12424,16.7676" id="Fill-54" fill="#271F23"></path>
            <path d="M41.45632,32.7676 C41.39872,32.7676 41.33952,32.7508 41.28752,32.7156 C41.15072,32.622 41.11552,32.4356 41.20832,32.2988 C41.60752,31.7132 41.97072,31.1068 42.32032,30.5204 C42.83952,29.6532 43.37392,28.7572 44.02272,27.946 C44.12672,27.8164 44.31552,27.7956 44.44352,27.8988 C44.57312,28.002 44.59472,28.1908 44.49152,28.3196 C43.86912,29.0996 43.36752,29.9396 42.83552,30.8284 C42.48032,31.422 42.11392,32.0364 41.70512,32.6364 C41.64672,32.7212 41.55232,32.7676 41.45632,32.7676" id="Fill-56" fill="#271F23"></path>
            <path d="M41.72352,35.1676 C41.67872,35.1676 41.63312,35.1572 41.58992,35.1356 C41.44112,35.062 41.38112,34.882 41.45552,34.7332 C41.61312,34.418 41.74992,34.102 41.88752,33.7852 C42.09472,33.3068 42.30912,32.8116 42.59792,32.3172 C42.68112,32.174 42.86512,32.126 43.00752,32.2084 C43.15072,32.2916 43.19952,32.4756 43.11632,32.618 C42.84592,33.0828 42.64752,33.5404 42.43792,34.0244 C42.29712,34.3508 42.15552,34.6764 41.99232,35.002 C41.94032,35.1068 41.83392,35.1676 41.72352,35.1676" id="Fill-58" fill="#271F23"></path>
            <path d="M41.32424,30.1004 C41.25704,30.1004 41.19064,30.0788 41.13544,30.0332 C41.00664,29.9284 40.98664,29.7396 41.09144,29.6116 C41.27464,29.3852 41.46424,29.1596 41.65464,28.9324 C42.35544,28.0964 43.08024,27.2324 43.59144,26.2604 C43.66824,26.1148 43.84824,26.0572 43.99624,26.1348 C44.14264,26.2124 44.19944,26.3932 44.12264,26.5396 C43.58184,27.5692 42.83624,28.458 42.11384,29.318 C41.92584,29.5428 41.73864,29.766 41.55704,29.9892 C41.49784,30.062 41.41064,30.1004 41.32424,30.1004" id="Fill-60" fill="#271F23"></path>
            <path d="M41.65712,27.9004 C41.58832,27.9004 41.51952,27.8772 41.46352,27.8292 C41.33712,27.7228 41.32032,27.534 41.42752,27.4068 C41.77712,26.9916 42.11632,26.5372 42.47552,26.0548 C43.19952,25.0852 43.94752,24.0828 44.86272,23.3052 C44.98992,23.1972 45.17792,23.2132 45.28512,23.3388 C45.39312,23.4652 45.37712,23.654 45.25152,23.762 C44.38832,24.4956 43.66112,25.4716 42.95712,26.4148 C42.59232,26.9028 42.24752,27.3644 41.88592,27.7932 C41.82752,27.8636 41.74192,27.9004 41.65712,27.9004" id="Fill-62" fill="#271F23"></path>
            <path d="M74.05712,4.5668 C74.01792,4.5668 73.97872,4.5596 73.94112,4.5444 C73.00912,4.1548 72.03552,3.8292 71.09392,3.514 C70.41952,3.2876 69.74672,3.062 69.08592,2.8148 C68.93072,2.7556 68.85232,2.5836 68.90992,2.4284 C68.96912,2.2732 69.14192,2.1964 69.29712,2.2524 C69.95072,2.498 70.61712,2.7204 71.28432,2.9452 C72.23632,3.2636 73.22032,3.5932 74.17312,3.99 C74.32512,4.0532 74.39792,4.2292 74.33392,4.3828 C74.28592,4.4972 74.17392,4.5668 74.05712,4.5668" id="Fill-64" fill="#271F23"></path>
            <path d="M71.72352,5.6332 C71.67872,5.6332 71.63312,5.6228 71.58992,5.602 C70.13392,4.874 68.19472,4.2516 66.26992,3.8948 C66.10672,3.8652 65.99952,3.7084 66.02912,3.5452 C66.05952,3.382 66.22032,3.2772 66.37872,3.3052 C68.35712,3.6716 70.35392,4.3132 71.85792,5.0652 C72.00672,5.1396 72.06672,5.3188 71.99232,5.4676 C71.94032,5.5732 71.83392,5.6332 71.72352,5.6332" id="Fill-66" fill="#271F23"></path>
            <path d="M95.45632,28.7676 C95.31312,28.7676 95.18592,28.6644 95.16112,28.518 C94.83952,26.6468 94.50672,24.7124 93.47152,23.0948 L93.31232,22.8516 C92.97232,22.3268 92.50592,21.6092 92.01232,21.4124 C91.85872,21.35 91.78352,21.1756 91.84512,21.0212 C91.90672,20.8676 92.08112,20.7932 92.23632,20.8548 C92.90592,21.1228 93.40992,21.9004 93.81552,22.5252 L93.97312,22.7668 C95.07632,24.49 95.42032,26.486 95.75232,28.4172 C95.78032,28.5804 95.67152,28.7356 95.50752,28.7628 C95.49072,28.766 95.47312,28.7676 95.45632,28.7676" id="Fill-68" fill="#271F23"></path>
            <path d="M96.85632,29.7004 C96.70912,29.7004 96.58112,29.5924 96.56032,29.4428 C96.24752,27.2532 95.72752,24.4772 94.46832,22.4244 C94.38192,22.2836 94.42592,22.0988 94.56752,22.0124 C94.70992,21.926 94.89392,21.9692 94.97952,22.1108 C96.29712,24.2564 96.83392,27.1116 97.15392,29.358 C97.17712,29.5212 97.06352,29.674 96.89952,29.6972 C96.88512,29.6996 96.87072,29.7004 96.85632,29.7004" id="Fill-70" fill="#271F23"></path>
            <path d="M104.72424,27.5676 C104.62584,27.5676 104.52984,27.5188 104.47304,27.4316 C104.14344,26.9252 103.68344,26.2692 103.19544,25.5732 C102.40744,24.4508 101.51544,23.1788 101.01304,22.2988 C100.93144,22.1548 100.98104,21.9724 101.12504,21.8892 C101.26904,21.8076 101.45224,21.8572 101.53464,22.002 C102.02344,22.8564 102.90744,24.1172 103.68664,25.2284 C104.17944,25.9316 104.64344,26.5932 104.97544,27.1044 C105.06584,27.2428 105.02664,27.4284 104.88744,27.5188 C104.83704,27.5516 104.78024,27.5676 104.72424,27.5676" id="Fill-72" fill="#271F23"></path>
            <path d="M49.0376,39.21368 C48.3896,39.81448 47.92,40.58088 47.2376,41.14648 C46.7416,41.55928 47.4528,42.26328 47.9456,41.85448 C48.6264,41.28808 49.0968,40.52168 49.7456,39.92168 C50.2192,39.48168 49.5104,38.77608 49.0376,39.21368" id="Fill-74" fill="#271F23"></path>
            <path d="M48.3704,41.31368 C47.8808,41.74248 47.3912,42.17528 46.872,42.56808 C46.3648,42.95288 46.8624,43.82168 47.3768,43.43208 C47.9648,42.98648 48.5224,42.50648 49.0784,42.02168 C49.564,41.59608 48.8536,40.89208 48.3704,41.31368" id="Fill-76" fill="#271F23"></path>
            <path d="M48.1704,42.91368 C47.7928,43.29208 47.416,43.66888 47.0376,44.04648 C46.5816,44.50328 47.288,45.21048 47.7456,44.75448 C48.1224,44.37608 48.5,43.99848 48.8784,43.62168 C49.3344,43.16408 48.6272,42.45768 48.1704,42.91368" id="Fill-78" fill="#271F23"></path>
            <path d="M47.82664,38.54808 C47.66104,38.81768 47.48584,39.04888 47.23784,39.24648 C46.73384,39.64888 47.44584,40.35208 47.94504,39.95448 C48.25464,39.70648 48.48424,39.38808 48.69064,39.05288 C49.02904,38.50168 48.16424,38.00008 47.82664,38.54808" id="Fill-80" fill="#271F23"></path>
            <path d="M47.9704,36.91368 C47.7208,37.21928 47.4504,37.50168 47.1704,37.77928 C46.7136,38.23448 47.4208,38.94168 47.8784,38.48728 C48.1568,38.20888 48.4288,37.92728 48.6784,37.62168 C49.0824,37.12648 48.3792,36.41448 47.9704,36.91368" id="Fill-82" fill="#271F23"></path>
            <path d="M100.19072,45.9676 C100.03392,45.9676 99.90112,45.8452 99.89152,45.6852 C99.75952,43.43 98.36592,41.6636 97.80032,41.406 C97.64912,41.3372 97.58192,41.1596 97.65072,41.0092 C97.71952,40.858 97.89872,40.7916 98.04832,40.8596 C98.95392,41.2724 100.35552,43.3436 100.49072,45.65 C100.50032,45.8156 100.37392,45.9572 100.20832,45.9668 C100.20352,45.9676 100.19712,45.9676 100.19072,45.9676" id="Fill-84" fill="#271F23"></path>
            <path d="M100.05864,42.3676 C99.96184,42.3676 99.86664,42.3204 99.80904,42.234 L99.59784,41.9132 C99.12824,41.1916 98.48424,40.2044 97.81624,39.9476 C97.66184,39.8884 97.58424,39.7156 97.64344,39.5596 C97.70344,39.4052 97.87784,39.3268 98.03144,39.3868 C98.88104,39.714 99.55704,40.7516 100.10104,41.5852 L100.30824,41.9004 C100.40024,42.0388 100.36264,42.2252 100.22504,42.3172 C100.17464,42.3508 100.11544,42.3676 100.05864,42.3676" id="Fill-86" fill="#271F23"></path>
            <path d="M99.92424,40.0332 C99.82264,40.0332 99.72344,39.982 99.66744,39.8876 C99.00184,38.7804 98.28984,38.0436 97.80904,37.9636 C97.64584,37.9364 97.53544,37.782 97.56264,37.618 C97.58904,37.4548 97.74344,37.3444 97.90744,37.3716 C98.82344,37.5228 99.72504,38.8188 100.18104,39.5788 C100.26664,39.7204 100.22024,39.9052 100.07864,39.99 C100.03064,40.0188 99.97624,40.0332 99.92424,40.0332" id="Fill-88" fill="#271F23"></path>
            <path d="M99.99144,38.1004 C99.88744,38.1004 99.78584,38.046 99.73064,37.9492 C99.25864,37.122 98.68744,36.7556 97.82184,36.2004 L97.69624,36.1196 C97.55704,36.03 97.51624,35.8452 97.60664,35.7052 C97.69544,35.5652 97.88104,35.5244 98.02024,35.6156 L98.14584,35.6956 C99.01784,36.2548 99.70744,36.6972 100.25144,37.6516 C100.33384,37.7948 100.28344,37.9788 100.14024,38.0604 C100.09304,38.0876 100.04184,38.1004 99.99144,38.1004" id="Fill-90" fill="#271F23"></path>
            <path d="M100.19144,36.1676 C100.09624,36.1676 100.00344,36.122 99.94424,36.0388 C99.35864,35.1916 98.70104,34.7484 97.90104,34.2556 C97.76024,34.1692 97.71624,33.9844 97.80344,33.8428 C97.88984,33.702 98.07464,33.6572 98.21544,33.7452 C99.04584,34.2556 99.78664,34.7556 100.43864,35.6964 C100.53224,35.8332 100.49864,36.0196 100.36184,36.1148 C100.30984,36.1508 100.24984,36.1676 100.19144,36.1676" id="Fill-92" fill="#271F23"></path>
            <path d="M61.12424,78.4676 C61.57144,78.8068 62.45864,78.5332 65.39144,78.8676 C68.32424,79.2004 70.44904,79.4676 73.65384,79.3332 C76.85864,79.2004 81.92424,78.0676 84.12424,77.9332 C86.32424,77.8004 86.12424,77.666 86.45864,77.4004 C86.45864,77.4004 85.59144,78.6004 84.05864,80.0676 C82.52424,81.5332 77.52424,84.4676 74.59144,84.4676 C68.55704,84.4676 64.79144,81.2676 62.52424,79.5332 L61.12424,78.4676 Z" id="Fill-94" fill="#FFFFFF"></path>
            <path d="M62.58368,79.07544 L63.18128,79.53464 C65.51728,81.33944 69.04608,84.06744 74.59168,84.06744 C77.35328,84.06744 82.20448,81.28504 83.78208,79.77864 C84.37568,79.20984 84.87008,78.67944 85.24928,78.24824 C84.96128,78.27784 84.60128,78.30504 84.14848,78.33224 C83.21888,78.38904 81.71248,78.63704 80.11808,78.89864 C77.96128,79.25464 75.51568,79.65624 73.67008,79.73224 C70.59008,79.86024 68.52528,79.62664 65.76208,79.31224 L65.34608,79.26504 C64.08528,79.12104 63.22368,79.09224 62.58368,79.07544 M74.59168,84.86744 C68.77248,84.86744 64.96688,81.92584 62.69248,80.16824 L60.88288,78.78664 L60.88208,78.78664 L60.88208,78.78584 C60.70608,78.65224 60.67168,78.40104 60.80528,78.22584 C60.93808,78.04904 61.18928,78.01544 61.36608,78.14904 C61.49888,78.24984 61.85408,78.25784 62.44208,78.27144 C63.07488,78.28744 64.03248,78.30984 65.43648,78.46984 L65.85248,78.51784 C68.58528,78.82824 70.61648,79.06024 73.63648,78.93304 C75.43408,78.85864 77.85408,78.46024 79.98848,78.10984 C81.67408,77.83224 83.13008,77.59304 84.10048,77.53384 C85.84128,77.42824 85.94448,77.32984 86.06448,77.21704 C86.10608,77.17624 86.15168,77.13304 86.20928,77.08744 C86.36608,76.96344 86.59008,76.97224 86.73408,77.11144 C86.87888,77.24904 86.90048,77.47224 86.78288,77.63464 C86.74608,77.68504 85.87648,78.88184 84.33488,80.35704 C82.71328,81.90504 77.65728,84.86744 74.59168,84.86744" id="Fill-96" fill="#7EA3FF"></path>
            <path d="M83.52424,78.36608 C83.52424,78.36608 84.14584,79.60368 83.18824,80.51728 L86.09464,77.86768 L83.52424,78.36608 Z" id="Fill-98" fill="#7EA3FF"></path>
            <path d="M64.44616,79.09576 C64.44616,79.09576 63.69176,80.17736 64.65736,81.03816 L61.57416,78.81016 L64.44616,79.09576 Z" id="Fill-100" fill="#7EA3FF"></path>
            <path d="M59.04304,21.19728 C59.73184,21.20048 68.72464,22.28048 83.55744,21.27408 L83.18864,19.00048 L58.62704,20.60048" id="Fill-102" fill="#271F23"></path>
            <path d="M71.35784,21.8012 C67.31864,21.8012 63.44104,21.6508 59.75384,21.3492 C59.37864,21.318 59.13144,21.2972 59.04184,21.2972 L59.04264,21.0972 C59.14024,21.0972 59.37624,21.1172 59.77064,21.1492 C67.00184,21.742 74.96504,21.7516 83.44104,21.182 L83.10424,19.106 L58.63384,20.6996 L58.62024,20.5004 L83.27224,18.8948 L83.67384,21.366 L83.56344,21.3732 C79.36104,21.658 75.28264,21.8012 71.35784,21.8012" id="Fill-104" fill="#271F23"></path>
            <path d="M67.54224,23.09336 C66.46224,23.09336 65.30384,22.69496 64.14704,21.55816 C64.02784,21.44216 64.02624,21.25176 64.14304,21.13416 C64.25904,21.01576 64.44944,21.01336 64.56704,21.13016 C67.21024,23.72616 69.84304,21.98056 71.41744,20.93896 C71.55264,20.84856 71.67904,20.76536 71.79504,20.69096 C71.93504,20.60296 72.12064,20.64296 72.21024,20.78216 C72.29904,20.92216 72.25824,21.10856 72.11824,21.19736 C72.00464,21.26936 71.88144,21.35176 71.74864,21.43976 C70.75984,22.09336 69.25104,23.09336 67.54224,23.09336" id="Fill-106" fill="#271F23"></path>
            <path d="M74.96256,90.27384 C73.14736,90.27384 70.90336,89.99064 68.13776,89.24104 C67.98656,89.20024 67.88496,89.17144 67.84176,89.16344 C67.62016,89.16344 67.46736,88.98664 67.46736,88.76504 C67.46736,88.54504 67.67216,88.36744 67.89296,88.36744 C67.97296,88.36744 68.03696,88.38584 68.34656,88.46904 C74.70096,90.19144 78.12896,89.39064 79.88656,88.41784 C80.07936,88.31064 80.32256,88.38024 80.43056,88.57384 C80.53776,88.76664 80.46736,89.01064 80.27456,89.11784 C79.17616,89.72504 77.48496,90.27384 74.96256,90.27384" id="Fill-108" fill="#71748D"></path>
            <path d="M67.69928,47.82544 C67.62168,47.82544 67.54568,47.79584 67.48648,47.73744 L65.27928,45.52944 C65.16168,45.41184 65.16168,45.22224 65.27928,45.10544 C65.39608,44.98864 65.58568,44.98864 65.70328,45.10544 L67.91128,47.31264 C68.02808,47.43024 68.02808,47.61984 67.91128,47.73744 C67.85208,47.79584 67.77608,47.82544 67.69928,47.82544" id="Fill-110" fill="#271F23"></path>
            <path d="M68.018,46.82696 C67.9412,46.82696 67.8644,46.79736 67.8052,46.73896 L66.5948,45.52936 C66.4772,45.41256 66.4772,45.22216 66.5948,45.10536 C66.7116,44.98856 66.9012,44.98776 67.0188,45.10536 L68.23,46.31496 C68.3468,46.43176 68.3468,46.62136 68.23,46.73896 C68.1708,46.79736 68.0948,46.82696 68.018,46.82696" id="Fill-112" fill="#271F23"></path>
            <path d="M91.25712,78.2676 C91.03632,78.2676 90.85712,78.0884 90.85712,77.8676 C90.85712,77.7236 90.86992,77.5716 90.88432,77.41 C90.93872,76.8004 90.99392,76.17 90.27392,75.4508 C90.11792,75.294 90.11792,75.0412 90.27392,74.8844 C90.43072,74.7284 90.68352,74.7284 90.84032,74.8844 C91.82352,75.8684 91.74112,76.8004 91.68112,77.4804 C91.66912,77.6172 91.65712,77.7468 91.65712,77.8676 C91.65712,78.0884 91.47792,78.2676 91.25712,78.2676" id="Fill-114" fill="#71748D"></path>
            <path d="M65.7524,66.90432 C64.3956,67.48752 65.2572,69.27792 65.8412,70.08512 C66.2188,70.60512 66.69,71.04032 67.3084,71.25792 C68.0988,71.53552 68.938,71.41152 69.7572,71.46752 C71.0452,71.55552 71.0364,69.55472 69.7572,69.46752 C69.0972,69.42192 68.1588,69.65792 67.6396,69.14672 C67.478,68.98752 67.3652,68.78352 67.2492,68.58992 C67.1964,68.50192 67.134,68.39712 67.0948,68.30192 C66.8756,67.76272 67.3036,68.39792 66.762,68.63072 C67.2636,68.41632 67.37,67.68832 67.1204,67.26272 C66.8204,66.74992 66.2532,66.68832 65.7524,66.90432" id="Fill-116" fill="#BCD4F9"></path>
            <path d="M69.7524,71.33088 C70.3084,71.72368 70.8228,72.48608 71.4524,72.93088 C71.8988,73.24688 72.5636,73.01248 72.8204,72.57248 C73.114,72.07168 72.906,71.51728 72.462,71.20448 C71.9052,70.81168 71.3916,70.04848 70.762,69.60448 C70.3156,69.28848 69.6508,69.52288 69.394,69.96288 C69.1004,70.46368 69.3076,71.01728 69.7524,71.33088" id="Fill-118" fill="#BCD4F9"></path>
            <path d="M76.32424,71.9332 C76.19464,71.9332 76.06824,71.87 75.99064,71.754 C75.86904,71.57 75.91864,71.322 76.10344,71.1996 C76.23144,71.1156 76.37304,70.9796 76.52984,70.8332 C77.07224,70.3292 77.88984,69.5692 78.87304,69.962 C79.07704,70.0436 79.17704,70.2764 79.09544,70.482 C79.01304,70.6868 78.77784,70.786 78.57544,70.7052 C78.09944,70.5124 77.63544,70.898 77.07384,71.4188 C76.88984,71.5908 76.71544,71.7532 76.54504,71.866 C76.47704,71.9124 76.40024,71.9332 76.32424,71.9332" id="Fill-120" fill="#71748D"></path>
            <path d="M70.78208,72.08952 C70.67248,72.08952 70.56448,72.04472 70.48528,71.95752 C70.39888,71.86232 70.31808,71.76872 70.24048,71.67752 C69.70128,71.04792 69.47968,70.78632 68.27248,71.26872 C68.06848,71.35112 67.83488,71.25112 67.75248,71.04552 C67.67008,70.83992 67.77008,70.60712 67.97568,70.52552 C69.71168,69.83192 70.26528,70.47512 70.84848,71.15752 C70.92128,71.24232 70.99728,71.33112 71.07808,71.42072 C71.22688,71.58472 71.21408,71.83832 71.05008,71.98552 C70.97328,72.05512 70.87728,72.08952 70.78208,72.08952" id="Fill-122" fill="#71748D"></path>
            <path d="M69.39304,53.26608 C70.27304,56.97168 69.71304,61.64288 69.25704,65.40048 C69.10184,66.67888 71.10424,66.66368 71.25704,65.40048 C71.74184,61.41328 72.25784,56.67728 71.32104,52.73488 C71.02344,51.48048 69.09464,52.01248 69.39304,53.26608" id="Fill-124" fill="#BCD4F9"></path>
            <path d="M53.79536,78.90512 C54.80416,81.18992 55.40336,83.62512 56.16016,85.99872 C56.54976,87.22272 58.48096,86.69952 58.08816,85.46752 C57.27696,82.92192 56.60416,80.34592 55.52176,77.89552 C55.00256,76.71792 53.27936,77.73632 53.79536,78.90512" id="Fill-126" fill="#BCD4F9"></path>
            <path d="M52.92584,55.23168 C53.25384,55.28608 53.57944,55.32288 53.91144,55.33888 C54.10824,55.34848 54.36824,55.31808 54.55224,55.39648 C54.63224,54.78688 54.71144,54.17888 54.79144,53.56928 C54.60904,53.59648 54.44184,53.67648 54.25864,53.70368 C53.51464,53.81488 53.29944,54.90848 53.81704,55.37488 C54.24264,55.75728 54.74264,56.02208 55.21944,56.33088 C56.30664,57.03408 57.30824,55.30208 56.22904,54.60448 C55.90184,54.39248 55.52104,54.22128 55.23144,53.96048 C55.08424,54.51728 54.93784,55.07488 54.78984,55.63168 C54.97304,55.60448 55.14024,55.52448 55.32264,55.49728 C56.14584,55.37488 56.33304,53.99728 55.56184,53.67008 C54.85384,53.36928 54.19464,53.42528 53.45704,53.30368 C52.92024,53.21488 52.38264,53.43568 52.22744,54.00208 C52.09384,54.48528 52.38744,55.14288 52.92584,55.23168" id="Fill-128" fill="#BCD4F9"></path>
            <path d="M56.20712,48.9176 C56.12952,48.9176 56.05352,48.8888 55.99432,48.8296 L53.04472,45.8792 C52.92712,45.7624 52.92712,45.572 53.04472,45.4552 C53.16152,45.3384 53.35192,45.3384 53.46872,45.4552 L56.41912,48.4048 C56.53592,48.5224 56.53592,48.712 56.41912,48.8296 C56.35992,48.8888 56.28392,48.9176 56.20712,48.9176" id="Fill-130" fill="#271F23"></path>
            <path d="M55.06488,49.39416 C54.98808,49.39416 54.91128,49.36536 54.85208,49.30616 L52.24488,46.69976 C52.12728,46.58216 52.12728,46.39256 52.24488,46.27576 C52.36168,46.15816 52.55128,46.15816 52.66888,46.27576 L55.27688,48.88136 C55.39368,48.99896 55.39368,49.18856 55.27688,49.30616 C55.21768,49.36536 55.14168,49.39416 55.06488,49.39416" id="Fill-132" fill="#271F23"></path>
            <path d="M54.19456,50.30512 C54.11696,50.30512 54.04096,50.27552 53.98176,50.21712 L51.44416,47.67952 C51.32736,47.56192 51.32736,47.37232 51.44416,47.25472 C51.56176,47.13872 51.75136,47.13872 51.86896,47.25472 L54.40656,49.79232 C54.52336,49.90992 54.52336,50.09952 54.40656,50.21712 C54.34736,50.27552 54.27136,50.30512 54.19456,50.30512" id="Fill-134" fill="#271F23"></path>
            <path d="M53.10712,50.9176 C53.02952,50.9176 52.95352,50.8888 52.89432,50.8296 L50.89432,48.8296 C50.77752,48.712 50.77752,48.5224 50.89432,48.4048 C51.01192,48.2888 51.20152,48.2888 51.31912,48.4048 L53.31912,50.4048 C53.43592,50.5224 53.43592,50.712 53.31912,50.8296 C53.25992,50.8888 53.18392,50.9176 53.10712,50.9176" id="Fill-136" fill="#271F23"></path>
            <path d="M52.41336,51.61136 C52.33576,51.61136 52.25976,51.58176 52.20056,51.52336 L50.89496,50.21696 C50.77736,50.09936 50.77736,49.90976 50.89496,49.79296 C51.01176,49.67536 51.20136,49.67536 51.31896,49.79296 L52.62536,51.09856 C52.74216,51.21616 52.74216,51.40576 52.62536,51.52336 C52.56616,51.58176 52.49016,51.61136 52.41336,51.61136" id="Fill-138" fill="#271F23"></path>
            <path d="M51.4696,52.32232 C51.3928,52.32232 51.316,52.29272 51.2576,52.23512 L50.5456,51.52392 C50.4272,51.40632 50.4272,51.21672 50.5448,51.09992 C50.6608,50.98152 50.852,50.98152 50.9688,51.09912 L51.6816,51.80952 C51.7984,51.92712 51.7984,52.11672 51.6824,52.23432 C51.6232,52.29272 51.5464,52.32232 51.4696,52.32232" id="Fill-140" fill="#271F23"></path>
            <path d="M59.04304,52.96608 C59.04304,51.88448 59.91984,51.00848 61.00064,51.00848 C62.08064,51.00848 62.95584,51.88448 62.95584,52.96608 C62.95584,54.04768 62.08064,54.92048 61.00064,54.92048 C59.91984,54.92048 59.04304,54.04768 59.04304,52.96608" id="Fill-142" fill="#271F23"></path>
            <path d="M61.00088,51.10824 C59.97688,51.10824 59.14328,51.94184 59.14328,52.96584 C59.14328,53.98904 59.97688,54.82104 61.00088,54.82104 C62.02328,54.82104 62.85528,53.98904 62.85528,52.96584 C62.85528,51.94184 62.02328,51.10824 61.00088,51.10824 M61.00088,55.02104 C59.86568,55.02104 58.94328,54.09864 58.94328,52.96584 C58.94328,51.83144 59.86568,50.90824 61.00088,50.90824 C62.13368,50.90824 63.05528,51.83144 63.05528,52.96584 C63.05528,54.09864 62.13368,55.02104 61.00088,55.02104" id="Fill-144" fill="#271F23"></path>
            <path d="M63.85552,45.47152 C59.24752,44.54912 54.80672,42.97312 51.39632,47.29072 C50.21072,48.79152 52.31872,50.92992 53.51792,49.41312 C56.16752,46.05712 59.52432,47.65632 63.05872,48.36352 C64.94672,48.74192 65.75232,45.85072 63.85552,45.47152" id="Fill-146" fill="#271F23"></path>
            <path d="M58.12584,48.8348 C58.04824,48.8348 57.97224,48.8052 57.91304,48.7468 L54.04424,44.8796 C53.92744,44.762 53.92744,44.5724 54.04424,44.4548 C54.16184,44.3388 54.35144,44.3388 54.46904,44.4548 L58.33784,48.322 C58.45464,48.4396 58.45464,48.6292 58.33784,48.7468 C58.27864,48.8052 58.20264,48.8348 58.12584,48.8348" id="Fill-148" fill="#271F23"></path>
            <path d="M59.73208,48.6004 C59.65448,48.6004 59.57848,48.5708 59.51928,48.5124 L55.88648,44.8796 C55.76968,44.762 55.76968,44.5724 55.88648,44.4548 C56.00408,44.3388 56.19368,44.3388 56.31128,44.4548 L59.94408,48.0884 C60.06088,48.2052 60.06088,48.3948 59.94408,48.5124 C59.88488,48.5708 59.80888,48.6004 59.73208,48.6004" id="Fill-150" fill="#271F23"></path>
            <path d="M61.33208,48.69264 C61.25448,48.69264 61.17848,48.66304 61.11928,48.60544 L56.99448,44.47904 C56.87768,44.36224 56.87768,44.17264 56.99448,44.05504 C57.11208,43.93904 57.30168,43.93904 57.41848,44.05504 L61.54408,48.17984 C61.66088,48.29744 61.66088,48.48704 61.54408,48.60544 C61.48488,48.66304 61.40888,48.69264 61.33208,48.69264" id="Fill-152" fill="#271F23"></path>
            <path d="M62.64928,48.60824 C62.57248,48.60824 62.49568,48.57864 62.43648,48.52024 L58.79488,44.87944 C58.67728,44.76184 58.67728,44.57224 58.79488,44.45544 C58.91168,44.33864 59.10128,44.33784 59.21888,44.45544 L62.86128,48.09544 C62.97808,48.21304 62.97808,48.40264 62.86128,48.52024 C62.80208,48.57864 62.72608,48.60824 62.64928,48.60824" id="Fill-154" fill="#271F23"></path>
            <path d="M65.49144,48.902 C65.41384,48.902 65.33784,48.8724 65.27864,48.814 L61.79464,45.3292 C61.67704,45.2124 61.67704,45.022 61.79464,44.9052 C61.91144,44.7884 62.10184,44.7884 62.21864,44.9052 L65.70344,48.3892 C65.82024,48.5068 65.82024,48.6964 65.70344,48.814 C65.64424,48.8724 65.56824,48.902 65.49144,48.902" id="Fill-156" fill="#271F23"></path>
            <path d="M67.53056,49.38168 C67.45296,49.38168 67.37696,49.35208 67.31776,49.29368 L63.55856,45.53368 C63.44176,45.41688 63.44176,45.22728 63.55856,45.10968 C63.67616,44.99288 63.86576,44.99288 63.98256,45.10968 L67.74256,48.86888 C67.85936,48.98648 67.85936,49.17608 67.74256,49.29368 C67.68336,49.35208 67.60736,49.38168 67.53056,49.38168" id="Fill-158" fill="#271F23"></path>
            <mask id="mask-4" fill="white">
                <use xlink:href="#path-3"></use>
            </mask>
            <g id="Clip-161"></g>
            <polygon id="Fill-160" fill="#E3ECF8" mask="url(#mask-4)" points="58.588 51.7112 63.068 51.7112 63.068 50.9112 58.588 50.9112"></polygon>
            <path d="M66.80712,54.6176 C66.69992,54.6176 66.59672,54.5608 66.54312,54.46 C65.57672,52.6632 62.81912,51.9176 61.55752,51.9176 C60.43432,51.9176 59.52152,52.0624 58.50152,52.4016 C57.70952,52.7272 56.19832,53.3448 55.49832,54.296 C55.39992,54.4288 55.21352,54.4568 55.07912,54.3592 C54.94552,54.2608 54.91752,54.0728 55.01592,53.9392 C55.75432,52.9368 57.09432,52.3304 58.29272,51.8392 C59.39592,51.4712 60.36632,51.3176 61.55752,51.3176 C62.80312,51.3176 65.92152,52.0368 67.07112,54.1752 C67.14952,54.3216 67.09432,54.5032 66.94952,54.5816 C66.90392,54.6056 66.85512,54.6176 66.80712,54.6176" id="Fill-162" fill="#271F23" mask="url(#mask-4)"></path>
            <path d="M54.25712,53.9676 C54.16192,53.9676 54.06912,53.922 54.00992,53.8388 C53.91552,53.702 53.94992,53.5156 54.08592,53.4204 C56.46912,51.7708 57.32032,51.7252 58.86672,51.6436 L58.99072,51.6364 C59.15152,51.626 59.29792,51.7548 59.30672,51.9196 C59.31552,52.0852 59.18832,52.2268 59.02272,52.2356 L58.89792,52.2428 C57.41472,52.3204 56.67072,52.3604 54.42752,53.914 C54.37552,53.9508 54.31632,53.9676 54.25712,53.9676" id="Fill-163" fill="#271F23" mask="url(#mask-4)"></path>
            <path d="M59.318,56.53632 C60.6412,56.86912 62.026,56.68672 63.346,56.43152 C64.6116,56.18672 64.074,54.25952 62.8148,54.50352 C61.8572,54.68832 60.8116,54.84992 59.8492,54.60832 C58.5988,54.29312 58.0676,56.22192 59.318,56.53632" id="Fill-164" fill="#BCD4F9" mask="url(#mask-4)"></path>
            <path d="M93.65712,53.6004 C93.67072,53.3884 93.76432,53.274 93.94112,53.1396 C93.76832,53.2716 94.14192,53.0844 93.91152,53.1508 C93.65792,53.2244 94.12352,53.1412 93.84032,53.1668 C93.74832,53.1756 93.65552,53.1756 93.56352,53.1764 C93.21632,53.1796 92.87152,53.1372 92.52432,53.1332 C92.69232,53.754 92.86112,54.3756 93.02912,54.9964 C93.31232,54.83 93.66512,54.8684 93.99152,54.8676 C95.28112,54.866 95.28112,52.866 93.99152,52.8676 C93.30512,52.8684 92.62592,52.9132 92.01952,53.27 C91.15552,53.778 91.53232,55.1212 92.52432,55.1332 C93.77552,55.1484 95.54832,55.3276 95.65712,53.6004 C95.69152,53.0556 95.17632,52.6004 94.65712,52.6004 C94.08592,52.6004 93.69152,53.0564 93.65712,53.6004" id="Fill-165" fill="#BCD4F9" mask="url(#mask-4)"></path>
            <path d="M92.86648,49.7176 C92.78888,49.7176 92.71288,49.6888 92.65368,49.6296 C92.53688,49.512 92.53688,49.3224 92.65368,49.2048 L95.19928,46.66 C95.31688,46.5424 95.50648,46.5424 95.62328,46.66 C95.74088,46.7768 95.74088,46.9672 95.62328,47.084 L93.07848,49.6296 C93.01928,49.6888 92.94328,49.7176 92.86648,49.7176" id="Fill-166" fill="#271F23" mask="url(#mask-4)"></path>
            <path d="M94.13992,50.3676 C94.06312,50.3676 93.98632,50.3388 93.92712,50.2796 C93.81032,50.1628 93.81032,49.9724 93.92712,49.8548 L95.74312,48.0388 C95.85992,47.9212 96.05032,47.9204 96.16712,48.0388 C96.28472,48.1548 96.28472,48.3452 96.16712,48.462 L94.35192,50.2796 C94.29272,50.3388 94.21672,50.3676 94.13992,50.3676" id="Fill-167" fill="#271F23" mask="url(#mask-4)"></path>
            <path d="M95.41176,50.6176 C95.33416,50.6176 95.25816,50.5888 95.19896,50.5296 C95.08216,50.412 95.08216,50.2224 95.19896,50.1048 L96.12296,49.1816 C96.23976,49.0656 96.42936,49.0656 96.54696,49.1816 C96.66376,49.2992 96.66376,49.4888 96.54696,49.6056 L95.62376,50.5296 C95.56456,50.5888 95.48856,50.6176 95.41176,50.6176" id="Fill-168" fill="#271F23" mask="url(#mask-4)"></path>
            <path d="M96.3352,51.30824 C96.2576,51.30824 96.1816,51.27864 96.1224,51.22024 C96.0056,51.10264 96.0056,50.91224 96.1232,50.79544 L96.5888,50.33144 C96.7064,50.21544 96.896,50.21544 97.0136,50.33224 C97.1296,50.44984 97.1296,50.63944 97.0128,50.75704 L96.5472,51.22104 C96.488,51.27864 96.412,51.30824 96.3352,51.30824" id="Fill-169" fill="#271F23" mask="url(#mask-4)"></path>
            <path d="M84.59304,52.76608 C84.59304,51.68448 85.46984,50.80848 86.55064,50.80848 C87.63064,50.80848 88.50584,51.68448 88.50584,52.76608 C88.50584,53.84768 87.63064,54.72048 86.55064,54.72048 C85.46984,54.72048 84.59304,53.84768 84.59304,52.76608" id="Fill-170" fill="#271F23" mask="url(#mask-4)"></path>
            <path d="M86.55088,50.90824 C85.52688,50.90824 84.69328,51.74184 84.69328,52.76584 C84.69328,53.78904 85.52688,54.62104 86.55088,54.62104 C87.57328,54.62104 88.40528,53.78904 88.40528,52.76584 C88.40528,51.74184 87.57328,50.90824 86.55088,50.90824 M86.55088,54.82104 C85.41568,54.82104 84.49328,53.89864 84.49328,52.76584 C84.49328,51.63144 85.41568,50.70824 86.55088,50.70824 C87.68368,50.70824 88.60528,51.63144 88.60528,52.76584 C88.60528,53.89864 87.68368,54.82104 86.55088,54.82104" id="Fill-171" fill="#271F23" mask="url(#mask-4)"></path>
            <path d="M83.95552,48.49968 C86.85632,47.92608 90.88352,46.68768 93.19632,49.22848 C94.50192,50.66128 96.61712,48.53408 95.31792,47.10688 C92.13952,43.61648 87.18912,44.81008 83.15872,45.60768 C81.26192,45.98288 82.06672,48.87408 83.95552,48.49968" id="Fill-172" fill="#271F23" mask="url(#mask-4)"></path>
            <path d="M77.80712,48.652 C77.72952,48.652 77.65352,48.6224 77.59432,48.564 C77.47752,48.4464 77.47752,48.2568 77.59432,48.1392 L78.57432,47.16 C78.69112,47.0424 78.88152,47.0424 78.99832,47.16 C79.11592,47.2768 79.11592,47.4672 78.99832,47.584 L78.01912,48.564 C77.95992,48.6224 77.88392,48.652 77.80712,48.652" id="Fill-173" fill="#271F23" mask="url(#mask-4)"></path>
            <path d="M78.29768,46.9004 C78.22008,46.9004 78.14408,46.8708 78.08488,46.8124 C77.96808,46.6948 77.96808,46.5052 78.08488,46.3884 L78.66968,45.8036 C78.78648,45.686 78.97688,45.686 79.09368,45.8036 C79.21128,45.9204 79.21128,46.1108 79.09368,46.2284 L78.50968,46.8124 C78.45048,46.8708 78.37448,46.9004 78.29768,46.9004" id="Fill-174" fill="#271F23" mask="url(#mask-4)"></path>
            <path d="M79.65712,46.9004 C79.57952,46.9004 79.50352,46.8708 79.44432,46.8124 C79.32752,46.6948 79.32752,46.5052 79.44432,46.3876 L80.29312,45.5412 C80.41072,45.4236 80.60112,45.4244 80.71792,45.542 C80.83472,45.6588 80.83472,45.8492 80.71712,45.966 L79.86912,46.8132 C79.80992,46.8708 79.73392,46.9004 79.65712,46.9004" id="Fill-175" fill="#271F23" mask="url(#mask-4)"></path>
            <path d="M79.25712,49.17544 C79.17952,49.17544 79.10352,49.14584 79.04432,49.08744 C78.92752,48.96984 78.92752,48.78024 79.04432,48.66264 L81.91632,45.79224 C82.03392,45.67384 82.22352,45.67384 82.34032,45.79224 C82.45792,45.90824 82.45792,46.09864 82.34032,46.21544 L79.46912,49.08744 C79.40992,49.14584 79.33392,49.17544 79.25712,49.17544" id="Fill-176" fill="#271F23" mask="url(#mask-4)"></path>
            <path d="M80.08056,49.7176 C80.00296,49.7176 79.92696,49.6888 79.86776,49.6296 C79.75096,49.512 79.75096,49.3224 79.86776,49.2048 L84.60696,44.4664 C84.72456,44.3488 84.91416,44.3488 85.03096,44.4664 C85.14856,44.5832 85.14856,44.7728 85.03096,44.8904 L80.29256,49.6296 C80.23336,49.6888 80.15736,49.7176 80.08056,49.7176" id="Fill-177" fill="#271F23" mask="url(#mask-4)"></path>
            <path d="M82.12896,49.17544 C82.05136,49.17544 81.97536,49.14584 81.91616,49.08744 C81.79936,48.96984 81.79936,48.78024 81.91616,48.66264 L86.91056,43.66904 C87.02736,43.55224 87.21696,43.55224 87.33456,43.66904 C87.45136,43.78664 87.45136,43.97624 87.33456,44.09304 L82.34096,49.08744 C82.28176,49.14584 82.20576,49.17544 82.12896,49.17544" id="Fill-178" fill="#271F23" mask="url(#mask-4)"></path>
            <path d="M84.59304,48.9176 C84.51544,48.9176 84.43944,48.8888 84.38024,48.8296 C84.26344,48.712 84.26344,48.5224 84.38024,48.4048 L89.16344,43.6224 C89.28024,43.5048 89.47064,43.5048 89.58744,43.6224 C89.70504,43.7392 89.70504,43.9296 89.58744,44.0464 L84.80504,48.8296 C84.74584,48.8888 84.66984,48.9176 84.59304,48.9176" id="Fill-179" fill="#271F23" mask="url(#mask-4)"></path>
            <path d="M86.20712,48.652 C86.12952,48.652 86.05352,48.6224 85.99432,48.564 C85.87752,48.4464 85.87752,48.2568 85.99432,48.1392 L90.48712,43.6472 C90.60392,43.5304 90.79352,43.5304 90.91112,43.6472 C91.02792,43.7656 91.02792,43.9552 90.91112,44.0712 L86.41912,48.564 C86.35992,48.6224 86.28392,48.652 86.20712,48.652" id="Fill-180" fill="#271F23" mask="url(#mask-4)"></path>
            <path d="M87.85712,48.4676 C87.77952,48.4676 87.70352,48.4388 87.64432,48.3796 C87.52752,48.262 87.52752,48.0724 87.64432,47.9548 L91.79472,43.8052 C91.91152,43.6884 92.10192,43.6884 92.21872,43.8052 C92.33632,43.922 92.33632,44.1124 92.21872,44.2292 L88.06912,48.3796 C88.00992,48.4388 87.93392,48.4676 87.85712,48.4676" id="Fill-181" fill="#271F23" mask="url(#mask-4)"></path>
            <path d="M89.37584,48.4676 C89.29824,48.4676 89.22224,48.4388 89.16304,48.3796 C89.04624,48.262 89.04624,48.0724 89.16304,47.9548 L92.65424,44.4628 C92.77104,44.346 92.96064,44.346 93.07824,44.4628 C93.19504,44.5804 93.19504,44.77 93.07824,44.8868 L89.58784,48.3796 C89.52864,48.4388 89.45264,48.4676 89.37584,48.4676" id="Fill-182" fill="#271F23" mask="url(#mask-4)"></path>
            <path d="M90.69928,48.8348 C90.62168,48.8348 90.54568,48.8052 90.48648,48.7468 C90.36968,48.6292 90.36968,48.4396 90.48648,48.322 L93.72408,45.0852 C93.84168,44.9684 94.03128,44.9684 94.14888,45.0852 C94.26568,45.202 94.26568,45.3916 94.14888,45.5092 L90.91128,48.7468 C90.85208,48.8052 90.77608,48.8348 90.69928,48.8348" id="Fill-183" fill="#271F23" mask="url(#mask-4)"></path>
            <path d="M91.82424,49.17544 C91.74664,49.17544 91.67064,49.14584 91.61144,49.08744 C91.49464,48.96984 91.49464,48.78024 91.61144,48.66264 L94.50584,45.77064 C94.62264,45.65384 94.81224,45.65464 94.92984,45.77064 C95.04664,45.88904 95.04664,46.07864 94.92984,46.19464 L92.03624,49.08744 C91.97704,49.14584 91.90104,49.17544 91.82424,49.17544" id="Fill-184" fill="#271F23" mask="url(#mask-4)"></path>
            <path d="M92.91256,53.41448 C92.85256,53.41448 92.79176,53.40008 92.73416,53.37208 C92.70056,53.35528 89.36536,51.71768 85.87256,52.01608 C85.64536,52.03368 85.45896,51.87128 85.43976,51.65208 C85.42056,51.43128 85.58376,51.23848 85.80376,51.21928 C89.52136,50.89448 92.94776,52.58488 93.09256,52.65688 C93.29016,52.75528 93.36936,52.99608 93.27096,53.19368 C93.20056,53.33288 93.05976,53.41448 92.91256,53.41448" id="Fill-185" fill="#271F23" mask="url(#mask-4)"></path>
            <polygon id="Fill-186" fill="#E3ECF8" mask="url(#mask-4)" points="84.188 51.208 88.668 51.208 88.668 50.408 84.188 50.408"></polygon>
            <path d="M80.65712,54.2676 C80.53872,54.2676 80.42032,54.2148 80.34112,54.1132 C80.20592,53.9388 80.23712,53.6868 80.41072,53.5516 C82.03632,52.2884 83.42992,51.5492 84.93072,51.1548 C86.50192,50.7436 89.01552,50.7684 92.08592,53.2252 C92.14672,53.274 92.18992,53.3092 92.21472,53.326 C92.41232,53.4252 92.47792,53.6572 92.37872,53.8548 C92.28032,54.0524 92.02512,54.1228 91.82832,54.0252 C91.76832,53.9948 91.71872,53.9556 91.58592,53.85 C88.77472,51.5988 86.52592,51.5628 85.13392,51.9292 C83.74192,52.294 82.43792,52.9892 80.90272,54.1836 C80.82992,54.2404 80.74272,54.2676 80.65712,54.2676" id="Fill-187" fill="#271F23" mask="url(#mask-4)"></path>
            <path d="M84.78368,56.30512 C86.23408,56.69152 87.72288,56.64112 89.18688,56.36112 C90.45328,56.12032 89.91568,54.19232 88.65568,54.43312 C87.54768,54.64432 86.40928,54.66832 85.31488,54.37712 C84.06688,54.04432 83.53808,55.97392 84.78368,56.30512" id="Fill-188" fill="#BCD4F9" mask="url(#mask-4)"></path>
            <path d="M86.22424,78.14968 C86.40664,78.08728 86.55064,77.98888 86.65624,77.82408 C86.69064,77.76968 86.71944,77.71608 86.74744,77.65848 C86.82024,77.50728 86.83944,77.59688 86.66344,77.69928 C86.53544,77.71528 86.40664,77.73288 86.27784,77.74888 C86.41144,77.28008 86.35544,77.08328 86.10904,77.15848 C86.05784,77.16648 86.00744,77.17528 85.95544,77.18488 C85.84264,77.20408 85.74024,77.25048 85.63944,77.30088 C85.06424,77.59448 85.57064,78.45768 86.14344,78.16568 C86.35944,78.05528 86.58424,78.10248 86.79304,77.93368 C87.04344,77.73208 87.05384,77.38808 86.92344,77.11528 C86.78824,76.83288 86.45224,76.66488 86.15864,76.83528 C86.05784,76.89448 86.00184,76.96728 85.93304,77.05928 C85.91464,77.08968 85.89864,77.12168 85.88344,77.15368 C85.81384,77.29848 85.77464,77.24888 85.95864,77.18568 C85.35224,77.39368 85.61224,78.36008 86.22424,78.14968" id="Fill-189" fill="#7EA3FF" mask="url(#mask-4)"></path>
            <path d="M62.34536,78.34648 C62.26616,78.27528 62.19016,78.21528 62.09576,78.16488 C62.01976,78.12568 61.83976,78.10328 61.77816,78.04648 C61.90536,78.16328 61.81496,78.05448 61.77896,77.96728 C61.71496,77.81528 61.62296,77.68728 61.47656,77.60088 C60.97976,77.31048 60.35736,77.58488 60.35736,78.20008 C60.35736,78.72888 60.85096,78.94328 61.30056,78.98568 C61.85656,79.03608 62.35816,79.23608 62.92456,79.30008 C63.56456,79.37288 63.55816,78.37208 62.92456,78.30008 C62.60216,78.26328 62.29416,78.16008 61.99016,78.05128 C61.79176,77.98008 61.55336,78.01928 61.34776,77.99128 C60.84056,77.92328 60.77416,78.39768 61.01496,78.68728 C61.10216,78.79208 61.19816,78.87128 61.31896,78.93528 C61.39576,78.97608 61.57496,78.99688 61.63736,79.05448 C62.11416,79.48568 62.82376,78.78088 62.34536,78.34648" id="Fill-190" fill="#7EA3FF" mask="url(#mask-4)"></path>
            <path d="M117.30864,145.0684 C117.26144,145.0684 117.21424,145.0596 117.16784,145.042 C116.96064,144.9652 116.85664,144.7332 116.93344,144.5268 L120.45424,135.1548 C119.74704,134.3292 118.60464,133.762 117.49744,133.2108 C116.52384,132.726 115.51664,132.2252 114.77184,131.5388 C114.66784,131.4428 114.62224,131.2988 114.65184,131.1612 C114.68064,131.0228 114.78064,130.9108 114.91424,130.8652 C117.95424,129.8292 121.53584,128.2092 125.02384,126.2948 C124.70784,122.7004 122.99424,118.8172 121.34944,115.4772 L113.60544,96.5548 C113.52224,96.3508 113.61984,96.1172 113.82464,96.0332 C114.02704,95.9508 114.26144,96.0476 114.34624,96.2516 L122.07904,115.1492 C123.78544,118.6124 125.57744,122.6892 125.84224,126.4924 C125.85264,126.6484 125.77264,126.7948 125.63664,126.8708 C122.29504,128.7188 118.85264,130.306 115.85664,131.3836 C116.43664,131.7892 117.13024,132.1348 117.85424,132.4948 C119.11744,133.1228 120.42464,133.7732 121.22784,134.842 C121.31024,134.9508 121.33104,135.0948 121.28304,135.222 L117.68304,144.8084 C117.62304,144.9684 117.47024,145.0684 117.30864,145.0684" id="Fill-191" fill="#7EA3FF" mask="url(#mask-4)"></path>
            <path d="M37.818,145.0684 C37.7068,145.0684 37.5964,145.0212 37.5172,144.9316 L28.342,134.4604 C28.2476,134.3532 28.218,134.2052 28.2644,134.0692 C28.7164,132.7324 29.842,131.9284 30.9308,131.1516 C31.8212,130.5164 32.6684,129.9124 33.1756,129.042 C31.098,128.006 25.7084,127.2188 25.6516,127.21 C25.5156,127.19 25.4004,127.1036 25.3436,126.9788 C24.8004,125.7756 32.9508,104.8628 36.4804,95.9284 C36.5612,95.722 36.794,95.622 36.9996,95.7036 C37.2044,95.7844 37.3052,96.0172 37.2244,96.222 C32.8572,107.2772 26.4908,123.9596 26.1068,126.47 C27.4452,126.6788 32.2444,127.482 33.9228,128.5436 C34.0908,128.6508 34.1548,128.8644 34.0724,129.046 C33.5108,130.2924 32.4348,131.0604 31.3956,131.8028 C30.4332,132.49 29.5196,133.142 29.102,134.1156 L38.1188,144.4036 C38.2644,144.57 38.2476,144.8228 38.0812,144.9684 C38.0052,145.0356 37.9116,145.0684 37.818,145.0684" id="Fill-192" fill="#7EA3FF" mask="url(#mask-4)"></path>
        </g>
    </g>
</svg>