<?xml version="1.0" encoding="UTF-8"?>
<svg width="126px" height="145px" viewBox="0 0 126 145" version="1.1" xmlns="http://www.w3.org/2000/svg" xmlns:xlink="http://www.w3.org/1999/xlink">
    <title>Illustration / Jennifer</title>
    <defs>
        <polygon id="path-1" points="0.521615196 0.5916 20.04712 0.5916 20.04712 33.6 0.521615196 33.6"></polygon>
    </defs>
    <g id="Illustration-/-Jennifer" stroke="none" stroke-width="1" fill="none" fill-rule="evenodd">
        <g id="Jennifer">
            <path d="M31.06728,76.44584 C26.40008,76.17864 24.53448,70.84584 24.40008,66.84584 C24.40008,63.51304 25.46728,60.44584 26.53448,57.37864 C26.93448,56.17864 27.60008,54.57864 27.60008,53.24584 L42.26728,51.80024 L49.20008,71.77864 L53.43608,85.72104 C53.43608,85.72104 52.26728,88.71304 52.53448,89.11304 C52.80008,89.51304 47.86728,93.51304 47.86728,93.51304 C44.00008,94.71304 41.06728,94.44584 37.73448,92.17864 C36.13448,90.97864 34.26728,89.11304 33.33448,87.51304 C32.00008,84.84584 33.33448,82.97864 33.73448,80.44584 C33.73448,80.44584 31.33288,80.17864 31.06728,76.44584" id="Fill-1" fill="#271F23"></path>
            <path d="M31.33288,75.48176 C26.49368,74.81216 25.27928,69.59616 25.46248,65.43296 C25.64968,61.17216 28.15528,57.43776 28.60008,53.24576 L27.60008,54.24576 C30.30648,53.97936 33.01208,53.71216 35.71768,53.44576 C37.32328,53.28816 38.92968,53.12976 40.53528,52.97056 C41.04168,52.92176 41.54808,52.87136 42.05288,52.82176 C42.64328,52.76416 41.11448,51.52176 41.41448,52.38656 C43.54808,58.53456 45.68168,64.68256 47.81528,70.83136 C49.45688,75.56496 50.78088,80.42016 52.23688,85.21456 C52.53528,86.19616 52.29688,85.84816 51.81288,87.34416 C51.20328,89.23056 50.56568,89.91456 48.99608,91.27216 C46.71848,93.24256 44.27448,93.57776 41.24968,92.83456 C38.93528,92.26576 37.12008,90.44976 35.53288,88.79376 C32.79688,85.94096 34.04888,83.74176 34.69848,80.71136 C34.80408,80.22096 34.55928,79.57776 34.00008,79.48176 C32.48728,79.22016 32.21288,77.43616 32.03128,76.18016 C31.84888,74.90736 29.92088,75.45056 30.10328,76.71136 C30.38328,78.65616 31.23048,81.02416 33.46888,81.40976 C33.23608,80.99936 33.00328,80.59056 32.77048,80.18016 C32.37608,82.01776 31.21608,84.59456 31.90888,86.50496 C32.89048,89.21616 34.79608,91.08656 37.02728,92.88576 C39.61608,94.97376 45.66168,96.59296 48.57448,94.22016 C52.37688,91.12336 55.27528,88.33296 53.73848,83.27616 C50.49288,72.59376 46.89208,62.08416 43.23128,51.53456 C43.09528,51.14256 42.72408,50.75536 42.26728,50.80016 C37.37848,51.28256 32.48888,51.76416 27.60008,52.24576 C27.01128,52.30336 26.66248,52.66096 26.60008,53.24576 C25.98168,59.08176 22.64328,63.68496 23.77128,69.80336 C24.46248,73.55376 26.89048,76.86896 30.80168,77.40976 C32.06168,77.58496 32.60648,75.65776 31.33288,75.48176" id="Fill-3" fill="#271F23"></path>
            <path d="M45.33288,69.3208 C46.40168,68.9256 44.26568,69.5128 43.06728,69.5128 C41.46088,69.5128 39.73448,68.1784 38.80008,66.9784 C36.80008,64.5784 36.00008,60.1784 36.66728,57.1128 C36.66728,57.1128 42.05608,52.0392 42.53448,53.2456 C43.01288,54.452 46.00008,69.5128 46.00008,69.5128 L45.33288,69.3208 Z" id="Fill-5" fill="#BCD4F9"></path>
            <path d="M37.03288,57.31848 C36.39768,60.44568 37.29768,64.55128 39.10728,66.72248 C40.00808,67.87928 41.62568,69.11288 43.06728,69.11288 C43.63608,69.11288 44.45208,68.96888 44.99288,68.87208 C45.18088,68.83848 45.33928,68.81288 45.44968,68.79848 C44.54648,64.26408 42.60808,54.72328 42.18808,53.46488 C41.36328,53.56008 38.73768,55.72408 37.03288,57.31848 L37.03288,57.31848 Z M46.00008,69.91288 C45.96328,69.91288 45.92568,69.90808 45.88888,69.89768 L45.22168,69.70488 C45.18648,69.69528 45.15368,69.68008 45.12328,69.66168 C44.55528,69.76248 43.70328,69.91288 43.06728,69.91288 C41.34808,69.91288 39.52648,68.56248 38.48408,67.22408 C36.51928,64.86728 35.54648,60.38328 36.27688,57.02808 C36.29368,56.94888 36.33448,56.87688 36.39288,56.82168 C37.13128,56.12648 40.88168,52.66008 42.22808,52.66008 C42.54888,52.66008 42.79608,52.82008 42.90648,53.09848 C43.37608,54.28328 46.08248,67.87208 46.37128,69.32888 C46.40008,69.38408 46.41608,69.44648 46.41608,69.51288 C46.41608,69.73448 46.23688,69.91288 46.01608,69.91288 L46.00008,69.91288 Z" id="Fill-7" fill="#7EA3FF"></path>
            <path d="M42.86496,64.5708 C42.61376,64.5708 39.96736,64.5236 38.59376,62.6036 C37.02496,60.4092 37.05456,58.3844 37.61136,55.8276 C37.65776,55.6124 37.86976,55.4748 38.08656,55.5212 C38.30256,55.5692 38.43936,55.782 38.39216,55.998 C37.86976,58.4004 37.84176,60.1756 39.24416,62.138 C40.31056,63.6284 42.41616,63.758 42.80896,63.7692 C43.10336,63.6548 43.36816,63.4588 43.37136,63.3756 C43.37136,63.3732 43.32256,63.1204 42.42096,62.7388 C42.21696,62.6532 42.12176,62.4188 42.20816,62.2156 C42.29456,62.0116 42.53056,61.9164 42.73216,62.002 C43.36176,62.2684 44.19696,62.7028 44.17056,63.4052 C44.14416,64.1284 43.19456,64.486 43.00496,64.55 C42.96496,64.5628 42.92256,64.57 42.88096,64.5708 L42.86496,64.5708 Z" id="Fill-9" fill="#7EA3FF"></path>
            <path d="M86.00008,94.71296 C89.41608,95.44576 92.00008,95.51296 94.40008,99.11296 C97.60008,103.51296 98.00008,106.71296 102.80008,109.91296 C109.20008,113.91296 126.45928,120.25056 125.25928,130.65056 C124.45928,139.05056 104.08888,140.68496 98.07688,140.77376 C72.67688,141.14896 61.88328,139.34496 42.48168,140.78656 C34.85928,141.35376 1.27688,142.57856 0.47688,132.17856 C-0.32312,121.77856 16.40008,118.71296 23.60008,113.91296 C32.80008,107.91296 40.00008,97.51296 50.00008,93.51296" id="Fill-11" fill="#271F23"></path>
            <path d="M85.66576,90.99584 L85.66576,96.97904 C85.66576,96.97904 91.16576,101.01024 91.16576,109.37904 C91.16576,109.37904 90.24976,112.97904 84.08016,119.64624 C84.08016,119.64624 78.40016,125.24624 78.40016,133.91264 L78.52176,140.77264 L70.96576,140.77264 C70.96576,140.77264 66.40016,122.57904 59.20016,121.24624 C52.00016,119.91264 44.80976,116.64144 44.80976,103.14304 L44.80976,102.57904 C49.48576,96.97904 49.75616,90.17904 49.75616,90.17904 L49.75616,79.41264 L85.66576,90.99584" id="Fill-13" fill="#BCD4F9"></path>
            <path d="M32.40008,60.66064 C40.87048,63.18784 44.67768,54.33744 45.30008,47.37824 C45.35768,46.73664 44.35688,46.74224 44.30008,47.37824 C43.73848,53.65584 40.46328,62.02304 32.66568,59.69664 C32.04648,59.51104 31.78328,60.47744 32.40008,60.66064" id="Fill-15" fill="#271F23"></path>
            <path d="M97.91728,45.7864 C97.87248,45.7864 97.82848,45.776 97.78608,45.756 C97.63728,45.684 97.57488,45.504 97.64768,45.3552 C100.88608,38.68 101.77568,32.2888 100.29328,26.3592 C98.16288,19.9712 97.07328,19.0008 91.91568,16.4216 C91.76768,16.348 91.70768,16.168 91.78208,16.0192 C91.85568,15.8712 92.03728,15.8104 92.18448,15.8848 C97.45008,18.5184 98.67328,19.6072 100.86848,26.192 C102.39328,32.2832 101.48848,38.812 98.18688,45.6168 C98.13488,45.724 98.02848,45.7864 97.91728,45.7864" id="Fill-17" fill="#271F23"></path>
            <path d="M96.44384,61.42392 L97.19824,34.80552 C97.22944,34.23672 97.24704,33.66632 97.24704,33.08952 C97.24704,15.80392 83.23264,1.78952 65.94704,1.78952 C48.66064,1.78952 34.64704,15.80392 34.64704,33.08952 C34.64704,40.55992 37.26864,47.41592 41.63584,52.79752 L45.76704,71.25992 L45.79104,71.31592 C46.25024,74.05672 47.66384,77.94232 49.33264,80.01272 C50.52064,81.48312 59.64704,88.62392 59.64704,88.62392 C69.59984,96.51272 78.04704,95.39112 78.04704,95.39112 L78.02784,95.35512 C82.45664,95.02712 86.07504,91.80072 86.98144,87.55832 L86.98464,87.55832 C91.13264,79.61112 93.51904,72.88792 94.85824,68.24872 C95.85184,66.18952 96.42704,63.89112 96.43904,61.45512 C96.44224,61.43512 96.44384,61.42392 96.44384,61.42392" id="Fill-19" fill="#E3ECF8"></path>
            <path d="M65.90008,1.74424 C83.18568,1.74424 97.20008,15.75864 97.20008,33.04424 C97.20008,33.04424 97.49848,13.64584 81.54968,13.64584 L65.90008,1.74424" id="Fill-21" fill="#271F23"></path>
            <path d="M81.61728,13.44584 C88.93008,13.46984 92.85408,17.55944 94.96128,21.98904 C90.54688,10.46904 79.45728,2.19784 66.50048,1.94984 L81.61728,13.44584 Z M97.20048,33.24424 L97.19888,33.24424 C97.08848,33.24344 97.00048,33.15384 97.00048,33.04424 L96.99968,32.79384 C96.97088,30.84904 96.29968,13.84584 81.55008,13.84584 C81.50608,13.84584 81.46448,13.83144 81.42928,13.80504 L65.77888,1.90344 C65.71088,1.85224 65.68288,1.76184 65.71008,1.68024 C65.73808,1.59864 65.81408,1.54424 65.90048,1.54424 C83.13248,1.54424 97.26288,15.56104 97.39968,32.79064 C97.40128,32.95784 97.40068,33.04744 97.40068,33.04744 C97.39888,33.15704 97.30928,33.24424 97.20048,33.24424 L97.20048,33.24424 Z" id="Fill-23" fill="#271F23"></path>
            <path d="M67.60008,75.50832 C69.10008,76.23792 74.80008,75.71792 76.50008,75.92512 C78.20008,76.02992 78.79688,77.40192 80.30008,76.42432 C82.06728,75.27392 85.08728,76.06752 85.88728,75.96272 C85.48728,76.38032 84.81848,81.88672 79.55048,82.46272 C71.31688,83.36272 66.83288,76.44592 66.33288,75.61312" id="Fill-25" fill="#7EA3FF"></path>
            <path d="M78.70712,78.7888 C76.26472,78.7888 74.35672,78.0952 74.23752,78.0504 C70.72632,77.468 67.67992,76.372 67.24632,76.2128 L65.89992,76.2128 C65.73432,76.2128 65.59992,76.0784 65.59992,75.9128 C65.59992,75.7472 65.73432,75.6128 65.89992,75.6128 L67.29992,75.6128 C67.33592,75.6128 67.37272,75.6192 67.40632,75.6328 C67.43832,75.6448 70.62392,76.8416 74.39112,77.4728 C74.48872,77.5032 78.69112,79.0264 82.53032,77.4904 C82.59592,77.472 85.13512,76.8328 85.95992,75.7328 C86.01672,75.6576 86.10552,75.6128 86.19992,75.6128 L86.89992,75.6128 C87.06552,75.6128 87.19992,75.7472 87.19992,75.9128 C87.19992,76.0784 87.06552,76.2128 86.89992,76.2128 L86.34392,76.2128 C85.31992,77.4056 82.82392,78.0336 82.71432,78.0608 C81.35192,78.6064 79.95912,78.7888 78.70712,78.7888" id="Fill-27" fill="#71748D"></path>
            <path d="M86.40008,17.24584 C88.40008,20.71304 91.73448,22.71304 93.33448,26.57864 C94.13448,28.84584 95.06728,30.97864 95.86728,33.24584 C96.93448,35.77864 96.66728,37.77864 96.93448,40.44584 L97.46728,49.64584 C98.13448,48.17864 98.26728,46.44584 98.40008,44.97864 C98.80008,41.64584 98.66728,38.44584 98.93448,35.11304 C99.20008,30.04584 98.26728,25.24584 95.20008,21.11304 C93.46728,18.57864 86.61128,12.91624 83.14568,13.71624" id="Fill-29" fill="#271F23"></path>
            <path d="M85.96808,17.49816 C87.85128,20.45176 90.55688,22.72376 92.37368,25.72376 C94.66408,29.50776 96.11848,34.81096 96.33688,39.16216 C96.51288,42.65736 96.76488,46.15176 96.96728,49.64616 C97.00088,50.22056 97.75848,50.31176 97.94968,49.77896 C99.44088,45.61016 99.15528,40.89896 99.34168,36.53416 C99.52968,32.11976 99.28888,28.18936 97.54728,24.07976 C95.52968,19.32056 88.76648,12.55336 83.14568,13.21576 C82.51368,13.29016 82.50568,14.29176 83.14568,14.21576 C88.66488,13.56536 94.46808,20.19896 96.68328,24.58376 C98.53608,28.25096 98.60248,32.53576 98.34168,36.53416 C98.06088,40.83016 98.45688,45.39896 96.98488,49.51336 C97.31288,49.55736 97.64008,49.60136 97.96728,49.64616 C97.74168,45.74936 97.47208,41.85336 97.27608,37.95656 C97.07048,33.86616 95.20808,30.23976 93.81688,26.44616 C92.45848,22.74296 88.90328,20.24376 86.83208,16.99336 C86.48568,16.45096 85.62008,16.95256 85.96808,17.49816" id="Fill-31" fill="#271F23"></path>
            <path d="M94.66576,50.79584 L93.90016,50.79584 C93.50016,50.79584 93.16096,50.49984 93.10736,50.10304 C93.09616,50.03904 92.74176,48.21264 89.43936,48.21264 L88.84576,48.21264 C88.40336,48.21264 88.04576,47.85504 88.04576,47.41264 C88.04576,46.97184 88.40336,46.61264 88.84576,46.61264 L89.43936,46.61264 C92.85376,46.61264 94.06416,48.23264 94.48256,49.19584 L94.66576,49.19584 C95.10816,49.19584 95.46576,49.55344 95.46576,49.99584 C95.46576,50.43744 95.10816,50.79584 94.66576,50.79584" id="Fill-33" fill="#271F23"></path>
            <path d="M71.96104,45.97624 C74.06824,47.38344 74.58104,49.69224 74.80024,52.11304 C74.91464,53.38664 76.91624,53.39784 76.80024,52.11304 C76.51144,48.91944 75.72584,46.08984 72.97064,44.24984 C71.89464,43.53064 70.89464,45.26424 71.96104,45.97624" id="Fill-35" fill="#BCD4F9"></path>
            <path d="M85.48448,49.4864 C85.48448,48.2632 86.46768,47.2704 87.67808,47.2704 C88.88928,47.2704 89.87168,48.2632 89.87168,49.4864 C89.87168,50.7112 88.88928,51.7024 87.67808,51.7024 C86.46768,51.7024 85.48448,50.7112 85.48448,49.4864" id="Fill-37" fill="#271F23"></path>
            <path d="M94.66576,51.11296 L92.16576,51.11296 C91.94496,51.11296 91.76576,50.93376 91.76576,50.71296 C91.76576,50.49216 91.94496,50.31296 92.16576,50.31296 L94.66576,50.31296 C94.88656,50.31296 95.06576,50.49216 95.06576,50.71296 C95.06576,50.93376 94.88656,51.11296 94.66576,51.11296" id="Fill-39" fill="#271F23"></path>
            <path d="M65.90008,51.71296 L61.88328,51.71296 C61.66168,51.71296 61.48328,51.53376 61.48328,51.31296 C61.48328,51.09216 61.66168,50.91296 61.88328,50.91296 L65.90008,50.91296 C66.12088,50.91296 66.30008,51.09216 66.30008,51.31296 C66.30008,51.53376 66.12088,51.71296 65.90008,51.71296" id="Fill-41" fill="#271F23"></path>
            <path d="M89.41576,51.98328 L85.39976,51.98328 C85.17896,51.98328 84.99976,51.80408 84.99976,51.58328 C84.99976,51.36248 85.17896,51.18328 85.39976,51.18328 L89.41576,51.18328 C89.63656,51.18328 89.81576,51.36248 89.81576,51.58328 C89.81576,51.80408 89.63656,51.98328 89.41576,51.98328" id="Fill-43" fill="#E3ECF8"></path>
            <path d="M73.93288,45.8864 C73.71208,45.8864 73.53288,45.7072 73.53288,45.4864 L73.53288,43.7784 C73.53288,43.5576 73.71208,43.3784 73.93288,43.3784 C74.15368,43.3784 74.33288,43.5576 74.33288,43.7784 L74.33288,45.4864 C74.33288,45.7072 74.15368,45.8864 73.93288,45.8864" id="Fill-45" fill="#271F23"></path>
            <path d="M72.46576,45.51296 C72.24496,45.51296 72.06576,45.33376 72.06576,45.11296 L72.06576,43.51296 C72.06576,43.29216 72.24496,43.11296 72.46576,43.11296 C72.68656,43.11296 72.86576,43.29216 72.86576,43.51296 L72.86576,45.11296 C72.86576,45.33376 72.68656,45.51296 72.46576,45.51296" id="Fill-47" fill="#271F23"></path>
            <path d="M62.52664,75.70832 C62.30584,75.70832 62.12664,75.52912 62.12664,75.30832 C62.12664,73.65392 63.47304,72.30832 65.12664,72.30832 C65.34744,72.30832 65.52664,72.48752 65.52664,72.70832 C65.52664,72.92912 65.34744,73.10832 65.12664,73.10832 C63.91304,73.10832 62.92664,74.09472 62.92664,75.30832 C62.92664,75.52912 62.74744,75.70832 62.52664,75.70832" id="Fill-49" fill="#71748D"></path>
            <path d="M81.80008,68.71296 C81.58008,68.71296 81.40168,68.53456 81.4008773,68.31376 C81.40008,68.09376 81.57848,67.91456 81.79848,67.91296 C81.86488,67.91216 83.42488,67.88736 84.03768,66.57616 C84.13128,66.37536 84.37048,66.29056 84.56968,66.38336 C84.76968,66.47696 84.85608,66.71536 84.76248,66.91536 C83.93128,68.69296 81.88648,68.71296 81.80008,68.71296" id="Fill-51" fill="#BCD4F9"></path>
            <path d="M87.79696,43.64968 C84.23776,44.97688 82.34816,47.61368 82.50736,51.40408 C82.62336,54.18648 83.47216,56.95768 84.11776,59.64568 C84.54256,61.41048 87.14736,65.13288 85.04656,66.75928 C84.53776,67.15368 85.25056,67.85608 85.75376,67.46648 C87.52816,66.09288 86.74736,63.88488 86.10576,62.06728 C84.17616,56.60568 80.54256,47.41928 88.06256,44.61368 C88.66096,44.39048 88.40256,43.42408 87.79696,43.64968" id="Fill-53" fill="#BCD4F9"></path>
            <path d="M95.8032,44.54584 C94.3376,43.34584 94.5328,42.51304 92.3328,42.71304 C90.7328,42.91304 88.6,43.24584 87.2,44.04584 C86.7328,44.31304 86.0672,44.51304 86,45.17864 C88.5328,45.57864 91.8,44.04584 93.2,43.77864 C94.7112,43.49144 95.8656,44.37864 96.6656,45.57864" id="Fill-55" fill="#271F23"></path>
            <path d="M96.15712,44.19192 C95.48272,43.59192 94.94432,42.82552 94.13712,42.40072 C93.23632,41.92712 92.01632,42.24872 91.06832,42.38712 C89.33072,42.64152 86.20592,43.11992 85.51792,45.04552 C85.39952,45.37752 85.70192,45.64872 86.00032,45.67832 C87.54032,45.83272 88.97632,45.53992 90.45712,45.12472 C92.66112,44.50872 94.48752,43.47192 96.23392,45.83112 C96.61312,46.34312 97.48112,45.84472 97.09792,45.32632 C96.14192,44.03592 94.80672,42.89112 93.06752,43.29672 C90.68272,43.85112 88.51792,44.92952 86.00032,44.67832 C86.16112,44.88952 86.32112,45.10072 86.48192,45.31112 C86.94592,44.01192 89.59312,43.67432 90.73552,43.45192 C91.72432,43.25912 93.22832,42.85112 94.12352,43.57512 C94.60112,43.96152 94.98832,44.48792 95.44912,44.89992 C95.92992,45.32712 96.63952,44.62232 96.15712,44.19192" id="Fill-57" fill="#271F23"></path>
            <path d="M66.23288,48.31296 C67.11208,48.25856 67.98968,48.15216 68.86568,48.05856 C69.40808,48.00016 69.86568,47.64736 69.86568,47.05856 C69.86568,46.55696 69.40888,46.00016 68.86568,46.05856 C67.98968,46.15216 67.11208,46.25856 66.23288,46.31296 C64.95128,46.39296 64.94408,48.39296 66.23288,48.31296" id="Fill-59" fill="#BCD4F9"></path>
            <path d="M59.73288,50.84584 L58.80008,50.84584 C58.35768,50.84584 58.00008,50.48744 58.00008,50.04584 C58.00008,49.60344 58.35768,49.24584 58.80008,49.24584 L59.49768,49.24584 C60.32328,48.72664 63.38728,46.91304 65.94728,46.91304 C66.38888,46.91304 66.74728,47.27144 66.74728,47.71304 C66.74728,48.15544 66.38888,48.51304 65.94728,48.51304 C63.50968,48.51304 60.20968,50.68984 60.17688,50.71144 C60.04568,50.79864 59.89048,50.84584 59.73288,50.84584" id="Fill-61" fill="#271F23"></path>
            <path d="M70.86728,50.44504 C70.74648,50.44504 70.62648,50.39064 70.54888,50.28744 C70.52888,50.26184 68.60728,47.77864 65.36568,47.77864 C65.14488,47.77864 64.96568,47.59944 64.96568,47.37864 C64.96568,47.15784 65.14488,46.97864 65.36568,46.97864 C69.01608,46.97864 71.10008,49.68984 71.18648,49.80504 C71.31928,49.98184 71.28408,50.23144 71.10888,50.36424 C71.03608,50.41944 70.95128,50.44504 70.86728,50.44504" id="Fill-63" fill="#271F23"></path>
            <path d="M61.93136,49.34424 C61.93136,48.04104 62.97536,47.61304 64.26576,47.61304 C65.55296,47.61304 66.60016,48.04104 66.60016,49.34424 C66.60016,50.64744 65.55456,51.70184 64.26736,51.70184 C62.97696,51.70184 61.93136,50.64744 61.93136,49.34424" id="Fill-65" fill="#271F23"></path>
            <path d="M56.20008,44.84584 C57.46568,43.96904 59.33288,42.24584 63.86568,42.24584 C63.86568,42.24584 71.06568,43.37864 72.26568,43.44584 L72.46568,43.51304 C72.26568,44.37864 70.66568,44.71304 69.86568,44.77864 C68.33288,44.91304 67.20008,43.97864 65.73288,43.71304 C62.00008,42.84584 56.20008,43.71304 53.80008,46.84584" id="Fill-67" fill="#271F23"></path>
            <path d="M56.45248,45.27784 C61.51488,41.65864 66.30768,43.27704 71.94928,43.91864 C70.61648,44.30984 69.26928,44.30824 67.90768,43.91384 C66.93408,43.61304 66.04608,43.26504 65.03568,43.07144 C63.45168,42.76744 61.81008,42.89304 60.22528,43.09544 C57.63328,43.42744 55.18528,44.52984 53.44608,46.49224 C53.02048,46.97304 53.72528,47.68344 54.15408,47.19944 C57.19568,43.76664 62.45728,43.30344 66.64928,44.49304 C68.80048,45.10184 71.35488,46.02424 72.89808,43.76504 C73.08928,43.48504 72.88528,43.12744 72.59888,43.03064 C70.10688,42.19464 66.96928,42.22664 64.35168,41.81944 C61.28048,41.34104 58.36768,42.68424 55.94768,44.41384 C55.42848,44.78584 55.92688,45.65384 56.45248,45.27784" id="Fill-69" fill="#271F23"></path>
            <path d="M84.40008,49.27864 C84.27368,49.27864 84.14808,49.21864 84.07048,49.10504 C83.94568,48.92344 83.99128,48.67384 84.17368,48.54904 C86.19288,47.16024 88.21208,46.62744 90.16888,46.96824 C90.38568,47.00664 90.53208,47.21384 90.49368,47.43144 C90.45528,47.64904 90.24488,47.79304 90.03128,47.75704 C88.26328,47.44824 86.49608,47.92344 84.62648,49.20824 C84.55688,49.25624 84.47848,49.27864 84.40008,49.27864" id="Fill-71" fill="#271F23"></path>
            <path d="M84.77512,48.1536 C84.64872,48.1536 84.52312,48.0928 84.44552,47.98 C84.32072,47.7984 84.36632,47.5488 84.54872,47.424 C85.99272,46.4312 88.61432,45.8848 91.58552,45.9552 C91.80552,45.9608 91.98072,46.144 91.97512,46.3656 C91.96952,46.5824 91.79192,46.7552 91.57512,46.7552 L91.56472,46.7552 C88.76232,46.6864 86.31272,47.1824 85.00152,48.0832 C84.93192,48.1312 84.85352,48.1536 84.77512,48.1536" id="Fill-73" fill="#E3ECF8"></path>
            <path d="M86.64544,54.57624 C87.79744,55.12584 88.98144,55.34664 90.25024,55.41304 C91.53984,55.48024 91.53264,53.48024 90.25024,53.41304 C89.35344,53.36584 88.47344,53.23944 87.65504,52.84984 C86.49664,52.29704 85.48144,54.02184 86.64544,54.57624" id="Fill-75" fill="#BCD4F9"></path>
            <path d="M78.53448,67.94272 C78.58648,67.95712 78.63928,67.97312 78.68968,67.99232 C78.59128,67.94992 78.59848,67.95552 78.71048,68.00832 C78.83688,68.07072 78.95528,68.14912 79.07208,68.22832 C79.00328,68.18192 79.24168,68.38112 79.27768,68.41712 C79.35768,68.50912 79.36648,68.51712 79.30328,68.44112 C79.41768,68.60272 79.30648,68.39152 79.30008,68.31312 C79.34328,68.85632 79.72168,69.31312 80.30008,69.31312 C80.81288,69.31312 81.34328,68.85712 81.30008,68.31312 C81.20968,67.16832 80.11208,66.31312 79.06568,66.01472 C77.82328,65.65952 77.29608,67.58912 78.53448,67.94272" id="Fill-77" fill="#BCD4F9"></path>
            <path d="M78.86728,68.31296 C78.75528,68.31296 78.64408,68.26576 78.56488,68.17456 C78.12648,67.66816 76.47928,67.37216 75.63128,67.97216 C75.45128,68.09856 75.20248,68.05856 75.07368,67.87616 C74.94648,67.69616 74.98808,67.44656 75.16888,67.31936 C76.33368,66.49616 78.44408,66.81296 79.16968,67.65056 C79.31448,67.81856 79.29608,68.07056 79.12888,68.21536 C79.05288,68.28096 78.96008,68.31296 78.86728,68.31296" id="Fill-79" fill="#71748D"></path>
            <path d="M69.13136,54.22392 C69.90016,54.03512 70.67136,53.87272 71.46576,53.85992 C72.75376,53.83992 72.75616,51.83992 71.46576,51.85992 C70.49856,51.87512 69.53616,52.06552 68.60016,52.29592 C67.34816,52.60392 67.87936,54.53192 69.13136,54.22392" id="Fill-81" fill="#BCD4F9"></path>
            <path d="M84.66336,68.71768 C84.92416,68.21928 85.28256,67.88328 85.80496,67.57608 C86.91456,66.92328 85.90976,65.19368 84.79536,65.84968 C84.02656,66.30168 83.35376,66.91048 82.93696,67.70808 C82.68336,68.19128 82.80976,68.79208 83.29536,69.07608 C83.74816,69.34168 84.41136,69.20088 84.66336,68.71768" id="Fill-83" fill="#BCD4F9"></path>
            <path d="M60.72352,51.11296 L58.22352,51.11296 C58.00272,51.11296 57.82352,50.93376 57.82352,50.71296 C57.82352,50.49216 58.00272,50.31296 58.22352,50.31296 L60.72352,50.31296 C60.94432,50.31296 61.12352,50.49216 61.12352,50.71296 C61.12352,50.93376 60.94432,51.11296 60.72352,51.11296" id="Fill-85" fill="#271F23"></path>
            <path d="M78.89152,78.40984 C76.52832,78.40984 74.32192,78.12984 74.17472,78.11144 C74.06512,78.09624 73.98752,77.99624 74.00192,77.88744 C74.01552,77.77704 74.11872,77.69784 74.22592,77.71464 C74.28352,77.72184 80.01392,78.44824 82.89232,77.57784 C83.00272,77.54584 83.10992,77.60584 83.14112,77.71144 C83.17392,77.81704 83.11312,77.92824 83.00832,77.96024 C81.87632,78.30264 80.35392,78.40984 78.89152,78.40984" id="Fill-87" fill="#71748D"></path>
            <path d="M47.67432,61.32392 C48.56072,63.04952 49.78392,64.56312 51.14152,65.94072 C52.04792,66.85992 53.46152,65.44472 52.55592,64.52632 C51.30872,63.26152 50.21592,61.89912 49.40072,60.31432 C48.81112,59.16712 47.08632,60.17912 47.67432,61.32392" id="Fill-89" fill="#BCD4F9"></path>
            <path d="M47.26336,60.74112 C46.26736,59.24432 45.31936,57.76512 45.26576,55.91312 C45.22816,54.62592 43.22816,54.62272 43.26576,55.91312 C43.33056,58.13872 44.33056,59.93952 45.53696,61.75072 C46.24736,62.81872 47.98016,61.81792 47.26336,60.74112" id="Fill-91" fill="#BCD4F9"></path>
            <path d="M29.46728,42.04584 C26.13448,41.77864 25.06728,45.77864 25.86728,48.44584 C27.20008,53.11304 31.86728,55.64584 36.40008,55.91304 C39.33448,56.04584 42.80968,58.47704 43.59208,55.62264 C46.00008,46.84584 52.93448,41.11304 58.66728,35.64584 C66.26728,28.17864 72.46568,17.94904 84.40008,18.84584 C86.72328,19.02104 86.26728,15.91304 85.46728,13.91304 C84.66728,12.04584 84.00008,10.17864 82.80008,8.57864 C81.60008,7.24584 80.00008,6.17864 78.53448,5.24584 C77.73448,4.71304 76.13448,3.11304 75.20008,3.11304 C75.20008,3.11304 71.46728,0.84584 62.66728,1.77864 C55.71128,2.51624 49.46728,4.84584 44.00008,9.37864 C40.26728,12.44584 36.66728,16.57864 34.26728,20.71304 C30.40008,27.24584 26.93448,35.51304 30.00008,43.11304 L29.46728,42.04584 Z" id="Fill-93" fill="#271F23"></path>
            <path d="M29.46728,41.04584 C22.35288,41.36824 24.55848,50.21464 27.98088,53.58344 C30.81768,56.37704 34.52568,56.40984 38.13528,57.22344 C40.42088,57.73784 43.60488,59.02664 44.55608,55.88824 C47.68808,45.56424 56.84168,39.28744 63.82328,31.65224 C66.87128,28.31944 69.92888,25.00664 73.73848,22.52584 C75.70648,21.24424 77.89688,20.48024 80.18168,20.01144 C82.11768,19.61464 84.46168,20.40664 86.16408,19.29384 C88.23048,17.94184 86.62408,14.10664 85.96168,12.52904 C84.08408,8.05704 81.56168,6.23944 77.78888,3.40104 C73.28168,0.00984 66.35928,0.16904 61.10568,0.97144 C51.09848,2.49864 42.58008,7.66904 36.44728,15.74984 C30.62408,23.42104 25.60168,33.70184 29.03608,43.37864 C29.64568,43.12264 30.25368,42.86504 30.86328,42.60824 C30.68568,42.25304 30.50888,41.89624 30.33048,41.54104 C29.75448,40.38744 28.02968,41.40024 28.60408,42.55064 C28.78168,42.90584 28.95848,43.26264 29.13688,43.61784 C29.64088,44.62824 31.34408,43.91624 30.96408,42.84744 C27.97848,34.43144 31.93688,25.98344 36.55208,18.96904 C41.53528,11.39624 49.09208,5.85304 57.85048,3.60424 C62.77688,2.33944 69.75448,1.53864 74.55528,3.89944 C76.85368,5.03064 79.12968,6.71544 81.12648,8.33384 C82.87448,9.75064 83.66968,12.19384 84.50328,14.17864 C84.71608,14.71064 84.88168,15.25784 85.00008,15.81784 C85.71048,18.56584 83.41048,17.78984 82.08728,17.81064 C70.22568,17.99784 62.31048,30.83224 54.59288,38.11064 C49.99528,42.44744 45.90808,47.04824 43.43448,52.92904 C42.39128,55.40824 41.03528,55.94344 38.66648,55.29464 C36.98968,54.83544 35.23688,54.83224 33.54968,54.40344 C31.64408,53.91864 30.02808,52.79304 28.65048,51.43704 C26.93448,49.74744 24.65688,43.26344 29.46728,43.04584 C30.75128,42.98824 30.75688,40.98744 29.46728,41.04584" id="Fill-95" fill="#271F23"></path>
            <g id="Group-99" transform="translate(77.600000, 110.771200)">
                <mask id="mask-2" fill="white">
                    <use xlink:href="#path-1"></use>
                </mask>
                <g id="Clip-98"></g>
                <path d="M0.97512,33.6004 C0.75432,33.6004 0.57512,33.4204 0.57512,33.2004 L0.57512,27.8076 C0.54632,27.4092 -0.11688,17.3412 4.15672,12.754 C5.52392,11.286 7.25432,10.542 9.29992,10.542 C15.47512,10.542 18.12472,14.518 19.24712,17.5308 L19.24712,0.9916 C19.24712,0.7708 19.42552,0.5916 19.64712,0.5916 C19.86792,0.5916 20.04712,0.7708 20.04712,0.9916 L20.04712,20.8748 C20.04712,21.0892 19.87672,21.266 19.66152,21.274 C19.40872,21.2788 19.26312,21.1172 19.24792,20.9036 C19.24632,20.8796 19.05512,18.4572 17.72392,16.0796 C15.96232,12.9356 13.12872,11.342 9.29992,11.342 C7.48632,11.342 5.95272,12.0004 4.74232,13.2988 C0.70632,17.63 1.36712,27.678 1.37432,27.7796 L1.37512,33.2004 C1.37512,33.4204 1.19592,33.6004 0.97512,33.6004" id="Fill-97" fill="#7EA3FF" mask="url(#mask-2)"></path>
            </g>
            <path d="M73.07664,143.8716 C72.93184,143.8716 72.79344,143.7924 72.72224,143.6548 L64.77184,128.3628 C64.74784,128.3108 63.30624,125.1852 59.92544,124.3812 C56.81264,123.6412 53.06624,125.022 48.78944,128.4884 L41.63264,135.6492 C41.54384,135.7388 41.42064,135.782 41.29424,135.762 C41.17024,135.7452 41.06144,135.67 41.00064,135.5604 L35.26464,125.2468 C35.15744,125.0532 35.22624,124.81 35.41984,124.702 C35.61184,124.5956 35.85664,124.6636 35.96304,124.8572 L41.44224,134.7084 L48.25504,127.8956 C52.77024,124.2324 56.75104,122.798 60.12224,123.6052 C63.88784,124.5068 65.42784,127.8724 65.49264,128.0156 L73.43104,143.2868 C73.53344,143.4828 73.45744,143.7236 73.26064,143.8252 C73.20224,143.8556 73.13904,143.8716 73.07664,143.8716" id="Fill-100" fill="#7EA3FF"></path>
        </g>
    </g>
</svg>