<?xml version="1.0" encoding="UTF-8"?>
<svg width="145px" height="143px" viewBox="0 0 145 143" version="1.1" xmlns="http://www.w3.org/2000/svg" xmlns:xlink="http://www.w3.org/1999/xlink">
    <title>Illustration / Ramy</title>
    <defs>
        <polygon id="path-1" points="0.551311049 0.711120011 57.6747209 0.711120011 57.6747209 58.4000009 0.551311049 58.4000009"></polygon>
    </defs>
    <g id="Illustration-/-Ramy" stroke="none" stroke-width="1" fill="none" fill-rule="evenodd">
        <g id="Ramy">
            <path d="M100.900069,93.3046106 C112.900069,99.7046107 143.52144,109.725282 142.72144,127.325282 C137.92144,143.858882 80.3078391,138.373282 67.2886389,138.683682 C35.4534384,139.442882 16.1838381,140.328482 10.0550381,135.858882 C0.91343792,129.191682 -1.17856211,117.625282 7.72543802,111.568482 C9.27823804,110.511682 23.5214383,107.458882 32.8238384,102.125282 C56.7222388,88.4228813 67.8725138,74.7773124 98.3709143,91.9765127 L100.900069,93.3046106 Z" id="Fill-1" fill="#271F23"></path>
            <path d="M134.01608,114.875442 C137.67528,117.988242 143.46248,124.785842 139.20488,129.456242 C135.71768,133.282642 129.50088,134.466642 124.67048,135.393042 C110.79528,138.056242 96.2208793,137.482642 82.1712791,137.051442 C66.6232789,136.573842 51.1360787,137.274642 35.5832784,137.305042 C27.5960783,137.320242 16.1616781,138.538642 9.62007805,132.945042 C4.03607797,128.170642 1.79447793,119.953042 7.39847802,114.361042 C8.89847804,112.865042 10.8832781,112.518642 12.8424781,111.928242 C16.1464781,110.933042 19.4376782,109.915442 22.6936782,108.769042 C35.0256784,104.429042 45.1088786,96.0658414 56.8456788,90.5418413 C70.409679,84.1578413 83.6632792,88.5410413 96.1120793,95.4522414 C98.3688794,96.7050414 100.386479,93.2506414 98.1304794,91.9986414 C89.8208792,87.3842413 80.9232791,83.4410412 71.276879,83.1898412 C63.9320789,82.9986412 57.0040788,85.7874413 50.6472787,89.1986413 C42.5248785,93.5554414 35.0936784,99.1986415 26.6528783,102.955442 C22.4072782,104.844242 17.9160782,106.213042 13.4760781,107.560242 C10.8696781,108.352242 8.02967803,108.877842 5.80407799,110.511442 C-6.74952219,119.726642 3.13527795,137.565842 15.8128781,140.085042 C22.6200782,141.437842 29.7640784,141.316242 36.6680785,141.302642 C47.1240786,141.282642 57.5688788,140.791442 68.0216789,140.672242 C79.4560791,140.542642 90.8808793,141.461842 102.325679,141.266642 C114.09128,141.065042 128.33128,140.996242 138.79288,134.829842 C142.53928,132.621042 145.22488,129.146642 144.57448,124.664242 C143.70408,118.663442 139.49688,114.054642 134.88648,110.451442 C123.91208,101.873042 110.29208,98.3682415 98.1304794,91.9986414 C95.8488793,90.8026414 93.8272793,94.2546414 96.1120793,95.4522414 C108.67368,102.032242 123.01528,105.515442 134.01608,114.875442 Z" id="Fill-3" fill="#271F23"></path>
            <g id="Group-7" transform="translate(38.246718, 83.414161)">
                <mask id="mask-2" fill="white">
                    <use xlink:href="#path-1"></use>
                </mask>
                <g id="Clip-6"></g>
                <path d="M46.0747207,0.711120011 C53.2419208,5.62632008 57.2747209,31.9111205 57.2747209,41.5111206 C57.2747209,44.71112 58.8747209,54.3111208 55.6747208,55.9111208 C52.4747208,59.1111209 44.4747207,58.3111209 41.2747206,58.3111209 L15.6747202,58.3111209 C11.6747202,57.5111209 4.47472007,59.1111209 2.07472003,55.1111208 C-0.325280005,51.9111208 -0.325280005,13.5111202 5.27472008,7.91112012" id="Fill-5" fill="#FFFFFF" mask="url(#mask-2)"></path>
            </g>
            <path d="M43.5589586,88.0881613 L43.5589586,98.2633615 C43.5589586,98.2633615 41.5309585,108.391362 54.6573587,114.924961 L65.0549589,121.924961 C65.0549589,121.924961 86.5549592,101.992162 86.5549592,95.9921614 C86.5549592,89.9921613 86.3885592,82.4249612 86.3885592,82.4249612 L86.3885592,84.0321613" id="Fill-8" fill="#BCD4F9"></path>
            <path d="M37.0550385,46.2612007 C37.0550385,45.7612007 30.4550384,46.1252007 30.0550384,46.2252007 C29.3550383,46.5252007 28.9550383,47.6252007 28.7550383,48.2252007 C28.1550383,50.6252008 29.3550383,53.3252008 30.0550384,55.5252008 C30.8550384,58.2252009 32.0550384,60.7252009 32.5550384,63.5252009 C32.8550384,65.525201 33.5550384,69.525201 36.6550385,68.525201" id="Fill-10" fill="#BCD4F9"></path>
            <path d="M35.7300784,68.983041 C35.2676784,68.983041 34.8420784,68.863841 34.4588784,68.626241 C33.0580784,67.758241 32.5604784,65.583041 32.2580784,63.5694409 C31.9484784,61.8358409 31.3468784,60.1686409 30.7660784,58.5574409 C30.4212784,57.6022409 30.0652784,56.6142408 29.7676784,55.6102408 C29.6564783,55.2614408 29.5300783,54.8934408 29.4012783,54.5158408 C28.7156783,52.5158408 27.9404783,50.2494407 28.4644783,48.1526407 C28.7516783,47.2870407 29.1724783,46.2774407 29.9372784,45.9494407 C30.0372784,45.9198407 36.4820785,45.4006407 37.2036785,45.9646407 C37.2772785,46.0214407 37.3548796,46.1686407 37.3548796,46.2614407 C37.3556785,46.5318407 36.9452785,46.6358407 36.8052785,46.4270407 C36.0516784,46.1438407 30.6012784,46.4102407 30.1268784,46.5166407 C29.5580783,46.7646407 29.1684783,47.9350407 29.0404783,48.3198407 C28.5652783,50.2222407 29.3108783,52.3998408 29.9684784,54.3206408 C30.0996784,54.7030408 30.2268784,55.0750408 30.3412784,55.4342408 C30.6356784,56.4270408 30.9884784,57.4070409 31.3308784,58.3534409 C31.9204784,59.9886409 32.5308784,61.6798409 32.8500784,63.4726409 C33.0220784,64.616641 33.4212784,67.277441 34.7748784,68.116641 C35.2748784,68.425441 35.8596784,68.465441 36.5628785,68.239841 C36.7212785,68.187841 36.8892785,68.275841 36.9412785,68.433441 C36.9916785,68.591041 36.9052785,68.759841 36.7468785,68.811041 C36.3908784,68.925441 36.0508784,68.983041 35.7300784,68.983041" id="Fill-12" fill="#7EA3FF"></path>
            <path d="M32.7800784,59.6456009 C32.6128784,59.6456009 32.4568784,59.5400009 32.4008784,59.3720009 C32.2088784,58.7968009 31.9776784,58.2176009 31.7536784,57.6568009 C31.1928784,56.2536008 30.6120784,54.8032008 30.5144784,53.1360008 L30.5096784,52.7632008 C30.4936784,51.7296008 30.4712784,50.3152007 31.3248784,49.6048007 C32.2176784,48.7104007 33.0016784,49.0792007 33.6944784,49.4056007 C34.0120784,49.5552007 34.3408784,49.7096007 34.7256784,49.7864007 C34.9416784,49.8296007 35.0824784,50.0408007 35.0392784,50.2576007 C34.9968784,50.4736008 34.7872784,50.6168008 34.5680784,50.5712008 C34.0888784,50.4752008 33.6976784,50.2912007 33.3536784,50.1288007 C32.6888784,49.8152007 32.3848784,49.6736007 31.8632784,50.1952007 C31.2776784,50.6848008 31.2968784,51.9280008 31.3096784,52.7504008 L31.3136784,53.1120008 C31.4032784,54.6264008 31.9592784,56.0160008 32.4968784,57.3600009 C32.7248784,57.9312009 32.9608784,58.5216009 33.1600784,59.1192009 C33.2296784,59.3288009 33.1160784,59.5552009 32.9064784,59.6248009 C32.8640784,59.6392009 32.8224784,59.6456009 32.7800784,59.6456009" id="Fill-14" fill="#7EA3FF"></path>
            <path d="M34.8456784,61.8295209 C34.4496784,61.8295209 34.0864784,61.7495209 33.8168784,61.5143209 C33.5320784,61.2647209 33.4080784,60.8943209 33.4488784,60.4127209 C33.4664784,60.1919209 33.6560784,60.0263209 33.8800784,60.0471209 C34.1000784,60.0655209 34.2632784,60.2591209 34.2456784,60.4791209 C34.2280784,60.6935209 34.2616784,60.8391209 34.3440784,60.9127209 C34.6288784,61.1615209 35.5576784,60.9575209 36.1128784,60.8367209 C36.3416784,60.7863209 36.5520785,60.7407209 36.7240785,60.7159209 C36.9392785,60.6823209 37.1448785,60.8367209 37.1760785,61.0559209 C37.2072785,61.2743209 37.0560785,61.4775209 36.8368785,61.5087209 C36.6816785,61.5303209 36.4912785,61.5727209 36.2832784,61.6175209 C35.8288784,61.7175209 35.3152784,61.8295209 34.8456784,61.8295209" id="Fill-16" fill="#7EA3FF"></path>
            <path d="M90.2222393,69.658881 C90.2222393,70.5252811 91.2222393,70.058881 91.5558393,69.925281 C92.4222393,69.592481 92.5558393,68.725281 92.6894393,67.858881 C92.8222393,66.725281 92.7558393,65.525281 92.9558393,64.392481 C93.1558393,62.4588809 94.1558393,60.7924809 95.1558393,59.1924809 C96.8222393,56.5252808 98.9558394,52.6588808 98.2222393,49.2588807 L94.2966393,43.1476806 L90.2222393,49.2188807" id="Fill-18" fill="#BCD4F9"></path>
            <path d="M90.6800793,70.4693611 C90.5200793,70.4693611 90.3664793,70.435761 90.2352793,70.346961 C90.0928792,70.251761 89.9224792,70.054161 89.9224792,69.658961 C89.9224792,69.493361 90.0568792,69.358961 90.2224793,69.358961 C90.3880793,69.358961 90.5224793,69.493361 90.5224793,69.658961 C90.5224793,69.756561 90.5400793,69.829361 90.5688793,69.848561 C90.6344793,69.894161 90.8296793,69.898961 91.3752793,69.674961 C91.3760793,69.674961 91.4432793,69.646961 91.4440793,69.646961 C92.1528793,69.374161 92.2632793,68.650961 92.3936793,67.813361 C92.4472793,67.349361 92.4672793,66.8477606 92.4880793,66.362961 C92.5144793,65.696561 92.5424793,65.006961 92.6608793,64.339761 C92.8568793,62.4357609 93.7920793,60.8085609 94.9016793,59.0333609 C96.6648793,56.2109608 98.5992794,52.5685608 97.9400794,49.3749607 L94.2912793,43.6941607 L90.4712793,49.3861607 C90.3792793,49.5229607 90.1928793,49.5597607 90.0552792,49.4677607 C89.9176792,49.3749607 89.8808792,49.1885607 89.9728792,49.0517607 L94.0472793,42.9805606 C94.1032793,42.8965606 94.1944793,42.8485606 94.2992793,42.8477606 C94.4000793,42.8493606 94.4944793,42.9005606 94.5488793,42.9861606 L98.4744794,49.0965607 C98.4944794,49.1269607 98.5080794,49.1605607 98.5160794,49.1957607 C99.2528794,52.6125608 97.2432794,56.4173608 95.4104793,59.3509609 C94.3408793,61.0621609 93.4400793,62.6253609 93.2544793,64.422961 C93.1408793,65.071761 93.1136793,65.740561 93.0872793,66.386961 C93.0664793,66.883761 93.0456793,67.396561 92.9880793,67.893361 C92.8488793,68.797361 92.6928793,69.809361 91.6632793,70.205361 C91.3952793,70.315761 91.0216793,70.4693611 90.6800793,70.4693611" id="Fill-20" fill="#7EA3FF"></path>
            <path d="M94.1136793,58.7124009 C94.0496793,58.7124009 93.9848793,58.6972009 93.9248793,58.6644009 C93.7304793,58.5604009 93.6568793,58.3172009 93.7616793,58.1228009 C93.9368793,57.7964009 94.1312793,57.4564009 94.3320793,57.1044009 C95.1824793,55.6164008 96.1448793,53.9300008 96.2472793,52.2876008 C96.3104793,51.4092008 96.1224793,50.5620008 95.9232793,49.6660007 C95.7200793,48.7524007 95.5104793,47.8092007 95.5816793,46.8172007 C95.5968793,46.5964007 95.7896793,46.4308007 96.0088793,46.4468007 C96.2296793,46.4620007 96.3952793,46.6540007 96.3792793,46.8740007 C96.3168793,47.7492007 96.5048793,48.5956007 96.7040793,49.4924007 C96.9064794,50.4052008 97.1168794,51.3492008 97.0456794,52.3412008 C96.9320794,54.1652008 95.9200793,55.9372008 95.0272793,57.5012009 C94.8304793,57.8468009 94.6384793,58.1812009 94.4656793,58.5020009 C94.3944793,58.6364009 94.2560793,58.7124009 94.1136793,58.7124009" id="Fill-22" fill="#7EA3FF"></path>
            <path d="M36.1253584,45.9088807 L34.9549584,47.0792807 L34.9549584,61.6984809 C36.4213584,65.430481 35.8885584,69.404081 35.8885584,69.404081 C35.8885584,83.9288813 48.4637586,96.5040814 62.9885588,96.5040814 C82.4173591,96.5040814 90.8549593,79.6256812 90.8549593,69.404081 C90.8549593,63.4328809 91.4885593,65.442481 91.4885593,57.7248809 L91.4885593,43.2160806 L91.4885593,33.8328805 L88.0549592,23.7792804 L82.8549591,16.8712803 L72.021359,17.8160803 L59.5325588,18.2008803 L47.6933586,19.6992803 C47.6933586,19.6992803 42.6885585,22.5544803 42.1549585,21.9264803 C41.6213585,21.2992803 34.9549584,25.6312804 34.9549584,25.6312804 L35.4877584,34.7656805 L36.1253584,45.9088807 Z" id="Fill-24" fill="#E3ECF8"></path>
            <path d="M77.3558391,87.2361613 L77.3558391,87.2361613 C77.3558391,94.0889614 71.800639,97.2433614 64.9486389,97.2433614 L61.4958388,97.2433614 C54.6430387,97.2433614 49.0878386,94.0889614 49.0878386,87.2361613" id="Fill-26" fill="#E3ECF8"></path>
            <path d="M72.289439,10.9252802 C72.155839,11.4588802 54.8550387,23.4252802 54.8550387,23.4252802 L69.1270389,25.5620804 C70.306239,25.0156804 71.192639,23.9676804 71.455039,22.3012803 C72.155839,17.8588803 75.226239,16.8708803 75.226239,16.8708803 C75.226239,16.8708803 80.4094391,15.5700802 84.2046392,19.3644803 C88.4590392,23.6188804 86.0550392,24.4252802 88.4550392,26.8252804 C90.8550387,29.2252804 91.4886393,30.6252805 90.6550393,33.6252805 C89.8214392,36.6252805 89.5486392,39.3252806 90.6518393,41.7748806 L93.4966393,48.7484807 C93.4966393,48.7484807 96.2550393,30.2252805 95.6550393,29.5252804 C95.0550393,28.8252804 90.1550393,21.2252803 90.1550393,21.2252803 L85.0054392,15.9252802 L79.3558391,14.6252802 L72.289439,10.9252802 Z" id="Fill-28" fill="#271F23"></path>
            <path d="M77.3574391,16.2557602 C79.3206391,16.2557602 82.1518391,16.7461602 84.4870392,19.0813603 C87.0030392,21.5973603 87.2822392,23.0077603 87.5070392,24.1413604 C87.6678392,24.9557604 87.7950392,25.5989604 88.7382392,26.5421604 C91.1110393,28.9157604 91.9558393,30.4389605 91.0406393,33.7325605 C90.0982392,37.1245606 90.0910392,39.5541606 91.0166393,41.6109606 L93.3142393,47.2421607 C94.3046393,40.4469606 95.5734393,30.7781605 95.3150393,29.7413604 C94.5750393,28.8173604 90.0158392,21.7477603 89.8190392,21.4421603 L84.8014392,16.2885602 L79.2662391,15.0149602 C79.2334391,15.0069602 79.2014391,14.9957602 79.1710391,14.9797602 L72.346239,11.4061602 C71.475039,12.1845602 68.2334389,14.6485602 55.9134387,23.1789603 L69.0646389,25.1485604 C70.171839,24.5957604 70.842239,23.6173604 71.059839,22.2389603 C71.791039,17.6061603 74.969439,16.5333602 75.103839,16.4901602 C75.166239,16.4733602 76.049439,16.2557602 77.3574391,16.2557602 M93.4966393,49.1485607 C93.3358393,49.1485607 93.1878393,49.0517607 93.1262393,48.8997607 L90.2814393,41.9261606 C88.9950392,39.0701606 89.5998392,35.9317605 90.2702393,33.5181605 C91.0726393,30.6309605 90.4494393,29.3853604 88.1726392,27.1077604 C87.0574392,25.9925604 86.8942392,25.1685604 86.7214392,24.2965604 C86.5078392,23.2157603 86.2654392,21.9909603 83.9214392,19.6469603 C81.7798391,17.5053603 79.1702391,17.0557603 77.3574391,17.0557603 C76.155839,17.0557603 75.331839,17.2565603 75.323039,17.2589603 C75.234239,17.2893603 72.501439,18.2389603 71.850239,22.3637603 C71.586239,24.0413604 70.703039,25.2725604 69.2950389,25.9245604 C69.2238389,25.9581604 69.1462389,25.9693604 69.0678389,25.9573604 L54.7958387,23.8213604 C54.6342387,23.7965604 54.5030387,23.6757604 54.4662387,23.5157604 C54.4286387,23.3557603 54.4926387,23.1893603 54.6278387,23.0965603 C61.2486388,18.5165603 71.271839,11.4797602 71.939839,10.7317602 C71.980639,10.6565602 72.046239,10.5957602 72.126239,10.5605602 C72.238239,10.5101602 72.367039,10.5133602 72.475039,10.5709602 L79.4958391,14.2469602 L85.0950392,15.5357602 C85.1702392,15.5525602 85.2390392,15.5909602 85.2918392,15.6461602 L90.4414393,20.9461603 C91.8502393,23.1157603 95.4814393,28.7077604 95.9590393,29.2653604 C96.5526393,29.9581604 95.1630393,40.2749606 93.8926393,48.8069607 C93.8662393,48.9853607 93.7230393,49.1237607 93.5438393,49.1453607 C93.5286393,49.1477607 93.5118393,49.1485607 93.4966393,49.1485607" id="Fill-30" fill="#271F23"></path>
            <path d="M63.8620789,84.7471213 C61.3468788,84.7471213 59.3988788,84.0975213 58.8740788,83.9031213 C58.7180788,83.8463212 58.6396788,83.6735212 58.6964788,83.5183212 C58.7540788,83.3631212 58.9252788,83.2831212 59.0812788,83.3407212 C59.5660788,83.5183212 63.9364789,85.0375213 68.3588789,83.3423212 C68.5124789,83.2823212 68.6868789,83.3599212 68.7460789,83.5143212 C68.8060789,83.6695212 68.7284789,83.8431212 68.5740789,83.9023213 C66.9252789,84.5343213 65.3012789,84.7471213 63.8620789,84.7471213" id="Fill-32" fill="#71748D"></path>
            <path d="M50.6214387,76.1252811 C50.6214387,76.1252811 56.0294387,75.9252811 59.2238388,76.3916811 C62.4182388,76.8588811 61.7246388,77.0588811 63.8062389,77.0588811 L64.9550389,77.0588811 C64.9550389,77.0588811 66.9542389,76.6828811 68.8214389,76.5708811 C70.688639,76.4588811 75.554239,76.9068811 76.8214391,76.0828811 C76.8214391,76.0828811 71.487839,80.1916812 64.4214389,80.1916812 C56.6886388,80.1916812 50.6214387,76.1252811 50.6214387,76.1252811" id="Fill-34" fill="#FFFFFF"></path>
            <path d="M51.6628787,76.3987211 C53.6004787,77.4859212 58.5508788,79.8923212 64.4212789,79.8923212 C69.1460789,79.8923212 73.113279,78.0059212 75.156479,76.8083211 C74.556479,76.8667211 73.815679,76.8939211 72.907679,76.8939211 C72.290079,76.8939211 71.665279,76.8819211 71.078879,76.8707211 C70.186879,76.8523211 69.3836789,76.8363211 68.8396789,76.8699211 C67.0124789,76.9795211 65.0308789,77.3491212 65.0108789,77.3531212 L63.8068789,77.3587212 C62.5828788,77.3587212 62.2700788,77.2859212 61.6460788,77.1427211 C61.1788788,77.0347211 60.5380788,76.8867211 59.1804788,76.6891211 C57.4476788,76.4355211 55.0396787,76.3827211 53.3244787,76.3827211 C52.6844787,76.3827211 52.1124787,76.3899211 51.6628787,76.3987211 M64.4212789,80.4923212 C56.6868788,80.4923212 50.5156787,76.4155211 50.4540787,76.3747211 C50.3460787,76.3019211 50.2972787,76.1683211 50.3332787,76.0435211 C50.3684787,75.9179211 50.4804787,75.8307211 50.6108787,75.8259211 C50.6220787,75.8251211 51.7836787,75.7827211 53.3244787,75.7827211 C55.0596787,75.7827211 57.4988788,75.8371211 59.2676788,76.0955211 C60.6484788,76.2971211 61.3028788,76.4475211 61.7804788,76.5579211 C62.3964788,76.6995211 62.6508788,76.7587211 63.8068789,76.7587211 L64.9548789,76.7587211 C64.9348789,76.7571211 66.9460789,76.3827211 68.8036789,76.2707211 C69.3604789,76.2379211 70.178879,76.2539211 71.090079,76.2707211 C71.673279,76.2819211 72.294079,76.2939211 72.907679,76.2939211 C73.659679,76.2939211 75.946079,76.2939211 76.658079,75.8315211 C76.7924791,75.7427211 76.9724791,75.7771211 77.0668791,75.9091211 C77.1596791,76.0403211 77.1324791,76.2219211 77.0052791,76.3203211 C76.9500791,76.3619211 71.508479,80.4923212 64.4212789,80.4923212" id="Fill-36" fill="#7EA3FF"></path>
            <path d="M43.0871185,49.8768007 C43.0103185,49.8768007 42.9343185,49.8472007 42.8751185,49.7888007 L41.9431185,48.8576007 C41.8263185,48.7400007 41.8263185,48.5504007 41.9431185,48.4328007 C42.0607185,48.3160007 42.2503185,48.3152007 42.3679185,48.4328007 L43.2999186,49.3648007 C43.4167186,49.4816007 43.4167186,49.6720007 43.2999186,49.7888007 C43.2407186,49.8472007 43.1647185,49.8768007 43.0871185,49.8768007" id="Fill-38" fill="#271F23"></path>
            <path d="M44.0308786,49.0690407 C43.9540786,49.0690407 43.8780786,49.0394407 43.8188786,48.9810407 L42.2228785,47.3850407 C42.1060785,47.2682407 42.1060785,47.0778407 42.2228785,46.9610407 C42.3404785,46.8434407 42.5300785,46.8434407 42.6476785,46.9610407 L44.2436786,48.5570407 C44.3604786,48.6738407 44.3604786,48.8642407 44.2436786,48.9810407 C44.1844786,49.0394407 44.1084786,49.0690407 44.0308786,49.0690407" id="Fill-40" fill="#271F23"></path>
            <path d="M44.9948786,48.3518407 C44.9180786,48.3518407 44.8420786,48.3222407 44.7828786,48.2638407 L42.8756785,46.3558407 C42.7580785,46.2382407 42.7580785,46.0486407 42.8756785,45.9318407 C42.9924785,45.8142407 43.1820786,45.8142407 43.2996786,45.9318407 L45.2076786,47.8398407 C45.3244786,47.9566407 45.3244786,48.1470407 45.2076786,48.2638407 C45.1484786,48.3222407 45.0724786,48.3518407 44.9948786,48.3518407" id="Fill-42" fill="#271F23"></path>
            <path d="M45.9543186,47.6373607 C45.8775186,47.6373607 45.8015186,47.6077607 45.7423186,47.5493607 L43.8559186,45.6629607 C43.7383186,45.5461607 43.7383186,45.3557607 43.8559186,45.2389607 C43.9727186,45.1213607 44.1631186,45.1213607 44.2799186,45.2389607 L46.1671186,47.1253607 C46.2839186,47.2421607 46.2839186,47.4325607 46.1671186,47.5493607 C46.1079186,47.6077607 46.0319186,47.6373607 45.9543186,47.6373607" id="Fill-44" fill="#271F23"></path>
            <path d="M47.3089586,47.0456007 C47.2321586,47.0456007 47.1561586,47.0160007 47.0969586,46.9576007 L45.3145586,45.1760007 C45.1969586,45.0584007 45.1969586,44.8688007 45.3145586,44.7512007 C45.4305586,44.6344007 45.6209586,44.6336007 45.7385586,44.7512007 L47.5217586,46.5336007 C47.6385586,46.6504007 47.6385586,46.8408007 47.5217586,46.9576007 C47.4625586,47.0160007 47.3865586,47.0456007 47.3089586,47.0456007" id="Fill-46" fill="#271F23"></path>
            <path d="M48.8105586,46.8143207 C48.7337586,46.8143207 48.6577586,46.7847207 48.5985586,46.7263207 L46.9433586,45.0703207 C46.8265586,44.9535207 46.8265586,44.7639207 46.9433586,44.6463207 C47.0601586,44.5295207 47.2505586,44.5295207 47.3673586,44.6463207 L49.0233586,46.3023207 C49.1401586,46.4191207 49.1401586,46.6095207 49.0233586,46.7263207 C48.9641586,46.7847207 48.8881586,46.8143207 48.8105586,46.8143207" id="Fill-48" fill="#271F23"></path>
            <path d="M66.6659989,54.9292008 L66.6659989,58.8468009 C66.6659989,60.1364009 68.6659989,60.1364009 68.6659989,58.8468009 C68.6659989,56.7620008 68.8227989,54.8828008 70.269199,53.2052008 C72.709999,50.3724008 77.0587991,51.1180008 80.3627991,51.2700008 C81.6523991,51.3292008 81.6475991,49.3292007 80.3627991,49.2700007 C76.304399,49.0828007 71.968399,48.6140007 68.8539989,51.7908008 C66.9651989,53.7188008 66.6659989,56.3036008 66.6659989,58.8468009 C66.6659989,60.1364009 68.6659989,60.1364009 68.6659989,58.8468009 L68.6659989,54.9292008 C68.6659989,53.6396008 66.6659989,53.6396008 66.6659989,54.9292008" id="Fill-50" fill="#BCD4F9"></path>
            <path d="M80.1558391,76.2252811 C80.1014391,76.2252811 80.0454391,76.2100811 79.9958391,76.1788811 C79.8558391,76.0908811 79.8134391,75.9052811 79.9030391,75.7652811 C80.0734391,75.4932811 80.1070391,75.2276811 80.0046391,74.9516811 C79.7654391,74.3132811 78.8726391,73.8004811 78.4702391,73.6796811 C78.3110391,73.6316811 78.2206391,73.4644811 78.2686391,73.3060811 C78.3158391,73.1468811 78.4806391,73.0556811 78.6422391,73.1044811 C79.1246391,73.2492811 80.2294391,73.8404811 80.5662391,74.7420811 C80.7350391,75.1916811 80.6806391,75.6564811 80.4094391,76.0852811 C80.3526391,76.1756811 80.2550391,76.2252811 80.1558391,76.2252811" id="Fill-52" fill="#7EA3FF"></path>
            <path d="M49.2222386,77.0588811 C49.0582386,77.0588811 48.9046386,76.9572811 48.8454386,76.7932811 C48.4390386,75.6564811 49.4798386,74.8596811 50.1030387,74.3844811 L50.2430387,74.2764811 C50.4182387,74.1404811 50.6694387,74.1732811 50.8046387,74.3460811 C50.9398387,74.5212811 50.9086387,74.7724811 50.7350387,74.9076811 L50.5886387,75.0204811 C49.9326387,75.5220811 49.4054386,75.9812811 49.5990386,76.5244811 C49.6734386,76.7324811 49.5654386,76.9612811 49.3574386,77.0356811 C49.3126386,77.0516811 49.2670386,77.0588811 49.2222386,77.0588811" id="Fill-54" fill="#7EA3FF"></path>
            <path d="M50.8886387,76.5948011 C50.8342387,76.5948011 50.7790387,76.5796011 50.7294387,76.5484011 L49.6630386,75.8788011 C49.5222386,75.7916011 49.4798386,75.6060011 49.5686386,75.4660011 C49.6566386,75.3260011 49.8406386,75.2820011 49.9814387,75.3716011 L51.0478387,76.0412011 C51.1886387,76.1284011 51.2310387,76.3140011 51.1422387,76.4540011 C51.0862387,76.5452011 50.9886387,76.5948011 50.8886387,76.5948011" id="Fill-56" fill="#7EA3FF"></path>
            <path d="M84.1620792,51.2850408 C82.2012791,49.5530407 79.5364791,48.6362407 76.9468791,48.5770407 C75.656479,48.5474407 75.659679,50.5474408 76.9468791,50.5770408 C78.9844791,50.6234408 81.1924791,51.3258408 82.7476791,52.6994408 C83.7116792,53.5490408 85.1308792,52.1402408 84.1620792,51.2850408" id="Fill-58" fill="#BCD4F9"></path>
            <path d="M61.8886388,58.9252809 L61.8886388,55.3412808 C61.8886388,54.0508808 59.8886388,54.0508808 59.8886388,55.3412808 L59.8886388,58.9252809 C59.8886388,60.2148809 61.8886388,60.2148809 61.8886388,58.9252809" id="Fill-60" fill="#BCD4F9"></path>
            <path d="M45.6246386,53.8725608 C47.0446386,51.2933608 49.7134386,50.5765608 52.4662387,50.5765608 C53.7902387,50.5765608 53.7102387,48.7277607 52.4662387,48.5765607 C52.2374387,48.5493607 52.0246387,48.5061607 51.7974387,48.5805607 C50.8030387,48.9061607 50.8926387,50.1517607 51.7974387,50.5093608 C53.8726387,51.3293608 57.0262388,51.5133608 58.2430388,53.6597608 C58.7374388,54.5309608 60.1070388,54.1421608 60.1070388,53.1549608 L60.1070388,51.1973608 C60.1070388,50.7629608 59.8030388,50.3381608 59.3734388,50.2333607 C57.1590388,49.6925607 54.9454387,49.1525607 52.7326387,48.6125607 C51.4790387,48.3069607 50.9478387,50.2357607 52.2006387,50.5413608 C54.4134387,51.0813608 56.6278388,51.6221608 58.8414388,52.1621608 C58.5966388,51.8405608 58.3510388,51.5189608 58.1070388,51.1973608 L58.1070388,53.1549608 C58.7278388,52.9869608 59.3486388,52.8189608 59.9710388,52.6501608 C58.4326388,49.9381607 54.9478387,49.6165607 52.3294387,48.5805607 L52.3294387,50.5093608 C52.1414387,50.5565608 52.1862387,50.5797608 52.4662387,50.5765608 L52.4662387,48.5765607 C49.0142386,48.5765607 45.6670386,49.6517607 43.8974386,52.8629608 C43.2742386,53.9933608 45.0022386,55.0021608 45.6246386,53.8725608" id="Fill-62" fill="#BCD4F9"></path>
            <path d="M68.6050389,50.1404807 L84.3338392,49.6940807 C84.3338392,49.6940807 78.3754391,43.6828807 68.6050389,50.1404807" id="Fill-64" fill="#E3ECF8"></path>
            <path d="M44.4371186,49.2580807 L59.1067188,49.2580807 C59.1067188,49.2580807 51.6051187,39.9068806 44.4371186,49.2580807" id="Fill-66" fill="#E3ECF8"></path>
            <path d="M58.8550388,49.8143207 C58.6894388,49.8143207 58.5550388,49.6799207 58.5550388,49.5143207 L58.5550388,47.1303207 C58.5550388,46.9639207 58.6894388,46.8303207 58.8550388,46.8303207 C59.0206388,46.8303207 59.1550388,46.9639207 59.1550388,47.1303207 L59.1550388,49.5143207 C59.1550388,49.6799207 59.0206388,49.8143207 58.8550388,49.8143207" id="Fill-68" fill="#271F23"></path>
            <path d="M60.0066388,50.3807208 C59.8410388,50.3807208 59.7066388,50.2463207 59.7066388,50.0807207 L59.7066388,47.4735207 C59.7066388,47.3079207 59.8410388,47.1735207 60.0066388,47.1735207 C60.1722388,47.1735207 60.3066388,47.3079207 60.3066388,47.4735207 L60.3066388,50.0807207 C60.3066388,50.2463207 60.1722388,50.3807208 60.0066388,50.3807208" id="Fill-70" fill="#271F23"></path>
            <path d="M61.1574388,50.5697608 C60.9918388,50.5697608 60.8574388,50.4353608 60.8574388,50.2697607 L60.8574388,48.6449607 C60.8574388,48.4793607 60.9918388,48.3449607 61.1574388,48.3449607 C61.3230388,48.3449607 61.4574388,48.4793607 61.4574388,48.6449607 L61.4574388,50.2697607 C61.4574388,50.4353608 61.3230388,50.5697608 61.1574388,50.5697608" id="Fill-72" fill="#271F23"></path>
            <path d="M62.1479988,51.3205608 C61.9823988,51.3205608 61.8479988,51.1861608 61.8479988,51.0205608 L61.8479988,50.0757607 C61.8479988,49.9101607 61.9823988,49.7757607 62.1479988,49.7757607 C62.3135988,49.7757607 62.4479988,49.9101607 62.4479988,50.0757607 L62.4479988,51.0205608 C62.4479988,51.1861608 62.3135988,51.3205608 62.1479988,51.3205608" id="Fill-74" fill="#271F23"></path>
            <path d="M63.8066389,71.8920811 C62.9226388,71.8920811 62.3114388,71.2944811 61.6642388,70.6624811 C61.3314388,70.337681 60.9874388,70.000881 60.5850388,69.722481 C60.0490388,69.352081 59.6962388,69.360881 58.9938388,69.383281 C58.8114388,69.388881 58.6090388,69.394481 58.3810388,69.394481 C57.6146388,69.394481 57.0386388,69.152881 56.6682388,68.676081 C55.9682387,67.774481 56.3162387,66.376881 56.3306387,66.317681 C56.3722387,66.157681 56.5370387,66.060081 56.6954388,66.101681 C56.8562388,66.142481 56.9530388,66.305681 56.9122388,66.465681 C56.9098388,66.477681 56.6234388,67.642481 57.1442388,68.309681 C57.3938388,68.631281 57.8106388,68.794481 58.3810388,68.794481 C58.6026388,68.794481 58.7978388,68.788881 58.9762388,68.783281 C59.7306388,68.763281 60.2282388,68.745681 60.9258388,69.228081 C61.3706388,69.536081 61.7330388,69.891281 62.0842388,70.233681 C62.6650388,70.8016811 63.1666388,71.2920811 63.8066389,71.2920811 C63.9722389,71.2920811 64.1066389,71.4264811 64.1066389,71.5920833 C64.1066389,71.7576811 63.9722389,71.8920811 63.8066389,71.8920811" id="Fill-76" fill="#71748D"></path>
            <path d="M53.7558387,76.2948011 C53.7550387,76.6252011 53.7558387,77.5252012 53.7558387,77.5252012 L51.1214387,76.2948011 L53.7558387,76.2948011 Z" id="Fill-78" fill="#7EA3FF"></path>
            <polygon id="Fill-80" fill="#7EA3FF" points="54.1566387 78.1537612 49.3198386 75.8945611 54.1566387 75.8945611 54.1558387 77.5249612"></polygon>
            <path d="M72.855039,76.5865611 C72.898239,76.7593611 72.855039,78.2881612 72.855039,78.2881612 L75.755039,76.5865611 L72.855039,76.5865611 Z" id="Fill-82" fill="#7EA3FF"></path>
            <path d="M73.273839,76.9865611 C73.275439,77.1481611 73.274639,77.3465612 73.271439,77.5809612 L74.283439,76.9865611 L73.273839,76.9865611 Z M72.435439,78.9993612 L72.455439,78.2769612 C72.474639,77.6065612 72.482639,76.8001611 72.463439,76.6649611 L72.339439,76.1689611 L72.855439,76.1865611 L77.2266391,76.1865611 L72.435439,78.9993612 Z" id="Fill-84" fill="#7EA3FF"></path>
            <path d="M67.2894389,70.292081 C67.1974389,70.292081 67.1062389,70.249681 67.0470389,70.170481 C66.9486389,70.036881 66.9774389,69.848881 67.1102389,69.750481 C68.3814389,68.814481 69.5190389,68.278481 71.259039,68.494481 C71.423039,68.515281 71.539839,68.664881 71.519039,68.828881 C71.499039,68.993681 71.346239,69.107281 71.184639,69.089681 C69.6374389,68.896881 68.6486389,69.362481 67.4670389,70.233681 C67.4126389,70.272881 67.3510389,70.292081 67.2894389,70.292081" id="Fill-86" fill="#71748D"></path>
            <path d="M61.7808788,70.292081 C61.7192788,70.292081 61.6568788,70.272881 61.6024788,70.233681 C60.4216788,69.362481 59.4352788,68.897681 57.8856788,69.089681 C57.7264788,69.111281 57.5712788,68.993681 57.5504788,68.828881 C57.5304788,68.664881 57.6464788,68.515281 57.8112788,68.494481 C59.5512788,68.278481 60.6880788,68.814481 61.9592788,69.750481 C62.0928788,69.848881 62.1208788,70.036881 62.0224788,70.170481 C61.9640788,70.249681 61.8728788,70.292081 61.7808788,70.292081" id="Fill-88" fill="#71748D"></path>
            <path d="M51.0550387,46.2252807 C47.8742386,46.0420807 44.8190386,46.3628807 42.6182385,48.8988807 C42.3662385,49.1900807 42.7886385,49.6156807 43.0422385,49.3236807 C45.1454386,46.8996807 48.0366386,46.6516807 51.0550387,46.8252807 C51.4414387,46.8476807 51.4398387,46.2476807 51.0550387,46.2252807" id="Fill-90" fill="#271F23"></path>
            <path d="M57.4315988,48.6452007 C58.3243988,48.8308007 58.2483988,46.9436007 56.5315987,46.2508007 C55.2035987,45.7148007 49.3019986,44.9252007 48.3019986,45.1252007 C47.2019986,45.2252007 47.6123986,47.0436007 49.1155986,47.0124007 C52.0627987,46.9524007 55.1467987,47.6276007 57.4315988,48.6452007" id="Fill-92" fill="#271F23"></path>
            <path d="M57.4315988,49.1452007 C59.4659988,49.1620007 58.0299988,46.6452007 57.2123988,46.0356007 C56.4459987,45.4644007 55.1939987,45.3780007 54.2947987,45.2172007 C52.9035987,44.9676007 51.4947987,44.7916007 50.0867987,44.6628007 C49.0691986,44.5700007 46.4035986,44.4956007 47.3011986,46.3708007 C47.7963986,47.4052007 48.6907986,47.5140007 49.7491986,47.5108007 C52.2771987,47.5036007 54.8579987,48.0924007 57.1795988,49.0772007 C57.7659988,49.3260007 58.2763988,48.4644007 57.6835988,48.2132007 C55.9819987,47.4924007 54.2419987,47.0156007 52.4155987,46.7292007 C51.5331987,46.5908007 50.6419987,46.5388007 49.7491986,46.5108007 C49.5387986,46.5116007 49.3267986,46.5116007 49.1155986,46.5124007 C48.2459986,45.8796007 48.0835986,45.5740007 48.6315986,45.5956007 C48.8907986,45.5812007 49.1547986,45.6020007 49.4147986,45.6140007 C50.8251987,45.6804007 52.2355987,45.8908007 53.6283987,46.1132007 C54.2387987,46.2116007 54.8459987,46.3284007 55.4483987,46.4620007 C55.7091987,46.5188007 55.9635987,46.5900007 56.2179987,46.6676007 C56.6227988,46.7916007 57.6795988,48.1468007 57.4315988,48.1452007 C56.7867988,48.1404007 56.7867988,49.1404007 57.4315988,49.1452007" id="Fill-94" fill="#271F23"></path>
            <path d="M55.4503987,55.9358408 C53.8799987,56.6774408 52.2463987,56.9454408 50.5223987,56.8678408 C49.2327986,56.8086408 49.2375986,58.8094409 50.5223987,58.8678409 C52.6087987,58.9622409 54.5711987,58.5542409 56.4599987,57.6622409 C57.6255988,57.1126409 56.6095988,55.3878408 55.4503987,55.9358408" id="Fill-96" fill="#BCD4F9"></path>
            <path d="M70.817599,57.6624009 C72.705599,58.5544009 74.668799,58.9624009 76.7551991,58.8672009 C78.0391991,58.8096009 78.0447991,56.8088008 76.7551991,56.8672008 C75.031199,56.9456008 73.397599,56.6776008 71.827199,55.9360008 C70.667999,55.3880008 69.6519989,57.1128009 70.817599,57.6624009" id="Fill-98" fill="#BCD4F9"></path>
            <path d="M53.5964787,55.2662408 L53.5860787,55.2662408 L50.4788787,55.1574408 C50.3132787,55.1510408 50.1828787,55.0126408 50.1884787,54.8470408 C50.1948787,54.6814408 50.3332787,54.5550408 50.4996787,54.5574408 L53.6076787,54.6662408 C53.7732787,54.6718408 53.9020787,54.8110408 53.8964787,54.9766408 C53.8908787,55.1390408 53.7572787,55.2662408 53.5964787,55.2662408" id="Fill-100" fill="#271F23"></path>
            <path d="M65.3933589,130.966642 C65.2557589,132.306642 65.2741589,133.281842 65.5109589,133.473842 C65.5949589,133.462642 65.7877589,133.462642 65.8045589,132.926642 C65.8189589,132.445842 65.6685589,131.764242 65.3933589,130.966642 M65.4789589,134.262642 C65.3165589,134.262642 65.0117589,134.208242 64.7957589,133.844242 C64.3861589,133.157042 64.4541589,131.416242 64.7653589,129.405042 C63.1069588,125.733842 59.8461588,121.012242 57.8229588,120.884242 C52.0621587,120.521842 44.9093586,127.700242 43.0965585,132.533042 C43.0181585,132.739442 42.7877585,132.842642 42.5805585,132.766642 C42.3749585,132.689042 42.2701585,132.458642 42.3469585,132.251442 C43.3469586,129.585042 45.7405586,126.436242 48.5917586,124.035442 C51.8221587,121.316242 55.1197587,119.911442 57.8733588,120.085842 C60.0669588,120.224242 63.1581588,124.286642 65.0133589,127.989842 C65.5685589,125.156242 66.4709589,122.153042 67.1421589,120.914642 C68.0749589,119.193042 69.3757589,118.232242 71.006959,118.057842 C75.958159,117.539442 82.2741591,124.410642 84.0917592,126.532242 C84.2357592,126.699442 84.2157592,126.952242 84.0477592,127.096242 C83.8813592,127.239442 83.6285592,127.221042 83.4837592,127.052242 C79.8709591,122.836242 74.717359,118.472242 71.090959,118.853842 C69.7181589,119.000242 68.6565589,119.798642 67.8445589,121.295442 C66.9325589,122.980242 66.0621589,126.463442 65.6165589,129.281042 C66.2517589,130.754642 66.6317589,132.079442 66.6045589,132.951442 C66.5669589,134.134642 65.8053589,134.262642 65.4789589,134.262642" id="Fill-102" fill="#7EA3FF"></path>
            <path d="M49.5495986,52.9557608 C49.5495986,51.8765608 50.4247987,51.0021608 51.5031987,51.0021608 C52.5831987,51.0021608 53.4583987,51.8765608 53.4583987,52.9557608 C53.4583987,54.0349608 52.5831987,54.9093608 51.5031987,54.9093608 C50.4247987,54.9093608 49.5495986,54.0349608 49.5495986,52.9557608" id="Fill-104" fill="#271F23"></path>
            <path d="M74.800399,52.9557608 C74.800399,51.8765608 75.675599,51.0021608 76.7539991,51.0021608 C77.8331991,51.0021608 78.7091991,51.8765608 78.7091991,52.9557608 C78.7091991,54.0349608 77.8331991,54.9093608 76.7539991,54.9093608 C75.675599,54.9093608 74.800399,54.0349608 74.800399,52.9557608" id="Fill-106" fill="#271F23"></path>
            <polygon id="Fill-108" fill="#E2E8EE" points="74.247519 51.8917608 78.5555191 51.8917608 78.5555191 51.0917608 74.247519 51.0917608"></polygon>
            <path d="M86.5550392,49.3475207 L84.2550392,49.3475207 C84.0894392,49.3475207 83.9550392,49.2131207 83.9550392,49.0475207 C83.9550392,48.8819207 84.0894392,48.7475207 84.2550392,48.7475207 L86.5550392,48.7475207 C86.7206392,48.7475207 86.8550392,48.8819207 86.8550392,49.0475207 C86.8550392,49.2131207 86.7206392,49.3475207 86.5550392,49.3475207" id="Fill-110" fill="#271F23"></path>
            <path d="M86.5550392,50.5697608 L85.2318392,50.5697608 C85.0662392,50.5697608 84.9318392,50.4353608 84.9318392,50.2697607 C84.9318392,50.1041607 85.0662392,49.9697607 85.2318392,49.9697607 L86.5550392,49.9697607 C86.7206392,49.9697607 86.8550392,50.1041607 86.8550392,50.2697607 C86.8550392,50.4353608 86.7206392,50.5697608 86.5550392,50.5697608" id="Fill-111" fill="#271F23"></path>
            <path d="M85.7550392,51.7920808 C85.6014392,51.7920808 85.4710392,51.6752808 85.4566392,51.5192808 C85.4414392,51.3544808 85.5630392,51.2080808 85.7286392,51.1928808 L86.5286392,51.1208808 C86.6846392,51.1032808 86.8382392,51.2272808 86.8542392,51.3928808 C86.8694392,51.5576808 86.7470392,51.7040808 86.5822392,51.7184808 L85.7822392,51.7912808 C85.7726392,51.7920808 85.7638392,51.7920808 85.7550392,51.7920808" id="Fill-112" fill="#271F23"></path>
            <path d="M86.6784792,50.6456008 C84.4960792,43.6808007 76.216879,47.1512007 71.242479,48.3664007 C70.866479,48.4584007 71.026479,49.0376007 71.401679,48.9456007 C75.980879,47.8272007 84.0976792,44.4144007 86.0992792,50.8048008 C86.2144792,51.1728008 86.7944792,51.0160008 86.6784792,50.6456008" id="Fill-113" fill="#271F23"></path>
            <path d="M69.7550389,49.7697607 C69.5894389,49.7697607 69.4550389,49.6353607 69.4550389,49.4697607 L69.4550389,47.4737607 C69.4550389,47.3081607 69.5894389,47.1737607 69.7550389,47.1737607 C69.9206389,47.1737607 70.055039,47.3081607 70.055039,47.4737607 L70.055039,49.4697607 C70.055039,49.6353607 69.9206389,49.7697607 69.7550389,49.7697607" id="Fill-114" fill="#271F23"></path>
            <path d="M70.887919,49.3396807 C70.722319,49.3396807 70.587919,49.2052807 70.587919,49.0396807 L70.587919,46.2436807 C70.587919,46.0780807 70.722319,45.9436807 70.887919,45.9436807 C71.053519,45.9436807 71.187919,46.0780807 71.187919,46.2436807 L71.187919,49.0396807 C71.187919,49.2052807 71.053519,49.3396807 70.887919,49.3396807" id="Fill-115" fill="#271F23"></path>
            <path d="M68.6050389,49.6752807 C68.4394389,49.6752807 68.3050389,49.5408807 68.3050389,49.3752807 L68.3050389,48.6448807 C68.3050389,48.4792807 68.4394389,48.3448807 68.6050389,48.3448807 C68.7706389,48.3448807 68.9050389,48.4792807 68.9050389,48.6448807 L68.9050389,49.3752807 C68.9050389,49.5408807 68.7706389,49.6752807 68.6050389,49.6752807" id="Fill-116" fill="#271F23"></path>
            <path d="M79.3214391,44.8584807 C77.2382391,44.9664807 72.405439,45.6520807 71.704639,46.5872807 C71.004639,47.5224807 71.322239,48.6560807 71.322239,48.6560807 C72.440639,48.4528807 75.235039,47.2464807 78.8558391,46.9808807 C80.2782391,46.8760807 81.7486391,44.7328807 79.3214391,44.8584807" id="Fill-117" fill="#271F23"></path>
            <path d="M79.3214391,44.3584807 C76.689439,44.5160807 69.8374389,44.5664807 70.839839,48.7888807 C70.905439,49.0656807 71.196639,49.1928807 71.455039,49.1384807 C72.716639,48.8704807 73.939039,48.4048807 75.189439,48.0856807 C76.711839,47.6960807 78.4718391,47.8384807 79.8878391,47.1672807 C81.7182391,46.3000807 81.2934391,44.3680807 79.3214391,44.3584807 C78.6766391,44.3552807 78.6766391,45.3552807 79.3214391,45.3584807 C79.9854391,45.3616807 80.2350391,45.5544807 79.7302391,46.0632807 C79.3318391,46.4648807 78.7854391,46.4872807 78.2606391,46.5336807 C77.3006391,46.6184807 76.349439,46.8024807 75.408639,47.0064807 C73.980639,47.3160807 72.616639,47.8712807 71.189439,48.1744807 C71.395039,48.2904807 71.599839,48.4072807 71.804639,48.5232807 C71.099839,45.5552807 77.5022391,45.4680807 79.3214391,45.3584807 C79.9622391,45.3200807 79.9662391,44.3200807 79.3214391,44.3584807" id="Fill-118" fill="#271F23"></path>
            <path d="M49.6714386,52.0139208 L49.4274386,51.2523208 L49.7170386,51.1579208 C50.4026387,50.9307208 51.3434387,50.6195208 52.1210387,50.6195208 C52.1218387,50.6203208 52.1226387,50.6195208 52.1242387,50.6195208 C52.9482387,50.6195208 53.8010387,50.7803208 54.6586387,51.0955208 L54.3826387,51.8467208 C53.6138387,51.5635208 52.8538387,51.4195208 52.1242387,51.4195208 L52.1218387,51.4195208 L52.1210387,51.4195208 C51.4714387,51.4195208 50.6026387,51.7075208 49.9674387,51.9171208 L49.6714386,52.0139208 Z" id="Fill-119" fill="#E2E8EE"></path>
            <path d="M83.9315992,55.1479208 C83.8931992,55.1479208 83.8531992,55.1423208 83.8147992,55.1303208 C83.3947991,55.0015208 83.0523991,54.7231208 82.6563991,54.4007208 C81.6731991,53.6007208 80.1859991,52.3919208 75.933999,52.3919208 C75.713199,52.3919208 75.533999,52.2135208 75.533999,51.9919208 C75.533999,51.7711208 75.713199,51.5919208 75.933999,51.5919208 C80.4707991,51.5919208 82.0891991,52.9087208 83.1611991,53.7807208 C83.5059992,54.0615208 83.7787992,54.2823208 84.0483992,54.3655208 C84.2603992,54.4303208 84.3795992,54.6535208 84.3147992,54.8647208 C84.2611992,55.0375208 84.1035992,55.1479208 83.9315992,55.1479208" id="Fill-120" fill="#271F23"></path>
            <path d="M46.4886386,54.2991208 L44.7606386,54.2991208 C44.5390386,54.2991208 44.3606386,54.1199208 44.3606386,53.8991208 C44.3606386,53.6783208 44.5390386,53.4991208 44.7606386,53.4991208 L46.2398386,53.4991208 C47.4966386,51.2623208 51.9110387,51.4127208 52.1054387,51.4199208 C52.3254387,51.4295208 52.4974387,51.6151208 52.4886387,51.8359208 C52.4798387,52.0559208 52.2974387,52.2311208 52.0726387,52.2191208 C50.8638387,52.1727208 47.5598386,52.4087208 46.8566386,54.0559208 C46.7942386,54.2031208 46.6486386,54.2991208 46.4886386,54.2991208" id="Fill-121" fill="#271F23"></path>
            <path d="M56.9558388,54.3834408 C56.7006388,54.3834408 56.4486387,54.2610408 56.2942387,54.0338408 C56.2278387,53.9370408 54.7374387,51.8194408 52.0886387,51.8194408 L50.7046387,51.8194408 C50.2630387,51.8194408 49.9046387,51.4618408 49.9046387,51.0194408 C49.9046387,50.5778408 50.2630387,50.2194407 50.7046387,50.2194407 L52.0886387,50.2194407 C55.6062387,50.2194407 57.5382388,53.0162408 57.6182388,53.1354408 C57.8654388,53.5010408 57.7694388,53.9986408 57.4038388,54.2466408 C57.2662388,54.3386408 57.1094388,54.3834408 56.9558388,54.3834408" id="Fill-122" fill="#271F23"></path>
            <path d="M86.3886392,48.1252807 L82.9814391,48.1252807 C82.8158391,48.1252807 82.6814391,47.9908807 82.6814391,47.8252807 C82.6814391,47.6596807 82.8158391,47.5252807 82.9814391,47.5252807 L86.3886392,47.5252807 C86.5542392,47.5252807 86.6886392,47.6596807 86.6886392,47.8252807 C86.6886392,47.9908807 86.5542392,48.1252807 86.3886392,48.1252807" id="Fill-123" fill="#271F23"></path>
            <path d="M85.7550392,46.8869607 L81.2318391,46.8869607 C81.0662391,46.8869607 80.9318391,46.7525607 80.9318391,46.5869607 C80.9318391,46.4213607 81.0662391,46.2869607 81.2318391,46.2869607 L85.7550392,46.2869607 C85.9206392,46.2869607 86.0550392,46.4213607 86.0550392,46.5869607 C86.0550392,46.7525607 85.9206392,46.8869607 85.7550392,46.8869607" id="Fill-124" fill="#271F23"></path>
            <path d="M84.6847192,45.7510407 L80.4319191,45.7510407 C80.2663191,45.7510407 80.1319191,45.6166407 80.1319191,45.4510407 C80.1319191,45.2854407 80.2663191,45.1510407 80.4319191,45.1510407 L84.6847192,45.1510407 C84.8503192,45.1510407 84.9847192,45.2854407 84.9847192,45.4510407 C84.9847192,45.6166407 84.8503192,45.7510407 84.6847192,45.7510407" id="Fill-125" fill="#271F23"></path>
            <path d="M82.3815991,44.6998407 L80.2007991,44.6998407 C80.0351991,44.6998407 79.9007991,44.5654407 79.9007991,44.3998407 C79.9007991,44.2342407 80.0351991,44.0998407 80.2007991,44.0998407 L82.3815991,44.0998407 C82.5471991,44.0998407 82.6815991,44.2342407 82.6815991,44.3998407 C82.6815991,44.5654407 82.5471991,44.6998407 82.3815991,44.6998407" id="Fill-126" fill="#271F23"></path>
            <path d="M92.9527193,14.1236802 C92.6871193,14.5940802 92.5055193,15.1140802 92.4167193,15.6468802 C92.2863193,16.5612802 92.6327193,17.9604803 93.2239193,18.2764803 C93.5127193,18.4316803 93.8943193,18.2988803 94.3551193,17.8836803 C94.9063193,17.4012803 94.9727193,16.7428802 94.5559193,15.9236802 C94.2359193,15.2948802 93.6527193,14.6548802 92.9527193,14.1236802 M93.4767193,19.1412803 C93.2263193,19.1412803 93.0151193,19.0724803 92.8471193,18.9828803 C91.8215193,18.4356803 91.4735193,16.5900802 91.6263193,15.5244802 C91.7399193,14.8412802 91.9695193,14.2188802 92.2879193,13.6740802 C91.2671193,13.0620802 90.1119192,12.7140802 89.1863192,12.9228802 C87.7855192,13.2404802 87.4535192,14.7668802 87.4223192,15.9908802 L86.6223192,15.9708802 C86.6967192,13.0932802 88.1495192,12.3372802 89.0095192,12.1428802 C90.1783193,11.8788802 91.5583193,12.2844802 92.7527193,13.0116802 C93.7847193,11.7708802 95.3671193,11.1220802 97.0831194,11.3860802 L96.9615194,12.1764802 C95.4279193,11.9404802 94.2095193,12.5196802 93.4127193,13.4604802 C94.2207193,14.0708802 94.8903193,14.8156802 95.2695193,15.5604802 C95.8471193,16.6980802 95.7079193,17.7628803 94.8855193,18.4820803 C94.3335193,18.9796803 93.8591193,19.1412803 93.4767193,19.1412803" id="Fill-127" fill="#271F23"></path>
            <path d="M35.3815984,9.79984015 L34.5815984,9.79984015 C34.5815984,7.28304011 36.0767984,5.14304008 38.2175985,4.59744007 C40.0871985,4.12064006 41.8495985,5.02224007 42.9327985,7.0086401 L42.2311985,7.39104011 C41.3335985,5.74784009 39.9087985,4.99104007 38.4151985,5.37264008 C36.9543985,5.74544009 35.3815984,7.28944011 35.3815984,9.79984015" id="Fill-128" fill="#271F23"></path>
            <path d="M55.5472787,5.56240008 L54.8160787,5.23760008 C54.9432787,4.95120007 55.0704787,4.62880007 55.2048787,4.28880006 C55.9192787,2.47920004 56.8976788,-1.13686839e-14 59.1816788,-1.13686839e-14 C61.0512788,-1.13686839e-14 63.1816788,2.23760003 63.1816788,4.20000006 L62.3816788,4.20000006 C62.3816788,2.55840004 60.5032788,0.800000012 59.1816788,0.800000012 C57.4424788,0.800000012 56.6144788,2.89680004 55.9488787,4.58240007 C55.8104787,4.93280007 55.6784787,5.26640008 55.5472787,5.56240008" id="Fill-129" fill="#271F23"></path>
            <path d="M82.3815991,9.99984015 L81.5815991,9.99984015 L81.5871991,9.32704014 C81.6055991,7.61984011 81.6239991,6.00784009 80.4983991,4.88304007 L81.0647991,4.31664006 C82.4279991,5.67984008 82.4063991,7.53824011 82.3871991,9.33584014 L82.3815991,9.99984015 Z" id="Fill-130" fill="#271F23"></path>
            <path d="M82.0987991,9.29640014 C82.0835991,9.30120014 82.0667991,9.30520014 82.0507991,9.31000014 C82.0371991,9.20760014 82.0243991,9.10440014 82.0019991,9.00760013 C82.0931991,9.12600014 82.1283991,9.22360014 82.0987991,9.29640014 M30.2139984,46.5276007 C31.8155984,49.4204007 33.9491984,52.0956008 34.4907984,55.5324008 C34.5451984,55.8772008 34.8483984,55.9484008 35.1003984,55.8476008 C35.3131984,55.7628008 35.4907984,55.5556008 35.4451984,55.2668008 C35.3603984,54.7292008 35.2403984,54.2108008 35.1003984,53.7020008 C35.0715984,53.5980008 35.0347984,53.4972008 35.0035984,53.3948008 L35.1003984,47.9796007 L36.1635984,46.9044007 L36.2587984,46.8092007 C36.3403984,46.6356007 36.4163984,46.4628007 36.4907985,46.2908007 C36.5299985,46.1964007 36.5659985,46.1028007 36.6035985,46.0092007 C36.6411985,45.9156007 36.6787985,45.8220007 36.7139985,45.7292007 C40.1995985,36.3996005 31.3803984,29.2284004 41.7011985,25.6932004 C46.5379986,24.0996004 54.9355987,24.7044004 55.8947987,24.7364004 L68.8643989,26.6980004 C68.9427989,26.7100004 69.0187989,26.6988004 69.0891989,26.6652004 C70.481999,26.0132004 71.356399,24.7820004 71.618799,23.1044003 C71.618799,23.1044003 78.8131991,19.0956003 80.9499991,19.0956003 C81.8379991,19.0956003 82.7171991,19.5300003 83.5667992,20.3876003 C85.8859992,22.7316003 86.1259992,23.9564004 86.3387992,25.0372004 C86.5091992,25.9092004 86.6699992,26.7332004 87.7747992,27.8484004 C90.0283992,30.1260004 90.6451993,31.3716005 89.8499992,34.2588005 C89.1859992,36.6724005 88.5883992,39.8108006 89.8619992,42.6668006 L90.7419993,44.8468007 C90.8683993,45.4596007 90.9819993,46.1116007 91.0563993,46.8124007 C91.0755993,46.9924007 91.0883993,47.1780007 91.1019993,47.3636007 C91.0867993,47.3652007 91.0715993,47.3676007 91.0563993,47.3692007 L91.0563993,47.8116007 L91.0563993,48.5188007 C91.0859993,48.5116007 91.1139993,48.4988007 91.1435993,48.4932007 L91.1435993,57.3436009 C91.1123993,57.3572009 91.0827993,57.3740009 91.0563993,57.3924009 C90.7627993,57.5964009 90.8035993,58.0396009 91.0499993,58.2236009 C91.1531993,58.3004009 91.2883993,58.3348009 91.4515993,58.2812009 C93.2435993,57.6980009 94.6147993,57.1308009 95.2283993,55.2652008 C95.2923993,55.0708008 95.1931993,54.7892008 95.0011993,54.7012008 C94.0915993,54.2852008 95.7387993,51.3500008 96.8963994,49.5156007 L97.4243994,49.1996007 C97.4131994,49.1028007 97.3827994,49.0116007 97.3363994,48.9316007 C97.6835994,48.3940007 97.9403994,47.9820007 97.9843994,47.8260007 C98.3491994,46.5156007 98.4107994,45.5500007 98.3699994,44.1996007 C98.2755994,41.0404006 98.5475994,40.1084006 98.9235994,37.3988006 C99.0467994,36.5212005 98.8091994,35.9132005 98.5451994,35.1164005 C97.3795994,31.5972005 98.5939994,32.0868005 98.6019994,29.4756004 C98.6083994,27.2468004 97.8883994,25.0300004 95.9251993,23.7676004 C94.4963993,22.8492003 95.4139993,19.4012003 94.3923993,17.6460003 C94.0531993,17.0620003 93.3931993,16.6276002 92.8795993,16.2260002 C91.4739993,15.1284002 91.7547993,14.6580002 91.7907993,12.9844002 C91.8235993,11.4252002 90.9683993,9.29400014 89.4859992,8.60760013 C86.8499992,7.38760011 84.9211992,8.40360013 82.4451991,9.18840014 C81.7123991,6.31800009 78.3347991,4.95000007 75.771599,3.89560006 C74.151599,3.22920005 71.153999,4.18760006 70.265999,2.73720004 C69.2107989,1.01320002 68.1987989,0.572400009 66.2067989,0.411600006 C63.7067989,0.209200003 61.2995988,2.82360004 58.8411988,1.76760003 C57.9507988,1.38520002 54.1859987,2.15000003 53.7891987,1.61320002 C51.4819987,-1.50280002 41.8635985,6.35320009 39.7187985,6.36600009 C38.4715985,6.37320009 37.7595985,6.20520009 36.5523985,6.5172001 C34.9835984,6.9228001 33.8739984,8.31320012 32.9563984,9.54680014 C31.4811984,11.5340002 34.4523984,11.2748002 30.6595984,13.9012002 C29.8515984,14.4604002 29.1923983,14.9460002 28.5475983,15.7124002 C27.7219983,16.6940002 27.7163983,17.8308003 27.8923983,18.9988003 C28.0059983,19.7572003 28.9899983,20.9516003 28.4043983,21.6500003 C27.8531983,22.3060003 27.8707983,22.2924003 27.5547983,23.1036003 C26.9347983,24.6996004 27.7371983,26.6788004 27.7435983,28.3060004 C27.7467983,28.9660004 27.6723983,34.0908005 26.3443983,32.6460005 C26.0227983,32.2964005 25.5411983,32.5980005 25.4995983,32.9996005 C25.3875983,34.0668005 25.3923983,35.2916005 26.1723983,36.1532005 C26.8243983,36.8740005 26.6995983,36.7668005 27.4763983,37.2812006 C28.3971983,37.8908006 28.2971983,41.0820006 28.5515983,42.3324006 C28.8195983,43.6412007 29.3275983,44.8436007 29.9355984,46.0036007" id="Fill-131" fill="#271F23"></path>
            <path d="M47.9464786,21.8365603 C47.9016786,21.8365603 47.8600786,21.8517603 47.8216786,21.8805603 C47.6368786,22.0205603 47.4184786,22.5717603 47.7632786,23.7501604 C47.8496786,24.0605604 47.9704786,24.3317604 48.1136786,24.5677604 C48.2600786,24.2509604 48.3696786,23.8997604 48.4392786,23.5213604 C48.6096786,22.6437603 48.3904786,22.0685603 48.0968786,21.8861603 C48.0440786,21.8533603 47.9936786,21.8365603 47.9464786,21.8365603 M43.9016786,22.3733603 C43.7384786,22.3733603 43.5728786,22.4597603 43.4824786,22.5933603 C43.1184785,23.0813603 43.2656786,23.9677604 43.5768786,24.6733604 C44.0440786,24.1341604 44.5112786,23.0549603 44.2504786,22.6013603 C44.1744786,22.4533603 44.0696786,22.3829603 43.9296786,22.3741603 C43.9208786,22.3733603 43.9112786,22.3733603 43.9016786,22.3733603 M52.0792787,23.2517603 C52.0808787,23.2565603 52.0600787,23.2893603 52.0376787,23.3669603 C51.8864787,23.9669604 52.3528787,24.6653604 52.9104787,25.2181604 C53.1232787,24.9029604 53.2352787,24.5253604 53.2448787,24.0893604 C53.2576787,23.5373604 53.2576787,23.5373604 52.7680787,23.3917603 L52.6696787,23.3629603 C52.6160787,23.3533603 52.5296787,23.3333603 52.4472787,23.3141603 C52.3240787,23.2845603 52.1360787,23.2397603 52.0792787,23.2517603 M55.3568787,27.1261604 C54.9016787,27.1261604 54.4080787,27.0477604 53.8800787,26.8893604 C53.6736787,26.7997604 53.3312787,26.5957604 52.9600787,26.3093604 C52.2536787,26.8461604 51.2536787,27.0885604 50.3824787,26.9229604 C49.5320786,26.7717604 48.7896786,26.4173604 48.2056786,25.9045604 C47.7504786,26.4373604 47.1792786,26.8173604 46.5344786,26.9877604 C45.3768786,27.2949604 44.2120786,26.8773604 43.3376786,25.8397604 C43.3240786,25.8213604 43.3104786,25.8029604 43.2968786,25.7853604 C42.7616785,25.9253604 42.1208785,25.8421604 41.6304785,25.7301604 C40.0664785,25.3045604 40.0624785,24.0877604 40.0576785,22.9109603 C40.0560785,22.6021603 40.0552785,22.2773603 40.0288785,21.9429603 L40.8264785,21.8797603 C40.8544785,22.2349603 40.8560785,22.5797603 40.8576785,22.9077603 C40.8624785,24.1453604 40.9032785,24.7029604 41.8256785,24.9541604 C42.2288785,25.0469604 42.5896785,25.0781604 42.8688785,25.0517604 C42.4416785,24.1293604 42.2360785,22.9253603 42.8296785,22.1309603 C43.0704785,21.7717603 43.5248786,21.5437603 43.9784786,21.5757603 C44.4032786,21.6021603 44.7592786,21.8365603 44.9544786,22.2205603 C45.4728786,23.1237603 44.7120786,24.6941604 43.9984786,25.3821604 C44.6488786,26.1269604 45.4984786,26.4349604 46.3296786,26.2149604 C46.8408786,26.0789604 47.2960786,25.7637604 47.6568786,25.3149604 C47.3584786,24.9205604 47.1320786,24.4677604 46.9944786,23.9693604 C46.4616786,22.1501603 47.0568786,21.4573603 47.3368786,21.2437603 C47.6816786,20.9813603 48.1352786,20.9677603 48.5200786,21.2069603 C49.0304786,21.5245603 49.4840786,22.3389603 49.2256786,23.6701604 C49.1192786,24.2493604 48.9280786,24.7797604 48.6680786,25.2405604 C49.3584786,25.8717604 50.1936787,26.0765604 50.5272787,26.1365604 C51.0304787,26.2309604 51.7560787,26.1461604 52.3392787,25.7685604 C51.6288787,25.0645604 51.0224787,24.1213604 51.2656787,23.1565603 C51.5232787,22.2717603 52.2168787,22.4365603 52.6312787,22.5357603 C52.7048787,22.5525603 52.7824787,22.5709603 52.8632787,22.5869603 L52.9960787,22.6245603 C53.7752787,22.8565603 54.0680787,23.0445603 54.0448787,24.1069604 C54.0312787,24.7317604 53.8512787,25.2869604 53.5184787,25.7429604 C53.7656787,25.9293604 53.9952787,26.0693604 54.1560787,26.1405604 C55.2880787,26.4757604 56.8176788,26.5421604 57.4296788,24.8525604 L58.1824788,25.1253604 C57.7064788,26.4357604 56.7088788,27.1253604 55.3568787,27.1261604" id="Fill-132" fill="#271F23"></path>
            <path d="M78.8558391,55.0479208 L75.226239,55.0479208 C75.060639,55.0479208 74.926239,54.9135208 74.926239,54.7479208 C74.926239,54.5823208 75.060639,54.4479208 75.226239,54.4479208 L78.8558391,54.4479208 C79.0214391,54.4479208 79.1558391,54.5823208 79.1558391,54.7479208 C79.1558391,54.9135208 79.0214391,55.0479208 78.8558391,55.0479208" id="Fill-135" fill="#271F23"></path>
            <path d="M71.106639,54.3510408 C71.022639,54.3510408 70.936239,54.3246408 70.864239,54.2686408 C70.689039,54.1350408 70.655439,53.8838408 70.789039,53.7086408 C72.136239,51.9430408 75.059439,51.6078408 75.183439,51.5942408 L77.0410391,51.5918408 C77.2618391,51.5918408 77.4410391,51.7710408 77.4410391,51.9918408 C77.4410391,52.2134408 77.2618391,52.3918408 77.0410391,52.3918408 L75.225839,52.3918408 C75.242639,52.3926408 72.561839,52.7030408 71.424239,54.1934408 C71.346639,54.2966408 71.226639,54.3510408 71.106639,54.3510408" id="Fill-136" fill="#271F23"></path>
            <path d="M59.1066388,54.6096008 L55.9554387,54.6096008 C55.7898387,54.6096008 55.6554387,54.4752008 55.6554387,54.3096008 C55.6554387,54.1440008 55.7898387,54.0096008 55.9554387,54.0096008 L59.1066388,54.0096008 C59.2722388,54.0096008 59.4066388,54.1440008 59.4066388,54.3096008 C59.4066388,54.4752008 59.2722388,54.6096008 59.1066388,54.6096008" id="Fill-137" fill="#271F23"></path>
            <polygon id="Fill-138" fill="#271F23" points="81.3019191 55.1064808 81.1611191 53.5128808 82.9115191 53.3584808 83.0523191 54.9520808"></polygon>
            <path d="M82.3823991,55.1096008 C82.1215991,55.1096008 81.8655991,54.9816008 81.7119991,54.7464008 C80.2751991,52.5448008 78.9031991,52.5112008 78.8727991,52.5288008 L76.383199,52.5296008 C75.941599,52.5296008 75.583199,52.1720008 75.583199,51.7296008 C75.583199,51.2880008 75.941599,50.9296008 76.383199,50.9296008 L78.8431991,50.9296008 C79.0183991,50.9160008 81.0983991,50.8768008 83.0519991,53.8728008 C83.2935991,54.2432008 83.1887991,54.7384008 82.8191991,54.9792008 C82.6839991,55.0680008 82.5319991,55.1096008 82.3823991,55.1096008" id="Fill-139" fill="#271F23"></path>
        </g>
    </g>
</svg>