<svg id="Layer_1" data-name="Layer 1" xmlns="http://www.w3.org/2000/svg" viewBox="0 0 104.79 152.27"><defs><style>.cls-1{fill:#261f23;}.cls-2,.cls-9{fill:#c0d4f6;}.cls-3{fill:#86a3f8;}.cls-4{fill:#e5ecf7;}.cls-5{fill:#fff;}.cls-6,.cls-8{fill:none;}.cls-6,.cls-8,.cls-9{stroke:#c0d4f6;stroke-linecap:round;stroke-linejoin:round;}.cls-6{stroke-width:3.57px;}.cls-7{fill:#72748b;}.cls-8{stroke-width:6px;}</style></defs><path class="cls-1" d="M135,10.56" transform="translate(-0.11 -0.37)"/><path class="cls-2" d="M29.21,48.78s-.85-3.66-6.15-3.66c-2.93,0-1.68,6.3-1.68,9.71s1.14,10.38,5.54,11.49,4.35,0,4.35,0l1.35-15.15Z" transform="translate(-0.11 -0.37)"/><path class="cls-2" d="M81.34,49.21S81.54,44,86.85,44c2.93,0,2.32,7.87,2.32,11.27S88,65.64,83.64,66.75s-4.36,0-4.36,0L77.93,51.59Z" transform="translate(-0.11 -0.37)"/><path class="cls-3" d="M30,67.08a13.37,13.37,0,0,1-3.15-.5c-4.54-1.14-5.74-8.19-5.74-11.75,0-.74-.06-1.62-.12-2.55-.18-2.65-.38-5.67.74-6.87a1.75,1.75,0,0,1,1.33-.56c4.94,0,6.19,3.14,6.39,3.77L32.77,51l-.3.44L29,49l0-.11c0-.14-.88-3.45-5.89-3.45a1.22,1.22,0,0,0-.93.38c-1,1-.77,3.93-.6,6.48.06.93.12,1.82.12,2.58,0,3.42,1.12,10.17,5.33,11.23,3.63.91,4,.24,4,.24h.54a.58.58,0,0,1-.24.46A2.11,2.11,0,0,1,30,67.08Z" transform="translate(-0.11 -0.37)"/><path class="cls-3" d="M80.56,67.51a2.07,2.07,0,0,1-1.3-.31.58.58,0,0,1-.25-.46l.54,0s.12.21,1,.21a12.75,12.75,0,0,0,3-.49c4.22-1.06,5.33-7.81,5.33-11.23,0-.45,0-1,0-1.56.06-3.06.16-7.68-1.2-9.06a1.15,1.15,0,0,0-.87-.38c-5,0-5.23,4.77-5.24,5v.13l-3.51,2.46-.31-.44,3.3-2.31c.08-.85.76-5.35,5.77-5.35a1.71,1.71,0,0,1,1.26.54c1.51,1.55,1.42,6.11,1.35,9.45,0,.57,0,1.1,0,1.55,0,3.57-1.2,10.61-5.74,11.76A13.85,13.85,0,0,1,80.56,67.51Z" transform="translate(-0.11 -0.37)"/><path class="cls-2" d="M87.92,100.64l-.4-.33s-9.2-2.89-9.59-7.33V79.22a25.72,25.72,0,0,1-3.74,7c-9.37,11.73-12.14,12-18.35,12s-9.57-2.8-17.3-11.68a34.61,34.61,0,0,1-4.75-6.9V96.53s-5.16,4.27-8.25,5.58c0,0-7.14,11.42,4.4,19.28s18.4,11.19,26.64,11.19c5.63,0,21.38-4.85,30.78-12.36A12.84,12.84,0,0,0,87.92,100.64Z" transform="translate(-0.11 -0.37)"/><path class="cls-1" d="M92.07,102.11l-7.6-3a27.42,27.42,0,0,0,3,1.2l.4.33a12.84,12.84,0,0,1-.56,19.58c-9.4,7.51-25.15,12.36-30.78,12.36-8.24,0-15.09-3.34-26.64-11.19-9.84-6.7-6.1-16-4.79-18.58a35.68,35.68,0,0,1-5.8,2.81c-7.39,2.72-23.41,3-18.23,16.76S25.68,156.63,54.31,152,126.86,119.28,92.07,102.11Z" transform="translate(-0.11 -0.37)"/><path class="cls-4" d="M81.1,43.34a14.23,14.23,0,0,0-3.68-9.15s.73-7.27-4.85-11.91-16.75.43-16.75.43A50.52,50.52,0,0,0,42,21.34c-6.84.42-8.32,5.58-8.32,5.58V37.14c-2.11.84-2.8,6.2-2.8,6.2v11.8L31.49,71s-.68,6.58,7.05,15.47,11.09,11.68,17.3,11.68,9-.28,18.35-12c5.37-6.73,7.4-20.15,7.51-29.51C81.65,55.84,81.2,48.6,81.1,43.34Z" transform="translate(-0.11 -0.37)"/><path class="cls-2" d="M58.77,68.43a18.81,18.81,0,0,0-4.14-1,1.27,1.27,0,0,0,0-.34,1.07,1.07,0,0,0-1.1-1c-1.21,0-2.81-.15-3.58-1.11a3.1,3.1,0,0,1-.44-2.4A1.08,1.08,0,0,0,47.47,62a5.27,5.27,0,0,0,.83,4.27,4.52,4.52,0,0,0,1.58,1.25,10.94,10.94,0,0,0-6,3.09,1.62,1.62,0,0,0,2.31,2.27c4.1-4.17,11.31-1.48,11.43-1.43a1.62,1.62,0,0,0,1.17-3Z" transform="translate(-0.11 -0.37)"/><path class="cls-2" d="M48.57,54a1.62,1.62,0,0,0,1.52,1.09,1.47,1.47,0,0,0,.54-.1c1.54-.54,4.15-2.2,4.15-5,0-3.11-2.48-5.69-6.82-7.1a1.63,1.63,0,0,0-2,1,1.61,1.61,0,0,0,1,2c1.38.45,4.59,1.74,4.59,4a1.16,1.16,0,0,1-.07.37l-8.48,0a4.59,4.59,0,0,1-3-1.35,1.09,1.09,0,0,0-1.26-.32.65.65,0,0,1,0-.2c0-.84,1.09-1.94,1.64-2.33a1.37,1.37,0,0,0,.3-1.89,1.35,1.35,0,0,0-1.88-.3c-.29.21-2.83,2.1-2.75,4.6a4.24,4.24,0,0,0,2.31,3.5,1.39,1.39,0,0,0,.72.21,1.35,1.35,0,0,0,1.08-.55,7.8,7.8,0,0,0,2.7.78h.12l5.85,0A1.58,1.58,0,0,0,48.57,54Z" transform="translate(-0.11 -0.37)"/><path class="cls-2" d="M63.58,51.89a4.6,4.6,0,0,1-.69-2.64c0-3.29,5.13-5,5.18-5a1.08,1.08,0,0,0,.7-1.36,1.07,1.07,0,0,0-1.35-.7c-.27.08-6.69,2.15-6.69,7a6.67,6.67,0,0,0,1.07,3.86,1.1,1.1,0,0,0,.89.47,1.08,1.08,0,0,0,.89-1.69Z" transform="translate(-0.11 -0.37)"/><path class="cls-2" d="M59,66.06a6.15,6.15,0,0,1-3.14-2.18,1.08,1.08,0,0,0-1.74,1.29,8.39,8.39,0,0,0,4.47,3h.21a1.08,1.08,0,0,0,.2-2.14Z" transform="translate(-0.11 -0.37)"/><path class="cls-2" d="M74.49,49.7a.81.81,0,0,0-1.06-.45c-4.89,2-8.32.76-8.37.74a.82.82,0,0,0-1,.48.81.81,0,0,0,.48,1,10.46,10.46,0,0,0,3.4.49A16.46,16.46,0,0,0,74,50.75.82.82,0,0,0,74.49,49.7Z" transform="translate(-0.11 -0.37)"/><path class="cls-2" d="M65.2,61.78a1.08,1.08,0,1,0-1,1.92c1.74.9,4.5,2.94,4.5,4.58a1.08,1.08,0,0,0,2.16,0C70.88,64.8,65.78,62.08,65.2,61.78Z" transform="translate(-0.11 -0.37)"/><path class="cls-3" d="M23.46,58.41a11,11,0,0,1-.62-4.73c-.2-.56-1.57-4.55-.44-6.15a1.65,1.65,0,0,1,1.46-.68c3.36.06,4.43,4.85,4.48,5l.07.33h-1.3v-.54h.62c-.3-1-1.41-4.26-3.88-4.3a1.11,1.11,0,0,0-1,.45c-.86,1.21.09,4.54.53,5.72l0,.06v.06A10.37,10.37,0,0,0,24,58.21Z" transform="translate(-0.11 -0.37)"/><path class="cls-3" d="M29.7,61.63c-.28,0-.59-.34-1-.91-.78-1.11-1.24-1.23-1.4-1.23h0a.29.29,0,0,0-.22.1l-.45-.29a.82.82,0,0,1,.64-.35c.56,0,1.18.47,1.87,1.46.17.23.3.39.39.49a5.92,5.92,0,0,0-.19-.83A9.21,9.21,0,0,1,29,54.19l.52.15a8.84,8.84,0,0,0,.35,5.54c.45,1.5.14,1.65,0,1.72A.41.41,0,0,1,29.7,61.63Z" transform="translate(-0.11 -0.37)"/><path class="cls-3" d="M87,51.38a18.9,18.9,0,0,1,0-3.56l-1.54-1.54a.59.59,0,0,0-.38.07c-.91.48-1.77,2.77-2,3.62l-.52-.16c0-.13,1-3.26,2.29-3.94a1.06,1.06,0,0,1,.85-.09l.06,0,1.82,1.81v.13a18.46,18.46,0,0,0,0,3.56Z" transform="translate(-0.11 -0.37)"/><path class="cls-3" d="M81.89,61.4l0-.59a12.54,12.54,0,0,1,.6-3.74,3.31,3.31,0,0,0,0-2.17l.51-.18a3.81,3.81,0,0,1,0,2.59,9.54,9.54,0,0,0-.51,2.92l1.6-1.31a1.6,1.6,0,0,0,.36-1.62l.5-.21a2.15,2.15,0,0,1-.5,2.23Z" transform="translate(-0.11 -0.37)"/><path class="cls-3" d="M85.18,53.64a2.65,2.65,0,0,0-2.39-1.47v-.54a3.16,3.16,0,0,1,2.88,1.8Z" transform="translate(-0.11 -0.37)"/><path class="cls-1" d="M55.82,22.71S67,17.65,72.57,22.28s4.85,11.91,4.85,11.91a14.23,14.23,0,0,1,3.68,9.15c.1,5.59.61,13.4.61,13.4l1.49-2V47A16.16,16.16,0,0,0,85,39.45c0-4.42.64-17-3.58-20.64L81.2,15s-6.84-5.8-7.58-7.27S64.46.59,59.72.38s-21.81,3-25.28,7.47-8.43,9.8-9.9,14.22l1.68.32a20.74,20.74,0,0,0-1.68,7.27c-.21,4.21,0,15.37,0,15.37s3.37,1.8,3.58,4.64a30.33,30.33,0,0,0,1.47,6.42L30.9,56V43.34s.69-5.36,2.8-6.2V26.92s1.48-5.16,8.32-5.58A50.52,50.52,0,0,1,55.82,22.71Z" transform="translate(-0.11 -0.37)"/><path class="cls-1" d="M42.67,48.16a2.06,2.06,0,0,1,.12-.7A6.75,6.75,0,0,1,45,47a16.8,16.8,0,0,1,2.08.18,2.13,2.13,0,0,1,.26,1,2.35,2.35,0,0,1-4.69,0Z" transform="translate(-0.11 -0.37)"/><path class="cls-5" d="M46.12,74.87a10,10,0,0,1,8.62-1,8.52,8.52,0,0,0,2.12.53c3.08.35,4.89-1.39,10.75.47a14.92,14.92,0,0,1-10,4.08C51.53,79,46.12,74.87,46.12,74.87Z" transform="translate(-0.11 -0.37)"/><path class="cls-1" d="M48.13,73.9a9.7,9.7,0,0,0-2,1s1.29.86,2.39,1.5Z" transform="translate(-0.11 -0.37)"/><path class="cls-1" d="M65.73,76.37a9.4,9.4,0,0,0,1.88-1.5,18.62,18.62,0,0,0-1.82-.49Z" transform="translate(-0.11 -0.37)"/><path class="cls-1" d="M61.47,67.08a.26.26,0,0,1-.23-.13.27.27,0,0,1,.1-.37c1.36-.79,1.93-.62,2-.58a.27.27,0,0,1,.15.35.27.27,0,0,1-.34.15s-.48-.09-1.57.55A.32.32,0,0,1,61.47,67.08Z" transform="translate(-0.11 -0.37)"/><path class="cls-3" d="M57.23,81.7a11,11,0,0,1-5.34-1.29A.27.27,0,0,1,51.8,80a.28.28,0,0,1,.38-.08,11.53,11.53,0,0,0,10.4,0,.28.28,0,0,1,.36.13.27.27,0,0,1-.14.36A13,13,0,0,1,57.23,81.7Z" transform="translate(-0.11 -0.37)"/><path class="cls-6" d="M54.74,72.91a8.52,8.52,0,0,0,2.12.53,10.79,10.79,0,0,0,3-.16" transform="translate(-0.11 -0.37)"/><path class="cls-3" d="M57.61,79.22c-6.1,0-11.6-4.09-11.66-4.13l-.3-.23.31-.21a10.18,10.18,0,0,1,8.87-1,9,9,0,0,0,2.06.52A11.34,11.34,0,0,0,59.82,74a15.12,15.12,0,0,1,7.87.64l.41.13-.3.31A15,15,0,0,1,57.61,79.22Zm-11-4.33c1.25.86,5.92,3.79,11,3.79A14.79,14.79,0,0,0,67.09,75a14.48,14.48,0,0,0-7.19-.48,11.11,11.11,0,0,1-3.07.16,9,9,0,0,1-2.19-.54A9.68,9.68,0,0,0,46.61,74.89Z" transform="translate(-0.11 -0.37)"/><path class="cls-1" d="M66.09,48.43a1.64,1.64,0,0,1,.19-.85,2.76,2.76,0,0,1,2-.76c.62,0,1.35-.34,1.76,0a2.1,2.1,0,0,1,.75,1.59,2.36,2.36,0,0,1-4.7,0Z" transform="translate(-0.11 -0.37)"/><path class="cls-3" d="M62.69,48.91a.24.24,0,0,1-.19-.08.27.27,0,0,1,0-.38l1.29-1.25c2.77-2.26,4.19-2.19,6-2.09.38,0,.77,0,1.21,0,2.58,0,4.15,2.68,4.21,2.79a.27.27,0,1,1-.47.27S73.24,45.69,71,45.69c-.45,0-.85,0-1.24,0-1.74-.09-3-.16-5.59,2l-1.27,1.24A.26.26,0,0,1,62.69,48.91Z" transform="translate(-0.11 -0.37)"/><path class="cls-3" d="M38.64,48.58a.23.23,0,0,1-.14,0,.28.28,0,0,1-.09-.38,7.18,7.18,0,0,1,6-2.88c4.22,0,5.85.75,7.56,2.23a.27.27,0,0,1,0,.38.26.26,0,0,1-.38,0c-1.64-1.43-3.13-2.11-7.2-2.11a6.71,6.71,0,0,0-5.52,2.65A.27.27,0,0,1,38.64,48.58Z" transform="translate(-0.11 -0.37)"/><path class="cls-1" d="M56.58,67.51a.29.29,0,0,1-.25-.15,1.93,1.93,0,0,0-1.59-1.27H52a.27.27,0,0,1,0-.54h2.71a2.46,2.46,0,0,1,2.08,1.57.27.27,0,0,1-.24.39Z" transform="translate(-0.11 -0.37)"/><path class="cls-3" d="M60,67.25a.26.26,0,0,1-.26-.19.27.27,0,0,1,.18-.34s2.2-.66,2.82-2.16a.27.27,0,0,1,.5.21c-.72,1.74-3.07,2.44-3.17,2.47Z" transform="translate(-0.11 -0.37)"/><path class="cls-1" d="M51.29,49.94H49.75a.27.27,0,1,1,0-.54h.84a8.33,8.33,0,0,0-5.36-2.17,7.37,7.37,0,0,0-5.48,2.52.28.28,0,0,1-.39,0,.27.27,0,0,1,0-.38,8,8,0,0,1,5.86-2.7c3.37-.17,6.17,2.67,6.29,2.79a.26.26,0,0,1,0,.29A.27.27,0,0,1,51.29,49.94Z" transform="translate(-0.11 -0.37)"/><path class="cls-1" d="M41.24,48.08A.28.28,0,0,1,41,48a.27.27,0,0,1,.1-.37A8.47,8.47,0,0,1,45,46.5a6.94,6.94,0,0,1,3.26.7.27.27,0,0,1,.13.35.27.27,0,0,1-.36.14A6.39,6.39,0,0,0,45,47a8.05,8.05,0,0,0-3.65,1A.22.22,0,0,1,41.24,48.08Z" transform="translate(-0.11 -0.37)"/><path class="cls-1" d="M52.28,43.51s-.29-.16-.79-.38a1.44,1.44,0,0,0-.92-1.71,21.29,21.29,0,0,0-7-1.18,18.23,18.23,0,0,0-3.93.41,1.43,1.43,0,0,0-1.11,1.68,7,7,0,0,0-3,2.16A1.09,1.09,0,0,0,35.76,46a1,1,0,0,0,.63.2,1.1,1.1,0,0,0,.88-.44,5.1,5.1,0,0,1,2.9-1.68,15.75,15.75,0,0,1,3.39-.35,18.9,18.9,0,0,1,6.18,1,12.52,12.52,0,0,1,1.51.63,1.08,1.08,0,1,0,1-1.89Z" transform="translate(-0.11 -0.37)"/><path class="cls-1" d="M77.16,42.47a3.61,3.61,0,0,0-1-.46,1.42,1.42,0,0,0-.93-1.35,8.26,8.26,0,0,0-2.8-.42,21.29,21.29,0,0,0-7,1.18,1.45,1.45,0,0,0-1,1.34,11.87,11.87,0,0,0-1.7.77A1.09,1.09,0,0,0,62.34,45a1.09,1.09,0,0,0,1.48.37,15.9,15.9,0,0,1,7.58-1.65,1.08,1.08,0,0,0,1-.59h.39a1,1,0,0,0,.82.47,5.25,5.25,0,0,1,2.5.44,1,1,0,0,0,1.32-.25A1,1,0,0,0,77.16,42.47Z" transform="translate(-0.11 -0.37)"/><path class="cls-7" d="M32.71,75.9a.27.27,0,0,1-.27-.27V66.25a.27.27,0,0,1,.54,0v9.38A.27.27,0,0,1,32.71,75.9Z" transform="translate(-0.11 -0.37)"/><path class="cls-7" d="M30.48,65.78a.27.27,0,0,1-.27-.27V56.12a.27.27,0,0,1,.54,0v9.39A.27.27,0,0,1,30.48,65.78Z" transform="translate(-0.11 -0.37)"/><path class="cls-7" d="M34.94,81.09a.28.28,0,0,1-.27-.27V71.43a.27.27,0,0,1,.54,0v9.39A.28.28,0,0,1,34.94,81.09Z" transform="translate(-0.11 -0.37)"/><path class="cls-7" d="M37.18,85.78a.27.27,0,0,1-.27-.27V76.12a.27.27,0,1,1,.54,0v9.39A.27.27,0,0,1,37.18,85.78Z" transform="translate(-0.11 -0.37)"/><path class="cls-7" d="M39.41,88.61a.27.27,0,0,1-.27-.27V79a.27.27,0,1,1,.54,0v9.39A.27.27,0,0,1,39.41,88.61Z" transform="translate(-0.11 -0.37)"/><path class="cls-7" d="M41.64,91.61a.27.27,0,0,1-.27-.27V82a.27.27,0,0,1,.54,0v9.39A.27.27,0,0,1,41.64,91.61Z" transform="translate(-0.11 -0.37)"/><path class="cls-7" d="M41.64,77.73a.27.27,0,0,1-.27-.27v-4.7a.27.27,0,0,1,.54,0v4.7A.27.27,0,0,1,41.64,77.73Z" transform="translate(-0.11 -0.37)"/><path class="cls-7" d="M43.88,93.78a.27.27,0,0,1-.27-.26V70.75a.27.27,0,1,1,.54,0V93.52A.27.27,0,0,1,43.88,93.78Z" transform="translate(-0.11 -0.37)"/><path class="cls-7" d="M70.57,91.87a.28.28,0,0,1-.27-.27V71.74a.28.28,0,0,1,.27-.27.27.27,0,0,1,.27.27V91.6A.27.27,0,0,1,70.57,91.87Z" transform="translate(-0.11 -0.37)"/><path class="cls-7" d="M46.11,95.16a.27.27,0,0,1-.27-.27V85.51a.27.27,0,0,1,.54,0v9.38A.27.27,0,0,1,46.11,95.16Z" transform="translate(-0.11 -0.37)"/><path class="cls-7" d="M48.34,97.89a.27.27,0,0,1-.27-.27V88.34a.27.27,0,0,1,.54,0v9.28A.27.27,0,0,1,48.34,97.89Z" transform="translate(-0.11 -0.37)"/><path class="cls-7" d="M50.58,99.07a.27.27,0,0,1-.27-.27V89.08a.27.27,0,1,1,.54,0V98.8A.27.27,0,0,1,50.58,99.07Z" transform="translate(-0.11 -0.37)"/><path class="cls-7" d="M52.81,99.39a.27.27,0,0,1-.27-.27V83.65a.27.27,0,0,1,.54,0V99.12A.27.27,0,0,1,52.81,99.39Z" transform="translate(-0.11 -0.37)"/><path class="cls-7" d="M55,99.22a.27.27,0,0,1-.27-.27V84.21a.27.27,0,1,1,.54,0V99A.27.27,0,0,1,55,99.22Z" transform="translate(-0.11 -0.37)"/><path class="cls-7" d="M57.28,100.17A.27.27,0,0,1,57,99.9v-15a.27.27,0,1,1,.54,0v15A.27.27,0,0,1,57.28,100.17Z" transform="translate(-0.11 -0.37)"/><path class="cls-7" d="M59.51,100.07a.27.27,0,0,1-.27-.27V84.57a.27.27,0,1,1,.54,0V99.8A.27.27,0,0,1,59.51,100.07Z" transform="translate(-0.11 -0.37)"/><path class="cls-7" d="M61.74,99.39a.27.27,0,0,1-.27-.27V83.65a.27.27,0,0,1,.54,0V99.12A.27.27,0,0,1,61.74,99.39Z" transform="translate(-0.11 -0.37)"/><path class="cls-7" d="M64,98.45a.27.27,0,0,1-.27-.27v-9.1a.27.27,0,0,1,.27-.27.28.28,0,0,1,.27.27v9.1A.28.28,0,0,1,64,98.45Z" transform="translate(-0.11 -0.37)"/><path class="cls-7" d="M66.21,96.8a.27.27,0,0,1-.27-.27V87.79a.27.27,0,1,1,.54,0v8.74A.27.27,0,0,1,66.21,96.8Z" transform="translate(-0.11 -0.37)"/><path class="cls-7" d="M46.11,73a.27.27,0,0,1-.27-.27V68.67a.27.27,0,1,1,.54,0v4.09A.27.27,0,0,1,46.11,73Z" transform="translate(-0.11 -0.37)"/><path class="cls-7" d="M48.34,71.76a.27.27,0,0,1-.27-.27V67.74a.27.27,0,1,1,.54,0v3.75A.27.27,0,0,1,48.34,71.76Z" transform="translate(-0.11 -0.37)"/><path class="cls-7" d="M50.58,71.22a.27.27,0,0,1-.27-.27V66.81a.27.27,0,1,1,.54,0V71A.27.27,0,0,1,50.58,71.22Z" transform="translate(-0.11 -0.37)"/><path class="cls-7" d="M52.81,71a.27.27,0,0,1-.27-.27V67.37a.27.27,0,0,1,.54,0v3.31A.27.27,0,0,1,52.81,71Z" transform="translate(-0.11 -0.37)"/><path class="cls-7" d="M55,71.21a.27.27,0,0,1-.27-.27V68.11a.27.27,0,1,1,.54,0v2.83A.27.27,0,0,1,55,71.21Z" transform="translate(-0.11 -0.37)"/><path class="cls-7" d="M57.28,71.5a.27.27,0,0,1-.27-.27V68.67a.27.27,0,0,1,.54,0v2.56A.27.27,0,0,1,57.28,71.5Z" transform="translate(-0.11 -0.37)"/><path class="cls-7" d="M59.51,71.7a.27.27,0,0,1-.27-.27V68.67a.27.27,0,1,1,.54,0v2.76A.27.27,0,0,1,59.51,71.7Z" transform="translate(-0.11 -0.37)"/><path class="cls-7" d="M61.74,71.7a.27.27,0,0,1-.27-.27v-3a.27.27,0,0,1,.54,0v3A.27.27,0,0,1,61.74,71.7Z" transform="translate(-0.11 -0.37)"/><path class="cls-7" d="M64,72.25a.28.28,0,0,1-.27-.27V68.45a.27.27,0,0,1,.27-.27.28.28,0,0,1,.27.27V72A.28.28,0,0,1,64,72.25Z" transform="translate(-0.11 -0.37)"/><path class="cls-7" d="M66.21,72.76a.27.27,0,0,1-.27-.27V68.11a.27.27,0,1,1,.54,0v4.38A.27.27,0,0,1,66.21,72.76Z" transform="translate(-0.11 -0.37)"/><path class="cls-7" d="M68.44,94.68a.27.27,0,0,1-.27-.27V83.35a.27.27,0,0,1,.54,0V94.41A.27.27,0,0,1,68.44,94.68Z" transform="translate(-0.11 -0.37)"/><path class="cls-7" d="M77.17,82.72a.28.28,0,0,1-.27-.27V73.8a.28.28,0,0,1,.27-.27.27.27,0,0,1,.27.27v8.65A.27.27,0,0,1,77.17,82.72Z" transform="translate(-0.11 -0.37)"/><path class="cls-7" d="M72.81,89.35a.27.27,0,0,1-.27-.27V81.19a.27.27,0,0,1,.54,0v7.89A.27.27,0,0,1,72.81,89.35Z" transform="translate(-0.11 -0.37)"/><path class="cls-7" d="M75,86.73a.27.27,0,0,1-.27-.27V76.75a.27.27,0,0,1,.54,0v9.71A.27.27,0,0,1,75,86.73Z" transform="translate(-0.11 -0.37)"/><path class="cls-7" d="M79.31,79.34a.27.27,0,0,1-.27-.27V70.41a.27.27,0,0,1,.54,0v8.66A.27.27,0,0,1,79.31,79.34Z" transform="translate(-0.11 -0.37)"/><path class="cls-7" d="M80.86,71.84a.27.27,0,0,1-.27-.27V56.74a.27.27,0,0,1,.27-.27.28.28,0,0,1,.27.27V71.57A.28.28,0,0,1,80.86,71.84Z" transform="translate(-0.11 -0.37)"/><path class="cls-7" d="M68.44,73.56a.27.27,0,0,1-.27-.27V68.88a.27.27,0,0,1,.54,0v4.41A.27.27,0,0,1,68.44,73.56Z" transform="translate(-0.11 -0.37)"/><path class="cls-7" d="M68.44,80.79a.28.28,0,0,1-.27-.27V76.75a.27.27,0,0,1,.54,0v3.77A.28.28,0,0,1,68.44,80.79Z" transform="translate(-0.11 -0.37)"/><path class="cls-8" d="M39.54,45.12" transform="translate(-0.11 -0.37)"/><path class="cls-7" d="M72.39,50a.27.27,0,0,1-.27-.25.27.27,0,0,1,.25-.29A2.8,2.8,0,0,0,73.78,49a.27.27,0,0,1,.36.4A3.39,3.39,0,0,1,72.4,50Z" transform="translate(-0.11 -0.37)"/><path class="cls-1" d="M63.22,50a.34.34,0,0,1-.17,0,.28.28,0,0,1,0-.38,7.88,7.88,0,0,1,6.2-3,6.07,6.07,0,0,1,5.17,2.84.27.27,0,0,1-.11.36.28.28,0,0,1-.37-.11,5.55,5.55,0,0,0-4.72-2.55,7.51,7.51,0,0,0-5.74,2.77A.26.26,0,0,1,63.22,50Z" transform="translate(-0.11 -0.37)"/><path class="cls-9" d="M41.24,50.18a20.59,20.59,0,0,0,7.22-.33l1.82.37,0,.77" transform="translate(-0.11 -0.37)"/></svg>