<?xml version="1.0" encoding="UTF-8"?>
<svg width="152px" height="147px" viewBox="0 0 152 147" version="1.1" xmlns="http://www.w3.org/2000/svg" xmlns:xlink="http://www.w3.org/1999/xlink">
    <title>Illustration / Andi</title>
    <defs>
        <polygon id="path-1" points="0.00016 0.112675592 151.769813 0.112675592 151.769813 48 0.00016 48"></polygon>
    </defs>
    <g id="Illustration-/-Andi" stroke="none" stroke-width="1" fill="none" fill-rule="evenodd">
        <g id="Andy">
            <path d="M55.16808,69.8716 C55.16808,69.8716 50.93448,71.8708 50.66728,66.3044 C50.40008,60.738 49.91128,57.9292 49.33368,57.2716 C48.75608,56.614 51.33368,52.4716 51.33368,52.4716 L53.67368,56.338 L55.16808,69.8716 Z" id="Fill-1" fill="#BCD4F9"></path>
            <path d="M109.19856,70.22088 C109.19856,70.22088 114.40096,71.53768 114.40096,67.13768 C114.40096,62.73768 113.73296,61.27128 116.00016,57.27128 L114.69696,53.91048 L110.19216,54.53848 L109.19856,70.22088 Z" id="Fill-3" fill="#BCD4F9"></path>
            <path d="M55.16808,69.8716 C55.16808,69.8716 50.93448,71.8708 50.66728,66.3044 C50.40008,60.738 49.91128,57.9292 49.33368,57.2716 C48.75608,56.614 51.33368,52.4716 51.33368,52.4716 L53.67368,56.338 L55.16808,69.8716 Z" id="Stroke-5" stroke="#7EA3FF" stroke-width="0.8" stroke-linecap="round" stroke-linejoin="round"></path>
            <path d="M109.19856,70.22088 C109.19856,70.22088 114.40096,71.53768 114.40096,67.13768 C114.40096,62.73768 113.73296,61.27128 116.00016,57.27128 L114.69696,53.91048 L110.19216,54.53848 L109.19856,70.22088 Z" id="Stroke-7" stroke="#7EA3FF" stroke-width="0.8" stroke-linecap="round" stroke-linejoin="round"></path>
            <path d="M53.67824,57.2716 L51.33344,52.4716 L49.33344,57.2716 C49.33344,57.2716 45.06704,53.138 44.79984,44.8716 C44.53344,36.6052 41.33344,28.7388 48.93344,17.9388 C56.53344,7.1388 66.26704,2.338 70.53344,4.4716 C70.53344,4.4716 77.73264,-1.1276 87.59984,0.2052 C97.46704,1.538 107.86624,9.6724 114.79984,22.2052 C121.73344,34.738 116.93264,55.6716 115.99984,57.2716 L114.66704,54.5388 L111.06704,57.2716" id="Fill-9" fill="#271F23"></path>
            <g id="Group-13" transform="translate(0.000000, 98.850400)">
                <mask id="mask-2" fill="white">
                    <use xlink:href="#path-1"></use>
                </mask>
                <g id="Clip-12"></g>
                <path d="M51.33376,0.42048 C47.66736,-2.57952 23.00736,17.22208 14.20736,21.96448 C5.40736,26.70768 0.00016,48.00048 0.00016,48.00048 L149.80016,48.00048 C149.80016,48.00048 156.00016,32.10768 146.40016,21.96448 C136.80016,11.82208 105.33376,1.35328 105.33376,1.35328 L51.33376,0.42048 Z" id="Fill-11" fill="#271F23" mask="url(#mask-2)"></path>
            </g>
            <path d="M57.96888,79.4896 L57.96888,89.5384 C57.96888,89.5384 58.13368,97.4056 51.33368,99.2712 C51.33368,99.2712 80.89528,127.4384 84.00008,128.7384 C84.00008,128.7384 104.93368,113.6712 105.33368,100.204 L102.33368,97.204 L104.96888,80.5064" id="Fill-14" fill="#BCD4F9"></path>
            <path d="M69.12512,10.6052 C69.12512,10.6052 61.98272,12.7388 58.19152,25.1388 C54.40032,37.5388 56.13392,39.8476 55.86752,43.9596 C55.60032,48.0724 52.53312,53.2052 54.13312,63.4388 C55.73312,73.6724 56.33312,79.6708 63.70032,87.938 C71.06752,96.2052 72.27232,98.4724 80.60352,98.4724 C88.93312,98.4724 93.33312,97.0052 99.33312,89.0052 C105.33312,81.0052 109.33392,73.606 110.26752,64.2388 L111.06752,57.2716 C111.06752,57.2716 110.13392,56.0716 109.86752,51.6716 C109.60032,47.2716 109.33392,44.2292 109.33392,39.9508 C109.33392,35.6716 108.80032,30.3388 105.86752,27.8052 C102.93392,25.2716 88.80032,20.4724 83.06752,15.9388 C77.33392,11.4052 69.12512,10.6052 69.12512,10.6052" id="Fill-16" fill="#E3ECF8"></path>
            <path d="M87.33456,62.97472 L85.45696,63.23712 C85.36816,63.24992 85.27936,63.26192 85.19056,63.27472 C84.96096,63.30672 84.70416,63.54432 84.59296,63.73392 C84.46736,63.94912 84.41456,64.26432 84.49216,64.50512 C84.57056,64.74672 84.72016,64.98032 84.95136,65.10272 L85.19056,65.20352 C85.36736,65.25152 85.54496,65.25152 85.72176,65.20352 C86.34816,65.11552 86.97376,65.02752 87.59936,64.94032 C87.68816,64.92752 87.77696,64.91552 87.86576,64.90352 C88.09536,64.87072 88.35216,64.63312 88.46336,64.44352 C88.58896,64.22912 88.64256,63.91392 88.56416,63.67312 C88.48576,63.43072 88.33616,63.19712 88.10496,63.07552 L87.86576,62.97472 C87.68816,62.92672 87.51136,62.92672 87.33456,62.97472" id="Fill-18" fill="#BCD4F9"></path>
            <path d="M76.12672,62.7076 L74.98032,62.2996 C74.92592,62.2804 74.87072,62.2604 74.81552,62.2412 C74.68272,62.1996 74.54992,62.1932 74.41712,62.2236 C74.28352,62.2292 74.16032,62.2684 74.04512,62.342 C73.92912,62.4044 73.83552,62.4908 73.76512,62.5996 C73.67632,62.6956 73.61632,62.8092 73.58592,62.9396 C73.52752,63.1956 73.54032,63.4828 73.68672,63.71 C73.73872,63.778 73.79072,63.8452 73.84352,63.9124 C73.96752,64.0364 74.11472,64.1228 74.28432,64.17 C74.66592,64.306 75.04752,64.4412 75.42992,64.5772 C75.48512,64.5964 75.54032,64.6164 75.59552,64.6364 C75.72832,64.678 75.86112,64.6844 75.99392,64.654 C76.12672,64.6484 76.25072,64.6084 76.36592,64.5356 C76.48192,64.4724 76.57632,64.3868 76.64592,64.278 C76.73472,64.1812 76.79472,64.0676 76.82512,63.938 C76.88352,63.682 76.87152,63.394 76.72432,63.1668 C76.67232,63.0996 76.62032,63.0324 76.56832,62.9644 C76.44352,62.8412 76.29632,62.7556 76.12672,62.7076" id="Fill-20" fill="#BCD4F9"></path>
            <path d="M86.00016,63.9716 C86.00016,63.9716 83.20336,66.3044 80.60336,66.3044 C79.20336,66.3044 75.20576,63.2052 75.20576,63.2052" id="Stroke-22" stroke="#71748D" stroke-width="0.8" stroke-linecap="round" stroke-linejoin="round"></path>
            <path d="M87.41264,57.2716 C87.14144,55.0468 86.87104,52.8212 86.59984,50.5948 C86.43104,49.2108 86.26304,47.8252 86.09504,46.4412 C85.99984,45.666 85.72304,44.6292 85.86064,43.8748 C86.10224,42.5468 87.37104,41.442 88.50464,40.814 C89.63024,40.19 88.62304,38.462 87.49584,39.0876 C86.34464,39.7244 85.27264,40.6956 84.57344,41.8092 C83.77104,43.0884 83.83584,44.3148 83.99344,45.6052 L85.05984,54.3684 C85.17664,55.3364 85.29504,56.3036 85.41264,57.2716 C85.56544,58.5332 87.56784,58.5492 87.41264,57.2716" id="Fill-24" fill="#BCD4F9"></path>
            <path d="M66.93376,43.3716 C66.93376,42.9548 67.03936,42.5636 67.22496,42.222 C67.22496,42.222 71.49216,41.7844 71.71696,42.8852 C71.74976,43.042 71.76656,43.2044 71.76656,43.3716 C71.76656,44.0092 71.52016,44.5884 71.11696,45.0212 L67.27056,44.6028 C67.05616,44.2428 66.93376,43.8212 66.93376,43.3716" id="Fill-26" fill="#271F23"></path>
            <path d="M66.93376,43.3716 C66.93376,42.9548 67.03936,42.5636 67.22496,42.222 C67.22496,42.222 71.49216,41.7844 71.71696,42.8852 C71.74976,43.042 71.76656,43.2044 71.76656,43.3716 C71.76656,44.0092 71.52016,44.5884 71.11696,45.0212 L67.27056,44.6028 C67.05616,44.2428 66.93376,43.8212 66.93376,43.3716 Z" id="Stroke-28" stroke="#271F23" stroke-width="0.5"></path>
            <path d="M92.97824,43.6216 C92.97824,43.288 93.04544,42.9704 93.16784,42.6808 L97.76224,43.1352 C97.79424,43.292 97.81104,43.4544 97.81104,43.6216 C97.81104,44.0792 97.46224,44.8728 97.46224,44.8728 C95.39504,45.4048 93.32784,44.8744 93.32784,44.8744 C93.10624,44.5088 92.97824,44.08 92.97824,43.6216" id="Fill-30" fill="#271F23"></path>
            <path d="M92.97824,43.6216 C92.97824,43.288 93.04544,42.9704 93.16784,42.6808 L97.76224,43.1352 C97.79424,43.292 97.81104,43.4544 97.81104,43.6216 C97.81104,44.0792 97.46224,44.8728 97.46224,44.8728 C95.39504,45.4048 93.32784,44.8744 93.32784,44.8744 C93.10624,44.5088 92.97824,44.08 92.97824,43.6216 Z" id="Stroke-32" stroke="#271F23" stroke-width="0.5"></path>
            <path d="M63.70016,44.2216 C63.70016,44.2216 66.30016,42.2216 69.34976,42.2216 C72.40016,42.2216 74.55056,44.8712 74.55056,44.8712" id="Stroke-34" stroke="#271F23" stroke-width="0.8" stroke-linecap="round" stroke-linejoin="round"></path>
            <path d="M100.66736,45.02088 C100.66736,45.02088 98.12176,42.93768 95.39456,42.67128 C92.66736,42.40488 89.06736,44.87128 89.06736,44.87128" id="Stroke-36" stroke="#271F23" stroke-width="0.8" stroke-linecap="round" stroke-linejoin="round"></path>
            <path d="M87.20016,39.2716 C87.20016,39.2716 91.20016,36.4716 94.20016,36.2716 C97.20016,36.0716 100.70016,35.7716 102.70016,37.1716 C104.70016,38.5716 103.19936,41.2716 101.60016,40.4716 C100.00016,39.6716 98.80016,38.3436 96.60016,38.3572 C94.40016,38.3716 92.30016,38.3716 90.00016,39.3716 C87.70016,40.3716 86.41856,39.7796 87.20016,39.2716" id="Fill-38" fill="#271F23"></path>
            <path d="M87.20016,39.2716 C87.20016,39.2716 91.20016,36.4716 94.20016,36.2716 C97.20016,36.0716 100.70016,35.7716 102.70016,37.1716 C104.70016,38.5716 103.19936,41.2716 101.60016,40.4716 C100.00016,39.6716 98.80016,38.3436 96.60016,38.3572 C94.40016,38.3716 92.30016,38.3716 90.00016,39.3716 C87.70016,40.3716 86.41856,39.7796 87.20016,39.2716 Z" id="Stroke-40" stroke="#271F23" stroke-width="0.8"></path>
            <line x1="102.40016" y1="40.2716" x2="104.64016" y2="42.5116" id="Stroke-42" stroke="#271F23" stroke-width="0.8" stroke-linecap="round" stroke-linejoin="round"></line>
            <line x1="103.20016" y1="39.2216" x2="104.82496" y2="40.8464" id="Stroke-44" stroke="#271F23" stroke-width="0.8" stroke-linecap="round" stroke-linejoin="round"></line>
            <line x1="103.35328" y1="37.84976" x2="104.73728" y2="39.23376" id="Stroke-46" stroke="#271F23" stroke-width="0.8" stroke-linecap="round" stroke-linejoin="round"></line>
            <line x1="60.43136" y1="40.188" x2="58.19136" y2="42.428" id="Stroke-48" stroke="#271F23" stroke-width="0.8" stroke-linecap="round" stroke-linejoin="round"></line>
            <line x1="59.63136" y1="39.138" x2="58.00656" y2="40.7628" id="Stroke-50" stroke="#271F23" stroke-width="0.8" stroke-linecap="round" stroke-linejoin="round"></line>
            <line x1="59.47824" y1="37.76616" x2="58.09424" y2="39.15016" id="Stroke-52" stroke="#271F23" stroke-width="0.8" stroke-linecap="round" stroke-linejoin="round"></line>
            <path d="M59.47824,45.6216 L62.35024,46.0712 C62.35024,46.0712 61.65024,43.684 63.69984,42.428 C65.75024,41.172 70.59984,40.3624 72.35024,41.392" id="Stroke-54" stroke="#7EA3FF" stroke-width="0.8" stroke-linecap="round" stroke-linejoin="round"></path>
            <path d="M90.60016,42.2216 C90.60016,42.2216 93.05056,39.9936 97.40016,41.3072 C101.75056,42.6216 102.40016,45.8712 102.65056,46.6712 C102.90016,47.4712 105.20016,46.6712 105.20016,46.6712" id="Stroke-56" stroke="#7EA3FF" stroke-width="0.8" stroke-linecap="round" stroke-linejoin="round"></path>
            <path d="M66.93376,72.6716 C66.93376,72.6716 72.79216,79.0724 81.19616,78.5724 C89.60016,78.0724 94.00016,74.3724 94.20016,74.0716 C94.40016,73.7716 81.19616,73.2716 81.19616,73.2716 C81.19616,73.2716 68.06736,74.2724 66.93376,72.6716 Z" id="Stroke-58" stroke="#7EA3FF" stroke-width="0.8" stroke-linecap="round" stroke-linejoin="round"></path>
            <polygon id="Fill-60" fill="#271F23" points="91.40016 74.0724 91.40016 75.938 94.20016 74.0716"></polygon>
            <polygon id="Fill-62" fill="#271F23" points="70.47752 73.50368 70.47752 75.63648 67.79832 73.50368"></polygon>
            <path d="M72.95016,58.2716 C72.95016,58.2716 62.64536,65.37 62.72296,70.2212 C62.79976,75.0724 63.69976,74.0716 63.69976,74.0716" id="Stroke-64" stroke="#71748D" stroke-width="0.8" stroke-linecap="round" stroke-linejoin="round"></path>
            <line x1="84.78136" y1="86.62552" x2="78.38136" y2="86.62552" id="Stroke-66" stroke="#9DA5F7" stroke-width="0.8" stroke-linecap="round" stroke-linejoin="round"></line>
            <path d="M91.00016,60.2716 C91.00016,60.2716 96.20016,66.2716 97.40016,68.0716 C98.60016,69.8716 97.40016,75.0724 97.40016,75.0724" id="Stroke-68" stroke="#71748D" stroke-width="0.8" stroke-linecap="round" stroke-linejoin="round"></path>
            <path d="M73.89936,41.38176 C74.32896,41.58336 74.74896,41.80576 75.14416,42.07136 C75.23696,42.13376 75.32656,42.20016 75.41776,42.26576 C75.51616,42.33696 75.28016,42.14656 75.42016,42.27056 C75.46656,42.31216 75.51536,42.35056 75.56096,42.39216 C75.73856,42.54896 75.89936,42.71856 76.05376,42.89696 C76.16496,43.02416 76.03056,42.87056 76.03456,42.86736 C76.03696,42.86576 76.12976,43.00096 76.14096,43.01696 C76.20176,43.10816 76.25936,43.20256 76.31296,43.29856 C76.34256,43.35296 76.37056,43.40656 76.39776,43.46256 C76.48976,43.65136 76.38096,43.48416 76.40176,43.45776 C76.38416,43.47856 76.49856,43.72976 76.51056,43.76816 C76.54496,43.88576 76.56416,44.00416 76.59376,44.12176 C76.62656,44.25216 76.57696,43.87376 76.59216,44.10656 C76.59536,44.15536 76.60016,44.20256 76.60176,44.25056 C76.60416,44.30896 76.56176,44.56656 76.59296,44.61056 C76.57376,44.58256 76.63136,44.40416 76.60016,44.55936 C76.58496,44.63136 76.57056,44.70016 76.55216,44.77136 C76.42336,45.27776 76.71696,45.88016 77.25056,46.00176 C77.77056,46.12016 78.34256,45.84576 78.48096,45.30336 C78.78816,44.09536 78.46656,42.78496 77.71696,41.79936 C76.98576,40.83776 75.99376,40.16496 74.90896,39.65536 C74.43616,39.43296 73.80816,39.50656 73.54096,40.01376 C73.30656,40.45696 73.39376,41.14416 73.89936,41.38176" id="Fill-70" fill="#BCD4F9"></path>
            <path d="M75.63136,39.188 C75.63136,39.188 71.63136,36.388 68.63136,36.188 C65.63136,35.988 62.13136,35.688 60.13136,37.088 C58.13136,38.488 59.63216,41.188 61.23136,40.388 C62.83136,39.588 64.03136,38.26 66.23136,38.2736 C68.43136,38.288 70.53136,38.288 72.83136,39.288 C75.13136,40.288 76.41296,39.696 75.63136,39.188" id="Fill-72" fill="#271F23"></path>
            <path d="M75.63136,39.188 C75.63136,39.188 71.63136,36.388 68.63136,36.188 C65.63136,35.988 62.13136,35.688 60.13136,37.088 C58.13136,38.488 59.63216,41.188 61.23136,40.388 C62.83136,39.588 64.03136,38.26 66.23136,38.2736 C68.43136,38.288 70.53136,38.288 72.83136,39.288 C75.13136,40.288 76.41296,39.696 75.63136,39.188 Z" id="Stroke-74" stroke="#271F23" stroke-width="0.8"></path>
            <path d="M66.79704,49.60448 C67.82664,49.62128 68.85544,49.48208 69.87544,49.35488 C70.30824,49.29968 70.74104,49.24208 71.17544,49.20448 C71.33544,49.18928 71.49784,49.17728 71.65944,49.17808 C71.71064,49.17808 71.76904,49.19008 71.81864,49.18528 C71.53544,49.21728 71.54904,49.13408 71.64904,49.16448 C71.76664,49.19968 71.37304,49.03328 71.47704,49.08848 C71.93784,49.33488 72.58584,49.22048 72.84504,48.73008 C73.08984,48.26608 72.97944,47.62448 72.48584,47.36208 C72.13224,47.17328 71.73704,47.16368 71.34664,47.19008 C70.90104,47.22128 70.45704,47.28128 70.01384,47.33648 C68.94824,47.47008 67.87384,47.62208 66.79704,47.60448 C66.27384,47.59568 65.77384,48.07088 65.79704,48.60448 C65.82184,49.15408 66.23704,49.59488 66.79704,49.60448" id="Fill-76" fill="#BCD4F9"></path>
            <path d="M91.01736,48.72784 C92.49016,48.98384 93.94536,49.32944 95.37656,49.76064 C95.87736,49.91184 96.48936,49.57984 96.60616,49.06224 C96.73016,48.52304 96.44456,47.99424 95.90776,47.83264 C94.47736,47.40064 93.02216,47.05504 91.54936,46.79904 C91.03576,46.71024 90.44696,46.93664 90.31896,47.49744 C90.20856,47.98304 90.46696,48.63184 91.01736,48.72784" id="Fill-78" fill="#BCD4F9"></path>
            <path d="M47.14624,100.01616 C51.26384,103.93136 80.71104,131.86576 84.01104,133.24656 C84.01104,133.24656 107.00144,116.69936 108.34384,101.54576" id="Stroke-84" stroke="#7EA3FF" stroke-width="0.8" stroke-linecap="round" stroke-linejoin="round"></path>
        </g>
    </g>
</svg>