<?xml version="1.0" encoding="UTF-8"?>
<svg width="143px" height="139px" viewBox="0 0 143 139" version="1.1" xmlns="http://www.w3.org/2000/svg" xmlns:xlink="http://www.w3.org/1999/xlink">
    <title>Illustration / Daniele</title>
    <defs>
        <polygon id="path-1" points="0.000292740454 0.07016 142.1704 0.07016 142.1704 62.8695678 0.000292740454 62.8695678"></polygon>
    </defs>
    <g id="Illustration-/-Daniele" stroke="none" stroke-width="1" fill="none" fill-rule="evenodd">
        <g id="Daniele">
            <path d="M99.49912,38.49488 C99.82072,37.42848 102.02712,36.97808 103.05512,37.40688 C104.08312,37.83488 104.73032,38.89248 105.00552,39.97168 C105.63512,42.43168 104.66952,45.00528 103.52232,47.27248 C102.37592,49.53808 101.00232,51.78608 100.74312,54.31248 C100.62232,55.48768 100.74472,56.71888 100.28952,57.81008 C99.83672,58.90048 98.47752,59.75008 97.46952,59.13488" id="Fill-1" fill="#BCD4F9"></path>
            <path d="M98.21632,59.74176 C97.87472,59.74176 97.54832,59.65216 97.26112,59.47616 C97.07232,59.36096 97.01232,59.11456 97.12832,58.92576 C97.24272,58.73776 97.48832,58.67856 97.67792,58.79296 C98.02032,59.00336 98.38512,58.95216 98.63232,58.87136 C99.17312,58.69536 99.69152,58.20816 99.92032,57.65696 C100.21312,56.95376 100.24512,56.17456 100.27872,55.34896 C100.29392,54.98816 100.30832,54.62816 100.34432,54.27216 C100.57072,52.06816 101.60992,50.08016 102.61392,48.15856 C102.79952,47.80176 102.98592,47.44816 103.16592,47.09136 C104.16992,45.10576 105.24272,42.51296 104.61792,40.06976 C104.33472,38.96336 103.69392,38.10576 102.90112,37.77616 C102.34032,37.54016 101.29872,37.62896 100.57632,37.97136 C100.19952,38.14896 99.95232,38.37616 99.88192,38.60976 C99.81872,38.82176 99.59632,38.94176 99.38352,38.87696 C99.17152,38.81296 99.05232,38.59056 99.11632,38.37856 C99.25472,37.91936 99.64192,37.52816 100.23472,37.24816 C101.16432,36.80896 102.44272,36.71856 103.20912,37.03776 C104.24752,37.46976 105.04352,38.50256 105.39312,39.87136 C106.08432,42.57296 104.94672,45.34176 103.87952,47.45296 C103.69792,47.81136 103.51072,48.16896 103.32352,48.52816 C102.35392,50.38336 101.35152,52.30176 101.14032,54.35376 C101.10592,54.69296 101.09232,55.03776 101.07792,55.38176 C101.04272,56.24176 101.00592,57.12896 100.65872,57.96336 C100.34032,58.72896 99.64192,59.38496 98.87872,59.63216 C98.65632,59.70496 98.43312,59.74176 98.21632,59.74176" id="Fill-3" fill="#7EA3FF"></path>
            <g id="Group-7" transform="translate(0.000000, 74.161600)">
                <mask id="mask-2" fill="white">
                    <use xlink:href="#path-1"></use>
                </mask>
                <g id="Clip-6"></g>
                <path d="M98.77104,11.86296 C98.77104,14.51096 111.35824,21.00776 118.20864,22.24936 C142.98704,26.74536 149.39424,54.57976 133.45264,59.21096 C103.23344,67.98856 12.73024,58.28696 11.02224,57.73016 C-1.97616,53.48376 -0.28336,45.52136 0.58704,41.99656 C3.01984,32.14936 6.91024,28.33016 15.59744,24.84616 C19.91984,23.11336 24.63344,22.73896 29.13664,21.58376 C35.48384,19.95736 40.62224,17.51336 46.28704,14.38616 C46.98784,13.99816 54.32544,0.07016 54.32544,0.07016 L90.23024,0.13016 L98.77104,11.86296 Z" id="Fill-5" fill="#271F23" mask="url(#mask-2)"></path>
            </g>
            <path d="M71.20072,123.72688 C71.20072,108.72688 59.50872,101.92688 59.50872,101.92688 C49.07592,91.22528 50.59112,78.95968 50.59112,78.95968 L50.59112,74.56608 L91.15832,70.95968 L91.15832,78.95968 C91.15832,78.95968 93.10872,93.12688 82.24152,101.92688 C82.24152,101.92688 71.34952,108.72688 71.34952,123.72688" id="Fill-8" fill="#BCD4F9"></path>
            <path d="M71.44368,129.10816 C71.22288,129.10816 71.04368,128.92896 71.04368,128.70816 C71.04368,118.31696 63.64208,111.34656 59.75728,107.60096 L59.46048,107.31536 L59.21408,107.17456 C59.02288,107.06416 58.95648,106.82016 59.06608,106.62816 C59.17568,106.43536 59.42128,106.36896 59.61168,106.48016 L59.90048,106.64576 C59.92928,106.66176 59.95648,106.68176 59.98048,106.70496 L60.31248,107.02496 C64.28288,110.85296 71.84368,117.97696 71.84368,128.70816 C71.84368,128.92896 71.66448,129.10816 71.44368,129.10816" id="Fill-10" fill="#7EA3FF"></path>
            <path d="M72.78432,138.69176 C72.60352,138.69176 72.44032,138.56856 72.39632,138.38536 C70.52272,130.64776 67.98512,112.04456 84.84992,106.44216 C84.99872,106.39336 85.10112,106.36136 85.14912,106.33896 C85.33792,106.22296 85.57472,106.29016 85.68992,106.47896 C85.80352,106.66856 85.73392,106.91896 85.54432,107.03336 C85.46592,107.08136 85.35952,107.11576 85.10192,107.20216 C68.86752,112.59496 71.35232,130.67496 73.17312,138.19656 C73.22592,138.41096 73.09392,138.62856 72.87872,138.67976 C72.84752,138.68776 72.81552,138.69176 72.78432,138.69176" id="Fill-12" fill="#7EA3FF"></path>
            <path d="M40.7288,39.1144 C40.7448,38.1952 39.3728,37.4864 38.4536,37.5184 C37.1456,37.5616 36.3432,39.3504 36.3503519,40.1448 C36.4072,45.616 40.3728,50.3288 41.152,55.7456 C41.2784,56.6256 41.3368,57.564 41.8488,58.292 C42.3616,59.016 43.5432,59.3536 44.132,58.6864" id="Fill-14" fill="#BCD4F9"></path>
            <path d="M43.28512,59.44568 C43.25152,59.44568 43.21872,59.44488 43.18512,59.44248 C42.54592,59.40808 41.89392,59.04648 41.52272,58.52248 C41.02272,57.81368 40.91232,56.97448 40.80432,56.16248 L40.75632,55.80248 C40.41152,53.40888 39.40512,51.09768 38.43312,48.86168 C37.22832,46.09288 35.98192,43.22968 35.9506365,40.14808 C35.94032,39.13608 36.90192,37.16888 38.44032,37.11848 C39.17072,37.08568 40.06672,37.44488 40.60432,37.97448 C40.95472,38.31848 41.13552,38.71448 41.12912,39.12168 C41.12512,39.34168 40.95072,39.51128 40.72192,39.51448 C40.50112,39.51128 40.32512,39.32888 40.32912,39.10808 C40.33312,38.87688 40.17552,38.67448 40.04352,38.54488 C39.66272,38.16888 38.98032,37.89928 38.46752,37.91848 C37.42192,37.95208 36.74432,39.51608 36.75072,40.14008 C36.78032,43.05928 37.93872,45.72248 39.16672,48.54168 C40.16032,50.82648 41.18832,53.18888 41.54832,55.68888 L41.59872,56.05848 C41.69712,56.80648 41.79072,57.51368 42.17552,58.06168 C42.40672,58.38808 42.83072,58.62248 43.22832,58.64488 C43.40752,58.65128 43.65472,58.62168 43.83232,58.42168 C43.97872,58.25688 44.23152,58.24168 44.39712,58.38648 C44.56272,58.53208 44.57792,58.78568 44.43232,58.95128 C44.14832,59.27208 43.74352,59.44568 43.28512,59.44568" id="Fill-16" fill="#7EA3FF"></path>
            <path d="M80.42416,2.14488 C94.10816,7.38648 100.58976,19.56168 101.33056,33.91928 C101.44896,36.22488 100.08656,44.97128 99.78976,46.96808 C98.77696,53.77208 97.72736,60.54888 95.20816,66.60808 C87.89936,84.18488 74.15376,95.72728 59.66016,84.38328 C45.09456,72.98328 45.01936,62.78808 42.14016,48.72248 C40.60256,41.21848 39.28816,33.91928 39.95856,28.14808 C42.25376,8.37688 62.87296,-4.58072 80.42416,2.14488" id="Fill-18" fill="#E3ECF8"></path>
            <path d="M72.61008,39.25968 C72.87648,42.05968 73.14288,44.85888 73.40928,47.65888 C73.53008,48.93248 73.72288,50.00368 74.15008,51.24048 C74.74848,52.97008 78.99968,54.89168 75.62288,56.46688 C74.45488,57.01088 75.47088,58.73568 76.63168,58.19328 C77.95808,57.57568 79.03248,56.07008 78.92688,54.52688 C78.74528,51.86128 75.80288,51.79488 75.53648,48.99648 C75.22768,45.75088 74.91888,42.50528 74.61008,39.25968 C74.48928,37.98768 72.48848,37.97568 72.61008,39.25968" id="Fill-20" fill="#BCD4F9"></path>
            <path d="M83.60072,35.78312 C81.76152,35.78312 75.76152,36.23032 75.76152,41.97832 C75.76152,46.30072 79.27832,49.81832 83.60072,49.81832 C87.92312,49.81832 91.43992,46.30072 91.43992,41.97832 C91.43992,36.23032 85.43992,35.78312 83.60072,35.78312 M83.60072,51.41832 C78.39592,51.41832 74.16152,47.18312 74.16152,41.97832 C74.16152,37.16952 77.77832,34.18312 83.60072,34.18312 C89.42232,34.18312 93.03992,37.16952 93.03992,41.97832 C93.03992,47.18312 88.80552,51.41832 83.60072,51.41832" id="Fill-22" fill="#271F23"></path>
            <polygon id="Fill-24" fill="#271F23" points="74.63432 39.90584 73.26952 38.31864 70.55832 38.31864 70.55832 36.71864 74.00392 36.71864 75.84792 38.86344"></polygon>
            <polygon id="Fill-26" fill="#271F23" points="66.83192 39.90584 65.61832 38.86344 67.46312 36.71864 70.90872 36.71864 70.90872 38.31864 68.19752 38.31864"></polygon>
            <path d="M90.34056,36.36208 C90.35896,36.38608 90.37576,36.41008 90.39096,36.43248 C90.42216,36.47488 90.45016,36.51408 90.47336,36.53568 C90.54456,36.60048 90.68776,36.58768 90.91256,36.56208 C91.03576,36.54768 91.16936,36.53808 91.30136,36.53648 C91.21976,36.52208 91.13496,36.50848 91.05016,36.49488 L90.89016,36.46848 C90.70616,36.43648 90.52376,36.40128 90.34056,36.36208 M91.65256,36.60928 C91.65736,36.61168 91.66136,36.61248 91.66536,36.61408 C92.16856,36.83328 92.26456,37.41648 92.32776,37.80368 C92.35976,37.99888 92.35576,38.20048 92.33576,38.40288 C92.56296,38.07888 92.78456,37.73328 92.74776,37.49808 C92.69496,37.15008 92.37656,36.88848 92.09496,36.75888 C91.95576,36.69488 91.80696,36.64768 91.65256,36.60928 M92.00216,40.36128 C91.89096,40.36128 91.78536,40.29968 91.73336,40.19488 C91.71016,40.14768 91.69176,40.10128 91.67816,40.05488 C91.54456,39.64528 91.61416,39.20048 91.68056,38.76848 C91.72936,38.45008 91.77656,38.14928 91.73576,37.90048 C91.67976,37.55888 91.61416,37.24608 91.42616,37.16448 C91.31976,37.11808 91.15656,37.13648 90.98376,37.15808 C90.70216,37.19008 90.35176,37.23248 90.07176,36.98128 C89.99896,36.91488 89.94776,36.84368 89.90216,36.77968 C89.87736,36.74528 89.83816,36.68928 89.82136,36.67888 C89.82056,36.68128 89.77256,36.69328 89.74136,36.70048 C89.68856,36.71248 89.63416,36.72448 89.58136,36.73008 C89.40376,36.74368 89.21656,36.67728 89.10536,36.54848 C89.01256,36.44208 88.97896,36.30288 89.01336,36.16928 C89.02616,36.11488 89.05416,36.06928 89.09016,36.03248 C88.88616,35.96848 88.68376,35.89968 88.48376,35.82608 C88.32696,35.76848 88.24776,35.59648 88.30456,35.44208 C88.36136,35.28448 88.53416,35.20528 88.69016,35.26208 C89.43576,35.53648 90.20936,35.74288 90.99016,35.87728 L91.14696,35.90288 C91.54616,35.96848 91.95736,36.03488 92.34616,36.21328 C92.89416,36.46688 93.26616,36.91248 93.34056,37.40848 C93.41896,37.91248 93.07096,38.40528 92.73416,38.87888 C92.47736,39.24048 92.18856,39.64768 92.25656,39.88848 C92.26136,39.90608 92.26856,39.92208 92.27576,39.93888 C92.34296,40.08768 92.27816,40.26288 92.12936,40.33248 C92.08856,40.35168 92.04536,40.36128 92.00216,40.36128" id="Fill-28" fill="#271F23"></path>
            <path d="M92.51632,42.72456 C92.70512,41.89576 92.50512,41.03496 92.49152,40.18616 C92.47712,39.39816 92.62752,38.60536 92.92912,37.87496 C93.06512,37.54536 93.23312,37.21896 93.26512,36.86456 C93.29792,36.50776 93.15232,36.10536 92.82272,35.96856 C92.66512,35.90216 92.48832,35.90536 92.31792,35.90696 C90.86512,35.91816 89.40992,35.75816 87.99472,35.42856 C87.99472,35.42856 90.81952,36.81256 91.37072,38.30056 C91.92432,39.78776 92.51632,42.72456 92.51632,42.72456" id="Fill-30" fill="#271F23"></path>
            <path d="M92.9984,42.85656 C93.1488,41.79976 92.9776,40.77416 93.0024,39.71256 C93.0296,38.57256 93.8216,37.63496 93.7384,36.50536 C93.7032,36.03496 93.3024,35.52536 92.8224,35.46856 C91.244,35.27656 89.6992,35.28776 88.1272,34.94616 C87.5968,34.83176 87.2128,35.59576 87.7424,35.86136 C88.9896,36.48216 90.508,37.35176 90.9928,38.72856 C91.4632,40.05976 91.7528,41.47416 92.0344,42.85656 C92.1624,43.48856 93.1264,43.22136 92.9984,42.59176 C92.672,40.98776 92.368,39.27896 91.6824,37.78776 C91.104,36.52536 89.4352,35.58936 88.2472,34.99656 C88.1184,35.30136 87.9896,35.60616 87.8616,35.91096 C88.6184,36.07496 89.3744,36.19896 90.1424,36.29576 C91.1272,36.41816 93.1864,36.00616 92.4968,37.62296 C91.78,39.30616 92.2816,40.85976 92.0344,42.59176 C91.9448,43.22136 92.908,43.49336 92.9984,42.85656" id="Fill-32" fill="#271F23"></path>
            <path d="M74.99912,63.6128 C74.91832,63.6128 74.83832,63.5816 74.77912,63.5168 C73.90632,62.5752 73.17832,61.5112 72.61512,60.352 C72.54312,60.2024 72.60472,60.0232 72.75352,59.9512 C72.90392,59.876 73.08232,59.94 73.15432,60.0896 C73.69192,61.1952 74.38632,62.2112 75.21832,63.1088 C75.33192,63.2312 75.32392,63.42 75.20312,63.5328 C75.14552,63.5864 75.07192,63.6128 74.99912,63.6128" id="Fill-34" fill="#A7ABC4"></path>
            <path d="M79.16168,64.45192 C79.08808,64.45192 79.01448,64.42552 78.95688,64.37112 C77.50648,63.02232 76.24888,61.47832 75.22168,59.78232 C75.13608,59.64152 75.18088,59.45592 75.32328,59.37112 C75.46408,59.28312 75.64888,59.33032 75.73528,59.47112 C76.73368,61.11992 77.95528,62.62152 79.36568,63.93272 C79.48728,64.04472 79.49368,64.23512 79.38088,64.35672 C79.32168,64.41992 79.24248,64.45192 79.16168,64.45192" id="Fill-36" fill="#A7ABC4"></path>
            <path d="M81.70856,64.00344 C81.63256,64.00344 81.55816,63.97544 81.49896,63.91864 C80.35896,62.81144 79.27256,61.62824 78.26936,60.40104 C78.16456,60.27304 78.18456,60.08504 78.31256,59.97944 C78.44056,59.87304 78.62936,59.89224 78.73416,60.02104 C79.72296,61.23144 80.79336,62.39784 81.91736,63.48824 C82.03576,63.60344 82.03896,63.79304 81.92376,63.91304 C81.86456,63.97304 81.78696,64.00344 81.70856,64.00344" id="Fill-38" fill="#A7ABC4"></path>
            <path d="M85.79136,65.32144 C85.72176,65.32144 85.65216,65.29664 85.59536,65.24784 C84.46576,64.27584 83.37536,63.23024 82.35776,62.13824 C82.24416,62.01664 82.25136,61.82704 82.37296,61.71344 C82.49376,61.60064 82.68256,61.60624 82.79696,61.72864 C83.80016,62.80464 84.87376,63.83584 85.98656,64.79344 C86.11216,64.90144 86.12656,65.09184 86.01856,65.21584 C85.95936,65.28544 85.87536,65.32144 85.79136,65.32144" id="Fill-40" fill="#A7ABC4"></path>
            <path d="M67.35696,63.6128 C67.28336,63.6128 67.21056,63.5864 67.15296,63.5328 C67.03136,63.42 67.02416,63.2312 67.13696,63.1088 C67.97056,62.2096 68.66416,61.1952 69.19936,60.0896 C69.27296,59.9416 69.45136,59.8792 69.60016,59.9504 C69.74896,60.0232 69.81136,60.2024 69.73936,60.352 C69.17776,61.5088 68.45056,62.5744 67.57616,63.5168 C67.51776,63.5816 67.43776,63.6128 67.35696,63.6128" id="Fill-42" fill="#A7ABC4"></path>
            <path d="M63.19448,64.45192 C63.11368,64.45192 63.03368,64.41992 62.97528,64.35672 C62.86168,64.23512 62.86888,64.04472 62.98968,63.93272 C64.40088,62.62152 65.62168,61.11992 66.62008,59.47112 C66.70648,59.33192 66.89128,59.28312 67.03288,59.37112 C67.17448,59.45592 67.21928,59.64152 67.13368,59.78232 C66.10648,61.47832 64.84968,63.02232 63.39848,64.37112 C63.34088,64.42552 63.26728,64.45192 63.19448,64.45192" id="Fill-44" fill="#A7ABC4"></path>
            <path d="M60.6476,64.00344 C60.5692,64.00344 60.4916,63.97304 60.4316,63.91304 C60.3172,63.79304 60.3196,63.60344 60.438,63.48824 C61.562,62.39784 62.6324,61.23144 63.6212,60.02104 C63.7268,59.89224 63.9156,59.87304 64.0436,59.97944 C64.1716,60.08504 64.1908,60.27304 64.086,60.40104 C63.0828,61.62824 61.9972,62.81144 60.8564,63.91864 C60.798,63.97544 60.7228,64.00344 60.6476,64.00344" id="Fill-46" fill="#A7ABC4"></path>
            <path d="M56.5648,65.32144 C56.4808,65.32144 56.3968,65.28544 56.3376,65.21584 C56.2288,65.09184 56.244,64.90144 56.3688,64.79344 C57.4824,63.83584 58.556,62.80464 59.5592,61.72864 C59.6728,61.60624 59.8624,61.60064 59.9832,61.71344 C60.1048,61.82704 60.1112,62.01664 59.9984,62.13824 C58.98,63.23024 57.8904,64.27584 56.76,65.24784 C56.704,65.29664 56.6344,65.32144 56.5648,65.32144" id="Fill-48" fill="#A7ABC4"></path>
            <path d="M56.79912,69.2144 C56.69192,69.2144 56.58792,69.1568 56.53432,69.0552 C55.90392,67.868 56.08072,66.3304 56.96312,65.316 C57.07272,65.192 57.26152,65.1784 57.38632,65.2864 C57.51192,65.396 57.52472,65.5848 57.41592,65.7096 C56.70392,66.5288 56.55592,67.8168 57.06392,68.7744 C57.14152,68.92 57.08552,69.1016 56.93992,69.1792 C56.89432,69.2032 56.84712,69.2144 56.79912,69.2144" id="Fill-50" fill="#A7ABC4"></path>
            <path d="M87.3804,67.4144 C87.3612,67.4144 87.3404,67.4128 87.3204,67.408 C87.158,67.3752 87.0532,67.2168 87.0868,67.0552 C87.2636,66.1904 87.122,65.252 86.6972,64.4816 C86.6172,64.3352 86.67,64.1536 86.8156,64.0744 C86.9596,63.992 87.1428,64.0464 87.2228,64.192 C87.7148,65.0856 87.8796,66.1728 87.674,67.1744 C87.6452,67.3168 87.5204,67.4144 87.3804,67.4144" id="Fill-52" fill="#A7ABC4"></path>
            <path d="M69.18352,75.41912 C69.08032,75.41912 68.97952,75.36632 68.92432,75.26952 C68.23392,74.08312 68.09472,72.88792 68.50992,71.71592 C68.56592,71.55992 68.73632,71.47832 68.89312,71.53352 C69.04912,71.58872 69.13152,71.75992 69.07552,71.91592 C68.71712,72.92872 68.83632,73.92712 69.44272,74.96872 C69.52592,75.11112 69.47712,75.29512 69.33392,75.37832 C69.28672,75.40552 69.23472,75.41912 69.18352,75.41912" id="Fill-54" fill="#A7ABC4"></path>
            <path d="M73.63744,75.71832 C73.58704,75.71832 73.53424,75.70472 73.48784,75.67672 C73.34384,75.59352 73.29504,75.40952 73.37904,75.26712 C73.98464,74.22552 74.10464,73.22632 73.74624,72.21272 C73.69024,72.05672 73.77264,71.88552 73.92864,71.83032 C74.08704,71.77432 74.25584,71.85672 74.31184,72.01272 C74.72624,73.18552 74.58704,74.38152 73.89744,75.56872 C73.84144,75.66472 73.74144,75.71832 73.63744,75.71832" id="Fill-56" fill="#A7ABC4"></path>
            <path d="M71.70536,75.4144 C71.57576,75.4144 71.45576,75.3304 71.41816,75.1992 C71.14696,74.288 71.03736,73.3456 71.09416,72.3992 C71.10536,72.2344 71.25576,72.0984 71.41256,72.1184 C71.57816,72.1288 71.70376,72.2696 71.69336,72.4352 C71.64056,73.312 71.74136,74.1848 71.99256,75.0296 C72.03976,75.188 71.95016,75.3552 71.79016,75.4016 C71.76216,75.4112 71.73336,75.4144 71.70536,75.4144" id="Fill-58" fill="#A7ABC4"></path>
            <path d="M80.68976,33.13472 C80.68976,32.49552 83.97136,32.39792 84.93536,32.18192 C86.42896,31.84912 88.04256,31.52432 89.44416,32.14192 C89.93696,32.35632 90.39616,32.70512 90.60976,33.19872 C87.30816,32.95632 83.99296,32.93472 80.68976,33.13472" id="Fill-60" fill="#271F23"></path>
            <path d="M81.17184,33.26832 C81.32544,32.88512 83.81504,32.83792 84.34624,32.77552 C86.16464,32.55952 88.87104,31.42672 90.17824,33.45152 C90.32224,33.20032 90.46624,32.94992 90.61024,32.69872 C87.30224,32.47312 83.99984,32.45152 80.68944,32.63472 C80.04864,32.66992 80.04544,33.67152 80.68944,33.63472 C83.99984,33.45152 87.30224,33.47312 90.61024,33.69872 C90.98384,33.72432 91.23984,33.25312 91.04224,32.94672 C89.57904,30.68192 86.78704,31.33472 84.54144,31.74832 C83.39344,31.95792 80.74704,31.66352 80.20784,33.00192 C79.96624,33.60032 80.93424,33.85792 81.17184,33.26832" id="Fill-62" fill="#271F23"></path>
            <path d="M57.82728,35.78312 C55.98808,35.78312 49.98808,36.23032 49.98808,41.97832 C49.98808,46.30072 53.50488,49.81832 57.82728,49.81832 C62.14968,49.81832 65.66648,46.30072 65.66648,41.97832 C65.66648,36.23032 59.66648,35.78312 57.82728,35.78312 M57.82728,51.41832 C52.62248,51.41832 48.38808,47.18312 48.38808,41.97832 C48.38808,37.16952 52.00488,34.18312 57.82728,34.18312 C63.64888,34.18312 67.26648,37.16952 67.26648,41.97832 C67.26648,47.18312 63.03208,51.41832 57.82728,51.41832" id="Fill-64" fill="#271F23"></path>
            <path d="M50.17728,36.53552 C50.29408,36.53552 50.40768,36.54992 50.51488,36.56192 C50.73968,36.58752 50.88128,36.60112 50.95488,36.53472 C50.97728,36.51472 51.00608,36.47472 51.03568,36.43232 C51.05168,36.40992 51.06848,36.38592 51.08688,36.36192 C50.90448,36.40112 50.72208,36.43632 50.53888,36.46832 L50.37408,36.49472 C50.29088,36.50912 50.20768,36.52192 50.12688,36.53632 C50.14368,36.53632 50.16048,36.53552 50.17728,36.53552 M49.77408,36.60912 C49.62048,36.64832 49.47248,36.69472 49.33168,36.75872 C49.05168,36.88832 48.73168,37.15072 48.67968,37.49632 C48.63888,37.76672 48.84528,38.17152 49.05568,38.56832 C49.05568,38.29472 49.06128,38.03632 49.09968,37.80352 C49.16288,37.41872 49.25888,36.83472 49.76128,36.61472 C49.76608,36.61312 49.77008,36.61152 49.77408,36.60912 M49.18768,40.53792 C49.14448,40.53792 49.10128,40.52832 49.06048,40.50912 C48.91248,40.43952 48.84768,40.26432 48.91408,40.11552 C48.92288,40.09632 48.93008,40.07872 48.93728,40.05792 C49.02128,39.78512 48.77168,39.31552 48.55088,38.89792 C48.28768,38.39952 48.01408,37.88512 48.08688,37.40672 C48.16048,36.91312 48.53248,36.46672 49.08128,36.21392 C49.46848,36.03552 49.87968,35.96832 50.27728,35.90272 L50.43808,35.87632 C51.21808,35.74272 51.99248,35.53632 52.73808,35.26192 C52.89408,35.20592 53.06528,35.28512 53.12288,35.44192 C53.17968,35.59632 53.09968,35.76832 52.94448,35.82592 C52.74448,35.89952 52.54208,35.96832 52.33808,36.03232 C52.37328,36.06832 52.39968,36.11312 52.41408,36.16512 C52.45008,36.29952 52.41728,36.43872 52.32528,36.54672 C52.21408,36.67712 52.02448,36.74352 51.84768,36.72992 C51.79408,36.72432 51.73968,36.71312 51.68688,36.70032 C51.65568,36.69312 51.61408,36.66992 51.59168,36.68352 C51.58928,36.68912 51.55088,36.74512 51.52528,36.78032 C51.47968,36.84352 51.42848,36.91552 51.35648,36.98192 C51.07568,37.23232 50.72688,37.19152 50.44448,37.15792 C50.27328,37.13792 50.10848,37.11872 50.00128,37.16432 C49.81328,37.24672 49.74768,37.55952 49.69248,37.90032 C49.65248,38.14272 49.65408,38.44992 49.65648,38.77552 C49.65888,39.28512 49.66128,39.80912 49.51168,40.23632 C49.49648,40.28192 49.47888,40.32672 49.45648,40.37152 C49.40368,40.47712 49.29808,40.53792 49.18768,40.53792" id="Fill-66" fill="#271F23"></path>
            <path d="M53.43352,35.42848 C54.82872,35.02208 50.56312,35.91808 49.11032,35.90688 C48.93992,35.90528 48.76312,35.90208 48.60552,35.96848 C48.27592,36.10528 48.13032,36.50848 48.16312,36.86448 C48.19592,37.21888 48.36472,37.54528 48.50072,37.87568 C48.80072,38.60528 48.95032,39.39808 48.93672,40.18608 C48.92232,41.03488 48.72392,41.89568 48.91192,42.72448 C48.91192,42.72448 48.63832,36.82848 53.43352,35.42848" id="Fill-68" fill="#271F23"></path>
            <path d="M53.56632,35.91128 C53.70072,35.86968 53.83912,35.83208 53.96152,35.76248 C54.26952,35.58968 54.30552,35.06168 53.96152,34.89928 C53.51272,34.68648 52.80232,34.94168 52.34552,35.01528 C51.09912,35.21448 49.85352,35.31688 48.60552,35.46808 C47.69672,35.57688 47.61032,36.65368 47.75272,37.34488 C47.95912,38.33928 48.41192,39.11608 48.43672,40.18648 C48.45752,41.09528 48.30072,41.94648 48.42952,42.85688 C48.50952,43.41928 49.43352,43.27928 49.41192,42.72488 C49.29752,39.83128 50.68312,36.84328 53.56632,35.91128 C54.17752,35.71288 53.91592,34.74808 53.30072,34.94648 C49.99592,36.01528 48.27912,39.36328 48.41192,42.72488 C48.73912,42.67928 49.06632,42.63528 49.39352,42.59208 C49.20712,41.26888 49.52072,39.97208 49.27032,38.64488 C49.16712,38.10008 48.90952,37.59208 48.71672,37.07848 C48.42392,36.29288 49.48552,36.39528 49.80392,36.36968 C50.55032,36.30888 51.29592,36.18568 52.03672,36.07128 C52.39512,36.01528 52.75352,35.95688 53.11192,35.89928 C53.30472,35.86808 53.79592,35.92488 53.45672,35.76248 L53.45672,34.89928 C53.40392,34.91128 53.35112,34.92648 53.30072,34.94648 C52.68472,35.13288 52.94792,36.09848 53.56632,35.91128" id="Fill-70" fill="#271F23"></path>
            <path d="M60.73824,33.13472 C59.77584,32.91872 55.53184,31.96592 56.49424,32.18192 C56.58544,32.20192 53.92144,31.28592 51.98384,32.14192 C51.49264,32.35632 51.03184,33.50512 50.81984,33.99872 C54.11984,33.75632 57.43504,32.93472 60.73824,33.13472" id="Fill-72" fill="#271F23"></path>
            <path d="M60.87104,32.65264 C59.41104,32.32544 57.95024,31.99824 56.48944,31.66944 C56.40144,31.99024 56.31264,32.31104 56.22384,32.63344 C56.27024,32.64304 56.31584,32.65344 56.36144,32.66384 C57.00064,32.80624 57.22224,31.92624 56.62704,31.69984 C55.53024,31.28144 54.24064,31.22864 53.09104,31.33504 C51.49904,31.47984 50.97824,32.37184 50.38784,33.74624 C50.25424,34.05824 50.39824,34.53504 50.81984,34.49904 C54.13264,34.21424 57.39904,33.50864 60.73824,33.63504 C61.38384,33.65904 61.38144,32.65904 60.73824,32.63504 C57.39664,32.50864 54.13504,33.21344 50.81984,33.49904 C50.96304,33.74944 51.10704,34.00064 51.25184,34.25104 C51.87424,32.80144 52.55104,32.28464 54.21824,32.28144 C54.91904,32.27904 55.70064,32.41104 56.36144,32.66384 C56.45024,32.34224 56.53904,32.02144 56.62704,31.69984 C56.58224,31.68944 56.53584,31.67824 56.48944,31.66944 C55.86144,31.53024 55.59424,32.49184 56.22384,32.63344 C57.68464,32.96304 59.14464,33.28944 60.60544,33.61664 C61.23344,33.75824 61.49984,32.79344 60.87104,32.65264" id="Fill-74" fill="#271F23"></path>
            <path d="M69.35304,67.698 C68.55224,67.698 67.75224,67.6772 66.95464,67.6292 C64.72504,67.498 62.48984,67.1548 60.31144,66.6084 C60.15144,66.5684 60.05384,66.4052 60.09384,66.2452 C60.13464,66.0844 60.29624,65.9852 60.45784,66.0268 C62.60024,66.5628 64.79784,66.9012 66.98984,67.0316 C70.73944,67.2548 74.55784,66.8796 78.25064,66.518 C79.99624,66.3452 81.80184,66.1668 83.49864,65.6436 C83.65624,65.5948 83.82504,65.6828 83.87304,65.842 C83.92184,65.9996 83.83384,66.1684 83.67464,66.2164 C81.92024,66.758 80.08504,66.9396 78.30984,67.1148 C75.37464,67.4028 72.36024,67.698 69.35304,67.698" id="Fill-76" fill="#7EA3FF"></path>
            <path d="M67.21864,58.05192 C67.16584,58.05192 67.11064,58.03752 67.06184,58.00792 C66.72584,57.80072 66.33944,57.66872 65.94424,57.62872 C65.77944,57.61112 65.66024,57.46472 65.67704,57.29992 C65.69464,57.13512 65.83784,57.02152 66.00584,57.03192 C66.49064,57.08152 66.96504,57.24232 67.37624,57.49672 C67.51784,57.58312 67.56184,57.76872 67.47464,57.90952 C67.41784,58.00152 67.31944,58.05192 67.21864,58.05192" id="Fill-78" fill="#71748D"></path>
            <path d="M73.68824,58.45192 C73.60104,58.45192 73.51304,58.41352 73.45464,58.33992 C73.35064,58.21112 73.37144,58.02232 73.50024,57.91832 C74.29704,57.27672 75.25304,56.85672 76.26504,56.70152 C76.43464,56.67672 76.58104,56.79032 76.60584,56.95352 C76.63144,57.11832 76.51864,57.27112 76.35544,57.29592 C75.44744,57.43352 74.59064,57.81112 73.87624,58.38552 C73.82104,58.43032 73.75384,58.45192 73.68824,58.45192" id="Fill-80" fill="#71748D"></path>
            <path d="M83.33192,66.37536 C83.31832,66.37536 83.30552,66.37456 83.29192,66.37296 C83.21752,66.36256 83.15272,66.32576 83.10712,66.27456 L83.03272,66.26096 C82.86952,66.23296 82.75912,66.07856 82.78712,65.91536 C82.81512,65.75216 82.97272,65.64016 83.13432,65.67136 L83.14792,65.67216 C83.19752,65.57616 83.26872,65.48016 83.36872,65.40976 C83.49112,65.32336 83.63832,65.29216 83.78472,65.32496 C83.99512,65.36976 84.15032,65.55616 84.17112,65.78816 C84.19112,66.01936 84.07112,66.22896 83.87192,66.31136 C83.72232,66.37296 83.57432,66.35136 83.48072,66.33536 C83.43672,66.36096 83.38552,66.37536 83.33192,66.37536" id="Fill-82" fill="#7EA3FF"></path>
            <path d="M59.90928,66.66208 C59.69168,66.66208 59.52448,66.56368 59.44848,66.39168 C59.37728,66.22848 59.41168,66.04768 59.53728,65.91648 C59.68928,65.75968 59.94688,65.70208 60.14608,65.77968 C60.26608,65.82848 60.35808,65.90048 60.43088,65.95888 C60.47888,65.99808 60.52368,66.03328 60.55808,66.04768 C60.71008,66.11168 60.78208,66.28768 60.71808,66.44048 C60.66528,66.56368 60.54048,66.63568 60.41568,66.62288 C60.35248,66.62688 60.28768,66.61328 60.22928,66.57728 C60.25408,66.59328 60.20048,66.61168 60.16528,66.62128 C60.07408,66.64848 59.98848,66.66208 59.90928,66.66208" id="Fill-84" fill="#7EA3FF"></path>
            <path d="M49.44448,37.51832 C50.08928,37.51832 50.08928,36.51832 49.44448,36.51832 C48.79968,36.51832 48.79968,37.51832 49.44448,37.51832" id="Fill-86" fill="#FFFFFF"></path>
            <path d="M91.94448,37.51832 C92.58928,37.51832 92.58928,36.51832 91.94448,36.51832 C91.29968,36.51832 91.29968,37.51832 91.94448,37.51832" id="Fill-88" fill="#FFFFFF"></path>
            <path d="M93.95072,121.50968 C93.81152,121.50968 93.68112,121.43768 93.60752,121.31608 L84.99552,107.03288 C84.88112,106.84488 84.94192,106.59848 85.13152,106.48488 C85.32112,106.36968 85.56672,106.42968 85.68032,106.62168 L93.83232,120.13848 L98.32832,105.60888 C98.39312,105.39768 98.61712,105.27848 98.82832,105.34488 C99.03872,105.40968 99.15712,105.63448 99.09232,105.84488 L94.33312,121.22808 C94.28592,121.37848 94.15552,121.48808 93.99952,121.50648 C93.98272,121.50888 93.96672,121.50968 93.95072,121.50968" id="Fill-90" fill="#7EA3FF"></path>
            <path d="M50.79912,121.50968 C50.78232,121.50968 50.76712,121.50888 50.75032,121.50648 C50.59352,121.48808 50.46312,121.37848 50.41672,121.22808 L45.65912,105.84488 C45.59352,105.63448 45.71192,105.40968 45.92232,105.34488 C46.13512,105.27848 46.35832,105.39768 46.42312,105.60888 L50.91672,120.13848 L59.07032,106.62168 C59.18392,106.42968 59.42952,106.36968 59.61912,106.48488 C59.80872,106.59848 59.86952,106.84488 59.75512,107.03288 L51.14152,121.31608 C51.06872,121.43768 50.93832,121.50968 50.79912,121.50968" id="Fill-92" fill="#7EA3FF"></path>
            <path d="M50.93352,76.49488 C50.76792,76.49488 50.63352,76.35968 50.63352,76.19488 L50.63352,72.59488 C50.63352,72.42848 50.76792,72.29488 50.93352,72.29488 C51.09912,72.29488 51.23352,72.42848 51.23352,72.59488 L51.23352,76.19488 C51.23352,76.35968 51.09912,76.49488 50.93352,76.49488" id="Fill-94" fill="#A7ABC4"></path>
            <path d="M53.97568,81.32688 C53.81008,81.32688 53.67568,81.19248 53.67568,81.02688 L53.67568,73.76608 C53.67568,73.60048 53.81008,73.46608 53.97568,73.46608 C54.14128,73.46608 54.27568,73.60048 54.27568,73.76608 L54.27568,81.02688 C54.27568,81.19248 54.14128,81.32688 53.97568,81.32688" id="Fill-96" fill="#A7ABC4"></path>
            <path d="M57.01632,83.52688 C56.85072,83.52688 56.71632,83.39248 56.71632,83.22688 L56.71632,72.16608 C56.71632,72.00048 56.85072,71.86608 57.01632,71.86608 C57.18192,71.86608 57.31632,72.00048 57.31632,72.16608 L57.31632,83.22688 C57.31632,83.39248 57.18192,83.52688 57.01632,83.52688" id="Fill-98" fill="#A7ABC4"></path>
            <path d="M60.05856,85.42688 C59.89296,85.42688 59.75856,85.29248 59.75856,85.12688 L59.75856,79.12688 C59.75856,78.96128 59.89296,78.82688 60.05856,78.82688 C60.22416,78.82688 60.35856,78.96128 60.35856,79.12688 L60.35856,85.12688 C60.35856,85.29248 60.22416,85.42688 60.05856,85.42688" id="Fill-100" fill="#A7ABC4"></path>
            <path d="M63.10072,89.20032 C62.93512,89.20032 62.80072,89.06592 62.80072,88.90032 L62.80072,81.82672 C62.80072,81.66112 62.93512,81.52672 63.10072,81.52672 C63.26632,81.52672 63.40072,81.66112 63.40072,81.82672 L63.40072,88.90032 C63.40072,89.06592 63.26632,89.20032 63.10072,89.20032" id="Fill-102" fill="#A7ABC4"></path>
            <path d="M66.14136,90.02688 C65.97576,90.02688 65.84136,89.89248 65.84136,89.72688 L65.84136,82.52688 C65.84136,82.36128 65.97576,82.22688 66.14136,82.22688 C66.30696,82.22688 66.44136,82.36128 66.44136,82.52688 L66.44136,89.72688 C66.44136,89.89248 66.30696,90.02688 66.14136,90.02688" id="Fill-104" fill="#A7ABC4"></path>
            <path d="M69.18352,90.92688 C69.01792,90.92688 68.88352,90.79248 68.88352,90.62688 L68.88352,82.92688 C68.88352,82.76128 69.01792,82.62688 69.18352,82.62688 C69.34912,82.62688 69.48352,82.76128 69.48352,82.92688 L69.48352,90.62688 C69.48352,90.79248 69.34912,90.92688 69.18352,90.92688" id="Fill-106" fill="#A7ABC4"></path>
            <path d="M90.78352,76.49488 C90.61792,76.49488 90.48352,76.35968 90.48352,76.19488 L90.48352,72.59488 C90.48352,72.42848 90.61792,72.29488 90.78352,72.29488 C90.94912,72.29488 91.08352,72.42848 91.08352,72.59488 L91.08352,76.19488 C91.08352,76.35968 90.94912,76.49488 90.78352,76.49488" id="Fill-108" fill="#A7ABC4"></path>
            <path d="M87.74136,81.32688 C87.57576,81.32688 87.44136,81.19248 87.44136,81.02688 L87.44136,71.36608 C87.44136,71.20048 87.57576,71.06608 87.74136,71.06608 C87.90696,71.06608 88.04136,71.20048 88.04136,71.36608 L88.04136,81.02688 C88.04136,81.19248 87.90696,81.32688 87.74136,81.32688" id="Fill-110" fill="#A7ABC4"></path>
            <path d="M84.70072,83.52688 C84.53512,83.52688 84.40072,83.39248 84.40072,83.22688 L84.40072,75.92688 C84.40072,75.76128 84.53512,75.62688 84.70072,75.62688 C84.86632,75.62688 85.00072,75.76128 85.00072,75.92688 L85.00072,83.22688 C85.00072,83.39248 84.86632,83.52688 84.70072,83.52688" id="Fill-112" fill="#A7ABC4"></path>
            <path d="M81.65856,86.22688 C81.49296,86.22688 81.35856,86.09248 81.35856,85.92688 L81.35856,79.12688 C81.35856,78.96128 81.49296,78.82688 81.65856,78.82688 C81.82416,78.82688 81.95856,78.96128 81.95856,79.12688 L81.95856,85.92688 C81.95856,86.09248 81.82416,86.22688 81.65856,86.22688" id="Fill-114" fill="#A7ABC4"></path>
            <path d="M78.61792,89.20032 C78.45232,89.20032 78.31792,89.06592 78.31792,88.90032 L78.31792,81.82672 C78.31792,81.66112 78.45232,81.52672 78.61792,81.52672 C78.78352,81.52672 78.91792,81.66112 78.91792,81.82672 L78.91792,88.90032 C78.91792,89.06592 78.78352,89.20032 78.61792,89.20032" id="Fill-116" fill="#A7ABC4"></path>
            <path d="M75.57568,90.02688 C75.41008,90.02688 75.27568,89.89248 75.27568,89.72688 L75.27568,82.52688 C75.27568,82.36128 75.41008,82.22688 75.57568,82.22688 C75.74128,82.22688 75.87568,82.36128 75.87568,82.52688 L75.87568,89.72688 C75.87568,89.89248 75.74128,90.02688 75.57568,90.02688" id="Fill-118" fill="#A7ABC4"></path>
            <path d="M72.53512,90.92688 C72.36952,90.92688 72.23512,90.79248 72.23512,90.62688 L72.23512,82.92688 C72.23512,82.76128 72.36952,82.62688 72.53512,82.62688 C72.70072,82.62688 72.83512,82.76128 72.83512,82.92688 L72.83512,90.62688 C72.83512,90.79248 72.70072,90.92688 72.53512,90.92688" id="Fill-120" fill="#A7ABC4"></path>
            <path d="M64.78192,40.148 C62.72752,38.8448 60.65632,37.84 58.17232,38.0768 C55.88032,38.296 54.12672,39.4432 52.42032,40.8952 C51.43632,41.7312 52.85872,43.1392 53.83392,42.3088 C55.39872,40.9784 56.82832,40.2048 58.90432,40.008 C60.64272,39.8416 62.37792,40.9896 63.77232,41.8744 C64.86512,42.568 65.86672,40.8376 64.78192,40.148" id="Fill-122" fill="#BCD4F9"></path>
            <path d="M78.48432,41.61832 C80.44032,40.08312 81.70992,39.16312 84.32832,39.66872 C86.23872,40.03912 87.44032,40.53352 88.82032,41.86792 C89.74672,42.76552 91.16272,41.35192 90.23472,40.45512 C88.29472,38.57832 86.55792,37.87832 83.78752,37.54872 C80.83072,37.19832 79.27712,38.47192 77.06992,40.20472 C76.05632,40.99992 77.48192,42.40472 78.48432,41.61832" id="Fill-124" fill="#BCD4F9"></path>
            <path d="M56.71944,41.60344 C56.71944,40.47224 57.63624,39.55464 58.76824,39.55464 C59.89784,39.55464 60.81464,40.47224 60.81464,41.60344 C60.81464,42.73464 59.89784,43.65064 58.76824,43.65064 C57.63624,43.65064 56.71944,42.73464 56.71944,41.60344" id="Fill-126" fill="#271F23"></path>
            <path d="M81.55224,41.60344 C81.55224,40.47224 82.46904,39.55464 83.60104,39.55464 C84.73224,39.55464 85.64904,40.47224 85.64904,41.60344 C85.64904,42.73464 84.73224,43.65064 83.60104,43.65064 C82.46904,43.65064 81.55224,42.73464 81.55224,41.60344" id="Fill-128" fill="#271F23"></path>
            <path d="M14.62256,138.96128 C14.40176,138.96128 14.22256,138.78208 14.22256,138.56128 C14.22256,130.75888 11.52416,108.51968 7.07936,101.11168 C6.96576,100.92288 7.02736,100.67728 7.21616,100.56368 C7.40576,100.44768 7.65216,100.51168 7.76576,100.70128 C12.28016,108.22608 15.02256,130.69168 15.02256,138.56128 C15.02256,138.78208 14.84336,138.96128 14.62256,138.96128" id="Fill-130" fill="#7EA3FF"></path>
            <path d="M127.7648,138.16128 C127.544,138.16128 127.3648,137.98208 127.3648,137.76128 C127.3648,131.93488 128.488,122.75808 130.2272,114.38288 C130.2728,114.16688 130.4824,114.02208 130.7008,114.07328 C130.9168,114.11808 131.056,114.32928 131.0112,114.54528 C129.2816,122.87168 128.1648,131.98448 128.1648,137.76128 C128.1648,137.98208 127.9856,138.16128 127.7648,138.16128" id="Fill-132" fill="#7EA3FF"></path>
            <path d="M63.53664,43.10032 C63.42064,43.10032 63.31024,43.03312 63.26144,42.91952 C63.19504,42.76832 63.26464,42.59152 63.41744,42.52512 C63.64144,42.42832 63.77824,42.31392 63.79264,42.21232 C63.81264,42.07472 63.64304,41.88512 63.57904,41.83232 C63.54304,41.79792 61.78464,40.10032 58.97104,40.10032 C56.15344,40.10032 53.94304,42.25232 53.92064,42.27472 C53.80384,42.39152 53.61424,42.38992 53.49664,42.27232 C53.38064,42.15472 53.38144,41.96512 53.49824,41.84832 C53.59504,41.75232 55.90144,39.50032 58.97104,39.50032 C62.04064,39.50032 63.90384,41.31152 63.98224,41.38832 C64.01424,41.41392 64.45744,41.79952 64.38624,42.29792 C64.34064,42.62272 64.09424,42.88432 63.65584,43.07552 C63.61744,43.09232 63.57664,43.10032 63.53664,43.10032" id="Fill-161" fill="#271F23"></path>
            <path d="M78.87104,43.10032 C78.83984,43.10032 78.80864,43.09552 78.77824,43.08512 C78.41104,42.96592 78.29664,42.74272 78.26624,42.57552 C78.17104,42.06192 78.78304,41.52192 78.97264,41.36832 C79.02304,41.31152 80.96384,39.25472 83.60064,39.25472 C86.50704,39.25472 88.70064,41.29792 88.79264,41.38432 C88.91344,41.49792 88.91824,41.68752 88.80464,41.80832 C88.69024,41.92832 88.50064,41.93312 88.38064,41.81952 C88.35984,41.80032 86.26304,39.85472 83.60064,39.85472 C81.22224,39.85472 79.39904,41.78592 79.38144,41.80592 C79.06944,42.06272 78.84544,42.37152 78.85584,42.46512 C78.85904,42.46512 78.88624,42.48912 78.96384,42.51552 C79.12064,42.56592 79.20784,42.73552 79.15584,42.89312 C79.11504,43.01952 78.99744,43.10032 78.87104,43.10032" id="Fill-163" fill="#271F23"></path>
            <path d="M56.7296,44.4964 C55.0264,44.4964 54.3592,43.6132 54.3288,43.5716 C54.2312,43.438 54.26,43.2492 54.3936,43.1516 C54.5264,43.0548 54.7128,43.082 54.8112,43.214 C54.84,43.2524 55.4928,44.0684 57.2848,43.8636 C57.452,43.8428 57.5984,43.962 57.6168,44.1268 C57.6368,44.2916 57.5176,44.4404 57.3536,44.4588 C57.132,44.4844 56.9232,44.4964 56.7296,44.4964" id="Fill-165" fill="#271F23"></path>
            <path d="M86.00304,43.95032 C85.85584,43.95032 85.72704,43.84152 85.70624,43.69192 C85.68384,43.52872 85.79824,43.37592 85.96224,43.35352 C87.31504,43.16632 87.73984,42.56472 87.74384,42.55832 C87.83664,42.42312 88.02064,42.38632 88.15824,42.47512 C88.29504,42.56632 88.33504,42.74792 88.24704,42.88552 C88.22544,42.91912 87.69744,43.71832 86.04464,43.94792 C86.03104,43.94952 86.01744,43.95032 86.00304,43.95032" id="Fill-167" fill="#271F23"></path>
        </g>
    </g>
</svg>