<?xml version="1.0" encoding="UTF-8"?>
<svg width="126px" height="160px" viewBox="0 0 126 160" version="1.1" xmlns="http://www.w3.org/2000/svg" xmlns:xlink="http://www.w3.org/1999/xlink">
    <title>Illustration / Farzad</title>
    <g id="Illustration-/-Farzad" stroke="none" stroke-width="1" fill="none" fill-rule="evenodd">
        <g id="Farzad" transform="translate(63.000000, 80.000000) scale(-1, 1) translate(-63.000000, -80.000000) ">
            <path d="M45.50616,72.38944 C41.23896,76.86944 38.37336,67.71904 38.10616,67.18624 C37.17336,65.18624 36.87336,63.91904 35.80616,62.05424 C35.14056,60.71904 33.85496,58.55504 33.40616,56.96944 C32.17336,52.60464 35.24056,50.65424 37.90776,52.91904 L41.70936,56.45424" id="Fill-1" fill="#BCD4F9"></path>
            <path d="M43.17568,74.02072 C43.00288,74.02072 42.83008,74.00392 42.65808,73.96872 C40.06848,73.44712 38.41808,69.11272 37.87568,67.68872 C37.81328,67.52552 37.77168,67.41192 37.74848,67.36552 C37.37328,66.56232 37.10528,65.89112 36.84608,65.24232 C36.45888,64.27592 36.09408,63.36312 35.45888,62.25192 C35.28208,61.89912 35.07648,61.51272 34.85488,61.09752 C34.19248,59.85432 33.36848,58.30552 33.02128,57.07752 C32.25408,54.35992 33.10688,52.66792 34.16128,51.98952 C35.30928,51.25112 36.84448,51.49112 38.16608,52.61432 L41.98208,56.16072 C42.14368,56.31112 42.15328,56.56472 42.00208,56.72632 C41.85248,56.88792 41.59888,56.89752 41.43648,56.74712 L37.63488,53.21192 C36.60608,52.33752 35.43488,52.12392 34.59328,52.66312 C33.78048,53.18552 33.14208,54.56312 33.79168,56.86072 C34.11488,58.00472 34.91648,59.51112 35.56048,60.72072 C35.78608,61.14392 35.99488,61.53592 36.16368,61.87432 C36.81648,63.01432 37.19168,63.95192 37.58928,64.94552 C37.84448,65.58392 38.10848,66.24392 38.46848,67.01752 C38.49168,67.06232 38.54608,67.20152 38.62368,67.40392 C39.97408,70.95192 41.38528,72.89752 42.81568,73.18392 C43.58608,73.34072 44.39248,72.97912 45.21648,72.11432 C45.37008,71.95432 45.62368,71.94792 45.78208,72.09992 C45.94208,72.25192 45.94848,72.50472 45.79568,72.66552 C44.93728,73.56792 44.05888,74.02072 43.17568,74.02072" id="Fill-3" fill="#7EA3FF"></path>
            <path d="M41.25224,69.2684 C41.22504,69.2684 41.19784,69.2676 41.16984,69.2652 C40.85544,69.2412 40.41064,69.0628 40.08104,68.3548 C39.80424,67.8516 39.88664,67.3164 39.96584,66.7996 C40.02184,66.434 40.08024,66.054 40.01944,65.6396 C39.97784,65.3548 39.75944,65.2188 39.34264,64.9844 C39.23784,64.9236 39.13064,64.8628 39.02424,64.7956 C37.55944,63.726 37.58424,62.134 37.60584,60.7308 C37.61384,60.2276 37.62104,59.7524 37.57064,59.3012 C37.54664,59.082 37.70424,58.8844 37.92424,58.8588 C38.15224,58.834 38.34184,58.9924 38.36664,59.2124 C38.42184,59.7148 38.41384,60.238 38.40584,60.7428 C38.38504,62.0708 38.36584,63.3244 39.47144,64.134 C39.54424,64.178 39.64184,64.234 39.73704,64.2876 C40.19384,64.546 40.71064,64.838 40.81144,65.5236 C40.88904,66.0572 40.81864,66.5164 40.75624,66.9212 C40.68904,67.3588 40.63544,67.7044 40.79464,67.9948 C40.88184,68.1796 41.03704,68.4524 41.23304,68.4676 C41.45464,68.4916 41.76744,68.2348 42.02984,67.8452 C42.42664,67.2548 42.53624,66.6188 42.41064,66.3684 C42.28424,66.1148 42.12104,65.8476 41.95064,65.5676 C41.23144,64.3844 40.24584,62.7612 41.40744,61.0516 C41.53464,60.8684 41.78344,60.8228 41.96424,60.9444 C42.14664,61.0684 42.19384,61.318 42.06984,61.5012 C41.19704,62.7852 41.92744,63.9884 42.63464,65.1516 C42.81704,65.4516 42.99064,65.7396 43.12664,66.0108 C43.45144,66.6588 43.14264,67.6236 42.69304,68.2916 C42.27224,68.918 41.75144,69.2684 41.25224,69.2684" id="Fill-5" fill="#7EA3FF"></path>
            <path d="M36.03584,59.32232 C35.92704,59.32232 35.81904,59.27752 35.73984,59.19112 C35.65264,59.09512 33.62224,56.81272 34.95984,54.58392 C35.19424,54.19272 35.55264,53.96312 35.99264,53.92072 C37.86784,53.74232 40.92064,57.07272 41.26544,57.45432 C41.41344,57.61752 41.40064,57.87112 41.23744,58.01832 C41.07504,58.16792 40.82144,58.15432 40.67184,57.99112 C39.47424,56.66872 37.16464,54.59192 36.07104,54.71592 C35.88224,54.73512 35.75104,54.82072 35.64624,54.99512 C34.61104,56.72072 36.31504,58.63512 36.33184,58.65432 C36.48064,58.81752 36.46784,59.07112 36.30464,59.21832 C36.22784,59.28792 36.13184,59.32232 36.03584,59.32232" id="Fill-7" fill="#7EA3FF"></path>
            <path d="M99.10152,51.58952 C99.60152,50.68952 101.00632,51.25432 101.30632,52.05432 C102.10632,53.75432 100.80632,56.55432 100.40632,58.25432 C99.80632,60.95432 99.80632,63.75432 99.80632,66.55432 C99.80632,67.45432 99.80152,71.98952 97.90152,71.38952 C96.30152,71.12232 95.87352,70.14392 95.97352,69.94392" id="Fill-9" fill="#BCD4F9"></path>
            <path d="M98.23192,71.84416 C98.08552,71.84416 97.93512,71.81936 97.78152,71.77056 C96.33192,71.53376 95.80872,70.71536 95.68392,70.47056 C95.54792,70.20096 95.52232,69.95136 95.61512,69.76496 C95.71512,69.56816 95.95352,69.48816 96.15192,69.58656 C96.31912,69.67056 96.40312,69.85536 96.36392,70.03056 C96.41112,70.19376 96.77672,70.79536 97.96712,70.99456 C98.27272,71.08656 98.41352,71.02096 98.50712,70.95136 C98.71752,70.79696 99.40632,70.02256 99.40632,66.55456 C99.40632,63.77856 99.40632,60.90976 100.01512,58.16736 C100.11592,57.73936 100.26712,57.25856 100.42712,56.74896 C100.89832,55.24496 101.48552,53.37456 100.94472,52.22416 C100.80872,51.86416 100.36632,51.56096 99.96632,51.53136 C99.62232,51.50736 99.48952,51.71536 99.45112,51.78416 C99.34312,51.97776 99.09752,52.04256 98.90712,51.93936 C98.71432,51.83136 98.64472,51.58896 98.75112,51.39456 C99.00872,50.93376 99.47992,50.69216 100.02552,50.73376 C100.73752,50.78656 101.44872,51.29456 101.68072,51.91296 C102.34232,53.31616 101.70392,55.35216 101.19032,56.98816 C101.03512,57.48256 100.88952,57.94496 100.79512,58.34496 C100.20632,60.99696 100.20632,63.82256 100.20632,66.55456 C100.20632,69.30416 99.79352,70.99936 98.97992,71.59696 C98.75512,71.76096 98.50232,71.84416 98.23192,71.84416" id="Fill-11" fill="#7EA3FF"></path>
            <path d="M98.76088,56.65432 C98.76088,56.65432 99.44808,53.02792 100.50168,53.07192" id="Fill-13" fill="#BCD4F9"></path>
            <path d="M98.76168,57.05432 C98.73688,57.05432 98.71208,57.05112 98.68648,57.04712 C98.46968,57.00472 98.32648,56.79592 98.36808,56.57912 C98.59208,55.39832 99.24408,52.67112 100.48168,52.67112 C100.49448,52.67112 100.50648,52.67192 100.51848,52.67192 C100.74008,52.68232 100.91128,52.86952 100.90168,53.08952 C100.89208,53.30952 100.69128,53.46952 100.48408,53.47192 C100.48248,53.47112 100.48088,53.47112 100.47928,53.47112 C100.15128,53.47112 99.50408,54.88632 99.15368,56.72792 C99.11688,56.92072 98.94968,57.05432 98.76168,57.05432" id="Fill-15" fill="#7EA3FF"></path>
            <path d="M46.30616,100.45432 C42.87176,99.20472 29.55336,116.32872 26.06376,118.57352 C18.92216,123.17112 -4.91224,126.58472 0.90616,137.25432 C6.52456,147.43832 6.45016,154.53112 20.20136,156.55992 C33.17016,158.47352 47.05016,155.65192 60.11416,155.40152 C72.25896,155.16792 82.33096,153.97192 94.43896,153.18632 C103.25736,152.61432 123.94376,159.86152 125.37816,146.28072 C126.50456,135.62232 121.56216,128.72792 111.83416,125.19112 C102.62776,121.84232 88.88616,106.65432 80.30616,106.65432" id="Fill-17" fill="#271F23"></path>
            <path d="M48.17336,93.45432 C46.70616,97.05432 43.37336,98.65432 45.37336,102.91912 C47.77336,107.98632 51.10616,112.65432 53.77336,117.58632 C55.64056,120.65432 57.10616,124.11912 58.70616,127.31912 C61.50616,132.65432 66.35896,145.05432 70.09176,149.85432 C73.82456,154.65432 75.64056,154.05432 81.50616,153.11912 C84.44056,152.58632 87.50616,152.71912 90.57336,152.05432 C93.10616,151.51912 94.17336,151.98632 94.84056,149.31912 C96.77176,141.27192 93.64056,124.78632 90.57336,111.18632 L88.21736,102.91912 C87.28296,99.31912 83.37336,98.38632 80.44056,98.11912" id="Fill-19" fill="#FFFFFF"></path>
            <polyline id="Fill-21" fill="#BCD4F9" points="47.37336 81.02072 47.37336 94.38632 79.17176 114.91912 81.10616 114.91912 88.21736 102.91912 88.21736 85.58632"></polyline>
            <path d="M98.70776,59.56288 C98.84056,58.49728 99.10776,56.38608 99.24056,55.18608 C99.37336,52.25408 99.957749,50.20768 99.957749,47.26928 C99.957749,39.03968 100.04056,33.71888 97.77336,27.71888 C96.04056,23.18608 94.97336,17.58608 91.90776,13.71888 C89.90776,11.31888 81.38776,3.18928 71.03896,3.31888 C64.21416,3.40528 53.24056,9.58608 48.17336,14.65408 C45.10616,17.71888 40.81896,22.66608 38.66216,26.54448 C36.06696,31.21168 36.17336,49.85408 37.37336,52.78608 C37.37336,52.78608 40.18936,56.05488 41.73896,60.98128 L47.63896,59.56288 L52.97336,35.05408 L52.57336,27.05408 C52.57336,27.05408 66.94056,21.31888 67.15736,21.31888 C67.37336,21.31888 79.17176,24.25408 79.17176,24.25408 C79.17176,24.25408 82.57016,22.92048 83.57176,23.18608 C84.57336,23.45408 96.30776,37.98608 96.30776,37.98608 L98.70776,59.56288 Z" id="Fill-23" fill="#271F23"></path>
            <path d="M75.53584,20.35432 C76.85024,19.41912 78.56224,18.51912 80.15424,18.65432 C83.33904,18.91912 90.53744,21.18632 93.87184,28.91912 C97.20464,36.65432 98.53904,40.02072 98.53904,44.13672 L98.53904,61.58632 C98.53904,61.58632 98.10624,75.69752 92.53904,84.91912 C87.13744,93.86632 84.40464,97.38792 75.87184,97.38792 C67.33904,97.38792 50.70624,92.26952 46.44064,77.35992 C42.17344,62.44872 41.73904,60.98152 41.73904,60.98152 L43.38144,59.33912 L43.38144,49.08392 C43.38144,49.08392 42.67184,42.25432 48.00464,38.11912 L48.00464,27.98632 C48.00464,27.98632 59.85584,13.69112 70.86864,20.65752 C71.36064,20.96792 74.21984,21.28632 75.53584,20.35432" id="Fill-25" fill="#E3ECF8"></path>
            <path d="M91.44056,50.0864 L89.20616,50.0864 C88.98536,50.0864 88.80616,49.9072 88.80616,49.6864 C88.80616,49.4656 88.98536,49.2864 89.20616,49.2864 L91.44056,49.2864 C91.66136,49.2864 91.84056,49.4656 91.84056,49.6864 C91.84056,49.9072 91.66136,50.0864 91.44056,50.0864" id="Fill-27" fill="#7EA3FF"></path>
            <path d="M60.03896,74.0348 C61.62056,74.9316 67.52616,73.3548 72.50616,74.586 C72.50616,74.586 75.63896,75.5676 78.17336,74.41 C80.70616,73.254 86.77336,74.622 86.90616,74.4708 C86.90616,74.4708 85.50616,74.786 82.63896,77.586 C79.77336,80.386 75.70616,79.7188 74.93896,79.7188 C74.17336,79.7188 69.59816,79.7204 65.85336,77.586 C62.10616,75.454 61.62776,74.9364 60.03896,74.0348" id="Fill-29" fill="#FFFFFF"></path>
            <path d="M61.9132,74.72616 C62.7588,75.27736 63.8148,75.96616 66.0508,77.23896 C69.346,79.11736 73.3636,79.31896 74.9372,79.31896 C75.034,79.31896 75.1772,79.32856 75.3596,79.34136 C75.6572,79.36056 76.0708,79.38856 76.562,79.38856 C78.9908,79.38856 80.9412,78.68616 82.3596,77.30136 C83.7244,75.96776 84.7668,75.18056 85.5036,74.71816 C84.3924,74.56216 82.714,74.34216 81.1748,74.34216 C79.9212,74.34216 78.9668,74.48776 78.3396,74.77416 C77.4668,75.17256 76.4428,75.37496 75.2956,75.37496 C73.7028,75.37496 72.4396,74.98456 72.3868,74.96856 C71.1004,74.65096 69.5852,74.49416 67.778,74.49416 C66.554,74.49416 65.3548,74.56456 64.2964,74.62616 C63.426,74.67736 62.6036,74.72616 61.9132,74.72616 M76.562,80.18856 C76.0492,80.18856 75.6172,80.15976 75.306,80.13896 C75.1468,80.12776 75.022,80.11896 74.9388,80.11896 C73.2988,80.11896 69.1164,79.90616 65.6556,77.93416 C63.3852,76.64216 62.3188,75.94696 61.462,75.38776 C60.9036,75.02296 60.4628,74.73496 59.8428,74.38376 C59.8428,74.38376 59.842,74.38376 59.8412,74.38216 C59.6492,74.27416 59.582,74.02936 59.6916,73.83816 C59.7996,73.64456 60.0444,73.57656 60.2364,73.68776 C60.5204,73.84776 61.0676,73.92616 61.9108,73.92616 C62.5788,73.92616 63.3908,73.87816 64.2492,73.82776 C65.3188,73.76456 66.53,73.69416 67.778,73.69416 C69.6508,73.69416 71.2292,73.85816 72.602,74.19816 C72.6372,74.20856 73.83,74.57496 75.2956,74.57496 C76.3276,74.57496 77.2396,74.39736 78.0068,74.04536 C78.7508,73.70776 79.7868,73.54216 81.1748,73.54216 C82.9028,73.54216 84.7724,73.80776 85.8892,73.96536 C86.3076,74.02456 86.6716,74.07656 86.8116,74.08216 C86.8148,74.08136 86.8172,74.08056 86.818,74.08056 C86.9924,74.03976 87.1612,74.11736 87.25,74.26616 C87.338,74.41496 87.3212,74.60456 87.2068,74.73416 C87.1548,74.79416 87.0636,74.84296 86.978,74.86616 C86.814,74.91576 85.4676,75.38376 82.9188,77.87256 C81.3452,79.40936 79.2068,80.18856 76.562,80.18856" id="Fill-31" fill="#7EA3FF"></path>
            <path d="M76.57256,84.18944 C76.05576,84.18944 75.62056,84.15984 75.30616,84.13904 C75.14696,84.12784 75.02216,84.11904 74.93896,84.11904 C73.29896,84.11904 69.11656,83.90624 65.65496,81.93424 C65.46296,81.82464 65.39576,81.58064 65.50536,81.38784 C65.61656,81.19744 65.85736,81.13104 66.05176,81.23904 C69.34616,83.11744 73.36296,83.31904 74.93736,83.31904 C75.03416,83.31904 75.17736,83.32864 75.35896,83.34064 C76.61576,83.42784 79.95416,83.65104 82.35896,81.30144 C82.51896,81.14464 82.77176,81.14944 82.92456,81.30704 C83.07976,81.46464 83.07656,81.71824 82.91896,81.87264 C80.87576,83.86864 78.28056,84.18944 76.57256,84.18944" id="Fill-33" fill="#7EA3FF"></path>
            <polygon id="Fill-35" fill="#271F23" points="63.75928 73.90512 64.60488 76.86592 61.17368 74.65472"></polygon>
            <polygon id="Fill-37" fill="#271F23" points="83.10616 74.0348 83.10616 77.3596 86.90616 74.4708"></polygon>
            <path d="M75.87184,98.58792 C68.27664,98.58792 63.79504,95.65912 61.37344,93.20152 C58.73824,90.52792 57.92224,87.88072 57.88864,87.76872 L52.33984,75.11432 C52.25184,74.91192 52.34304,74.67592 52.54544,74.58792 C52.74784,74.49992 52.98464,74.59112 53.07264,74.79272 L58.63824,87.49272 C58.78144,87.95752 61.92144,97.78792 75.87184,97.78792 C76.09264,97.78792 76.27184,97.96792 76.27184,98.18792 C76.27184,98.40872 76.09264,98.58792 75.87184,98.58792" id="Fill-39" fill="#BCD4F9"></path>
            <path d="M70.36944,9.02384 C72.08544,6.09424 74.60464,3.69584 78.03904,3.08384 C79.30784,2.85744 78.76864,0.93104 77.50784,1.15504 C73.59104,1.85264 70.59824,4.67424 68.64304,8.01424 C67.98944,9.13104 69.71904,10.13584 70.36944,9.02384" id="Fill-41" fill="#271F23"></path>
            <path d="M67.40304,8.252 C68.58624,5.4472 71.24544,3.6544 73.61104,1.9176 C74.63904,1.1624 73.64304,-0.5744 72.60144,0.1912 C69.74544,2.288 66.89344,4.3552 65.47504,7.7208 C64.97424,8.908 66.91024,9.4216 67.40304,8.252" id="Fill-43" fill="#271F23"></path>
            <path d="M73.10464,8.1512 C77.44384,6.5072 82.09424,5.8584 86.70624,6.4544 C87.98304,6.6184 87.96704,4.616 86.70624,4.4544 C81.94544,3.8384 77.05264,4.5248 72.57344,6.2224 C71.37984,6.6744 71.89664,8.608 73.10464,8.1512" id="Fill-45" fill="#271F23"></path>
            <path d="M82.43896,9.3864 C85.01336,9.6344 87.54536,9.9112 89.66856,11.5176 C90.69816,12.296 91.69256,10.5576 90.67816,9.7912 C88.28376,7.9792 85.33816,7.6656 82.43896,7.3864 C81.15576,7.2632 81.16696,9.2648 82.43896,9.3864" id="Fill-47" fill="#271F23"></path>
            <path d="M93.06632,21.89416 C94.55832,23.15096 95.51752,24.92456 96.64312,26.49096 C97.38712,27.52856 99.12312,26.53176 98.36952,25.48136 C97.15032,23.78376 96.09752,21.84216 94.48072,20.47896 C93.50072,19.65416 92.07912,21.06136 93.06632,21.89416" id="Fill-49" fill="#271F23"></path>
            <path d="M59.10616,45.45432 C62.12776,45.43752 65.13416,45.16792 67.06856,47.90472 C68.83096,50.39912 67.66056,53.65192 66.81336,56.25512 C66.21176,58.09992 69.10936,58.88392 69.70536,57.05192 C70.94856,53.24072 71.77496,49.38392 69.30856,45.89432 C66.85656,42.42472 62.97976,42.43432 59.10616,42.45432 C57.17176,42.46472 57.17096,45.46472 59.10616,45.45432" id="Fill-51" fill="#BCD4F9"></path>
            <path d="M67.20072,46.952 C69.98392,48.7784 67.59992,53.8896 66.81352,56.2552 C66.19992,58.096 69.09832,58.8784 69.70552,57.052 C71.06552,52.9656 73.15832,47.2784 68.71512,44.3616 C67.09192,43.2976 65.59032,45.8952 67.20072,46.952" id="Fill-53" fill="#BCD4F9"></path>
            <path d="M85.70616,43.25432 C82.93816,43.18152 79.89896,43.93672 77.83256,45.85192 C75.75176,47.78072 76.38136,50.19992 76.90696,52.60232 C77.32056,54.49192 80.21176,53.69112 79.79896,51.80472 C79.43016,50.11592 78.81976,49.02472 80.19016,47.75432 C81.53736,46.50552 83.95256,46.20792 85.70616,46.25432 C87.64216,46.30472 87.63736,43.30392 85.70616,43.25432" id="Fill-55" fill="#BCD4F9"></path>
            <path d="M83.10616,49.084 C83.10616,48.6288 83.25336,48.208 83.50296,47.8688 C83.87656,47.3632 86.33416,47.3128 86.70936,47.752 C87.01576,48.1096 87.20136,48.5736 87.20136,49.084 C87.20136,50.2144 86.28456,51.1312 85.15336,51.1312 C84.02216,51.1312 83.10616,50.2144 83.10616,49.084" id="Fill-57" fill="#271F23"></path>
            <path d="M85.29288,47.55432 C84.46248,47.55432 83.74328,47.71112 83.58328,47.92872 C83.33688,48.26472 83.20648,48.66312 83.20648,49.08392 C83.20648,50.15752 84.07928,51.03112 85.15288,51.03112 C86.22728,51.03112 87.10168,50.15752 87.10168,49.08392 C87.10168,48.61912 86.93528,48.17112 86.63368,47.81752 C86.49848,47.65912 85.96008,47.55432 85.29288,47.55432 M85.15288,51.23112 C83.96968,51.23112 83.00648,50.26792 83.00648,49.08392 C83.00648,48.62072 83.14968,48.17912 83.42248,47.80952 C83.67128,47.47272 84.58488,47.35432 85.29288,47.35432 C85.57608,47.35432 86.52088,47.37752 86.78488,47.68792 C87.11768,48.07592 87.30168,48.57112 87.30168,49.08392 C87.30168,50.26792 86.33768,51.23112 85.15288,51.23112" id="Fill-59" fill="#271F23"></path>
            <path d="M77.37024,68.57856 C77.30464,68.57856 77.23824,68.56176 77.17744,68.52816 C76.98784,68.41936 76.91664,68.18656 77.02064,67.99536 C77.33664,67.41296 80.34544,65.30416 81.01184,65.30416 L81.02464,65.30416 C81.31504,65.33056 81.72624,65.36736 81.76704,65.74736 C81.80784,66.12336 81.47504,66.22816 81.01504,66.37296 C80.71504,66.46736 80.26064,66.60976 80.05504,66.76416 C79.95584,66.83936 79.83264,66.86096 79.72064,66.83216 C78.85744,67.40736 77.86064,68.14736 77.72224,68.37856 C77.64704,68.50576 77.51024,68.57856 77.37024,68.57856" id="Fill-61" fill="#71748D"></path>
            <path d="M90.50616,73.35432 C90.28536,73.35432 90.10616,73.17432 90.10616,72.95432 C90.10616,71.36472 89.43176,70.36152 89.42536,70.35112 L84.81336,62.91432 C84.76216,62.81192 84.11496,61.45432 82.50616,61.45432 C82.28536,61.45432 82.10616,61.27432 82.10616,61.05432 C82.10616,60.83272 82.28536,60.65432 82.50616,60.65432 C84.63976,60.65432 85.48296,62.46152 85.51736,62.53832 L90.09416,69.91272 C90.11656,69.94392 90.90616,71.09992 90.90616,72.95432 C90.90616,73.17432 90.72696,73.35432 90.50616,73.35432" id="Fill-63" fill="#71748D"></path>
            <path d="M81.10616,50.0864 C80.98376,50.0864 80.86536,50.0312 80.78856,49.9296 C80.68856,49.7992 80.67896,49.6208 80.76376,49.4792 C80.77656,49.4584 82.19736,47.324 85.15336,47.324 C86.94536,47.324 88.10616,48.028 89.03896,48.5944 C89.63176,48.9544 90.14456,49.2648 90.65816,49.288 C90.87576,49.2976 91.04536,49.4776 91.0406594,49.6952 C91.03576,49.9128 90.85736,50.0864 90.64056,50.0864 L88.40616,50.0864 C88.18536,50.0864 88.00616,49.9072 88.00616,49.6864 C88.00616,49.4656 88.18536,49.2864 88.40616,49.2864 L88.63896,49.2864 C88.63336,49.284 88.62856,49.2808 88.62376,49.2776 C87.73256,48.7376 86.72216,48.124 85.15336,48.124 C83.72136,48.124 82.70456,48.7176 82.10296,49.2176 C82.14296,49.2624 82.17336,49.3152 82.19016,49.376 C82.25176,49.5888 82.12856,49.8104 81.91656,49.8704 L81.21656,50.0704 C81.17976,50.0816 81.14296,50.0864 81.10616,50.0864" id="Fill-65" fill="#271F23"></path>
            <path d="M64.89368,41.05432 L57.45768,41.05432 C55.32328,41.25432 50.50648,45.53512 51.17368,46.58632 C51.50168,47.10472 54.95608,44.49112 56.90648,43.91912 L66.96088,43.91912 C68.04248,43.38632 66.47048,41.05432 64.89368,41.05432" id="Fill-67" fill="#271F23"></path>
            <path d="M57.45776,41.15432 C55.74496,41.31432 52.14176,44.25272 51.35296,45.85992 C51.20496,46.16472 51.17136,46.39752 51.25776,46.53272 C51.26976,46.55112 51.30976,46.55432 51.33296,46.55432 C51.68176,46.55432 52.61296,46.01752 53.59936,45.45112 C54.70256,44.81432 55.95216,44.09512 56.87776,43.82312 C56.88736,43.82072 56.89696,43.81912 56.90656,43.81912 L66.93696,43.81912 C67.24816,43.65192 67.24576,43.32072 67.18736,43.07112 C66.98496,42.20232 65.91696,41.15432 64.89376,41.15432 L57.45776,41.15432 Z M51.33296,46.75432 C51.19056,46.75432 51.12176,46.69192 51.08896,46.63912 C50.96176,46.43832 50.98976,46.14712 51.17376,45.77192 C52.11216,43.85832 55.92736,41.09752 57.44816,40.95432 L64.89376,40.95432 C66.00496,40.95432 67.16416,42.08632 67.38256,43.02472 C67.48976,43.48632 67.35616,43.83592 67.00576,44.00872 C66.99136,44.01512 66.97616,44.01912 66.96096,44.01912 L56.92096,44.01912 C56.01856,44.28792 54.78656,44.99752 53.69856,45.62312 C52.60176,46.25512 51.73536,46.75432 51.33296,46.75432 L51.33296,46.75432 Z" id="Fill-69" fill="#271F23"></path>
            <path d="M82.26552,44.05432 L90.50632,44.05432 C90.50632,44.05432 94.20792,44.25432 94.75592,47.21912 C94.75592,47.21912 95.40792,47.31912 94.75592,45.38632 C94.10632,43.45432 92.83912,41.05432 89.23912,41.05432 L82.26552,41.05432 C80.93272,41.05432 80.79832,44.05432 82.26552,44.05432" id="Fill-71" fill="#271F23"></path>
            <path d="M82.26552,41.15432 C81.64872,41.15432 81.31512,41.90312 81.31512,42.60712 C81.31512,42.97272 81.40072,43.30792 81.55592,43.55112 C81.72712,43.81832 81.96632,43.95432 82.26552,43.95432 L90.50632,43.95432 C90.54872,43.95592 94.21272,44.18792 94.83432,47.09912 C94.84712,47.08952 94.85912,47.07752 94.87192,47.05992 C94.94232,46.96232 95.06232,46.60712 94.66152,45.41832 C94.04632,43.58792 92.81432,41.15432 89.23912,41.15432 L82.26552,41.15432 Z M94.77192,47.32072 C94.76632,47.32072 94.74632,47.31912 94.74152,47.31832 C94.69912,47.31112 94.66552,47.27912 94.65752,47.23752 C94.12952,44.38232 90.53672,44.15512 90.50072,44.15432 L82.26552,44.15432 C81.89832,44.15432 81.59512,43.98232 81.38712,43.65912 C81.21192,43.38472 81.11512,43.01112 81.11512,42.60712 C81.11512,41.78552 81.51032,40.95432 82.26552,40.95432 L89.23912,40.95432 C92.94312,40.95432 94.21592,43.46552 94.85032,45.35432 C95.16712,46.29272 95.22872,46.90552 95.03432,47.17752 C94.94152,47.30552 94.81912,47.32072 94.77192,47.32072 L94.77192,47.32072 Z" id="Fill-73" fill="#271F23"></path>
            <path d="M89.23896,40.05432 L83.57176,40.05432 C82.28216,40.05432 82.28216,42.05432 83.57176,42.05432 L89.23896,42.05432 C90.52856,42.05432 90.52856,40.05432 89.23896,40.05432" id="Fill-75" fill="#271F23"></path>
            <path d="M85.74992,53.47856 C84.51472,53.47856 83.29952,53.18576 82.30272,52.59776 C82.11232,52.48576 82.04912,52.24096 82.16192,52.05136 C82.27312,51.86016 82.51952,51.79776 82.70912,51.90896 C84.46752,52.94496 87.11632,52.92256 89.00912,51.85536 C89.19952,51.74736 89.44512,51.81456 89.55472,52.00736 C89.66352,52.19936 89.59552,52.44416 89.40272,52.55216 C88.30832,53.16896 87.01872,53.47856 85.74992,53.47856" id="Fill-77" fill="#7EA3FF"></path>
            <path d="M55.7484,50.85432 C55.4836,50.85432 55.3204,50.73752 55.2236,50.62232 C54.8572,50.18472 55.178,49.35912 55.402,48.90552 C55.4212,48.86872 55.4452,48.83432 55.474,48.80392 C58.5884,45.60712 61.7852,44.72792 64.9812,46.18792 C65.0404,46.21512 65.09,46.23832 65.1276,46.25432 C65.2228,46.25912 65.3164,46.29832 65.3892,46.37112 C65.5452,46.52792 65.5452,46.78072 65.3892,46.93672 C65.1692,47.15512 64.9172,47.03752 64.6484,46.91512 C61.8076,45.61592 58.9316,46.42392 56.0932,49.31592 C55.9748,49.56952 55.882,49.86232 55.8604,50.03432 C56.074,49.97832 56.2892,50.09912 56.35,50.30792 C56.4108,50.52072 56.2892,50.74152 56.0764,50.80472 C55.9532,50.83912 55.8436,50.85432 55.7484,50.85432" id="Fill-79" fill="#BCD4F9"></path>
            <path d="M91.85616,49.484 C91.74256,49.484 91.63056,49.4352 91.55136,49.3424 C91.51936,49.3048 88.33456,45.604 85.50656,45.604 C83.73216,45.604 81.93936,46.9264 81.17296,47.492 C80.79616,47.7704 80.68176,47.8544 80.50576,47.8544 C80.28496,47.8544 80.10576,47.6744 80.10576,47.4544 C80.10576,47.2744 80.22336,47.1232 80.38576,47.072 C80.45056,47.0336 80.55616,46.9528 80.69856,46.848 C81.52736,46.236 83.46896,44.804 85.50656,44.804 C88.70496,44.804 92.02096,48.66 92.16096,48.824 C92.30416,48.9928 92.28336,49.2448 92.11536,49.388 C92.03936,49.452 91.94816,49.484 91.85616,49.484" id="Fill-81" fill="#BCD4F9"></path>
            <path d="M87.35152,51.84576 L83.48752,51.84576 C83.04512,51.84576 82.68752,51.48816 82.68752,51.04576 C82.68752,50.60416 83.04512,50.24576 83.48752,50.24576 L87.35152,50.24576 C87.79392,50.24576 88.15152,50.60416 88.15152,51.04576 C88.15152,51.48816 87.79392,51.84576 87.35152,51.84576" id="Fill-83" fill="#E3ECF8"></path>
            <path d="M71.03896,67.30432 C70.95896,67.30432 70.87976,67.28112 70.80936,67.23072 C70.49016,67.00832 70.00696,66.71232 69.55496,66.46752 C69.41736,66.57632 69.22456,66.58192 69.08056,66.48432 C68.97896,66.45472 68.68856,66.42432 68.49336,66.40512 C68.01416,66.35712 67.71016,66.32112 67.52136,66.20752 C67.43896,66.17872 67.12136,66.04832 67.09176,65.73792 C67.07816,65.59072 67.17816,65.39712 67.30216,65.31632 C67.64776,65.09072 68.79256,65.17792 69.20056,65.40432 C69.77976,65.64272 70.73656,66.20432 71.26856,66.57632 C71.44936,66.70272 71.49336,66.95232 71.36616,67.13392 C71.28856,67.24432 71.16456,67.30432 71.03896,67.30432" id="Fill-85" fill="#71748D"></path>
            <path d="M95.10616,34.4864 C96.82056,34.3216 97.17816,36.7 97.87416,37.8384 C98.21016,38.388 99.07496,37.8856 98.73816,37.3344 C97.81256,35.8208 97.39816,33.2664 95.10616,33.4864 C94.47016,33.5472 94.46376,34.548 95.10616,34.4864" id="Fill-87" fill="#271F23"></path>
            <path d="M94.97336,37.4012 C96.82456,37.7388 98.11176,39.4148 99.07416,40.906 C99.42296,41.446 100.28936,40.9452 99.93816,40.4012 C98.83976,38.6996 97.34776,36.8204 95.23896,36.438 C94.60856,36.322 94.33976,37.2852 94.97336,37.4012" id="Fill-89" fill="#271F23"></path>
            <path d="M54.9632,51.10744 C54.8384,51.10744 54.7152,51.04984 54.6384,50.94424 C54.5216,50.78424 54.5344,50.56584 54.6752,50.42744 C54.8032,50.30104 57.8448,47.32424 60.6904,47.32424 C63.512,47.32424 66.2424,49.49944 66.3568,49.59144 C66.5016,49.70824 66.5464,49.90904 66.4672,50.07624 C66.3864,50.24424 66.2064,50.33544 66.0208,50.29384 L65.0208,50.07784 C64.8056,50.03064 64.6688,49.81784 64.7152,49.60104 C64.7248,49.55624 64.7432,49.51464 64.7664,49.47544 C63.768,48.87384 62.2168,48.12424 60.6904,48.12424 C59.2168,48.12424 57.6128,49.09544 56.528,49.90904 C56.628,49.89144 56.7344,49.87544 56.8464,49.85784 C57.064,49.82824 57.2688,49.97384 57.3016,50.19384 C57.3352,50.41144 57.1848,50.61624 56.9664,50.64904 C55.5352,50.86744 55.1664,51.05304 55.1512,51.06024 C55.092,51.09064 55.0272,51.10744 54.9632,51.10744" id="Fill-91" fill="#271F23"></path>
            <path d="M57.63896,75.35432 C57.50536,75.35432 57.37416,75.28552 57.29816,75.16312 C56.33176,73.59432 56.01256,72.23832 59.70616,66.68232 C63.46296,61.02872 65.86936,61.04392 66.13816,61.07352 C66.35816,61.09112 66.52216,61.28392 66.50456,61.50472 C66.48776,61.72312 66.28536,61.89112 66.08296,61.87112 L66.08216,61.87112 C66.00376,61.87112 63.82296,61.93112 60.37176,67.12472 C56.69496,72.65752 57.29016,73.62392 57.97976,74.74392 C58.09496,74.93192 58.03656,75.17832 57.84856,75.29432 C57.78376,75.33512 57.71096,75.35432 57.63896,75.35432" id="Fill-93" fill="#71748D"></path>
            <path d="M66.84056,66.38632 C66.79576,66.38632 66.75096,66.37912 66.70616,66.36312 C66.09656,66.14552 65.60776,65.64472 65.33016,64.95272 C64.97416,64.06632 65.00616,63.00952 65.41416,62.19752 C65.77896,61.46792 66.41096,61.01432 67.19336,60.92152 C67.18456,60.92152 68.06616,60.71512 68.80056,61.16792 C69.23256,61.43432 69.51976,61.85752 69.65336,62.42792 C69.70376,62.64232 69.57016,62.85832 69.35576,62.90792 C69.13976,62.96472 68.92456,62.82552 68.87496,62.61032 C68.60856,61.47352 67.54536,61.65912 67.33256,61.70792 C66.63816,61.79272 66.29976,62.21432 66.12936,62.55432 C65.82536,63.16072 65.80376,63.98472 66.07256,64.65512 C66.26376,65.13112 66.58456,65.47032 66.97496,65.60952 C67.18296,65.68392 67.29096,65.91272 67.21736,66.12072 C67.15816,66.28472 67.00456,66.38632 66.84056,66.38632" id="Fill-95" fill="#71748D"></path>
            <path d="M75.596,69.15744 C75.2672,69.15744 74.9224,69.11424 74.5376,69.04704 C73.768,68.89424 73.1072,68.64704 72.348,68.32144 C72.1456,68.23424 72.0512,67.99904 72.1384,67.79584 C72.2256,67.59184 72.4608,67.49984 72.664,67.58544 C73.376,67.89104 73.992,68.12304 74.684,68.26144 C75.7872,68.45264 76.3456,68.36144 77.1584,67.84784 C77.3424,67.73184 77.5904,67.78384 77.7104,67.97344 C77.828,68.15984 77.772,68.40784 77.5848,68.52464 C76.8488,68.98944 76.2528,69.15744 75.596,69.15744" id="Fill-97" fill="#71748D"></path>
            <path d="M71.08512,50.1176 C71.35232,49.292 71.49552,48.4416 71.61952,47.5848 C71.73712,46.7776 71.43312,45.9776 70.57152,45.7408 C69.85872,45.544 68.84512,45.9776 68.72752,46.788 C68.60192,47.6448 68.45952,48.4944 68.19312,49.3208 C67.94112,50.0992 68.47792,50.956 69.24032,51.1656 C70.05472,51.3896 70.83472,50.8952 71.08512,50.1176" id="Fill-99" fill="#BCD4F9"></path>
            <path d="M98.35224,119.00744 C102.10584,123.76904 106.44504,127.98584 110.60344,132.38424 C111.20584,133.02104 112.23384,132.38824 110.96264,132.89544 C110.34744,133.14184 109.73384,133.38824 109.11864,133.63384 C108.00344,134.07944 106.88824,134.52504 105.77304,134.97144 C105.32664,135.15144 105.26984,135.77784 105.77304,135.93544 C106.98504,136.31784 108.20904,136.65704 109.43304,137.00104 C110.02824,137.16744 110.62504,137.33064 111.22104,137.49384 C110.93704,137.41624 111.00584,136.79784 111.00584,137.41064 L111.00584,143.99944 L111.00584,157.22104 C111.00584,157.86504 112.00584,157.86504 112.00584,157.22104 L112.00584,137.05464 C112.00584,136.83144 111.85384,136.63064 111.63864,136.57144 C109.76744,136.05944 107.89064,135.55544 106.03864,134.97144 L106.03864,135.93544 L112.03864,133.53544 C112.38744,133.39704 112.53544,132.99704 112.26024,132.69944 C107.82824,127.92104 103.10184,123.42744 99.06024,118.29944 C98.66104,117.79384 97.95784,118.50744 98.35224,119.00744" id="Fill-101" fill="#7EA3FF"></path>
            <polygon id="Fill-103" fill="#BCD4F9" points="75.87184 125.85432 80.50624 118.65432 86.90624 124.15432 77.64064 154.85512 89.90624 152.78952"></polygon>
            <path d="M54.95616,51.11136 L53.83136,51.11136 C53.60976,51.11136 53.43136,50.93216 53.43136,50.71136 C53.43136,50.49136 53.60976,50.31136 53.83136,50.31136 L54.95616,50.31136 C55.17696,50.31136 55.35616,50.49136 55.35616,50.71136 C55.35616,50.93216 55.17696,51.11136 54.95616,51.11136" id="Fill-108" fill="#271F23"></path>
            <path d="M46.69288,37.8856 C47.68968,37.204 48.49768,36.2992 49.49288,35.6184 C50.02168,35.2576 49.52248,34.3896 48.98808,34.7544 C47.99128,35.436 47.18328,36.3408 46.18808,37.0216 C45.65928,37.384 46.15848,38.2512 46.69288,37.8856" id="Fill-110" fill="#271F23"></path>
            <path d="M45.50616,35.4192 C47.22056,35.3416 48.09816,33.836 49.32696,32.8728 C49.83416,32.4752 49.12136,31.7728 48.61976,32.1656 C47.66296,32.9152 46.83416,34.3592 45.50616,34.4192 C44.86376,34.448 44.86056,35.448 45.50616,35.4192" id="Fill-112" fill="#271F23"></path>
            <path d="M45.50616,33.15432 C47.17976,33.07112 48.02056,31.41272 49.05976,30.34072 C49.50856,29.87752 48.80216,29.16952 48.35256,29.63272 C47.57896,30.43112 46.75096,32.09192 45.50616,32.15432 C44.86456,32.18552 44.86136,33.18552 45.50616,33.15432" id="Fill-114" fill="#271F23"></path>
            <path d="M58.27184,49.084 C58.27184,48.728 58.36224,48.3944 58.52144,48.104 C58.86864,47.4664 61.72784,47.4392 62.08464,48.0408 C62.26384,48.3456 62.36704,48.7016 62.36704,49.084 C62.36704,50.2144 61.45184,51.1312 60.32064,51.1312 C59.18864,51.1312 58.27184,50.2144 58.27184,49.084" id="Fill-116" fill="#271F23"></path>
            <path d="M60.38584,47.70744 C59.49704,47.70744 58.74984,47.89384 58.60904,48.15144 C58.45144,48.43944 58.37144,48.75304 58.37144,49.08424 C58.37144,50.15784 59.24584,51.03064 60.32024,51.03064 C61.39384,51.03064 62.26744,50.15784 62.26744,49.08424 C62.26744,48.73384 62.17384,48.39064 61.99864,48.09144 C61.86424,47.86504 61.20104,47.70744 60.38584,47.70744 M60.32024,51.23064 C59.13624,51.23064 58.17144,50.26744 58.17144,49.08424 C58.17144,48.72424 58.26264,48.36824 58.43464,48.05544 C58.65464,47.65144 59.62344,47.50744 60.38584,47.50744 C61.10984,47.50744 61.95944,47.63384 62.16984,47.99064 C62.36504,48.31944 62.46744,48.69704 62.46744,49.08424 C62.46744,50.26744 61.50344,51.23064 60.32024,51.23064" id="Fill-118" fill="#271F23"></path>
            <path d="M63.64056,40.45432 L56.14856,40.45432 C54.85816,40.45432 54.85816,42.45432 56.14856,42.45432 L63.64056,42.45432 C64.93016,42.45432 64.93016,40.45432 63.64056,40.45432" id="Fill-120" fill="#271F23"></path>
            <path d="M59.99448,53.82776 C58.60088,53.82776 57.34008,53.43656 56.16088,52.97656 C55.95448,52.89576 55.85288,52.66456 55.93368,52.45816 C56.01368,52.25256 56.24568,52.14936 56.45128,52.23096 C58.38888,52.98776 60.09528,53.35256 62.12968,52.67416 C62.33928,52.60456 62.56568,52.71736 62.63608,52.92776 C62.70568,53.13656 62.59208,53.36296 62.38248,53.43416 C61.54248,53.71256 60.74888,53.82776 59.99448,53.82776" id="Fill-122" fill="#7EA3FF"></path>
            <path d="M62.53432,51.93088 L58.67032,51.93088 C58.22792,51.93088 57.87032,51.57248 57.87032,51.13088 C57.87032,50.68768 58.22792,50.33088 58.67032,50.33088 L62.53432,50.33088 C62.97672,50.33088 63.33432,50.68768 63.33432,51.13088 C63.33432,51.57248 62.97672,51.93088 62.53432,51.93088" id="Fill-124" fill="#E3ECF8"></path>
            <path d="M32.62416,112.78632 C34.80096,118.57112 38.03776,123.91832 39.42416,129.98632 C39.47376,130.20232 39.69136,130.35432 39.90656,130.35432 C41.48016,130.35432 43.05136,130.26472 44.62656,130.26792 C47.74016,130.27352 43.61216,133.62792 43.53296,133.69752 C42.50416,134.59832 41.41056,135.43432 40.35216,136.29992 C40.17296,136.44712 40.18096,136.71832 40.27456,136.90552 C43.89696,144.19832 47.18416,151.63432 50.22416,159.18632 C50.46176,159.77752 51.42976,159.51912 51.18816,158.92072 C49.17536,153.91832 47.06416,148.96232 44.81776,144.05992 C44.22896,142.77432 40.65536,137.33752 42.10736,136.14872 C44.23776,134.40552 46.28016,132.71432 47.93856,130.50552 C48.13136,130.24792 47.92816,129.84072 47.63936,129.77112 C45.64736,129.28872 43.80096,129.24072 41.74576,129.31832 C39.29456,129.41112 40.05776,128.14472 39.32576,125.91432 C37.80976,121.30152 35.29696,117.06232 33.58816,112.52072 C33.36336,111.92312 32.39696,112.181829 32.62416,112.78632" id="Fill-126" fill="#7EA3FF"></path>
        </g>
    </g>
</svg>