<?xml version="1.0" encoding="UTF-8"?>
<svg width="153px" height="161px" viewBox="0 0 153 161" version="1.1" xmlns="http://www.w3.org/2000/svg" xmlns:xlink="http://www.w3.org/1999/xlink">
    <title>Illustration / Jim</title>
    <defs>
        <polygon id="path-1" points="0 0.702235353 48.7012 0.702235353 48.7012 73.73952 0 73.73952"></polygon>
        <polygon id="path-3" points="0.75432 0.156508108 65.3615867 0.156508108 65.3615867 77.6 0.75432 77.6"></polygon>
    </defs>
    <g id="Illustration-/-Jim" stroke="none" stroke-width="1" fill="none" fill-rule="evenodd">
        <g id="Jim">
            <g id="Group-4" transform="translate(36.000000, 48.886400)">
                <path d="M9.99968,23.83408 C9.99968,23.83408 8.35408,27.38368 5.25408,17.90928 C2.15408,8.43408 -3.51232,-0.16592 4.12048,0.63408 C11.75408,1.43408 8.23968,1.87008 8.23968,1.87008" id="Fill-1" fill="#BCD4F9"></path>
                <path d="M9.99968,23.83408 C9.99968,23.83408 8.35408,27.38368 5.25408,17.90928 C2.15408,8.43408 -3.51232,-0.16592 4.12048,0.63408 C11.75408,1.43408 8.23968,1.87008 8.23968,1.87008" id="Stroke-3" stroke="#7EA3FF" stroke-width="0.8" stroke-linecap="round" stroke-linejoin="round"></path>
            </g>
            <g id="Group-8" transform="translate(101.600000, 46.486400)">
                <path d="M1.96608,24.93096 C1.96608,24.93096 6.15328,27.11256 7.75328,17.17336 C9.35328,7.23416 10.15328,0.63416 7.75328,0.23416 C5.35328,-0.16584 0.07088,4.87976 0.07088,4.87976" id="Fill-5" fill="#BCD4F9"></path>
                <path d="M1.96608,24.93096 C1.96608,24.93096 6.15328,27.11256 7.75328,17.17336 C9.35328,7.23416 10.15328,0.63416 7.75328,0.23416 C5.35328,-0.16584 0.07088,4.87976 0.07088,4.87976" id="Stroke-7" stroke="#7EA3FF" stroke-width="0.8" stroke-linecap="round" stroke-linejoin="round"></path>
            </g>
            <path d="M40.05432,141.7876 L43.51192,159.426 L87.15432,159.426 C123.70232,159.426 108.35352,114.8484 108.35352,106.7844 C108.35352,98.7204 107.15352,84.3004 95.55432,80.3092 C83.95432,76.3204 59.28712,72.3004 45.02072,91.3092 C30.75432,110.3204 40.05432,141.7876 40.05432,141.7876" id="Fill-9" fill="#E3ECF8"></path>
            <g id="Group-14" transform="translate(36.000000, 0.086400)">
                <path d="M8.69344,63.57312 C4.89904,63.57312 5.42144,58.76832 5.42144,58.76832 L4.62144,52.50112 C4.62144,50.10112 3.68784,48.36832 3.68784,48.36832 C1.55424,44.36832 0.75504,36.58992 0.75504,36.58992 C0.75504,25.87792 2.88784,16.63552 20.22144,5.29152 C37.55504,-6.05168 51.95504,5.53872 51.95504,5.53872 C51.95504,5.53872 53.28864,3.70112 57.68864,6.36672 C62.08784,9.03392 80.48944,23.21072 74.75504,40.76672 C74.75504,40.76672 75.28784,47.43392 72.48784,52.10112 L69.02064,55.16832" id="Fill-11" fill="#271F23"></path>
                <path d="M8.69344,63.57312 C4.89904,63.57312 5.42144,58.76832 5.42144,58.76832 L4.62144,52.50112 C4.62144,50.10112 3.68784,48.36832 3.68784,48.36832 C1.55424,44.36832 0.75504,36.58992 0.75504,36.58992 C0.75504,25.87792 2.88784,16.63552 20.22144,5.29152 C37.55504,-6.05168 51.95504,5.53872 51.95504,5.53872 C51.95504,5.53872 53.28864,3.70112 57.68864,6.36672 C62.08784,9.03392 80.48944,23.21072 74.75504,40.76672 C74.75504,40.76672 75.28784,47.43392 72.48784,52.10112 L69.02064,55.16832" id="Stroke-13" stroke="#271F23" stroke-width="0.8"></path>
            </g>
            <path d="M47.11376,74.58296 C47.11376,74.58296 48.35616,87.78776 51.42256,92.05496 C54.48976,96.32056 70.88976,111.52056 70.88976,111.52056 L74.30336,111.52056 C74.30336,111.52056 97.68976,102.72056 99.68976,87.52056 L100.53776,79.60936" id="Fill-15" fill="#BCD4F9"></path>
            <path d="M105.02072,55.2548 L105.02072,58.4092 C104.75352,61.966 105.55512,71.6548 98.62072,83.1172 C91.68792,94.5812 83.95512,101.7876 71.68792,101.7876 C63.45432,101.7876 58.62152,95.122 51.95512,85.8644 C45.28792,76.6076 45.45352,65.142 44.65352,58.1732 C43.85352,51.206 45.07672,47.6548 45.07672,47.6548 C45.07672,47.6548 48.48872,48.3204 51.02232,43.9204 C53.55512,39.5204 62.48872,38.7204 67.68872,30.3204 C72.88872,21.9204 89.02232,29.2548 89.15512,14.1876 C89.15512,14.1876 100.62232,21.5204 100.62232,29.6532 C100.62232,37.7876 100.22072,47.3892 105.02072,55.2548" id="Fill-17" fill="#E3ECF8"></path>
            <path d="M56.32072,54.24544 C56.32072,54.00144 56.34792,53.76384 56.42552,53.54544 C56.52312,53.26784 57.68872,52.21184 58.83032,52.24064 C59.97032,52.26944 61.08712,53.38304 61.08712,54.24544 C61.08712,55.56144 60.02072,56.62864 58.70392,56.62864 C57.38792,56.62864 56.32072,55.56144 56.32072,54.24544" id="Fill-19" fill="#271F23"></path>
            <path d="M56.32072,54.24544 C56.32072,54.00144 56.34792,53.76384 56.42552,53.54544 C56.52312,53.26784 57.68872,52.21184 58.83032,52.24064 C59.97032,52.26944 61.08712,53.38304 61.08712,54.24544 C61.08712,55.56144 60.02072,56.62864 58.70392,56.62864 C57.38792,56.62864 56.32072,55.56144 56.32072,54.24544 Z" id="Stroke-21" stroke="#271F23" stroke-width="1.2"></path>
            <path d="M59.8536,52.5736 C60.1032,52.5144 59.5968,52.5752 59.8536,52.5736 C59.3936,52.576 60.5392,52.5848 60.6536,52.5736 C60.7832,52.5616 62.1232,53.3808 62.2536,53.3736 C62.752,53.3496 63.3568,54.1288 63.8536,54.1736 C63.992,54.1864 63.7152,54.9696 63.8536,54.9736 C63.744,54.9704 64.3872,54.9264 64.6536,54.9736 C64.868,55.012 64.44,54.928 64.6536,54.9736 C65.0432,55.0568 63.604,55.092 63.9856,55.2104 C64.2584,55.2936 64.528,55.3872 64.7944,55.4896 C64.8864,55.5248 64.9776,55.5648 65.0704,55.5992 C65.1792,55.64 64.4,55.3168 64.816,55.492 L65.2944,55.6936 C65.4552,55.7608 65.4568,55.7616 65.3,55.6952 C64.9936,55.5688 65.3936,55.7408 65.424,55.756 C65.5208,55.8032 65.612,55.868 65.7096,55.912 C65.9184,56.004 65.416,55.6232 65.6616,55.8704 C65.9016,56.1136 65.5624,55.6808 65.5072,55.5904 C65.4392,55.4088 65.428,55.3904 65.472,55.5352 C65.4584,55.4232 65.444,55.3104 65.4296,55.1976 C65.4368,55.5288 65.5384,54.7776 65.4712,55.004 C65.4056,55.2232 65.7328,54.5768 65.5472,54.8224 C65.7248,54.6448 65.9032,54.4672 66.08,54.2904 C66.4328,54.1704 66.5072,54.1336 66.3056,54.18 C65.2776,54.3872 64.592,55.6624 64.9088,56.64 C65.2616,57.7304 66.2688,58.2584 67.3696,58.0368 C69.3144,57.6456 69.9168,55.1768 68.9704,53.6408 C68.5344,52.9328 67.828,52.4624 67.0792,52.14 C66.88,52.0552 66.68,51.9712 66.4792,51.888 C66.7272,51.9928 66.7936,52.0216 66.6768,51.9712 C66.488,51.892 66.3008,51.8104 66.1104,51.7328 C65.9824,51.68 65.8528,51.6288 65.7224,51.5808 C63.3168,50.6904 60.6232,50.4464 58.1216,51.0456 C57.1032,51.2896 55.5288,51.5696 55.8536,52.5736 C56.1968,53.6336 57.4536,51.7736 58.2536,51.7736 L59.8536,52.5736 Z" id="Fill-23" fill="#BCD4F9"></path>
            <path d="M51.42152,55.05328 C51.15432,55.05328 50.88792,55.12048 50.62152,55.12048 C50.28792,55.18768 50.02152,55.12048 49.75432,55.05328 C49.42152,55.05328 49.08792,55.12048 48.95432,55.38768 C48.82152,55.65328 48.82152,55.92048 48.82152,56.18768 C48.75432,56.45328 48.68792,56.72048 48.75432,56.92048 C48.82152,57.25328 49.15432,57.18768 49.35432,57.05328 C50.02152,56.78768 50.55432,56.25328 50.95432,55.72048" id="Fill-25" fill="#BCD4F9"></path>
            <g id="Group-29" transform="translate(0.000000, 85.686400)">
                <mask id="mask-2" fill="white">
                    <use xlink:href="#path-1"></use>
                </mask>
                <g id="Clip-28"></g>
                <path d="M48.7012,0.94032 C43.1348,24.51712 41.9428,49.61632 43.5124,73.73952 L17.2956,73.73952 C2.8796,73.73952 -12.742,27.54192 16.594,21.09792 C30.846,17.96672 45.8732,-1.66928 48.7012,0.94032" id="Fill-27" fill="#271F23" mask="url(#mask-2)"></path>
            </g>
            <g id="Group-32" transform="translate(86.400000, 82.486400)">
                <mask id="mask-4" fill="white">
                    <use xlink:href="#path-3"></use>
                </mask>
                <g id="Clip-31"></g>
                <path d="M64.48792,60.99184 C69.28792,33.37504 53.82072,24.10144 30.08792,15.03424 C30.08792,15.03424 22.35352,8.44464 19.68792,4.14064 C17.02072,-0.16576 13.81112,0.16224 13.81112,0.16224 C13.81112,0.16224 18.88792,9.96864 15.68792,27.03424 C12.48792,44.10144 0.75432,76.93984 0.75432,76.93984 C0.75432,76.93984 60.73832,82.56224 64.48792,60.99184" id="Fill-30" fill="#271F23" mask="url(#mask-4)"></path>
            </g>
            <path d="M51.62072,55.04232 C51.62072,55.04232 56.12072,52.11752 58.95432,52.1207174" id="Stroke-33" stroke="#271F23" stroke-width="0.8" stroke-linecap="round" stroke-linejoin="round"></path>
            <line x1="64.70432" y1="55.52048" x2="63.45472" y2="54.87808" id="Stroke-35" stroke="#271F23" stroke-width="0.8" stroke-linecap="round" stroke-linejoin="round"></line>
            <path d="M78.25432,71.52048 C78.25432,71.52048 76.75432,71.02048 75.75432,72.22048" id="Stroke-37" stroke="#71748E" stroke-width="0.8" stroke-linecap="round" stroke-linejoin="round"></path>
            <path d="M68.15432,72.72048 C68.15432,72.72048 66.45432,71.02048 69.15432,72.22048" id="Stroke-39" stroke="#71748E" stroke-width="0.8" stroke-linecap="round" stroke-linejoin="round"></path>
            <path d="M78.35432,65.65328 C79.17512,65.95968 78.41912,65.51568 79.17512,65.95968 C80.10472,66.50288 81.90072,69.30448 82.61752,70.18768 C84.16232,72.08768 85.88152,73.37328 87.65032,75.11088 C86.29352,74.46768 84.90232,73.62528 83.55432,72.88608 C82.69592,72.41568 81.04072,71.74048 80.08152,71.79088 C80.08152,71.79088 80.94712,71.05968 80.35432,68.52048 C79.76152,65.98128 78.35432,65.65328 78.35432,65.65328" id="Fill-41" fill="#BCD4F9"></path>
            <line x1="53.05824" y1="54.23296" x2="53.88704" y2="54.23296" id="Stroke-43" stroke="#271F23" stroke-width="0.8" stroke-linecap="round" stroke-linejoin="round"></line>
            <path d="M33.05432,39.82048 C33.65432,40.02048 34.35432,39.92048 34.95432,39.92048 C35.65432,39.92048 36.25432,39.82048 36.75432,39.62048 C37.35432,39.32048 38.05432,39.12048 38.55432,38.82048 C38.85432,38.62048 39.15432,38.52048 39.35432,38.32048 C39.65432,38.12048 39.85432,37.82048 40.05432,37.52048" id="Stroke-45" stroke="#271F23" stroke-width="0.8" stroke-linecap="round" stroke-linejoin="round"></path>
            <g id="Group-50" transform="translate(33.600000, 36.886400)">
                <path d="M7.65432,9.83408 L0.41272,5.32448 L1.35432,3.03408 L7.65432,0.63408 L7.65432,7.93408 C4.55432,8.83408 2.95432,7.93408 2.95432,7.93408" id="Fill-47" fill="#271F23"></path>
                <path d="M7.65432,9.83408 L0.41272,5.32448 L1.35432,3.03408 L7.65432,0.63408 L7.65432,7.93408 C4.55432,8.83408 2.95432,7.93408 2.95432,7.93408" id="Stroke-49" stroke="#271F23" stroke-width="0.8" stroke-linecap="round" stroke-linejoin="round"></path>
            </g>
            <path d="M33.05432,41.82048 C33.05432,41.82048 35.75432,43.52048 40.05432,41.42048" id="Stroke-51" stroke="#271F23" stroke-width="0.8" stroke-linecap="round" stroke-linejoin="round"></path>
            <path d="M92.08792,5.61264 C92.08792,5.61264 105.75192,7.42064 111.25352,21.82064" id="Stroke-53" stroke="#271F23" stroke-width="0.8" stroke-linecap="round" stroke-linejoin="round"></path>
            <line x1="75.75432" y1="55.2548" x2="75.75432" y2="61.8268" id="Stroke-55" stroke="#BCD4F9" stroke-width="0.8" stroke-linecap="round" stroke-linejoin="round"></line>
            <path d="M67.32624,84.38296 C68.75264,86.45176 71.39424,87.18696 73.80224,87.17336 C76.18784,87.16136 78.90624,86.36616 79.78144,83.90536 C80.13344,82.91896 79.38464,81.67256 78.38464,81.44536 C77.26304,81.19016 76.30144,81.78536 75.92464,82.84216 C75.82784,83.11496 76.22624,82.31976 75.99424,82.65896 C75.95904,82.71016 75.91344,82.76776 75.88704,82.82296 C76.13984,82.30696 76.17824,82.48536 76.02784,82.62216 C75.98944,82.65656 75.87504,82.80936 75.82304,82.80936 C75.85104,82.80936 76.32384,82.47496 75.99504,82.66696 C75.91824,82.71176 75.84544,82.76056 75.76864,82.80216 C75.68784,82.84616 75.60384,82.88216 75.52304,82.92536 C75.23904,83.07736 76.01824,82.75896 75.69984,82.84776 C75.31424,82.95576 74.94544,83.06856 74.55024,83.14216 C74.11104,83.22296 75.03424,83.09576 74.66544,83.12696 C74.57104,83.13416 74.47664,83.14456 74.38144,83.15176 C74.15584,83.16776 73.93024,83.17496 73.70464,83.17336 C73.47584,83.17256 73.24784,83.16296 73.02064,83.14376 C72.92304,83.13576 72.82544,83.12536 72.72864,83.11576 C72.35424,83.07976 73.21984,83.19656 72.87424,83.13416 C72.43744,83.05656 72.00784,82.96376 71.58704,82.81816 C71.50224,82.78856 71.41824,82.75016 71.33184,82.72376 C71.92464,82.90936 71.63744,82.85656 71.48384,82.78376 C71.30464,82.69976 71.12944,82.60376 70.96224,82.49736 C70.89024,82.45096 70.57984,82.21896 70.89904,82.46616 C71.21424,82.71016 70.92224,82.47656 70.85984,82.41816 C70.80384,82.36616 70.75264,82.30776 70.69824,82.25416 C70.37904,81.93976 70.95344,82.61496 70.77984,82.36456 C70.18784,81.50456 68.99904,81.03176 68.04384,81.64696 C67.18944,82.19816 66.69104,83.46216 67.32624,84.38296" id="Fill-57" fill="#BCD4F9"></path>
            <path d="M82.6536,70.5736 C82.6536,70.5736 83.4536,72.9736 88.0784,75.9112 C91.16,77.868 87.8208,85.216 87.8208,85.216" id="Stroke-59" stroke="#BCD4F9" stroke-width="0.8" stroke-linecap="round" stroke-linejoin="round"></path>
            <path d="M70.88952,111.52048 C70.88952,111.52048 68.42472,115.42528 67.35832,117.02528 C64.42472,121.55808 64.02552,123.28288 68.02552,126.21728 C71.22552,128.61728 78.29272,131.35808 78.95192,135.49728 C73.42072,135.49728 74.75912,135.49728 65.09032,135.29248 C68.35912,128.02528 74.43112,129.96608 77.23752,124.89248 C77.77192,123.92528 78.37352,122.76288 78.84712,121.54688 C79.67672,119.41568 75.29592,112.58448 75.29592,112.58448 C74.38072,112.49088 70.76072,110.15808 70.88952,111.52048" id="Fill-61" fill="#BCD4F9"></path>
            <polygon id="Fill-63" fill="#BCD4F9" points="65.09032 135.29232 62.44952 159.42592 82.02792 159.42592 78.95192 135.49712"></polygon>
            <path d="M45.02072,109.52048 C46.27912,119.58928 47.62392,129.80608 50.08712,139.65488 L70.88952,111.52048 L74.30392,111.52048 L93.96872,138.61728" id="Stroke-65" stroke="#7EA3FF" stroke-width="0.8" stroke-linecap="round" stroke-linejoin="round"></path>
            <path d="M72.5856,84.22904 C73.04,84.55384 73.6368,84.44504 74.1,84.22904 C76.044,83.32264 82.2536,82.97384 82.0216,81.51064 C81.9384,80.98984 81.5136,80.54024 80.9864,80.45784 C78.0792,80.00744 75.2544,80.39464 72.5856,81.63944 L74.1,81.63944 C71.7312,79.94584 68.6984,80.25544 66.0144,80.84664 C65.5432,80.95064 65.2392,81.20984 65.0792,81.53304 C64.5968,82.50184 70.8688,83.00344 72.5856,84.22904" id="Fill-67" fill="#BCD4F9"></path>
            <path d="M63.78952,82.25328 L64.49832,81.92048 L71.08712,83.05328 C73.35432,83.98608 74.48792,83.11888 75.42072,83.05328 C76.35432,82.98608 83.32072,81.91248 83.45352,81.77328 L84.25352,81.77328" id="Stroke-69" stroke="#71748E" stroke-width="0.8" stroke-linecap="round" stroke-linejoin="round"></path>
            <path d="M65.66136,55.48528 L66.11096,55.93488 C66.29256,56.13088 66.50776,56.26848 66.75496,56.34928 C66.99336,56.47408 67.25016,56.53168 67.52536,56.52128 C67.80136,56.53168 68.05816,56.47408 68.29656,56.34928 C68.54456,56.26848 68.75896,56.13088 68.94056,55.93488 C69.04456,55.80128 69.14776,55.66608 69.25256,55.53088 C69.43336,55.21888 69.52456,54.88208 69.52536,54.52128 C69.50216,54.34368 69.47816,54.16688 69.45416,53.99008 C69.35896,53.65088 69.18776,53.35648 68.94056,53.10688 C68.78936,52.95728 68.63976,52.80688 68.48936,52.65648 C68.30856,52.46208 68.09336,52.32368 67.84536,52.24288 C67.60776,52.11808 67.35016,52.06048 67.07576,52.07088 C66.79976,52.06048 66.54296,52.11808 66.30456,52.24288 C66.05656,52.32368 65.84216,52.46208 65.66136,52.65648 C65.55656,52.79168 65.45256,52.92688 65.34776,53.06128 C65.16776,53.37328 65.07656,53.70928 65.07576,54.07088 C65.09896,54.24768 65.12296,54.42528 65.14616,54.60208 C65.24216,54.94128 65.41256,55.23568 65.66136,55.48528" id="Fill-71" fill="#BCD4F9"></path>
            <path d="M79.01376,52.972 L78.11216,52.972 C77.83696,52.9608 77.58016,53.0192 77.34176,53.144 C77.09456,53.2248 76.87936,53.3624 76.69776,53.5576 C76.50256,53.7384 76.36496,53.9536 76.28496,54.2008 C76.15936,54.44 76.10176,54.696 76.11216,54.972 C76.13616,55.1496 76.16016,55.3256 76.18416,55.5032 C76.27856,55.8424 76.45056,56.1368 76.69776,56.3864 C76.83296,56.4896 76.96736,56.5944 77.10256,56.6984 C77.41456,56.88 77.75136,56.9704 78.11216,56.972 L79.01376,56.972 C79.28896,56.9824 79.54576,56.9248 79.78416,56.7992 C80.03136,56.7192 80.24656,56.5816 80.42816,56.3864 C80.62256,56.2048 80.76096,55.9896 80.84096,55.7424 C80.96576,55.504 81.02416,55.2472 81.01376,54.972 C80.98976,54.7944 80.96576,54.6176 80.94176,54.44 C80.84656,54.1016 80.67536,53.8072 80.42816,53.5576 C80.29296,53.4536 80.15776,53.3496 80.02336,53.2448 C79.71056,53.064 79.37456,52.9728 79.01376,52.972" id="Fill-73" fill="#BCD4F9"></path>
            <path d="M63.88016,69.79856 C63.25776,70.56256 62.57376,71.27616 61.83296,71.92736 C61.65056,72.08816 61.46416,72.24496 61.27536,72.39776 C61.23536,72.42976 61.19616,72.46176 61.15536,72.49376 C61.15216,72.49696 60.96096,72.64816 61.07536,72.55776 C61.18896,72.46976 61.01616,72.60256 60.99376,72.61936 C60.94256,72.65776 60.89136,72.69616 60.83936,72.73456 C60.43696,73.03056 60.02256,73.30816 59.59696,73.56976 C59.15216,73.84416 58.94096,74.47696 59.23776,74.93856 C59.52656,75.38416 60.13056,75.58976 60.60656,75.29696 C62.37936,74.20576 63.97856,72.82656 65.29536,71.21296 C65.62496,70.80816 65.72016,70.18896 65.29536,69.79856 C64.92896,69.46256 64.23296,69.36576 63.88016,69.79856" id="Fill-75" fill="#BCD4F9"></path>
            <path d="M84.77072,52.49544 C84.77152,52.22344 85.46992,49.28424 87.05392,50.17384 L89.35072,51.56744 C89.47072,51.85144 89.53792,52.16584 89.53792,52.49544 C89.53792,53.81144 88.47072,54.87864 87.15392,54.87864 C85.83792,54.87864 84.77072,53.81144 84.77072,52.49544" id="Fill-77" fill="#271F23"></path>
            <path d="M84.77072,52.49544 C84.77152,52.22344 85.46992,49.28424 87.05392,50.17384 L89.35072,51.56744 C89.47072,51.85144 89.53792,52.16584 89.53792,52.49544 C89.53792,53.81144 88.47072,54.87864 87.15392,54.87864 C85.83792,54.87864 84.77072,53.81144 84.77072,52.49544 Z" id="Stroke-79" stroke="#271F23" stroke-width="1.2"></path>
            <polygon id="Fill-81" fill="#E3ECF8" points="83.0536 52.5736 87.8536 50.9736 91.8536 52.5736 89.4536 50.1736 87.0536 48.5736 83.0536 50.1736"></polygon>
            <path d="M80.38712,55.52984 C80.37912,55.49704 80.37112,55.46504 80.36472,55.43224 C80.38792,55.60904 80.41192,55.78584 80.43592,55.96344 C80.43512,55.93144 80.43432,55.89864 80.43352,55.86584 C80.40872,56.04344 80.38552,56.22024 80.36152,56.39784 C80.39352,56.25144 80.37752,56.26904 80.31512,56.44824 C80.26792,56.59784 80.18392,56.72504 80.06552,56.83144 C80.27032,56.62264 79.90872,56.91384 79.90552,56.93144 C79.91352,56.89064 80.17672,56.77384 80.20712,56.75784 C80.27432,56.72424 80.59512,56.55064 80.30152,56.70984 C80.01272,56.86504 80.32792,56.70584 80.40392,56.67784 C80.49912,56.64264 80.59512,56.60824 80.69032,56.57384 C81.02392,56.45064 80.33032,55.91944 80.65352,55.77384 C81.00392,55.61544 80.34232,55.19704 80.65352,54.97384 C80.81192,54.85944 83.68232,52.66984 83.85352,52.57384 C84.09672,52.43704 83.30152,53.38904 83.05352,53.37384 C83.14312,53.37944 82.96392,53.38904 83.05352,53.37384 C82.87592,53.39784 83.23112,53.34984 83.05352,53.37384 C83.22552,53.35864 83.12232,52.09224 83.29432,52.10904 C83.11672,52.08424 83.23112,53.39784 83.05352,53.37384 C83.79432,53.47624 83.92552,51.60584 84.65352,51.77384 C85.67032,52.00904 87.17752,52.20744 87.42392,51.12424 C87.65672,50.10424 87.34312,51.22584 86.25352,50.97384 C85.31672,50.75704 85.61672,50.22904 84.65352,50.17384 C83.59192,50.11304 81.23992,51.70984 80.40712,52.29384 C80.27192,52.38904 80.13432,52.48024 79.98872,52.56024 C79.91992,52.59704 79.58792,52.73304 79.89912,52.61624 C80.22472,52.49384 79.83832,52.63784 79.79912,52.65224 C79.31272,52.83704 78.82792,53.01144 78.35352,53.22584 C77.03432,53.82344 76.19352,55.13304 76.53032,56.59384 C76.76552,57.61384 77.99272,58.31304 78.99032,57.99064 C80.05752,57.64504 80.63832,56.62344 80.38712,55.52984" id="Fill-83" fill="#BCD4F9"></path>
            <path d="M77.02464,52.74856 C75.41904,54.14536 76.99424,56.07176 78.21904,57.02536 C78.82384,57.49416 81.24224,59.09256 81.56944,57.53416 C81.89744,55.97176 79.51904,55.61256 80.03344,53.98616 C80.27184,53.23016 81.13184,52.78936 81.68784,52.33736 C82.15264,51.96136 82.56144,51.41416 83.08784,51.12056" id="Fill-85" fill="#BCD4F9"></path>
            <path d="M94.9536,54.23296 L92.1536,52.55776 C92.1536,52.55776 86.8544,50.32016 84.4032,50.83296" id="Stroke-87" stroke="#271F23" stroke-width="0.8" stroke-linecap="round" stroke-linejoin="round"></path>
            <line x1="80.7536" y1="54.65328" x2="82.4736" y2="54.25328" id="Stroke-89" stroke="#271F23" stroke-width="0.8" stroke-linecap="round" stroke-linejoin="round"></line>
            <line x1="93.46216" y1="53.34072" x2="92.08776" y2="53.34072" id="Stroke-91" stroke="#271F23" stroke-width="0.8" stroke-linecap="round" stroke-linejoin="round"></line>
            <path d="M87.15432,51.72048 C84.45432,51.72048 83.75432,52.62048 83.15432,53.12048 C82.55432,53.62048 80.75352,54.65328 80.75352,54.65328" id="Stroke-93" stroke="#271F23" stroke-width="0.8" stroke-linecap="round" stroke-linejoin="round"></path>
            <path d="M65.15432,55.52048 C62.09832,52.52208 59.15432,52.18608 59.15432,52.18608" id="Stroke-95" stroke="#271F23" stroke-width="0.8" stroke-linecap="round" stroke-linejoin="round"></path>
            <path d="M61.08712,51.72048 C61.08712,51.72048 58.65992,51.25968 55.28792,53.08768" id="Stroke-97" stroke="#271F23" stroke-width="0.8" stroke-linecap="round" stroke-linejoin="round"></path>
        </g>
    </g>
</svg>