<?xml version="1.0" encoding="UTF-8"?>
<svg width="151px" height="151px" viewBox="0 0 151 151" version="1.1" xmlns="http://www.w3.org/2000/svg" xmlns:xlink="http://www.w3.org/1999/xlink">
    <title>Illustration / Kyle</title>
    <defs>
        <polygon id="path-1" points="0 0.48184 68.91104 0.48184 68.91104 51.9995922 0 51.9995922"></polygon>
    </defs>
    <g id="Illustration-/-Kyle" stroke="none" stroke-width="1" fill="none" fill-rule="evenodd">
        <g id="Kyle">
            <path d="M54.904,76.52232 C54.9,76.38712 54.8944,76.25352 54.8912,76.11832 C54.7696,76.15912 54.6352,76.18312 54.4816,76.18552 C54.4704,76.18552 54.46,76.18872 54.4488,76.18872 C53.7096,76.18872 52.768,75.77352 51.8536,75.23912 C51.2224,74.86952 50.608,74.44392 50.0792,74.05272 C50.0792,74.05272 50.0784,74.05272 50.0784,74.05192 C49.5448,73.65752 49.0968,73.29912 48.8192,73.07432 L48.728,73.00232 C48.2016,72.57832 47.7488,72.14552 47.3376,71.69752 C47.224,71.57352 47.1152,71.44712 47.0088,71.32072 C45.7832,69.85752 45.0184,68.19272 44.2328,65.98392 L44.0912,65.57352 C43.2728,63.21192 41.356,57.67912 42.6552,55.29432 C42.8688,54.90232 43.1592,54.62232 43.5368,54.44632 C43.464,54.39912 43.3896,54.34472 43.3208,54.30552 C43.2568,54.26872 43.2064,54.23352 43.156,54.19912 C43.012,54.09912 42.912,54.00872 42.8448,53.93592 C42.4824,54.17832 42.1784,54.49752 41.9536,54.91112 C40.4848,57.60712 42.4104,63.16552 43.3352,65.83592 L43.4776,66.24792 C44.2888,68.53112 45.1168,70.32072 46.4496,71.89512 C46.4736,71.92312 46.7536,72.23752 46.8728,72.36392 C46.9528,72.44872 47.0328,72.53272 47.1168,72.61672 C47.1552,72.65592 47.1912,72.69672 47.2312,72.73592 C47.54,73.03832 47.8656,73.33592 48.2272,73.62552 L48.3176,73.69832 C49.3616,74.53912 52.0224,76.67992 54.0344,76.95752 C54.176,76.97672 54.3152,76.98872 54.4488,76.98872 C54.48,76.98872 54.5072,76.97992 54.5384,76.97832 C54.6688,76.97352 54.796,76.96312 54.9168,76.93912 C54.9112,76.80072 54.9088,76.66072 54.904,76.52232" id="Fill-1" fill="#7EA3FF"></path>
            <path d="M54.87424,75.5356 C54.87424,75.4836 54.86944,75.434 54.86944,75.3812 C54.86944,73.3524 54.86704,68.514 54.86944,66.4052 L54.79344,66.4052 C54.17104,66.122 53.80064,65.3204 53.57984,64.4652 C53.31424,63.4428 53.26144,62.3428 53.25264,61.9636 C53.16304,61.9884 53.07584,62.002 52.98784,62.0188 C52.80064,62.0524 52.61584,62.0772 52.43424,62.0772 C49.76224,62.078 48.31904,58.366 47.45584,56.1492 C47.40944,56.03 47.36464,55.9164 47.32224,55.8076 C47.06304,55.9492 46.78944,56.0188 46.50544,56.0188 C46.01664,56.0188 45.53744,55.81 45.08144,55.5316 C44.85024,55.39 44.62384,55.2324 44.40704,55.0724 C44.32304,55.0108 44.23984,54.9492 44.15744,54.8876 C43.94064,54.7252 43.73504,54.5788 43.53664,54.4468 C43.15904,54.622 42.86864,54.902 42.65584,55.294 C41.35664,57.6796 43.27264,63.2124 44.09104,65.574 L44.23264,65.9844 C45.01824,68.1924 45.78304,69.8572 47.00864,71.3204 C47.11504,71.4476 47.22384,71.574 47.33744,71.6972 C47.74864,72.146 48.20144,72.5788 48.72784,73.002 L48.81904,73.0748 C49.09664,73.2988 49.54464,73.6572 50.07824,74.0524 C50.60784,74.4444 51.22304,74.8684 51.85344,75.2388 C52.76784,75.774 53.70944,76.1884 54.44864,76.1884 C54.45984,76.1884 54.47024,76.1852 54.48144,76.1852 C54.63504,76.1836 54.76944,76.1588 54.89104,76.1188 C54.88784,75.922 54.87504,75.7348 54.87424,75.5356" id="Fill-3" fill="#BCD4F9"></path>
            <path d="M49.4376,68.54968 C49.628,68.66248 49.8728,68.59688 49.9848,68.40568 C50.0472,68.29928 50.0888,68.27128 50.088,68.26888 C50.2784,68.27928 50.7792,68.89928 51.0784,69.26888 C51.716,70.05768 52.4376,70.95128 53.3368,71.10808 C53.3592,71.11208 53.3832,71.11368 53.4056,71.11368 C53.596,71.11368 53.7656,70.97688 53.7992,70.78248 C53.8376,70.56568 53.6912,70.35848 53.4744,70.32008 C52.8712,70.21528 52.2216,69.41208 51.7,68.76648 C51.0952,68.01848 50.6056,67.42408 50.028,67.47128 C49.7336,67.49368 49.4872,67.67208 49.2936,68.00248 C49.1824,68.19368 49.2464,68.43848 49.4376,68.54968" id="Fill-5" fill="#7EA3FF"></path>
            <path d="M44.43208,62.75672 C44.48648,62.92632 44.64408,63.03432 44.81368,63.03432 C44.85368,63.03432 44.89448,63.02872 44.93528,63.01512 C45.14648,62.94712 45.26168,62.72232 45.19368,62.51192 C44.16088,59.29912 44.13368,56.73672 45.08168,55.53192 C44.84968,55.39032 44.62408,55.23272 44.40728,55.07272 C42.86568,57.10552 43.89208,61.07752 44.43208,62.75672" id="Fill-7" fill="#7EA3FF"></path>
            <path d="M52.9876,62.0184 C53.0412,62.8408 52.9052,63.6848 52.762,64.5056 C52.462,66.2088 52.1524,67.9704 53.6052,69.5624 C53.6844,69.6488 53.7924,69.692 53.9012,69.692 C53.9972,69.692 54.094,69.6576 54.1708,69.5872 C54.334,69.4384 54.3452,69.1856 54.1964,69.0224 C53.0084,67.7224 53.2596,66.296 53.5492,64.644 C53.5604,64.5856 53.57,64.5256 53.5796,64.4656 C53.314,63.4424 53.262,62.3424 53.2524,61.964 C53.1636,61.9888 53.0756,62.0016 52.9876,62.0184" id="Fill-9" fill="#7EA3FF"></path>
            <path d="M48.5532,69.16296 C48.6308,69.23656 48.73,69.27336 48.8292,69.27336 C48.9348,69.27336 49.0396,69.23176 49.1188,69.14856 C49.2708,68.98856 49.2652,68.73576 49.1044,68.58296 C48.2092,67.73176 48.1788,66.90536 48.1364,65.76216 C48.1196,65.32056 48.102,64.82056 48.0252,64.28376 C47.9932,64.06536 47.7884,63.91256 47.5716,63.94456 C47.3532,63.97576 47.202,64.17896 47.2332,64.39736 C47.3036,64.89176 47.3204,65.34936 47.3364,65.79176 C47.3804,66.97256 47.422,68.08616 48.5532,69.16296" id="Fill-11" fill="#7EA3FF"></path>
            <path d="M54.91648,76.93872 C54.79648,76.96272 54.66848,76.97392 54.53808,76.97872 C54.50688,76.98032 54.47968,76.98832 54.44848,76.98832 C54.31488,76.98832 54.17568,76.97712 54.03408,76.95712 C52.02288,76.68032 49.36208,74.53872 48.31728,73.69792 L48.22768,73.62512 C47.86608,73.33552 46.63088,72.11072 46.51888,71.98192 C46.49488,71.95312 46.47328,71.92272 46.44928,71.89472 C44.08128,73.30352 46.34848,75.78192 48.27328,76.93392 C48.04528,77.21632 47.95168,77.62912 47.95328,78.18112 C47.95888,79.66512 49.42128,79.58912 50.45328,79.86272 C51.12608,80.04192 51.80688,80.46832 52.17088,81.02352 C51.67168,80.84192 51.12608,80.87872 50.54128,81.24672 C49.23488,82.07232 50.55888,83.63872 51.92848,83.66832 C51.89408,83.93632 51.88288,84.18592 51.92048,84.29712 C52.39648,85.70032 53.59408,86.23872 54.98608,86.41392 C55.17168,86.43712 55.40208,86.26592 55.45408,86.08112 L55.45408,81.66272 C55.16288,80.18912 54.98848,78.61072 54.91648,76.93872" id="Fill-13" fill="#271F23"></path>
            <path d="M46.99304,71.91216 C47.01704,71.93776 47.04424,71.96336 47.06904,71.99056 C47.06904,71.99056 47.06984,71.98896 47.07064,71.98896 C47.04584,71.96096 47.02264,71.93376 46.99304,71.91216" id="Fill-15" fill="#7EA3FF"></path>
            <path d="M47.0704,71.98872 C47.0696,71.98872 47.0688,71.98952 47.0688,71.98952 C47.0752,71.99672 47.0824,72.00392 47.088,72.00952 C47.0824,72.00312 47.076,71.99592 47.0704,71.98872" id="Fill-17" fill="#7EA3FF"></path>
            <path d="M0.99848,148.73328 C0.92408,148.71328 0.86408,148.69408 0.81048,148.67568 C0.86008,148.79328 0.93768,148.85248 0.99848,148.73328" id="Fill-19" fill="#271F23"></path>
            <path d="M147.71176,132.1856 C145.38536,127.1048 142.45016,124.1208 137.70456,121.2816 C132.44776,118.1368 126.99496,115.2952 121.32136,112.976 C114.74296,110.2888 107.97336,108.404 101.89096,104.644 C102.06376,104.9336 102.21736,105.2416 102.37656,105.5448 C102.51336,105.8072 102.65096,106.0688 102.77736,106.34 C105.77736,112.7872 105.84856,121.8616 106.16936,128.1136 C106.26056,130.6608 106.30856,133.2048 106.35496,135.7336 C106.35496,135.7336 106.47416,142.1432 106.56936,144.7136 L106.56936,148.4168 C113.47416,148.3784 140.82216,149.0688 143.08856,149.1904 C143.86056,149.232 144.63176,149.2784 145.40376,149.3232 C148.47256,148.512 150.49176,146.3608 150.70136,142.8576 C150.92216,139.1856 149.19896,135.4344 147.71176,132.1856" id="Fill-21" fill="#271F23"></path>
            <g id="Group-25" transform="translate(0.000000, 98.091200)">
                <mask id="mask-2" fill="white">
                    <use xlink:href="#path-1"></use>
                </mask>
                <g id="Clip-24"></g>
                <path d="M0.81024,50.58424 C0.72784,50.38824 0.72544,50.04424 1.01584,50.12744 C1.04064,50.13464 1.06544,50.13544 1.09104,50.14184 C1.08464,50.20344 1.07504,50.26264 1.06944,50.32424 C1.05424,50.48584 1.02784,50.58424 0.99824,50.64184 C0.93744,50.76184 0.85984,50.70184 0.81024,50.58424 M68.82144,50.80104 C68.75024,50.57704 68.67904,50.34184 68.60864,50.10104 C68.12384,48.44744 67.67584,46.55544 67.56944,46.02264 C66.80384,43.11384 65.91824,40.32424 64.82784,37.56024 C64.82784,37.56024 64.01824,35.58264 63.76944,35.02264 C60.76944,29.02264 58.76944,23.42264 56.76944,17.22264 C55.41344,12.38024 52.56464,7.16264 52.38704,2.11464 C52.38064,1.95064 52.36944,1.78664 52.36944,1.62264 C52.36944,1.55784 52.37744,1.49784 52.38064,1.43384 C52.39504,1.09144 52.44864,0.77624 52.53344,0.48184 C45.15744,8.57784 35.56224,14.04744 26.64224,20.26504 C21.90224,23.56744 16.66144,26.05064 12.03504,29.52744 C6.52064,33.67064 2.46544,39.21144 0.74224,45.92584 C0.44464,47.08504 -0.86416,50.63384 0.91824,51.13864 C2.76144,51.66104 4.83744,51.65624 6.72944,51.78424 C7.41904,51.82984 8.10864,51.85624 8.79744,51.89464 C14.98304,52.00264 21.16864,52.02184 27.35664,51.97704 C35.94784,51.71624 44.51104,51.58984 53.09024,51.51624 C58.36384,51.37944 63.63744,51.22904 68.91104,51.08104 C68.88144,50.98904 68.85184,50.89784 68.82144,50.80104" id="Fill-23" fill="#271F23" mask="url(#mask-2)"></path>
            </g>
            <path d="M1.09072,148.23328 C1.06592,148.22688 1.04112,148.22528 1.01552,148.21808 C0.72512,148.13568 0.72832,148.47968 0.80992,148.67568 C0.86432,148.69408 0.92432,148.71328 0.99872,148.73328 C1.02832,148.67568 1.05392,148.57728 1.06992,148.41568 C1.07472,148.35328 1.08432,148.29488 1.09072,148.23328" id="Fill-26" fill="#271F23"></path>
            <path d="M88.76568,148.66608 C89.51288,148.65008 90.25928,148.63568 91.00568,148.61968 C90.25688,148.55728 89.51208,148.49328 88.76888,148.43008 C88.76808,148.51008 88.76728,148.59568 88.76568,148.66608" id="Fill-28" fill="#E3ECF8"></path>
            <path d="M106.37744,136.88712 L106.35504,135.73352 C106.30864,133.20472 106.26064,130.66072 106.16944,128.11352 C105.84864,121.86152 105.77744,112.78712 102.77744,106.33992 C102.65104,106.06872 102.51344,105.80712 102.37664,105.54472 C102.21744,105.24152 102.06384,104.93352 101.89104,104.64392 C101.59024,104.14472 101.26224,103.67192 100.91504,103.21992 L55.45424,94.09272 C54.61024,95.80232 53.03824,96.83352 52.53344,98.57272 C52.44864,98.86792 52.39504,99.18232 52.38064,99.52472 C52.37744,99.58872 52.36944,99.64872 52.36944,99.71352 C52.36944,99.87752 52.38064,100.04152 52.38704,100.20552 C52.56464,105.25352 55.41344,110.47112 56.76944,115.31352 C58.76944,121.51352 60.76944,127.11352 63.76944,133.11352 C64.01824,133.67352 64.24144,134.23592 64.47104,134.79592 L64.82784,135.65112 C65.91824,138.41512 66.80384,141.20472 67.56944,144.11352 C67.67584,144.64632 68.12384,146.53832 68.60864,148.19272 C68.67904,148.43352 68.75024,148.66872 68.82144,148.89272 C68.85184,148.98872 68.88144,149.07992 68.91104,149.17192 C70.71744,149.12232 72.52304,149.07192 74.32784,149.02232 C78.22064,148.91592 103.63744,148.43352 106.56944,148.41672 L106.56944,144.71352 C106.47424,142.14312 106.42544,139.52632 106.37744,136.88712" id="Fill-30" fill="#E3ECF8"></path>
            <path d="M55.4536273,79.26216 L55.4536273,94.31336 C55.4536273,94.31336 55.4372,95.72936 55.6292,97.96616 C56.3116,105.92376 59.6436,124.28376 75.8324,126.31336 C75.8324,126.31336 83.1708,128.77896 87.066,137.21496 C87.726,138.35176 88.2164,139.61256 88.47,141.00936 C88.478,140.99976 88.4884,140.98936 88.4972,140.97976 C88.7396,139.82936 90.6308,131.40456 94.17,129.91336 C97.97,128.31336 100.9148,115.57896 100.9148,109.71336 L100.9148,94.67576 L55.4536273,79.26216 Z" id="Fill-32" fill="#BCD4F9"></path>
            <path d="M100.91488,104.77544 C100.90768,104.79704 100.89728,104.81864 100.89328,104.84184 L100.91488,104.84504 L100.91488,104.77544 Z" id="Fill-34" fill="#BCD4F9"></path>
            <path d="M100.91488,105.08168 L100.91488,104.84488 L100.89328,104.84168 C100.87808,104.92248 100.88928,105.00248 100.91488,105.08168" id="Fill-36" fill="#BCD4F9"></path>
            <path d="M109.0024,138.38088 L106.3544,135.73288 L100.352,129.73048 C100.1968,129.57528 99.9464,129.57448 99.7888,129.72888 C98.104,131.38408 90.3976,138.96248 88.4968,140.98008 C88.4872,140.99288 88.4792,140.99688 88.4688,141.00728 C88.216,139.61048 87.7256,138.35128 87.0664,137.21528 L87.0656,137.21448 C82.6128,129.54808 70.3816,127.54168 70.2304,127.51848 C70.088,127.49688 69.9392,127.55528 69.8504,127.67288 L64.4712,134.79608 L62.4504,137.47208 C62.3176,137.64888 62.352,137.89928 62.528,138.03288 C62.704,138.16408 62.9552,138.13128 63.088,137.95528 L64.828,135.65128 L70.3416,128.34968 C72.4304,128.73528 87.78,131.95768 87.8696,143.12488 C87.9176,144.85288 87.9536,146.71928 87.9576,147.96888 C87.9584,148.10968 87.9584,148.23928 87.9584,148.36328 C87.9576,148.47848 87.9568,148.58568 87.956,148.68408 C88.2256,148.67848 88.4952,148.67208 88.7656,148.66568 C88.7672,148.59608 88.768,148.50968 88.7688,148.43048 C88.7704,148.30008 88.7712,148.15928 88.7712,148.00488 C88.7712,147.00488 88.7352,145.48008 88.6696,143.11048 C88.6664,142.73528 88.6456,142.36808 88.6112,142.00888 C88.6616,141.98088 88.7096,141.94408 88.7456,141.89448 C89.0856,141.42008 95.5952,134.97208 100.0672,130.57688 L106.3776,136.88728 L108.4368,138.94648 C108.5928,139.10248 108.8464,139.10248 109.0024,138.94648 C109.1584,138.79048 109.1584,138.53688 109.0024,138.38088" id="Fill-38" fill="#7EA3FF"></path>
            <path d="M55.454,81.66296 C55.494,81.86616 55.5452,82.05896 55.59,82.25736 C55.558,81.71016 55.5092,81.16296 55.454,80.61656 L55.454,81.66296 Z" id="Fill-40" fill="#E3ECF8"></path>
            <path d="M109.99224,64.52776 L110.10344,64.30936 C110.25304,67.87656 111.07464,72.65336 110.29704,77.46216 C109.47384,82.55016 103.90504,90.84776 100.69064,96.17896 C99.89224,97.50376 99.23384,98.65176 98.83624,99.51336 C98.49464,100.25336 98.12744,100.97496 97.72184,101.66616 C97.21224,102.53656 96.63784,103.35496 95.96264,104.09256 C94.02504,106.20856 91.26504,107.64856 86.83624,107.64856 C81.12664,107.64856 75.65144,104.35016 69.06424,100.00696 C69.03624,99.98856 69.00904,99.97176 68.98184,99.95256 C66.53864,98.34216 64.30984,96.59736 62.37384,94.62856 C59.11944,91.31976 56.71544,87.35576 55.58984,82.25736 C55.46984,81.51896 54.98824,78.61096 54.91624,76.93896 C54.91064,76.80056 54.90904,76.66056 54.90424,76.52216 C54.90024,76.38696 54.89464,76.25336 54.89144,76.11816 C54.88744,75.92216 54.87544,75.73496 54.87464,75.53576 C54.87464,75.48296 54.86984,75.43416 54.86984,75.38056 L50.40584,39.70936 L62.91944,20.61816 L90.96264,17.87816 L105.94264,21.98856 L111.14904,38.79576 L110.10344,64.30936" id="Fill-42" fill="#E3ECF8"></path>
            <path d="M101.19224,27.27232 C100.53544,27.75232 99.40104,27.53792 98.35384,26.97872 C98.37624,26.97872 98.39864,26.98032 98.42024,26.98032 C99.83944,26.98032 100.99224,26.56192 101.87464,25.74672 C101.83064,26.41312 101.60024,26.93152 101.19224,27.27232 M95.38424,28.37392 C93.95864,28.54992 92.48024,27.86832 91.64904,26.74032 C92.14984,26.40112 92.64984,25.99392 93.12184,25.50512 C93.47864,25.69632 95.18024,26.56352 97.11784,26.87072 C97.22024,26.95072 97.31384,27.03552 97.42264,27.11072 C96.98424,27.81872 96.28104,28.26272 95.38424,28.37392 M88.36424,28.76192 C87.63144,29.44992 86.62344,29.38672 85.90744,29.21152 C85.20504,29.04032 84.50584,28.69952 83.86664,28.28032 C84.98904,28.36432 86.11864,28.41392 87.24344,28.41392 C87.25864,28.41232 87.95144,28.34912 88.93624,28.04032 C88.78664,28.31392 88.60344,28.56272 88.36424,28.76192 M64.83544,25.15712 C64.60104,26.45952 64.02024,27.97232 63.67544,28.38592 C62.92664,29.25952 61.77384,29.79232 60.63464,29.81392 C60.59304,29.81472 60.55064,29.80992 60.50904,29.80992 C61.40104,28.13312 62.76824,26.41312 64.85784,25.02192 C64.85064,25.06672 64.84264,25.11232 64.83544,25.15712 M37.31064,42.67952 C37.27544,42.30752 37.07544,42.24512 36.91384,42.19392 C36.85864,42.17712 36.80904,42.16112 36.76504,42.13472 C36.80904,42.16112 36.85864,42.17712 36.91384,42.19392 C37.07544,42.24512 37.27544,42.30752 37.31064,42.67952 M35.60584,38.33872 C35.56664,37.83472 35.53624,37.29072 35.52904,36.72752 C35.53624,37.29072 35.56664,37.83472 35.60584,38.33872 C35.63704,38.74032 35.67944,39.09392 35.73624,39.41952 C35.67944,39.09392 35.63704,38.74032 35.60584,38.33872 M56.00264,66.41392 L56.00104,56.35952 C56.23384,55.66112 56.55544,55.01872 57.04744,54.52592 C57.16504,54.40912 57.16504,54.21952 57.04744,54.10192 C56.93064,53.98512 56.74104,53.98512 56.62344,54.10192 C56.37864,54.34672 56.17864,54.62752 56.00104,54.92352 L56.00104,54.07792 C56.44904,53.30192 57.00024,52.47312 57.74184,52.19472 C57.89624,52.13632 57.97544,51.96352 57.91624,51.80912 C57.85784,51.65392 57.68504,51.57472 57.53064,51.63312 C56.89704,51.87072 56.40744,52.38432 56.00024,52.95872 L56.00024,51.80032 C56.00504,51.78032 56.33464,50.22432 57.54904,48.73872 C58.00104,48.41472 58.46504,48.10832 58.92744,47.82032 C59.49784,47.46512 60.08744,47.09872 60.61944,46.68592 C60.75064,46.58352 60.77464,46.39472 60.67304,46.26432 C60.57144,46.13312 60.38184,46.10912 60.25144,46.21152 C59.84184,46.53072 59.39704,46.81632 58.93624,47.10432 L58.93624,44.81792 C59.46264,44.41072 60.01144,44.06112 60.56984,43.78272 C60.71784,43.70832 60.77784,43.52752 60.70424,43.38032 C60.62984,43.23072 60.44904,43.17232 60.30184,43.24592 C59.83784,43.47792 59.38024,43.75952 58.93624,44.07712 L58.93624,42.68832 C59.02424,42.60512 59.11464,42.52192 59.20264,42.43872 C59.50424,42.15472 59.80344,41.87152 60.10264,41.60512 C60.22584,41.49472 60.23784,41.30592 60.12744,41.18192 C60.01624,41.05712 59.82664,41.04672 59.70424,41.15632 C59.44824,41.38432 59.19224,41.62592 58.93624,41.86752 L58.93624,36.31072 C58.93464,36.26352 58.87224,33.48272 60.33464,30.40512 C60.40904,30.40912 60.48344,30.41712 60.55864,30.41712 C61.88904,30.41712 63.25464,29.79872 64.13384,28.77312 C64.54984,28.27312 65.33784,26.31552 65.50264,24.73392 C65.67864,24.62832 65.85704,24.52352 66.04344,24.42272 C66.68424,24.65552 74.32184,27.36672 82.71784,28.18272 C83.63064,28.93392 84.73064,29.54192 85.76504,29.79392 C86.13544,29.88512 86.48744,29.92912 86.81944,29.92912 C87.59384,29.92912 88.25544,29.68672 88.76184,29.21152 C89.20584,28.84192 89.51304,28.34112 89.69944,27.76992 C90.15544,27.58832 90.64504,27.35632 91.14344,27.06112 C91.99784,28.23792 93.45544,29.00032 94.93704,29.00032 C95.11064,29.00032 95.28424,28.98992 95.45704,28.96912 C96.55224,28.83392 97.40744,28.29392 97.93624,27.43152 C99.16504,28.12832 100.60424,28.44752 101.56184,27.74432 C102.12424,27.27552 102.44184,26.57232 102.48104,25.71152 C102.48984,25.50912 102.48104,25.30352 102.46104,25.09632 C102.57624,24.94192 102.68744,24.78192 102.78984,24.60832 C102.95144,25.37952 103.56744,27.51312 105.51224,28.21392 L105.47544,28.21392 L105.54584,28.35712 C107.62344,32.63152 108.72104,39.38672 109.27624,44.29872 C109.87944,49.62752 109.99064,53.99952 109.99224,54.04032 L109.99224,64.52752 L110.10344,64.30912 L112.52664,59.54752 C112.61944,59.19072 112.77224,58.86832 112.95864,58.56432 C114.24504,58.25552 116.05144,58.10512 116.43384,58.71552 C116.53704,58.92112 116.53304,59.11552 116.42264,59.29312 C116.25704,59.56112 115.87864,59.74832 115.50264,59.74832 C115.33704,59.74832 115.20264,59.88272 115.20264,60.04832 C115.20264,60.21392 115.33704,60.34832 115.50264,60.34832 C116.08504,60.34832 116.66024,60.05152 116.93384,59.60912 C117.15384,59.25232 117.16744,58.83952 116.95624,58.42272 C116.42264,57.56672 114.79704,57.62032 113.48664,57.85392 C113.89144,57.39152 114.36664,56.97392 114.83624,56.56432 L115.29064,56.16752 C116.34824,55.25232 116.74424,54.90912 116.80264,53.27712 L116.80344,53.23952 C116.82264,52.69712 116.83784,52.14592 116.80984,51.59872 C117.41624,50.69472 117.76584,49.62752 117.85064,48.61392 C117.98104,47.04832 117.54184,45.62752 116.67864,44.58992 C116.61144,43.69712 116.37224,42.79072 115.96104,41.97552 C115.64184,41.34192 115.23064,40.74352 114.80744,40.28192 C114.74184,39.10592 114.38664,37.83712 113.75144,36.82432 C113.57944,36.55152 113.39304,36.31392 113.19784,36.10192 C113.19944,36.07792 113.20184,36.04832 113.20264,36.02512 C113.21864,35.53392 113.30344,34.80592 113.40184,33.96272 C113.42664,33.74512 113.45304,33.51712 113.47864,33.28432 C113.59464,33.19312 113.70664,33.08912 113.81144,32.97072 C114.36664,32.34512 114.73864,31.36592 114.90664,30.31232 C115.03224,30.43632 115.15384,30.56832 115.26904,30.70912 C116.26664,31.92592 116.54984,33.37952 116.02744,34.59552 C115.96184,34.74752 116.03224,34.92352 116.18424,34.98912 C116.22344,35.00592 116.26344,35.01392 116.30344,35.01392 C116.41864,35.01392 116.52984,34.94592 116.57864,34.83232 C117.19144,33.40592 116.87544,31.72192 115.73304,30.32832 C115.50424,30.04832 115.25064,29.80352 114.98744,29.58272 C115.06984,28.37472 114.88664,27.15072 114.39784,26.30592 C114.05224,25.70912 113.57624,25.34512 113.01544,25.22192 C112.93704,25.09552 112.85064,24.97952 112.75704,24.87392 C112.33384,24.39872 111.77944,24.16352 111.08744,24.18672 C111.16104,23.66592 111.29784,23.19552 111.43064,22.74032 C111.49384,22.52352 111.55624,22.30352 111.61304,22.07872 C112.05144,21.74512 112.40744,21.30192 112.64504,20.75632 C113.15064,19.60032 113.02344,18.24512 112.32904,17.38352 C111.90424,16.85472 111.30344,16.55632 110.59304,16.49472 C110.45864,16.26592 110.32504,16.03552 110.17384,15.82992 C109.20824,14.52192 107.96424,13.77872 106.57544,13.68352 C106.25944,13.65952 105.87624,13.70672 105.50744,13.75072 C105.19784,13.78832 104.87864,13.82592 104.59304,13.82592 C104.30344,13.82592 104.08184,13.78672 103.91704,13.70432 C103.54344,13.51792 103.29864,13.15072 103.03944,12.76192 C102.72184,12.28752 102.39384,11.79552 101.79304,11.54352 C101.43224,11.39072 101.07384,11.31792 100.69864,11.31792 C100.68104,11.31792 100.66584,11.32112 100.64904,11.32112 C101.01864,11.10752 101.27624,10.83392 101.44504,10.60352 C102.49624,9.16272 102.30504,6.49232 101.02824,4.77232 C100.16184,3.60512 98.95064,3.10352 97.63944,3.33392 C97.28184,3.13152 96.88504,2.97312 96.43064,2.88832 C95.95864,2.79952 95.46024,2.75312 94.98824,2.75312 C93.97464,2.75312 92.19544,2.97472 91.46824,4.43312 C91.10664,4.08032 90.82344,3.73552 90.57144,3.42752 C89.88584,2.59312 89.34504,1.93472 87.86984,1.93472 C87.67544,1.93472 87.46184,1.94592 87.23624,1.96832 C85.53144,2.14112 84.55944,2.89712 83.43384,3.77312 C83.22664,3.93392 83.01304,4.10032 82.78824,4.26832 C82.24824,1.37152 78.56984,0.33312 75.26024,0.33312 C72.83944,0.33312 70.46184,0.87552 69.20424,1.71392 L69.12824,1.76432 C68.49864,2.18512 68.30904,2.31152 68.14184,2.31152 C68.07704,2.31152 68.00584,2.29552 67.90584,2.27312 C67.78744,2.24672 67.62584,2.21072 67.39064,2.18272 C67.20904,2.15952 67.06024,2.13712 66.92824,2.11632 C66.43704,2.03872 66.13864,2.01472 65.51144,2.18592 C63.82504,2.64592 62.67944,3.25632 62.20264,4.86432 C61.30904,4.91152 60.42984,4.96112 59.56744,5.06432 C60.02024,3.91152 60.78664,3.01952 62.27544,2.46192 C62.42984,2.40352 62.50904,2.23072 62.44984,2.07552 C62.39144,1.92032 62.21944,1.84352 62.06424,1.89952 C60.44184,2.50832 59.47144,3.49872 58.90264,5.15712 C56.85304,5.48432 54.90904,6.21152 53.12744,8.10512 C52.73304,8.52352 52.40104,9.00512 52.07864,9.47072 C51.80264,9.87232 51.51544,10.28752 51.19784,10.64832 C50.69704,11.21712 50.68904,11.21952 50.24664,11.35472 C50.11784,11.39312 49.95304,11.44352 49.73224,11.52112 C48.42424,11.97872 47.85464,12.75552 47.19544,13.65392 C46.95304,13.98432 46.70184,14.32592 46.39624,14.67632 C46.14504,14.96352 45.93304,15.26672 45.72824,15.56032 C45.35544,16.09312 45.00344,16.59712 44.48904,16.89152 C44.09304,17.11872 43.68984,17.26272 43.30024,17.40272 C42.66664,17.62992 42.01064,17.86512 41.40344,18.45552 C40.88104,18.96352 40.54824,19.48432 40.32264,20.01072 C39.94264,20.21712 39.59224,20.46672 39.29064,20.76912 C37.66504,22.39392 37.98264,23.26592 38.46424,24.58512 C38.53464,24.77872 38.60984,24.98512 38.68504,25.20912 C38.72664,25.33472 38.84344,25.41392 38.96984,25.41392 C39.00104,25.41392 39.03304,25.40912 39.06424,25.39872 C39.22104,25.34592 39.30664,25.17632 39.25384,25.01952 C39.17704,24.78912 39.10024,24.57712 39.02744,24.37872 C38.56984,23.12272 38.36024,22.54912 39.71464,21.19312 C39.81624,21.09152 39.92664,20.99952 40.03944,20.90992 C39.85624,21.83472 39.94104,22.76992 40.03144,23.68912 C40.12984,24.68432 40.23144,25.71232 39.97304,26.69312 C39.83944,27.20112 40.37704,28.58592 40.55944,29.03072 C40.08424,29.09152 38.48504,29.32112 37.94584,29.72192 C35.22664,31.74272 35.19464,35.61632 35.40664,38.35552 C35.53304,39.99152 35.85144,40.86672 36.47384,42.09952 C36.57384,42.29632 36.72904,42.34592 36.85464,42.38592 C36.99704,42.42992 37.08424,42.45712 37.10984,42.68112 C37.07704,42.74992 36.90904,42.98112 36.79464,43.13632 C36.61704,43.37952 36.50744,43.53072 36.47704,43.60352 C36.03624,44.66512 36.33464,49.16832 37.55304,50.99552 C37.96424,51.61232 38.44424,51.85712 38.96984,51.72192 C38.82424,52.04912 38.80424,52.43712 38.91144,52.86112 C39.17624,53.90272 40.17064,54.99232 40.93304,55.35712 L41.64184,55.73072 C41.64184,55.73072 42.09704,54.89632 42.58984,54.46032 C42.58984,54.46032 43.01144,54.09872 43.15624,54.19872 C43.20664,54.23312 44.31064,55.11552 44.54184,55.25632 C44.99864,55.53552 45.81544,56.12832 46.30584,56.12832 C46.58904,56.12832 47.06344,55.94912 47.32184,55.80752 C47.36504,55.91632 47.40904,56.02992 47.45544,56.14912 C48.31864,58.36592 49.76264,62.07792 52.43464,62.07712 C52.61544,62.07712 52.80104,62.05312 52.98744,62.01872 C53.07544,62.00192 53.16344,61.98912 53.25224,61.96352 C53.26184,62.34272 53.31384,63.44272 53.57944,64.46512 C53.80104,65.32112 54.17144,66.12272 54.79384,66.40512 L55.70344,66.41232" id="Fill-44" fill="#271F23"></path>
            <path d="M94.44768,89.82704 C94.29008,89.67344 94.03568,89.67664 93.88208,89.83584 C92.88768,90.86224 91.47248,91.35984 89.98368,91.54064 C87.12688,91.88624 83.99088,91.04304 82.99008,90.37984 C82.80528,90.25744 82.55728,90.30864 82.43568,90.49344 C82.31408,90.67664 82.36448,90.92544 82.54848,91.04704 C83.48608,91.66864 85.99648,92.41984 88.60928,92.41984 C89.51248,92.41984 90.42448,92.32224 91.29168,92.10704 C92.49248,91.80784 93.60288,91.27344 94.45648,90.39184 C94.61008,90.23344 94.60608,89.97984 94.44768,89.82704" id="Fill-46" fill="#71748D"></path>
            <path d="M76.67504,83.97936 C76.67264,83.97856 76.67184,83.97536 76.67024,83.97456 C76.66544,83.97136 76.66144,83.96816 76.65744,83.96496 L76.67504,83.97936 Z" id="Fill-48" fill="#271F23"></path>
            <path d="M99.63632,81.02688 C99.56912,80.89408 99.41392,80.83248 99.27392,80.88048 C99.18032,80.91168 89.99232,84.01408 87.56992,84.01408 C85.13312,84.01408 73.60592,81.25008 73.48912,81.22208 C73.35552,81.19008 73.21232,81.25568 73.15072,81.38128 C73.08832,81.50608 73.12112,81.65808 73.22992,81.74688 C75.73392,83.78608 81.59712,88.56368 88.71952,88.56368 C91.03392,88.56368 94.60032,85.66528 96.52032,83.93728 C98.48032,82.17248 99.53392,81.41488 99.54352,81.40848 C99.66512,81.32128 99.70432,81.15888 99.63632,81.02688 L99.63632,81.02688 Z" id="Fill-50" fill="#7EA3FF"></path>
            <path d="M82.504,74.9684 C82.3144,74.8572 82.068,74.922 81.9568,75.1124 C81.8456,75.3028 81.9096,75.5484 82.1008,75.6588 C82.3576,75.81 82.6216,75.9468 82.888,76.0844 C83.4336,76.3668 83.9984,76.6588 84.5016,77.0788 C84.8496,77.3916 85.1792,77.6356 85.4976,77.8716 C85.816,78.1068 86.116,78.3284 86.4288,78.6108 C87.5336,79.6436 89.0872,80.2436 90.564,80.2436 C90.8408,80.2436 91.1152,80.222 91.3832,80.1788 C92.7928,79.9516 93.9016,79.1668 94.5872,77.91 C94.6928,77.7164 94.6208,77.4732 94.4272,77.3676 C94.2344,77.262 93.9904,77.3324 93.8848,77.5268 C93.1736,78.83 92.0624,79.2588 91.2552,79.3884 C89.7928,79.6236 88.1128,79.0892 86.9696,78.0212 C86.6224,77.7092 86.2928,77.4644 85.9736,77.2284 C85.656,76.9932 85.356,76.7708 85.0256,76.474 C84.444,75.9884 83.84,75.6764 83.256,75.374 C83.0016,75.242 82.7496,75.1124 82.504,74.9684" id="Fill-52" fill="#71748D"></path>
            <path d="M95.42192,76.11216 C95.48432,76.14736 95.55232,76.16336 95.61872,76.16336 C95.75872,76.16336 95.89392,76.09216 95.96752,75.96256 C96.06272,75.79456 98.27472,71.83696 95.99152,70.31536 C95.80592,70.19296 95.55872,70.24256 95.43712,70.42656 C95.31392,70.61056 95.36432,70.85936 95.54752,70.98096 C97.21392,72.09216 95.29152,75.53136 95.27152,75.56656 C95.16272,75.75936 95.22992,76.00256 95.42192,76.11216" id="Fill-54" fill="#71748D"></path>
            <path d="M93.91488,59.20512 C93.91808,59.20192 93.93888,59.17952 93.94688,59.16992 C94.05328,58.58272 94.23648,58.01232 94.53248,57.46832 C95.15008,56.33552 93.42368,55.32592 92.80608,56.45872 C91.39968,59.03952 91.72208,60.72352 92.23808,63.44912 C92.84448,66.64672 93.26048,69.94992 93.31968,73.20592 C93.34288,74.49392 95.34288,74.49632 95.31968,73.20592 C95.27888,70.98752 95.02928,68.77552 94.72848,66.57712 C94.42528,64.36512 93.63328,61.90512 93.87408,59.65872 C93.79488,59.51632 93.80288,59.33552 93.91488,59.20512" id="Fill-56" fill="#BCD4F9"></path>
            <path d="M93.91488,59.20512 C93.80288,59.33552 93.79488,59.51632 93.87408,59.65872 C93.89248,59.49392 93.91728,59.33152 93.94688,59.16992 C93.93888,59.17952 93.91808,59.20192 93.91488,59.20512" id="Fill-58" fill="#BCD4F9"></path>
            <path d="M103.76336,51.03088 C103.08576,51.03088 102.38336,51.16928 101.67616,51.44048 C101.14576,51.64448 100.05296,51.93888 98.89616,52.25088 C96.08576,53.00928 95.02736,53.33728 94.69696,53.66928 C94.05616,54.17968 93.34416,54.89488 93.52336,55.44848 C93.58896,55.64848 93.77696,55.89248 94.30336,55.91408 L94.41776,55.91568 C95.83456,55.91568 99.52336,54.94848 101.72736,54.00048 C102.31856,53.74608 102.98016,53.61088 103.63856,53.61088 C105.08896,53.61088 106.28416,54.23888 106.47936,55.10208 C106.49616,55.17568 106.53296,55.24368 106.58656,55.29648 L107.08656,55.79648 C107.20176,55.91248 107.37376,55.94688 107.52256,55.88288 C107.67216,55.82208 107.76976,55.67568 107.76976,55.51408 C107.76976,52.79088 106.19696,51.03088 103.76336,51.03088" id="Fill-60" fill="#271F23"></path>
            <path d="M83.07664,52.99576 C82.79344,52.91656 76.09744,51.06616 72.26464,50.91336 C72.09024,50.91336 70.49424,50.95736 68.39664,52.46936 C65.49584,54.41496 65.54544,54.69976 65.58944,54.95016 C65.61984,55.12296 65.74704,55.25816 65.92304,55.30216 C65.95424,55.31016 66.03664,55.31896 66.06944,55.31896 C66.38544,55.31896 66.87664,55.09976 67.86864,54.64296 C68.72704,54.24696 69.79584,53.75496 70.78704,53.44936 C72.16144,53.02616 75.02784,53.61336 78.98624,54.47896 C80.17424,54.73976 81.47424,55.02376 82.88944,55.31336 C82.91584,55.31896 82.94304,55.32216 82.96944,55.32216 C83.06064,55.32216 83.15024,55.29016 83.22224,55.23176 C83.31584,55.15576 83.36944,55.04216 83.36944,54.92216 L83.36944,53.38056 C83.36944,53.20216 83.24944,53.04456 83.07664,52.99576" id="Fill-62" fill="#271F23"></path>
            <path d="M102.0352,76.84968 C100.7992,76.46808 100.2752,78.39928 101.5032,78.77848 C102.1648,78.98248 102.0904,79.74728 101.6624,80.20648 C100.7832,81.14888 102.1944,82.56568 103.0768,81.62088 C104.5208,80.07528 104.1816,77.51208 102.0352,76.84968" id="Fill-64" fill="#BCD4F9"></path>
            <path d="M79.17424,64.47704 C80.34224,63.93144 79.32544,62.20904 78.16464,62.75064 C76.51744,63.51944 74.55584,63.61384 72.97424,62.65064 C71.86944,61.97704 70.86544,63.70744 71.96464,64.37704 C74.18544,65.72984 76.88144,65.54744 79.17424,64.47704" id="Fill-66" fill="#BCD4F9"></path>
            <path d="M102.56256,61.80672 C101.51536,62.84752 99.24016,62.97952 97.97456,62.35072 C96.82336,61.77872 95.80976,63.50272 96.96496,64.07712 C99.04256,65.11072 102.26336,64.92352 103.97696,63.22112 C104.89216,62.31072 103.47776,60.89632 102.56256,61.80672" id="Fill-68" fill="#BCD4F9"></path>
            <path d="M81.87352,58.79496 C81.71912,58.70376 78.44552,56.78616 75.61832,56.62056 C75.35272,56.58536 75.10152,56.57816 74.97352,56.57816 C74.35912,56.57816 73.51032,56.69256 72.99592,56.97416 C71.35432,57.42856 69.89912,58.12856 69.81992,58.16696 C69.62152,58.26296 69.53832,58.50216 69.63432,58.70136 C69.63672,58.70616 69.64232,58.70936 69.64472,58.71336 L69.04472,58.71336 C68.82392,58.71336 68.64472,58.89256 68.64472,59.11336 C68.64472,59.33576 68.82392,59.51336 69.04472,59.51336 L70.74552,59.51336 C70.96632,59.51336 71.14552,59.33576 71.14552,59.11336 C71.14552,58.89256 70.96632,58.71336 70.74552,58.71336 L70.54632,58.71336 C70.95912,58.53096 71.67352,58.23336 72.49032,57.96456 C72.49032,57.97816 72.48552,57.99176 72.48552,58.00616 C72.48552,59.19016 73.44872,60.15256 74.63352,60.15256 C75.81752,60.15256 76.78072,59.19016 76.78072,58.00616 C76.78072,57.86056 76.75912,57.71896 76.73112,57.57896 C79.06152,58.07576 81.43432,59.46536 81.46552,59.48296 C81.52952,59.52056 81.59912,59.53896 81.66872,59.53896 C81.80552,59.53896 81.93912,59.46936 82.01352,59.34296 C82.12552,59.15256 82.06312,58.90776 81.87352,58.79496" id="Fill-70" fill="#271F23"></path>
            <path d="M105.5696,58.71376 L104.9576,58.71376 C105.0464,58.56416 105.0352,58.37136 104.9104,58.23856 C104.8384,58.16416 103.3048,56.59936 100.0896,56.70016 C99.8888,56.66096 99.6608,56.64896 99.4608,56.64896 C98.6936,56.64896 97.5664,56.84896 97.068,57.26336 C95.1064,57.94976 94.0904,59.00736 93.9472,59.16976 C93.9176,59.33136 93.892,59.49456 93.8744,59.65936 C93.8968,59.69776 93.9224,59.73536 93.9592,59.76656 C94.0344,59.83136 94.1272,59.86336 94.2192,59.86336 C94.332,59.86336 94.444,59.81616 94.5224,59.72496 C94.5328,59.71296 95.2672,58.90096 96.7192,58.25936 C96.72,59.44176 97.6832,60.40256 98.8664,60.40256 C100.0512,60.40256 101.0152,59.44016 101.0152,58.25616 C101.0152,57.99856 100.9656,57.74576 100.8768,57.50736 C102.8792,57.62736 103.9592,58.45616 104.2488,58.71376 L103.7032,58.71376 C103.4824,58.71376 103.3032,58.89296 103.3032,59.11376 C103.3032,59.33536 103.4824,59.51376 103.7032,59.51376 L105.5696,59.51376 C105.7904,59.51376 105.9696,59.33536 105.9696,59.11376 C105.9696,58.89296 105.7904,58.71376 105.5696,58.71376" id="Fill-72" fill="#271F23"></path>
            <path d="M34.14928,2.14264 C34.15248,2.17064 34.15168,2.19944 34.14848,2.22824 C34.15168,2.19944 34.15248,2.17224 34.14928,2.14264" id="Fill-77" fill="#7EA3FF"></path>
            <path d="M34.12664,2.02776 C34.12024,2.01256 34.10904,2.00296 34.10184,1.98936 C34.11464,2.01336 34.12664,2.03976 34.13464,2.06616 C34.13064,2.05336 34.13224,2.04056 34.12664,2.02776" id="Fill-79" fill="#7EA3FF"></path>
            <path d="M34.08368,1.94888 C34.07728,1.93928 34.06688,1.93528 34.05888,1.92648 C34.07488,1.94488 34.08848,1.96648 34.10128,1.98968 C34.09408,1.97608 34.09248,1.96168 34.08368,1.94888" id="Fill-81" fill="#7EA3FF"></path>
            <path d="M34.1344,2.06608 C34.1424,2.09168 34.1472,2.11648 34.1496,2.14288 C34.1472,2.11568 34.1424,2.09168 34.1344,2.06608" id="Fill-83" fill="#7EA3FF"></path>
            <path d="M129.17976,129.67312 L118.49976,123.09392 L122.79816,120.10992 C122.90376,120.03632 122.96776,119.91632 122.97016,119.78752 C122.97176,119.65872 122.91176,119.53632 122.80776,119.45952 L112.13976,111.56112 C111.96296,111.42912 111.71256,111.46672 111.58056,111.64512 C111.44936,111.82272 111.48696,112.07232 111.66376,112.20432 L121.88376,119.77072 L117.54216,122.78592 C117.43096,122.86192 117.36616,122.98992 117.37016,123.12512 C117.37416,123.25952 117.44536,123.38432 117.56056,123.45552 L128.55496,130.22832 L127.28136,148.58432 L127.24856,149.05632 L127.23736,149.22112 C127.22216,149.44192 127.38856,149.63152 127.60856,149.64752 C127.61816,149.64912 127.62776,149.64912 127.63656,149.64912 C127.84536,149.64912 128.02136,149.48672 128.03576,149.27552 L128.05176,149.04672 L128.08296,148.60192 L129.36936,130.04192 C129.37976,129.89232 129.30616,129.75232 129.17976,129.67312" id="Fill-87" fill="#7EA3FF"></path>
            <path d="M48.44536,125.49264 C48.30296,125.71184 47.89336,125.73024 47.37496,125.53904 C47.25016,125.49264 47.00776,125.41664 46.67576,125.31904 C46.81016,125.22224 46.93416,125.13344 47.04536,125.05504 C47.60936,124.71024 48.10056,124.66384 48.35656,124.92784 C48.50936,125.08544 48.54936,125.33344 48.44536,125.49264 M48.92936,124.37024 C48.72856,124.16304 47.96936,123.55344 46.60536,124.38704 C46.35976,124.56064 46.05336,124.78224 45.70136,125.03984 C43.10536,124.30704 38.41896,123.05904 37.04696,122.69344 C37.67576,119.97024 39.03176,114.10624 39.20776,113.39824 C39.21656,113.37584 39.22376,113.35184 39.22856,113.32704 C39.27176,113.11184 39.13976,112.87264 38.92616,112.82624 C38.75736,112.78944 38.65976,112.77024 38.50936,113.16864 L38.44696,113.15744 L38.50776,113.17264 C38.50616,113.17584 38.50536,113.17824 38.50376,113.18144 L38.44456,113.17024 C38.43176,113.22944 38.43416,113.28864 38.44776,113.34384 C38.24616,113.96624 37.94136,115.28144 37.30936,118.00784 L36.18056,122.89184 C36.13176,123.10224 36.25896,123.31184 36.46776,123.36864 C36.53896,123.38624 41.75816,124.77024 44.88536,125.64144 C41.87256,127.87264 37.05336,131.55024 36.99416,131.59584 C36.83896,131.71344 36.79256,131.92544 36.88136,132.09904 C42.48696,142.88944 44.69096,146.99184 45.63336,148.55264 C45.71016,148.67984 45.77896,148.79184 45.83976,148.88704 C45.83336,148.89744 45.83096,148.90944 45.82616,148.91824 C45.74056,149.07104 45.75736,149.26544 45.88616,149.39504 C46.02856,149.53904 46.19416,149.61504 46.35336,149.61504 C46.41656,149.61504 46.47896,149.60304 46.53896,149.57824 C46.72296,149.50304 46.83656,149.32544 46.83656,149.11344 C46.83656,149.04304 46.81496,148.97984 46.78376,148.92304 C46.75976,148.87904 46.73016,148.83904 46.69336,148.80704 C46.65576,148.75664 46.59656,148.66384 46.52136,148.53904 C45.47096,146.79184 40.89496,138.08624 37.74696,132.02864 C38.87656,131.16624 43.31576,127.78624 45.85976,125.91504 C46.47416,126.09024 46.92056,126.22384 47.09816,126.28944 C48.43096,126.78064 48.98056,126.13744 49.11656,125.92864 C49.42536,125.45344 49.34616,124.79904 48.92936,124.37024" id="Fill-89" fill="#7EA3FF"></path>
            <path d="M95.26096,82.79576 C92.43536,83.65736 88.98336,84.61336 87.56976,84.61336 C85.84816,84.61336 80.02176,83.34616 76.37776,82.51256 C76.35536,82.76216 76.34336,83.11736 76.39936,83.43016 C79.37376,85.53656 83.74416,87.96376 88.71936,87.96376 C90.51936,87.96376 93.34176,85.85736 95.12176,84.35896 C95.28816,83.83176 95.28336,83.17416 95.26096,82.79576" id="Fill-91" fill="#FFFFFF"></path>
        </g>
    </g>
</svg>