<?xml version="1.0" encoding="UTF-8"?>
<svg width="132px" height="150px" viewBox="0 0 132 150" version="1.1" xmlns="http://www.w3.org/2000/svg" xmlns:xlink="http://www.w3.org/1999/xlink">
    <title>Illustration / Michael</title>
    <defs>
        <polygon id="path-1" points="0 0.38296 131.319843 0.38296 131.319843 68.7995926 0 68.7995926"></polygon>
    </defs>
    <g id="Illustration-/-Michael" stroke="none" stroke-width="1" fill="none" fill-rule="evenodd">
        <g id="Michael">
            <g id="Group-3" transform="translate(0.000000, 80.885600)">
                <mask id="mask-2" fill="white">
                    <use xlink:href="#path-1"></use>
                </mask>
                <g id="Clip-2"></g>
                <path d="M90.6308,0.38296 C90.6308,0.38296 93.206,0.67256 98.606,8.27256 C104.006,15.87256 108.9884,20.54296 112.9372,25.08216 C119.606,32.75256 127.0228,34.27896 131.2916,62.64056 C133.0932,74.60936 48.1036,65.44696 48.1036,65.44696 C48.1036,65.44696 -2.5508,68.13896 0.1004,57.79896 C7.0476,30.69656 29.6396,33.67896 40.9228,15.17576 L50.5044,49.87176 L90.6308,0.38296 Z" id="Fill-1" fill="#271F23" mask="url(#mask-2)"></path>
            </g>
            <path d="M87.80576,76.7584 L91.93936,83.3584 C91.93936,83.3584 91.64096,93.1584 77.02256,114.1584 C62.40576,135.1576 65.69136,147.6152 43.20576,146.448 C31.19616,145.8248 31.65536,135.5576 31.65536,135.5576 L35.20576,118.6504 L42.37296,91.3648 L53.40576,109.5584 L87.80576,76.7584 Z" id="Fill-4" fill="#E3ECF8"></path>
            <path d="M40.92296,81.98656 L43.93976,101.49136 C43.93976,101.49136 45.40616,117.75856 51.40616,124.42576 C51.40616,124.42576 53.19976,112.15856 61.03576,106.95856 C68.87336,101.75856 87.53896,85.09216 87.80616,77.75856 L87.80616,66.29136 C87.80616,66.29136 93.27336,65.62416 93.40616,55.89136 C93.53896,46.15856 94.20616,42.42656 91.13976,42.29216 L83.80616,53.35776 L78.60616,77.49136 L55.27256,89.49136 L40.92296,81.98656 Z" id="Fill-6" fill="#BCD4F9"></path>
            <polyline id="Stroke-8" stroke="#7EA3FF" stroke-width="0.8" stroke-linecap="round" stroke-linejoin="round" points="71.13784 121.66 61.03544 110.1584 50.50424 130.7576"></polyline>
            <path d="M51.30896,124.93496 C51.30896,124.93496 48.44256,122.53656 44.92576,115.83496 C41.41056,109.13496 35.98896,113.29416 35.23616,118.60056" id="Stroke-10" stroke="#7EA3FF" stroke-width="0.8" stroke-linecap="round" stroke-linejoin="round"></path>
            <path d="M30.33936,41.18104 C30.33936,41.18104 28.73936,41.22504 29.67296,46.75864 C30.60576,52.29224 29.67296,56.95864 29.67296,56.95864 C29.67296,56.95864 28.32016,62.87384 31.19616,63.04984 C34.07296,63.22584 36.40576,55.75864 36.40576,55.75864 L30.33936,41.18104 Z" id="Fill-12" fill="#E3ECF8"></path>
            <path d="M30.33936,41.18104 C30.33936,41.18104 28.73936,41.22504 29.67296,46.75864 C30.60576,52.29224 29.67296,56.95864 29.67296,56.95864 C29.67296,56.95864 28.32016,62.87384 31.19616,63.04984 C34.07296,63.22584 36.40576,55.75864 36.40576,55.75864 L30.33936,41.18104 Z" id="Stroke-14" stroke="#7EA3FF" stroke-width="0.8" stroke-linecap="round" stroke-linejoin="round"></path>
            <path d="M91.13936,42.292 C94.20656,42.4264 93.53856,46.1584 93.40576,55.8912 C93.27296,65.624 87.80576,66.2912 87.80576,66.2912 L85.00576,64.2584 L85.85536,46.7584 L91.13936,42.292 Z" id="Fill-16" fill="#E3ECF8"></path>
            <path d="M91.13936,42.292 C94.20656,42.4264 93.53856,46.1584 93.40576,55.8912 C93.27296,65.624 87.80576,66.2912 87.80576,66.2912 L85.00576,64.2584 L85.85536,46.7584 L91.13936,42.292 Z" id="Stroke-18" stroke="#7EA3FF" stroke-width="0.8" stroke-linecap="round" stroke-linejoin="round"></path>
            <g id="Group-23" transform="translate(29.600000, 0.085600)">
                <path d="M2.60576,52.2064 L0.07296,40.6064 C0.07296,40.6064 2.47216,22.3392 4.60576,18.4728 C6.73936,14.6064 8.40576,2.4728 28.33936,0.4728 C46.06816,-1.3064 58.33856,12.34 59.40576,19.14 C60.47296,25.94 62.33936,42.2064 62.33936,42.2064 L57.53856,49.8064" id="Fill-20" fill="#271F23"></path>
                <path d="M2.60576,52.2064 L0.07296,40.6064 C0.07296,40.6064 2.47216,22.3392 4.60576,18.4728 C6.73936,14.6064 8.40576,2.4728 28.33936,0.4728 C46.06816,-1.3064 58.33856,12.34 59.40576,19.14 C60.47296,25.94 62.33936,42.2064 62.33936,42.2064 L57.53856,49.8064" id="Stroke-22" stroke="#271F23" stroke-width="0.8"></path>
            </g>
            <path d="M84.47296,38.0248 C84.47296,38.0248 82.07296,29.7576 82.47296,25.0912 C82.87296,20.4248 80.33936,13.624 75.67296,11.0912 C71.00576,8.5584 65.38576,5.544 60.33216,5.9584 C60.33216,5.9584 42.20576,5.1584 36.40576,22.7584 C30.60576,40.3584 32.20576,49.3584 32.20576,52.292 C32.20576,55.2256 29.27216,66.2912 33.40576,72.692 C36.79536,77.9408 45.00576,87.2256 45.00576,87.2256 C45.00576,87.2256 48.33936,92.56 55.40576,92.56 C62.47296,92.56 67.53856,90.6928 76.60576,82.292 C85.67296,73.892 87.13856,68.4256 87.13856,62.4256 L87.13856,49.892 C87.13856,49.892 84.47296,45.0912 84.47296,38.0248" id="Fill-24" fill="#E3ECF8"></path>
            <path d="M36.65264,37.74744 C36.05024,38.21544 35.49504,38.76424 35.00304,39.34664 C34.06944,40.45064 33.23024,41.80504 33.49184,43.31144 C33.65104,44.23224 34.33424,44.94664 35.10144,45.42344 C35.54624,45.69864 36.22224,45.53224 36.46944,45.06424 C36.72864,44.57384 36.58544,43.99064 36.11024,43.69624 C36.02944,43.64504 35.95104,43.59224 35.87184,43.53784 C35.72464,43.43704 36.01424,43.67384 35.84144,43.50904 C35.79024,43.45944 35.73584,43.41144 35.68624,43.35944 C35.65984,43.33064 35.63504,43.29944 35.60704,43.27224 C35.49984,43.16424 35.66864,43.32424 35.65744,43.34104 C35.66064,43.33624 35.54624,43.17304 35.53824,43.15944 C35.51584,43.11944 35.43104,42.92024 35.49664,43.09224 C35.55984,43.26024 35.48944,43.06504 35.47584,43.02184 C35.45664,42.95864 35.44704,42.89224 35.42864,42.82904 C35.39264,42.70504 35.43584,43.08904 35.43504,42.84904 C35.43424,42.79144 35.43104,42.73384 35.43264,42.67544 C35.43344,42.65224 35.45904,42.52264 35.44384,42.50104 C35.49024,42.56584 35.40144,42.74584 35.42944,42.61704 C35.43824,42.57544 35.44464,42.53304 35.45424,42.49144 C35.48064,42.37224 35.51504,42.25544 35.55504,42.13944 C35.56384,42.11464 35.59424,41.98024 35.62144,41.96424 C35.60064,41.97624 35.52224,42.17944 35.58544,42.05384 C35.60544,42.01304 35.62384,41.97064 35.64384,41.93064 C35.76864,41.67784 35.91504,41.43704 36.07504,41.20584 C36.11264,41.15144 36.15104,41.09704 36.19024,41.04424 C36.24304,40.97144 36.33504,40.77064 36.20464,41.02104 C36.26544,40.90504 36.38704,40.79624 36.47104,40.69784 C36.79424,40.32264 37.14304,39.96984 37.50864,39.63784 C37.69024,39.47384 37.87344,39.31144 38.06704,39.16184 C38.48224,38.83944 38.43104,38.08184 38.06704,37.74744 C37.62704,37.34344 37.09584,37.40344 36.65264,37.74744" id="Fill-26" fill="#BCD4F9"></path>
            <path d="M66.74016,44.16384 C66.74016,43.67504 66.89936,43.22304 67.16896,42.85824 C67.56976,42.31584 70.53296,42.45104 70.89776,43.16224 C71.05136,43.46304 71.13776,43.80384 71.13776,44.16384 C71.13776,45.37824 70.15376,46.36224 68.93856,46.36224 C67.72416,46.36224 66.74016,45.37824 66.74016,44.16384" id="Fill-28" fill="#271F23"></path>
            <path d="M62.53936,45.3592 C62.53936,45.3592 64.88816,44.1952 66.00576,43.5592 C67.12336,42.9232 69.27296,41.5592 74.07296,45.3592" id="Stroke-30" stroke="#271F23" stroke-width="0.8" stroke-linecap="round" stroke-linejoin="round"></path>
            <path d="M47.45504,45.34432 C47.45504,45.34432 46.05344,43.88592 45.32064,43.28592 C44.58704,42.68592 42.88784,41.86912 40.33904,43.15872 C38.70384,43.98592 38.00544,45.09232 38.00544,45.09232" id="Stroke-32" stroke="#271F23" stroke-width="0.8" stroke-linecap="round" stroke-linejoin="round"></path>
            <path d="M40.92296,44.0756 C40.92296,42.8604 41.90696,42.2644 43.12136,42.2644 C44.33656,42.2644 45.32056,42.8604 45.32056,44.0756 C45.32056,45.29 44.33656,46.274 43.12136,46.274 C41.90696,46.274 40.92296,45.29 40.92296,44.0756" id="Fill-34" fill="#271F23"></path>
            <path d="M61.28784,41.124 C61.77824,40.7832 62.34304,40.5248 62.89744,40.3072 C64.33344,39.7448 65.85664,39.4656 67.39824,39.4583957 C68.04144,39.456 68.04224,38.456 67.39824,38.4583957 C65.77424,38.4656 64.14464,38.7496 62.63104,39.3432 C61.99824,39.5912 61.34464,39.8712 60.78304,40.2608 C60.25824,40.6248 60.75744,41.492 61.28784,41.124" id="Fill-36" fill="#BCD4F9"></path>
            <path d="M50.42144,46.40688 C50.95664,44.65808 50.10464,42.92768 49.17424,41.48928 C48.51904,40.47488 47.77344,39.49808 46.95984,38.60528 C46.52544,38.12848 45.81904,38.83728 46.25264,39.31248 C46.96624,40.09408 47.61744,40.94368 48.20144,41.82608 C49.02464,43.07008 49.92944,44.59728 49.45744,46.14128 C49.26864,46.75808 50.23344,47.02208 50.42144,46.40688" id="Fill-38" fill="#BCD4F9"></path>
            <path d="M34.90576,40.692 C34.90576,40.692 36.40576,37.8656 40.00576,36.1584 C45.28896,33.6536 49.27376,39.7376 48.34336,39.8256 C47.41376,39.9136 42.46016,38.5296 39.20576,38.3152 C35.95216,38.1016 35.30576,39.9256 34.90576,40.692" id="Fill-40" fill="#BCD4F9"></path>
            <path d="M34.90576,40.692 C34.90576,40.692 36.40576,37.8656 40.00576,36.1584 C45.28896,33.6536 49.27376,39.7376 48.34336,39.8256 C47.41376,39.9136 42.46016,38.5296 39.20576,38.3152 C35.95216,38.1016 35.30576,39.9256 34.90576,40.692 Z" id="Stroke-42" stroke="#BCD4F9" stroke-width="0.8"></path>
            <path d="M75.20576,39.8256 C74.30576,38.5928 67.39776,38.9584 65.60576,38.9584 C63.81376,38.9584 63.10576,39.1584 64.21696,37.3584 C65.32736,35.5584 68.30576,35.9384 68.30576,35.9384 C68.30576,35.9384 78.60576,37.5712 77.53936,42.2648 L75.20576,39.8256 Z" id="Fill-44" fill="#BCD4F9"></path>
            <path d="M75.20576,39.8256 C74.30576,38.5928 67.39776,38.9584 65.60576,38.9584 C63.81376,38.9584 63.10576,39.1584 64.21696,37.3584 C65.32736,35.5584 68.30576,35.9384 68.30576,35.9384 C68.30576,35.9384 78.60576,37.5712 77.53936,42.2648 L75.20576,39.8256 Z" id="Stroke-46" stroke="#BCD4F9" stroke-width="0.8"></path>
            <path d="M75.80576,44.16312 C75.80576,44.16312 67.79296,38.49112 62.53936,42.79112" id="Stroke-48" stroke="#71748D" stroke-width="0.8" stroke-linecap="round" stroke-linejoin="round"></path>
            <path d="M36.40576,43.81696 C36.40576,43.81696 38.66096,40.71216 43.29696,40.71216 C45.49696,40.71216 47.27936,42.61616 47.27936,42.61616" id="Stroke-50" stroke="#71748D" stroke-width="0.8" stroke-linecap="round" stroke-linejoin="round"></path>
            <path d="M61.03552,61.1584 C61.03552,61.1584 59.13712,61.5112 58.37072,62.2648" id="Stroke-52" stroke="#71748D" stroke-width="0.8" stroke-linecap="round" stroke-linejoin="round"></path>
            <path d="M42.48936,66.3584 C42.48936,66.3584 50.00616,69.7584 54.30616,69.7584 C58.60616,69.7584 71.13816,67.9584 71.13816,67.9584 C71.13816,67.9584 68.80616,68.7584 66.30616,70.7584 C63.80616,72.7584 57.70616,74.5584 54.80616,74.2584 C51.90616,73.9584 45.32056,72.1672 42.48936,66.3584 Z" id="Stroke-54" stroke="#7EA3FF" stroke-width="0.8" stroke-linecap="round" stroke-linejoin="round"></path>
            <path d="M66.30576,70.7584 C63.80576,72.7584 57.37296,73.8256 54.47296,73.5256 C51.57296,73.2256 47.87456,71.9576 47.87456,71.9576" id="Stroke-56" stroke="#7EA3FF" stroke-width="0.8" stroke-linecap="round" stroke-linejoin="round"></path>
            <path d="M46.51208,68.68264 C46.61928,69.87224 46.54808,70.98824 46.05208,70.72504 C45.55608,70.46184 42.48968,66.35864 42.48968,66.35864 L46.51208,68.68264 Z" id="Fill-58" fill="#271F23"></path>
            <path d="M46.51208,68.68264 C46.61928,69.87224 46.54808,70.98824 46.05208,70.72504 C45.55608,70.46184 42.48968,66.35864 42.48968,66.35864 L46.51208,68.68264 Z" id="Stroke-60" stroke="#7EA3FF" stroke-width="0.8" stroke-linecap="round" stroke-linejoin="round"></path>
            <polygon id="Fill-62" fill="#271F23" points="70.27768 67.90216 66.55608 70.35736 66.30568 68.70216 70.19768 68.35016"></polygon>
            <polygon id="Stroke-64" stroke="#7EA3FF" stroke-width="0.8" stroke-linecap="round" stroke-linejoin="round" points="70.27768 67.90216 66.55608 70.35736 66.30568 68.70216 70.19768 68.35016"></polygon>
            <path d="M44.08624,86.4928 C42.49664,80.7632 40.36224,75.1456 37.88704,69.7416 C37.19744,68.2344 36.23424,66.8168 36.04704,65.1432 C35.86944,63.5464 35.94304,61.8856 36.13904,60.292 C36.29664,59.0176 34.29504,59.0296 34.13904,60.292 C33.94304,61.8888 33.87904,63.5432 34.04704,65.1432 C34.24784,67.0512 35.09664,68.4744 35.89104,70.1688 C38.42864,75.5848 40.55904,81.2616 42.15744,87.0248 C42.50144,88.2632 44.43104,87.7376 44.08624,86.4928" id="Fill-66" fill="#BCD4F9"></path>
            <path d="M68.30576,61.092 C67.87216,59.2256 62.53936,56.9584 62.53936,56.9584 C62.53936,56.9584 65.10256,60.332 62.53936,61.092" id="Stroke-68" stroke="#71748D" stroke-width="0.8" stroke-linecap="round" stroke-linejoin="round"></path>
            <g id="Group-73" transform="translate(40.800000, 44.885600)">
                <line x1="0.14096" y1="1.32904" x2="4.32256" y2="0.93304" id="Fill-70" fill="#BCD4F9"></line>
                <line x1="0.14096" y1="1.32904" x2="4.32256" y2="0.93304" id="Stroke-72" stroke="#BCD4F9" stroke-width="0.8"></line>
            </g>
            <g id="Group-77" transform="translate(66.400000, 45.685600)">
                <line x1="0.34016" y1="0.5884" x2="4.73776" y2="1.0724" id="Fill-74" fill="#BCD4F9"></line>
                <line x1="0.34016" y1="0.5884" x2="4.73776" y2="1.0724" id="Stroke-76" stroke="#BCD4F9" stroke-width="0.8"></line>
            </g>
            <path d="M63.04408,92.4764 C63.32248,92.3588 63.57528,92.0796 63.79368,91.8748 C64.62328,91.0972 65.35288,90.2036 66.07208,89.3268 C67.72488,87.3124 69.28408,85.2204 70.81768,83.114 C72.07768,81.382 73.31608,79.6332 74.54088,77.8764 C75.89128,75.9404 77.36088,74.054 78.19208,71.8236 C79.22408,69.0556 79.45528,65.6412 78.58088,62.7844 C78.20568,61.5572 76.27448,62.0804 76.65288,63.3164 C77.33848,65.5588 77.21448,68.1676 76.56248,70.3916 C75.91368,72.6068 74.52008,74.4124 73.22088,76.2828 C72.01688,78.0164 70.80008,79.7412 69.56328,81.4516 C67.38488,84.4652 65.20968,87.6748 62.54728,90.298 C62.42568,90.418 61.79448,90.9436 62.18168,90.6524 C62.13608,90.6868 62.08808,90.7268 62.03448,90.75 C60.85368,91.2508 61.87128,92.974 63.04408,92.4764" id="Fill-78" fill="#BCD4F9"></path>
            <path d="M46.60576,57.5084 C46.60576,57.5084 45.32416,61.0252 48.46496,61.0916" id="Stroke-80" stroke="#BCD4F9" stroke-width="0.8" stroke-linecap="round" stroke-linejoin="round"></path>
            <line x1="40.07224" y1="11.492" x2="39.04264" y2="7.3584" id="Stroke-82" stroke="#271F23" stroke-width="0.8" stroke-linecap="round" stroke-linejoin="round"></line>
            <line x1="41.67224" y1="9.092" x2="40.64264" y2="4.9584" id="Stroke-84" stroke="#271F23" stroke-width="0.8" stroke-linecap="round" stroke-linejoin="round"></line>
            <line x1="43.27224" y1="7.492" x2="42.24264" y2="3.3584" id="Stroke-86" stroke="#271F23" stroke-width="0.8" stroke-linecap="round" stroke-linejoin="round"></line>
            <line x1="38.47224" y1="13.892" x2="37.44264" y2="9.7584" id="Stroke-88" stroke="#271F23" stroke-width="0.8" stroke-linecap="round" stroke-linejoin="round"></line>
            <line x1="37.67224" y1="17.092" x2="36.64264" y2="12.9584" id="Stroke-90" stroke="#271F23" stroke-width="0.8" stroke-linecap="round" stroke-linejoin="round"></line>
            <line x1="80.07224" y1="10.1584" x2="83.21704" y2="7.3584" id="Stroke-92" stroke="#271F23" stroke-width="0.8" stroke-linecap="round" stroke-linejoin="round"></line>
            <line x1="81.64488" y1="10.1584" x2="84.60568" y2="8.7584" id="Stroke-94" stroke="#271F23" stroke-width="0.8" stroke-linecap="round" stroke-linejoin="round"></line>
            <line x1="82.47224" y1="11.492" x2="85.80584" y2="10.692" id="Stroke-96" stroke="#271F23" stroke-width="0.8" stroke-linecap="round" stroke-linejoin="round"></line>
            <line x1="84.07224" y1="13.892" x2="87.40584" y2="13.092" id="Stroke-98" stroke="#271F23" stroke-width="0.8" stroke-linecap="round" stroke-linejoin="round"></line>
            <line x1="34.90576" y1="22.692" x2="31.19616" y2="22.5584" id="Stroke-100" stroke="#271F23" stroke-width="0.8" stroke-linecap="round" stroke-linejoin="round"></line>
            <line x1="34.4316" y1="24.86936" x2="30.606" y2="24.86936" id="Stroke-102" stroke="#271F23" stroke-width="0.8" stroke-linecap="round" stroke-linejoin="round"></line>
            <line x1="34.4316" y1="27.11384" x2="30.606" y2="27.11384" id="Stroke-104" stroke="#271F23" stroke-width="0.8" stroke-linecap="round" stroke-linejoin="round"></line>
            <line x1="33.6316" y1="29.3584" x2="30.606" y2="29.3584" id="Stroke-106" stroke="#271F23" stroke-width="0.8" stroke-linecap="round" stroke-linejoin="round"></line>
            <line x1="58.69016" y1="2.5584" x2="58.69016" y2="7.1584" id="Stroke-108" stroke="#271F23" stroke-width="0.8" stroke-linecap="round" stroke-linejoin="round"></line>
            <line x1="60.29016" y1="2.5584" x2="60.29016" y2="7.1584" id="Stroke-110" stroke="#271F23" stroke-width="0.8" stroke-linecap="round" stroke-linejoin="round"></line>
            <line x1="61.89016" y1="1.7584" x2="61.89016" y2="6.3584" id="Stroke-112" stroke="#271F23" stroke-width="0.8" stroke-linecap="round" stroke-linejoin="round"></line>
            <line x1="55.49016" y1="2.5584" x2="55.49016" y2="7.1584" id="Stroke-114" stroke="#271F23" stroke-width="0.8" stroke-linecap="round" stroke-linejoin="round"></line>
            <line x1="53.89016" y1="2.5584" x2="53.89016" y2="7.1584" id="Stroke-116" stroke="#271F23" stroke-width="0.8" stroke-linecap="round" stroke-linejoin="round"></line>
            <path d="M53.40576,64.2584 C53.40576,64.2584 51.76736,64.2584 50.08096,63.0496 C47.51376,61.2096 48.27296,59.6088 49.27296,56.708 C50.27296,53.808 50.90576,52.6584 51.10576,50.7584" id="Stroke-118" stroke="#71748D" stroke-width="0.8" stroke-linecap="round" stroke-linejoin="round"></path>
            <path d="M122.1144,112.58024 C122.1144,112.58024 102.2776,116.57064 99.6416,141.89544" id="Stroke-120" stroke="#7EA3FF" stroke-width="0.8" stroke-linecap="round" stroke-linejoin="round"></path>
        </g>
    </g>
</svg>