<?xml version="1.0" encoding="UTF-8"?>
<svg width="143px" height="148px" viewBox="0 0 143 148" version="1.1" xmlns="http://www.w3.org/2000/svg" xmlns:xlink="http://www.w3.org/1999/xlink">
    <title>Illustration / Mohammed</title>
    <defs>
        <polygon id="path-1" points="0 0.30176 142.487501 0.30176 142.487501 71.2 0 71.2"></polygon>
        <polygon id="path-3" points="0.54864 0.48496 20.73184 0.48496 20.73184 42.4 0.54864 42.4"></polygon>
    </defs>
    <g id="Illustration-/-Mohammed" stroke="none" stroke-width="1" fill="none" fill-rule="evenodd">
        <g id="Mohammed">
            <g id="Group-3" transform="translate(0.000000, 75.621600)">
                <mask id="mask-2" fill="white">
                    <use xlink:href="#path-1"></use>
                </mask>
                <g id="Clip-2"></g>
                <path d="M0.08152,64.88496 C0.08152,64.88496 -1.11848,36.63376 5.68152,33.55856 C12.48152,30.48496 40.88152,17.63936 40.88152,17.63936 L85.54472,0.30176 C85.54472,0.30176 94.28152,12.48496 97.48152,12.48496 C100.68152,12.48496 142.06472,36.08496 142.46472,40.48496 C142.86472,44.88496 137.86472,65.88496 137.86472,65.88496 C137.86472,65.88496 5.08152,78.48496 0.08152,64.88496" id="Fill-1" fill="#271F23" mask="url(#mask-2)"></path>
            </g>
            <path d="M40.68152,94.50656 C40.68152,94.50656 28.64632,143.64976 45.64632,146.17936 C62.64632,148.71056 71.28152,128.97376 71.28152,128.97376 C71.28152,128.97376 80.49832,103.30656 83.99032,94.50656 C87.48152,85.70656 87.67272,71.64096 80.47752,70.77376" id="Fill-4" fill="#BCD4F9"></path>
            <g id="Group-9" transform="translate(20.800000, 45.221600)">
                <path d="M3.29008,0.58024 C3.29008,0.58024 -0.05232,0.31464 0.61488,4.10024 C1.28128,7.88504 4.13408,13.88184 4.13408,13.88184" id="Fill-6" fill="#BCD4F9"></path>
                <path d="M3.29008,0.58024 C3.29008,0.58024 -0.05232,0.31464 0.61488,4.10024 C1.28128,7.88504 4.13408,13.88184 4.13408,13.88184" id="Stroke-8" stroke="#7EA3FF" stroke-width="0.8" stroke-linecap="round" stroke-linejoin="round"></path>
            </g>
            <path d="M23.68928,46.97216 C23.68928,46.97216 21.54848,40.97376 21.01488,36.84016 C20.48128,32.70576 21.14768,20.43936 22.88128,18.03936 C24.61488,15.63936 27.28208,8.30736 39.81488,4.43936 C52.34848,0.57216 60.88128,2.43936 67.54848,3.50576 C74.21488,4.57216 83.49888,10.70496 83.99008,26.97216 L83.99008,57.50656" id="Fill-10" fill="#271F23"></path>
            <path d="M81.48152,64.50656 L81.48152,65.50656 C81.48152,78.50656 75.08152,85.10656 75.08152,85.10656 L52.28152,104.90656 C47.28152,104.30656 40.68152,94.50656 40.68152,94.50656 C23.88152,84.10656 25.28152,62.30656 24.88152,58.30656 C24.48152,54.30656 22.88152,42.90656 22.88152,29.70576 C22.88152,16.50576 34.08152,11.30576 34.08152,11.30576 C34.08152,11.30576 40.88152,13.77376 54.61512,9.10576 C68.34872,4.43856 73.14872,20.97376 71.68232,23.10576 C71.68232,23.10576 70.88232,31.77376 70.34872,32.30576 C69.81512,32.83856 76.61512,35.90576 76.61512,43.63936 L77.01512,49.50656 L78.68712,49.50656" id="Fill-12" fill="#E3ECF8"></path>
            <g id="Group-17" transform="translate(78.400000, 37.221600)">
                <path d="M0.28696,12.28496 C0.28696,12.28496 2.88696,5.48496 5.88696,1.88496 C8.88696,-1.71584 9.88696,3.18496 10.08696,6.78496 C10.28696,10.38496 8.68696,13.48496 6.18696,20.18496 C3.68696,26.88496 2.68696,27.18496 2.68696,27.18496" id="Fill-14" fill="#BCD4F9"></path>
                <path d="M0.28696,12.28496 C0.28696,12.28496 2.88696,5.48496 5.88696,1.88496 C8.88696,-1.71584 9.88696,3.18496 10.08696,6.78496 C10.28696,10.38496 8.68696,13.48496 6.18696,20.18496 C3.68696,26.88496 2.68696,27.18496 2.68696,27.18496" id="Stroke-16" stroke="#7EA3FF" stroke-width="0.8" stroke-linecap="round" stroke-linejoin="round"></path>
            </g>
            <path d="M39.38152,44.04088 L31.68152,44.80648 C31.68152,44.80648 26.18152,45.30648 25.98152,48.10648 C25.98152,48.10648 24.28152,43.10648 28.18152,42.60648 C32.08152,42.10648 35.64952,42.30648 36.46552,43.00648 C37.28152,43.70648 38.58152,44.17528 39.38152,44.04088" id="Fill-18" fill="#271F23"></path>
            <path d="M39.38152,44.04088 L31.68152,44.80648 C31.68152,44.80648 26.18152,45.30648 25.98152,48.10648 C25.98152,48.10648 24.28152,43.10648 28.18152,42.60648 C32.08152,42.10648 35.64952,42.30648 36.46552,43.00648 C37.28152,43.70648 38.58152,44.17528 39.38152,44.04088 Z" id="Stroke-20" stroke="#271F23" stroke-width="0.8" stroke-linecap="round" stroke-linejoin="round"></path>
            <path d="M37.08152,46.97216 C37.08152,46.97216 36.13352,45.60336 32.49752,46.97216 C29.48152,48.10656 28.61512,49.32256 28.61512,49.32256" id="Stroke-22" stroke="#271F23" stroke-width="0.8" stroke-linecap="round" stroke-linejoin="round"></path>
            <path d="M54.34872,45.7972 C54.34872,45.7972 55.39992,44.3068 57.58152,44.7068 C60.67032,45.2724 63.73592,46.6804 63.73592,46.6804" id="Stroke-24" stroke="#271F23" stroke-width="0.8" stroke-linecap="round" stroke-linejoin="round"></path>
            <path d="M35.21432,46.36432 C35.24232,46.50192 36.59752,46.91872 36.59752,47.06592 C36.59752,48.23472 35.65032,49.18032 34.48232,49.18032 C33.35832,49.18032 32.43912,48.30512 32.3711173,47.19872 C32.36792,47.15472 35.21432,46.36432 35.21432,46.36432" id="Fill-26" fill="#271F23"></path>
            <path d="M56.41664,45.81432 C56.41664,45.43112 56.51904,45.07192 56.69744,44.76312 C56.69744,44.76312 60.64624,44.64712 60.64624,45.81432 C60.64624,45.81432 61.00304,46.13912 60.72544,46.49752 L56.81024,47.04392 C56.56304,46.69832 56.41664,46.27352 56.41664,45.81432" id="Fill-28" fill="#271F23"></path>
            <line x1="36.73776" y1="49.32216" x2="32.40896" y2="49.32216" id="Stroke-30" stroke="#7EA3FF" stroke-width="0.8" stroke-linecap="round" stroke-linejoin="round"></line>
            <line x1="56.79712" y1="47.40656" x2="60.73152" y2="47.04416" id="Stroke-32" stroke="#7EA3FF" stroke-width="0.8" stroke-linecap="round" stroke-linejoin="round"></line>
            <path d="M39.01504,58.30656 C39.01504,58.30656 38.52144,57.83136 35.57504,62.70656 C32.29744,68.13296 32.37104,73.43936 32.37104,73.43936" id="Stroke-34" stroke="#71748D" stroke-width="0.8" stroke-linecap="round" stroke-linejoin="round"></path>
            <path d="M39.01504,62.70656 C39.01504,62.70656 39.54864,62.04096 40.08144,62.70656" id="Stroke-36" stroke="#71748D" stroke-width="0.8" stroke-linecap="round" stroke-linejoin="round"></path>
            <path d="M47.48152,63.30656 C47.48152,63.30656 49.81512,61.23936 51.54792,61.03936" id="Stroke-38" stroke="#71748D" stroke-width="0.8" stroke-linecap="round" stroke-linejoin="round"></path>
            <path d="M36.43536,71.60808 C36.43536,71.60808 37.45856,73.20168 38.65776,73.26888 C39.85776,73.33608 44.48176,76.17208 46.28176,75.90648 C48.08176,75.63928 52.21536,73.40328 54.48176,73.26888 C54.48176,73.26888 57.82256,73.43928 58.74816,71.63928" id="Stroke-40" stroke="#7EA3FF" stroke-width="0.8" stroke-linecap="round" stroke-linejoin="round"></path>
            <path d="M33.68152,85.10656 C33.68152,85.10656 35.94792,94.57376 47.48152,93.10656 C59.01512,91.63936 64.01512,87.64096 64.38152,86.30656 C64.74872,84.97376 67.41512,78.90976 67.41512,77.67536" id="Stroke-42" stroke="#BCD4F9" stroke-width="0.8" stroke-linecap="round" stroke-linejoin="round"></path>
            <path d="M81.48152,49.05656 C81.48152,49.05656 81.54872,53.77256 79.94872,55.23976 C78.34872,56.70696 81.28152,57.77336 81.48152,56.17336" id="Stroke-44" stroke="#71748D" stroke-width="0.8" stroke-linecap="round" stroke-linejoin="round"></path>
            <line x1="36.46584" y1="13.77376" x2="34.08184" y2="11.30576" id="Stroke-46" stroke="#271F23" stroke-width="0.8" stroke-linecap="round" stroke-linejoin="round"></line>
            <line x1="37.88152" y1="13.77376" x2="36.83192" y2="11.30576" id="Stroke-48" stroke="#271F23" stroke-width="0.8" stroke-linecap="round" stroke-linejoin="round"></line>
            <line x1="40.08152" y1="13.77376" x2="39.38152" y2="11.30576" id="Stroke-50" stroke="#271F23" stroke-width="0.8" stroke-linecap="round" stroke-linejoin="round"></line>
            <line x1="53.68152" y1="11.30576" x2="54.52392" y2="8.27936" id="Stroke-52" stroke="#271F23" stroke-width="0.8" stroke-linecap="round" stroke-linejoin="round"></line>
            <line x1="51.54792" y1="12.53936" x2="52.18152" y2="8.27936" id="Stroke-54" stroke="#271F23" stroke-width="0.8" stroke-linecap="round" stroke-linejoin="round"></line>
            <line x1="49.51432" y1="12.53936" x2="49.51432" y2="8.97376" id="Stroke-56" stroke="#271F23" stroke-width="0.8" stroke-linecap="round" stroke-linejoin="round"></line>
            <line x1="56.88152" y1="10.40888" x2="57.50152" y2="7.23928" id="Stroke-58" stroke="#271F23" stroke-width="0.8" stroke-linecap="round" stroke-linejoin="round"></line>
            <line x1="59.03152" y1="9.79248" x2="59.03152" y2="7.23968" id="Stroke-60" stroke="#271F23" stroke-width="0.8" stroke-linecap="round" stroke-linejoin="round"></line>
            <line x1="65.68152" y1="47.90968" x2="68.61512" y2="46.49688" id="Stroke-62" stroke="#71748D" stroke-width="0.8" stroke-linecap="round" stroke-linejoin="round"></line>
            <path d="M40.88152,69.27376 C39.13512,69.33136 37.00952,69.01936 36.43512,71.60816" id="Stroke-64" stroke="#BCD4F9" stroke-width="0.8" stroke-linecap="round" stroke-linejoin="round"></path>
            <path d="M57.44872,71.60808 C59.41432,70.77368 59.90872,69.71448 58.25912,68.71128 C56.28392,67.50968 53.94232,67.51928 51.54712,67.88488" id="Stroke-66" stroke="#BCD4F9" stroke-width="0.8" stroke-linecap="round" stroke-linejoin="round"></path>
            <path d="M58.38464,72.27376 L60.14784,71.23936 L59.41424,70.77376 C59.41424,70.77376 59.19264,71.80016 57.94784,71.90656 C57.08144,71.98016 57.50144,70.44096 47.54784,71.90656 C41.13904,72.85056 36.51904,72.40816 36.43504,71.60816 C36.35184,70.80816 35.21424,74.10656 35.21424,74.10656" id="Stroke-68" stroke="#7EA3FF" stroke-width="0.8" stroke-linecap="round" stroke-linejoin="round"></path>
            <line x1="43.28152" y1="79.50656" x2="50.54792" y2="79.30176" id="Stroke-70" stroke="#BCD4F9" stroke-width="0.8" stroke-linecap="round" stroke-linejoin="round"></line>
            <path d="M41.68152,62.70656 C41.68152,62.70656 42.78152,64.50656 43.68152,64.50656 L45.88152,64.50656" id="Stroke-72" stroke="#BCD4F9" stroke-width="0.8" stroke-linecap="round" stroke-linejoin="round"></path>
            <path d="M51.54712,47.20344 C51.54712,47.20344 50.08152,47.77224 48.68152,44.04104 C47.60792,41.17864 47.48152,42.90664 47.48152,42.90664 C47.48152,42.90664 47.75832,45.07384 47.68152,45.79704 C46.91512,53.01304 49.04792,55.92664 49.04792,55.92664 C49.04792,55.92664 49.31352,59.03304 50.48072,56.73304 L52.81512,57.13944 L54.34872,57.80664 C54.34872,57.80664 51.08152,54.13784 51.08152,51.22664 C51.08152,48.31624 51.54712,47.20344 51.54712,47.20344" id="Fill-74" fill="#BCD4F9"></path>
            <line x1="50.54792" y1="74.10656" x2="50.54792" y2="73.43936" id="Stroke-76" stroke="#7EA3FF" stroke-width="0.8" stroke-linecap="round" stroke-linejoin="round"></line>
            <line x1="53.4284" y1="73.43936" x2="53.4284" y2="72.43936" id="Stroke-78" stroke="#7EA3FF" stroke-width="0.8" stroke-linecap="round" stroke-linejoin="round"></line>
            <polygon id="Fill-80" fill="#271F23" points="56.68152 71.60808 55.81512 72.89688 57.01112 72.93928 58.38472 72.13928"></polygon>
            <polygon id="Stroke-82" stroke="#7EA3FF" stroke-width="0.8" stroke-linecap="round" stroke-linejoin="round" points="56.68152 71.60808 55.81512 72.89688 57.01112 72.93928 58.38472 72.13928"></polygon>
            <line x1="59.66352" y1="40.30656" x2="57.82272" y2="38.46496" id="Stroke-84" stroke="#271F23" stroke-width="0.8" stroke-linecap="round" stroke-linejoin="round"></line>
            <line x1="61.61352" y1="39.85656" x2="60.22312" y2="38.46536" id="Stroke-86" stroke="#271F23" stroke-width="0.8" stroke-linecap="round" stroke-linejoin="round"></line>
            <line x1="64.01352" y1="40.65656" x2="62.62312" y2="39.26616" id="Stroke-88" stroke="#271F23" stroke-width="0.8" stroke-linecap="round" stroke-linejoin="round"></line>
            <line x1="29.98152" y1="41.10656" x2="28.33112" y2="42.75696" id="Stroke-90" stroke="#271F23" stroke-width="0.8" stroke-linecap="round" stroke-linejoin="round"></line>
            <line x1="31.58152" y1="41.10656" x2="30.47032" y2="42.21776" id="Stroke-92" stroke="#271F23" stroke-width="0.8" stroke-linecap="round" stroke-linejoin="round"></line>
            <path d="M36.34864,9.23856 C37.66064,5.30496 37.43184,3.50576 42.48144,3.50576" id="Stroke-94" stroke="#271F23" stroke-width="0.8" stroke-linecap="round" stroke-linejoin="round"></path>
            <path d="M40.88152,8.70576 C41.58632,3.08096 46.52712,-0.03904 51.94872,2.97216" id="Stroke-96" stroke="#271F23" stroke-width="0.8" stroke-linecap="round" stroke-linejoin="round"></path>
            <path d="M51.81512,4.97216 C51.81512,-4.32224 62.57592,3.17856 64.61512,4.70576" id="Stroke-98" stroke="#271F23" stroke-width="0.8" stroke-linecap="round" stroke-linejoin="round"></path>
            <path d="M49.14864,58.30656 C49.14864,58.30656 50.88224,55.90656 52.94864,56.97376 C55.01504,58.03936 55.08224,61.44096 52.94864,61.50656" id="Stroke-100" stroke="#71748D" stroke-width="0.8" stroke-linecap="round" stroke-linejoin="round"></path>
            <path d="M49.14864,44.04088 C49.14864,44.04088 54.34784,42.44088 56.48144,41.64088 C58.61504,40.84088 66.74864,41.50808 67.81504,44.04088 C67.81504,44.04088 68.88144,41.90648 65.54864,40.70648 C62.21504,39.50648 54.54784,39.64088 52.18144,40.70648 C49.81504,41.77368 49.14864,44.04088 49.14864,44.04088" id="Fill-102" fill="#271F23"></path>
            <path d="M49.14864,44.04088 C49.14864,44.04088 54.34784,42.44088 56.48144,41.64088 C58.61504,40.84088 66.74864,41.50808 67.81504,44.04088 C67.81504,44.04088 68.88144,41.90648 65.54864,40.70648 C62.21504,39.50648 54.54784,39.64088 52.18144,40.70648 C49.81504,41.77368 49.14864,44.04088 49.14864,44.04088 Z" id="Stroke-104" stroke="#271F23" stroke-width="0.8" stroke-linecap="round" stroke-linejoin="round"></path>
            <g id="Group-108" transform="translate(40.000000, 104.421600)">
                <mask id="mask-4" fill="white">
                    <use xlink:href="#path-3"></use>
                </mask>
                <g id="Clip-107"></g>
                <polygon id="Fill-106" fill="#271F23" mask="url(#mask-4)" points="10.91504 0.48496 5.88144 11.75216 20.73184 41.66096 0.54864 42.40016 19.66384 11.48496 12.28144 0.48496"></polygon>
            </g>
            <path d="M125.48304,146.08232 C125.48304,146.08232 126.29344,109.74952 142.48784,111.37272" id="Stroke-109" stroke="#7EA3FF" stroke-width="0.8" stroke-linecap="round" stroke-linejoin="round"></path>
            <line x1="52.28152" y1="104.90656" x2="67.97912" y2="128.29696" id="Stroke-115" stroke="#7EA3FF" stroke-width="0.8" stroke-linecap="round" stroke-linejoin="round"></line>
            <line x1="39.54792" y1="129.14328" x2="50.91512" y2="104.90648" id="Stroke-117" stroke="#7EA3FF" stroke-width="0.8" stroke-linecap="round" stroke-linejoin="round"></line>
        </g>
    </g>
</svg>