<svg width="120" height="200" viewBox="0 0 120 200" fill="none" xmlns="http://www.w3.org/2000/svg">
<path d="M0 0H40L120 160V200H0V0Z" fill="#C5543B"/>
<mask id="mask0" mask-type="alpha" maskUnits="userSpaceOnUse" x="40" y="0" width="80" height="160">
<path d="M40 0L120 160H40V0Z" fill="#E48B8B"/>
</mask>
<g mask="url(#mask0)">
<path d="M40 0L120 160H40V0Z" fill="#EB6649"/>
<path d="M88 119.26L88 118.43L81.45 118.43L81.45 118.38C81.45 118.38 81.87 118.27 82.39 118.04L88 115.57L88 114.34L80.35 114.34L80.35 115.17L86.9 115.17L86.9 115.23C86.9 115.23 86.41 115.37 85.97 115.56L80.35 118.03L80.35 119.26L88 119.26ZM88 110.054L88 105.414L87.19 105.414L87.19 109.124L84.53 109.124L84.53 105.984L83.74 105.984L83.74 109.124L81.16 109.124L81.16 105.464L80.35 105.464L80.35 110.054L88 110.054ZM88 100.057L84.55 99.307C83.92 99.167 83.12 99.067 83.12 99.067L83.12 98.997C83.12 98.997 83.91 98.897 84.55 98.757L88 98.007L88 96.717L80.35 96.227L80.35 97.067L87.03 97.447L87.03 97.537C87.03 97.537 86.34 97.617 85.54 97.787L81.95 98.567L81.95 99.427L85.54 100.207C86.36 100.387 87.03 100.457 87.03 100.457L87.03 100.537L80.35 100.917L80.35 101.787L88 101.297L88 100.057ZM82.4 87.5405C81.15 87.6505 80.24 88.4405 80.24 90.0905C80.24 91.5905 81.13 92.5705 82.35 92.5705C83.56 92.5705 84.14 92.0105 84.43 90.6805L84.66 89.6105C84.85 88.7205 85.33 88.3605 86.01 88.3605C86.76 88.3605 87.41 88.7805 87.41 90.0505C87.41 91.2405 86.67 91.7505 85.85 91.8505L85.85 92.7905C87.2 92.7205 88.16 91.7505 88.16 90.0705C88.16 88.3205 87.28 87.4105 85.91 87.4105C84.77 87.4105 84.11 87.9605 83.81 89.3305L83.55 90.5005C83.39 91.2405 83.07 91.6505 82.29 91.6505C81.59 91.6505 81 91.1605 81 90.1005C81 89.0405 81.65 88.5605 82.4 88.4805L82.4 87.5405ZM88 83.1641L88 78.4341L87.19 78.4341L87.19 82.2341L80.35 82.2341L80.35 83.1641L88 83.1641ZM88 74.4676L88 69.8276L87.19 69.8276L87.19 73.5376L84.53 73.5376L84.53 70.3976L83.74 70.3976L83.74 73.5376L81.16 73.5376L81.16 69.8776L80.35 69.8776L80.35 74.4676L88 74.4676ZM80.35 60.5111L80.35 66.3411L81.14 66.3411L81.14 63.8911L88 63.8911L88 62.9611L81.14 62.9611L81.14 60.5111L80.35 60.5111ZM80.35 51.6146L80.35 57.4446L81.14 57.4446L81.14 54.9946L88 54.9946L88 54.0646L81.14 54.0646L81.14 51.6146L80.35 51.6146ZM88 47.7781L88 43.1381L87.19 43.1381L87.19 46.8481L84.53 46.8481L84.53 43.7081L83.74 43.7081L83.74 46.8481L81.16 46.8481L81.16 43.1881L80.35 43.1881L80.35 47.7781L88 47.7781ZM83.99 38.0916L81.11 38.0916L81.11 36.6016C81.11 35.7216 81.56 35.1016 82.5 35.1016C83.55 35.1016 83.99 35.7416 83.99 36.6416L83.99 38.0916ZM88 35.1016L88 34.0516L84.63 35.7416L84.61 35.7416C84.43 35.0416 83.86 34.1316 82.49 34.1316C81.61 34.1316 81.02 34.4816 80.69 35.0916C80.46 35.5116 80.35 36.0116 80.35 36.5716L80.35 39.0216L88 39.0216L88 38.0916L84.76 38.0916L84.76 36.6816L88 35.1016Z" fill="black"/>
</g>
</svg>
