<svg width="120" height="200" viewBox="0 0 120 200" fill="none" xmlns="http://www.w3.org/2000/svg">
<path d="M0 0L120 200H0V0Z" fill="#C5543B"/>
<path d="M41.24 156.87L41.24 156.79C41.24 156.79 42.05 156.61 42.52 156.48L44.97 155.8L44.97 157.87L42.52 157.19C42.08 157.07 41.3 156.88 41.24 156.87ZM48 154.95L48 153.95L40.35 156.2L40.35 157.42L48 159.65L48 158.71L45.72 158.08L45.72 155.59L48 154.95ZM43.99 149.264L41.11 149.264L41.11 147.774C41.11 146.894 41.56 146.274 42.5 146.274C43.55 146.274 43.99 146.914 43.99 147.814L43.99 149.264ZM48 146.274L48 145.224L44.63 146.914L44.61 146.914C44.43 146.214 43.86 145.304 42.49 145.304C41.61 145.304 41.02 145.654 40.69 146.264C40.46 146.684 40.35 147.184 40.35 147.744L40.35 150.194L48 150.194L48 149.264L44.76 149.264L44.76 147.854L48 146.274ZM42.64 136.317C40.96 136.477 40.24 137.567 40.24 138.807C40.24 140.597 41.54 141.647 44.2 141.647C47.04 141.647 48.16 140.627 48.16 138.837C48.16 137.327 47.06 136.437 45.62 136.337L45.62 137.247C46.49 137.327 47.4 137.697 47.4 138.827C47.4 140.127 46.43 140.677 44.2 140.677C42 140.677 40.99 140.137 40.99 138.817C40.99 137.767 41.86 137.357 42.64 137.257L42.64 136.317ZM44.54 131.631L44.54 128.591L48 128.591L48 127.661L40.35 127.661L40.35 128.591L43.75 128.591L43.75 131.631L40.35 131.631L40.35 132.561L48 132.561L48 131.631L44.54 131.631ZM41.1 120.754L41.1 119.014L40.35 119.014L40.35 123.414L41.1 123.414L41.1 121.674L47.25 121.674L47.25 123.414L48 123.414L48 119.014L47.25 119.014L47.25 120.754L41.1 120.754ZM40.35 109.508L40.35 110.438L45.9 111.938C46.36 112.058 47.14 112.248 47.14 112.248L47.14 112.328C47.14 112.328 46.37 112.498 45.9 112.628L40.35 114.138L40.35 115.128L48 112.948L48 111.668L40.35 109.508ZM48 105.571L48 100.931L47.19 100.931L47.19 104.641L44.53 104.641L44.53 101.501L43.74 101.501L43.74 104.641L41.16 104.641L41.16 100.981L40.35 100.981L40.35 105.571L48 105.571Z" fill="black"/>
</svg>
