<svg width="120" height="200" viewBox="0 0 120 200" fill="none" xmlns="http://www.w3.org/2000/svg">
<path d="M0 0H40L120 160V200H0V0Z" fill="#EB6649"/>
<mask id="mask0" mask-type="alpha" maskUnits="userSpaceOnUse" x="40" y="0" width="80" height="160">
<path d="M40 0L120 160H40V0Z" fill="#E48B8B"/>
</mask>
<g mask="url(#mask0)">
<path d="M40 0L120 160H40V0Z" fill="#C5543B"/>
<path d="M81.24 116.87L81.24 116.79C81.24 116.79 82.05 116.61 82.52 116.48L84.97 115.8L84.97 117.87L82.52 117.19C82.08 117.07 81.3 116.88 81.24 116.87ZM88 114.95L88 113.95L80.35 116.2L80.35 117.42L88 119.65L88 118.71L85.72 118.08L85.72 115.59L88 114.95ZM83.99 109.264L81.11 109.264L81.11 107.774C81.11 106.894 81.56 106.274 82.5 106.274C83.55 106.274 83.99 106.914 83.99 107.814L83.99 109.264ZM88 106.274L88 105.224L84.63 106.914L84.61 106.914C84.43 106.214 83.86 105.304 82.49 105.304C81.61 105.304 81.02 105.654 80.69 106.264C80.46 106.684 80.35 107.184 80.35 107.744L80.35 110.194L88 110.194L88 109.264L84.76 109.264L84.76 107.854L88 106.274ZM82.64 96.317C80.96 96.477 80.24 97.567 80.24 98.807C80.24 100.597 81.54 101.647 84.2 101.647C87.04 101.647 88.16 100.627 88.16 98.837C88.16 97.327 87.06 96.437 85.62 96.337L85.62 97.247C86.49 97.327 87.4 97.697 87.4 98.827C87.4 100.127 86.43 100.677 84.2 100.677C82 100.677 80.99 100.137 80.99 98.817C80.99 97.767 81.86 97.357 82.64 97.257L82.64 96.317ZM84.54 91.6305L84.54 88.5905L88 88.5905L88 87.6605L80.35 87.6605L80.35 88.5905L83.75 88.5905L83.75 91.6305L80.35 91.6305L80.35 92.5605L88 92.5605L88 91.6305L84.54 91.6305ZM81.1 80.7541L81.1 79.0141L80.35 79.0141L80.35 83.4141L81.1 83.4141L81.1 81.6741L87.25 81.6741L87.25 83.4141L88 83.4141L88 79.0141L87.25 79.0141L87.25 80.7541L81.1 80.7541ZM80.35 69.5076L80.35 70.4376L85.9 71.9376C86.36 72.0576 87.14 72.2476 87.14 72.2476L87.14 72.3276C87.14 72.3276 86.37 72.4976 85.9 72.6276L80.35 74.1376L80.35 75.1276L88 72.9476L88 71.6676L80.35 69.5076ZM88 65.5711L88 60.9311L87.19 60.9311L87.19 64.6411L84.53 64.6411L84.53 61.5011L83.74 61.5011L83.74 64.6411L81.16 64.6411L81.16 60.9811L80.35 60.9811L80.35 65.5711L88 65.5711Z" fill="black"/>
</g>
</svg>
