<?xml version="1.0" encoding="UTF-8"?>
<svg width="90px" height="29px" viewBox="0 0 90 29" version="1.1" xmlns="http://www.w3.org/2000/svg" xmlns:xlink="http://www.w3.org/1999/xlink">
    <title>Group</title>
    <g id="Page-2" stroke="none" stroke-width="1" fill="none" fill-rule="evenodd">
        <g id="Desktop-L1-Copy-6" transform="translate(-149.000000, -40.000000)" fill="#FFFFFF">
            <g id="Group" transform="translate(149.000000, 40.000000)">
                <polygon id="Fill-1" points="-2.21613204e-14 0.365746357 -2.21613204e-14 3.0609165 6.80508629 3.0609165 6.80508629 25.3433739 -2.21613204e-14 25.3433739 -2.21613204e-14 28.1508255 17.1919501 28.1508255 17.1919501 25.3433739 10.1369337 25.3433739 10.1369337 0.365746357"></polygon>
                <path d="M56.1855021,1.47914696e-14 C61.7638098,1.47914696e-14 64.9833758,3.29442029 64.9833758,7.449249 C64.9833758,10.8563666 62.7743427,13.2521196 60.453444,14.0006624 L60.453444,14.0755167 C62.849197,14.6369239 65.76893,16.7332597 65.76893,20.9263473 C65.76893,25.381009 62.4374984,28.6750134 56.1855021,28.7498677 C49.9339217,28.8251379 46.6395014,25.4554474 46.6395014,20.9263473 C46.6395014,16.7332597 49.6345045,14.6369239 51.9558191,14.0755167 L51.9558191,14.0006624 C49.6345045,13.2521196 47.4263031,10.8185236 47.4263031,7.449249 C47.4263031,3.29442029 50.6080261,1.47914696e-14 56.1855021,1.47914696e-14 Z M56.1855021,15.460321 C53.0412062,15.460321 50.1210574,17.1075311 50.1210574,20.7762229 C50.1210574,24.4449146 53.0037791,26.0551134 56.1855021,26.0551134 C59.5173495,26.0551134 62.325217,24.4449146 62.325217,20.7762229 C62.325217,17.1075311 59.4799224,15.460321 56.1855021,15.460321 Z M56.1855021,2.69517014 C53.3784664,2.69517014 50.9074432,4.30495314 50.9074432,7.749082 C50.9074432,11.1183566 53.4158935,12.802578 56.1855021,12.802578 C58.9189311,12.802578 61.4639768,11.1183566 61.4639768,7.749082 C61.4639768,4.30495314 58.9559424,2.69517014 56.1855021,2.69517014 Z" id="Path-5"></path>
                <path d="M31.870127,0.0651648143 C37.7187419,0.0651648143 41.4668623,3.96465724 41.4668623,12.6993207 C41.4668623,26.5806945 34.3802387,28.1274699 28.2724075,28.247444 L27.8880265,28.253226 C27.7603834,28.2545888 27.6332495,28.255421 27.5066998,28.2558244 L22.9949039,28.2561205 L22.9949039,25.4449262 L27.8056957,25.4446645 L27.8056957,25.4446645 L28.1095573,25.4422899 L28.1095573,25.4422899 L28.4194755,25.4368229 C32.5369822,25.3411959 38.0543386,24.2466735 38.0543386,14.4604757 L37.9050459,14.4604757 C36.705298,16.5588908 34.38232,17.7968975 31.2687976,17.7968975 C27.407564,17.7968975 22.758697,15.3595588 22.758697,9.13708839 C22.758697,3.92639839 26.5101443,0.0651648143 31.870127,0.0651648143 Z M31.7940252,2.91461796 C29.0194263,2.91461796 26.2078162,4.75062724 26.2078162,9.0622341 C26.2078162,12.9234677 28.7965269,15.0222987 31.870127,15.0222987 C35.2065489,15.0222987 37.6788196,12.9234677 37.6788196,9.0622341 C37.6788196,4.97643767 34.754928,2.91461796 31.7940252,2.91461796 Z" id="Path-4"></path>
                <polygon id="Fill-6" points="86.1895118 18.4764913 86.1895118 6.54929256 82.9662031 6.54929256 82.9662031 18.5197404 74.3205331 18.5197404 74.3205331 0.369239557 71.0972244 0.369239557 71.0972244 21.3259444 82.9662031 21.3259444 82.9662031 28.1480808 86.1895118 28.1480808 86.1895118 21.3259444 89.8249349 21.3259444 89.8249349 18.4764913"></polygon>
            </g>
        </g>
    </g>
</svg>