<svg width="120" height="200" viewBox="0 0 120 200" fill="none" xmlns="http://www.w3.org/2000/svg">
<path d="M0 0L120 200H0V0Z" fill="#EB6649"/>
<mask id="mask0" mask-type="alpha" maskUnits="userSpaceOnUse" x="0" y="0" width="120" height="200">
<path d="M0 0L120 200H0V0Z" fill="#EB6649"/>
</mask>
<g mask="url(#mask0)">
<path d="M48 159.26L48 158.43L41.45 158.43L41.45 158.38C41.45 158.38 41.87 158.27 42.39 158.04L48 155.57L48 154.34L40.35 154.34L40.35 155.17L46.9 155.17L46.9 155.23C46.9 155.23 46.41 155.37 45.97 155.56L40.35 158.03L40.35 159.26L48 159.26ZM48 150.054L48 145.414L47.19 145.414L47.19 149.124L44.53 149.124L44.53 145.984L43.74 145.984L43.74 149.124L41.16 149.124L41.16 145.464L40.35 145.464L40.35 150.054L48 150.054ZM48 140.057L44.55 139.307C43.92 139.167 43.12 139.067 43.12 139.067L43.12 138.997C43.12 138.997 43.91 138.897 44.55 138.757L48 138.007L48 136.717L40.35 136.227L40.35 137.067L47.03 137.447L47.03 137.537C47.03 137.537 46.34 137.617 45.54 137.787L41.95 138.567L41.95 139.427L45.54 140.207C46.36 140.387 47.03 140.457 47.03 140.457L47.03 140.537L40.35 140.917L40.35 141.787L48 141.297L48 140.057ZM42.4 127.541C41.15 127.651 40.24 128.441 40.24 130.091C40.24 131.591 41.13 132.571 42.35 132.571C43.56 132.571 44.14 132.011 44.43 130.681L44.66 129.611C44.85 128.721 45.33 128.361 46.01 128.361C46.76 128.361 47.41 128.781 47.41 130.051C47.41 131.241 46.67 131.751 45.85 131.851L45.85 132.791C47.2 132.721 48.16 131.751 48.16 130.071C48.16 128.321 47.28 127.411 45.91 127.411C44.77 127.411 44.11 127.961 43.81 129.331L43.55 130.501C43.39 131.241 43.07 131.651 42.29 131.651C41.59 131.651 41 131.161 41 130.101C41 129.041 41.65 128.561 42.4 128.481L42.4 127.541ZM48 123.164L48 118.434L47.19 118.434L47.19 122.234L40.35 122.234L40.35 123.164L48 123.164ZM48 114.468L48 109.828L47.19 109.828L47.19 113.538L44.53 113.538L44.53 110.398L43.74 110.398L43.74 113.538L41.16 113.538L41.16 109.878L40.35 109.878L40.35 114.468L48 114.468ZM40.35 100.511L40.35 106.341L41.14 106.341L41.14 103.891L48 103.891L48 102.961L41.14 102.961L41.14 100.511L40.35 100.511ZM40.35 91.6146L40.35 97.4446L41.14 97.4446L41.14 94.9946L48 94.9946L48 94.0646L41.14 94.0646L41.14 91.6146L40.35 91.6146ZM48 87.7781L48 83.1381L47.19 83.1381L47.19 86.8481L44.53 86.8481L44.53 83.7081L43.74 83.7081L43.74 86.8481L41.16 86.8481L41.16 83.1881L40.35 83.1881L40.35 87.7781L48 87.7781ZM43.99 78.0916L41.11 78.0916L41.11 76.6016C41.11 75.7216 41.56 75.1016 42.5 75.1016C43.55 75.1016 43.99 75.7416 43.99 76.6416L43.99 78.0916ZM48 75.1016L48 74.0516L44.63 75.7416L44.61 75.7416C44.43 75.0416 43.86 74.1316 42.49 74.1316C41.61 74.1316 41.02 74.4816 40.69 75.0916C40.46 75.5116 40.35 76.0116 40.35 76.5716L40.35 79.0216L48 79.0216L48 78.0916L44.76 78.0916L44.76 76.6816L48 75.1016Z" fill="black"/>
</g>
</svg>
