<?xml version="1.0" encoding="UTF-8"?>
<svg width="63px" height="20px" viewBox="0 0 63 20" version="1.1" xmlns="http://www.w3.org/2000/svg" xmlns:xlink="http://www.w3.org/1999/xlink">
    <title>Group</title>
    <g id="Page-2" stroke="none" stroke-width="1" fill="none" fill-rule="evenodd">
        <g id="iPhone-11-Pro-Copy" transform="translate(-40.000000, -29.000000)" fill="#FFFFFF">
            <g id="Group" transform="translate(40.000000, 29.000000)">
                <polygon id="Fill-1" points="-1.52836692e-14 0.252238867 -1.52836692e-14 2.1109769 4.69316296 2.1109769 4.69316296 17.4781889 -1.52836692e-14 17.4781889 -1.52836692e-14 19.4143624 11.8565173 19.4143624 11.8565173 17.4781889 6.99098877 17.4781889 6.99098877 0.252238867"></polygon>
                <path d="M38.7486221,9.40471565e-15 C42.5957309,9.40471565e-15 44.8161213,2.27201399 44.8161213,5.1374131 C44.8161213,7.48714936 43.2926501,9.13939281 41.6920303,9.65562926 L41.6920303,9.70725291 C43.3442738,10.0944302 45.3578827,11.5401791 45.3578827,14.4319636 C45.3578827,17.5041441 43.0603437,19.7758713 38.7486221,19.827495 C34.4371874,19.8794054 32.1651734,17.555481 32.1651734,14.4319636 C32.1651734,11.5401791 34.2306928,10.0944302 35.8315994,9.70725291 L35.8315994,9.65562926 C34.2306928,9.13939281 32.7077952,7.46105074 32.7077952,5.1374131 C32.7077952,2.27201399 34.902087,9.40471565e-15 38.7486221,9.40471565e-15 Z M38.7486221,10.6622903 C36.5801422,10.6622903 34.5662465,11.7982973 34.5662465,14.3284296 C34.5662465,16.8585618 36.5543304,17.9690437 38.7486221,17.9690437 C41.046448,17.9690437 42.9829082,16.8585618 42.9829082,14.3284296 C42.9829082,11.7982973 41.0206361,10.6622903 38.7486221,10.6622903 Z M38.7486221,1.85873803 C36.8127354,1.85873803 35.1085815,2.9689332 35.1085815,5.34419448 C35.1085815,7.66783212 36.8385473,8.82936414 38.7486221,8.82936414 C40.6337456,8.82936414 42.3889495,7.66783212 42.3889495,5.34419448 C42.3889495,2.9689332 40.6592706,1.85873803 38.7486221,1.85873803 Z" id="Path-5"></path>
                <path d="M21.979398,0.0449412512 C26.0129254,0.0449412512 28.5978361,2.73424637 28.5978361,8.75815219 C28.5978361,18.5865542 23.4466374,19.4490552 19.1630992,19.4856558 L18.8395331,19.4869797 L18.8395331,19.4869797 L15.8585544,19.4869797 L15.8585544,17.548225 L19.0732735,17.548225 C21.942401,17.548225 26.2443714,17.1490021 26.2443714,9.97274184 L26.141411,9.97274184 C25.3139986,11.4199247 23.7119448,12.2737224 21.564688,12.2737224 C18.9017683,12.2737224 15.6956531,10.5927992 15.6956531,6.30144027 C15.6956531,2.70786096 18.2828581,0.0449412512 21.979398,0.0449412512 Z M21.9269139,2.01008135 C20.0133975,2.01008135 18.074356,3.27629465 18.074356,6.24981662 C18.074356,8.91273633 19.8596737,10.360206 21.979398,10.360206 C24.2803785,10.360206 25.9853928,8.91273633 25.9853928,6.24981662 C25.9853928,3.43202598 23.9689159,2.01008135 21.9269139,2.01008135 Z" id="Path-4"></path>
                <polygon id="Fill-6" points="59.4410426 12.7424078 59.4410426 4.51675349 57.2180711 4.51675349 57.2180711 12.7722348 51.25554 12.7722348 51.25554 0.25464797 49.0325685 0.25464797 49.0325685 14.7075479 57.2180711 14.7075479 57.2180711 19.4124695 59.4410426 19.4124695 59.4410426 14.7075479 61.948231 14.7075479 61.948231 12.7424078"></polygon>
            </g>
        </g>
    </g>
</svg>